<?xml version="1.0" encoding="utf-8"?>
<!-- Generator: Adobe Illustrator 19.0.0, SVG Export Plug-In . SVG Version: 6.00 Build 0)  -->
<svg version="1.1" id="Layer_1" xmlns="http://www.w3.org/2000/svg" xmlns:xlink="http://www.w3.org/1999/xlink" x="0px" y="0px"
	 viewBox="-4196 3369.4 73.4 90.7" style="enable-background:new -4196 3369.4 73.4 90.7;" xml:space="preserve">
<style type="text/css">
	.st0{fill:#FD5F00;}
</style>
<g>
	<path class="st0" d="M-4142.9,3385.4h-50.3c-0.8,0-1.5-0.7-1.5-1.5c0-0.8,0.7-1.5,1.5-1.5h50.3c0.8,0,1.5,0.7,1.5,1.5
		C-4141.4,3384.7-4142.1,3385.4-4142.9,3385.4z"/>
	<path class="st0" d="M-4124.4,3385.4h-8c-0.8,0-1.5-0.7-1.5-1.5c0-0.8,0.7-1.5,1.5-1.5h8c0.8,0,1.5,0.7,1.5,1.5
		C-4122.9,3384.7-4123.6,3385.4-4124.4,3385.4z"/>
	<path class="st0" d="M-4124.9,3447h-51.3c-0.8,0-1.5-0.7-1.5-1.5s0.7-1.5,1.5-1.5h51.3c0.8,0,1.5,0.7,1.5,1.5
		S-4124.1,3447-4124.9,3447z"/>
	<path class="st0" d="M-4188.5,3447h-5.8c-0.8,0-1.5-0.7-1.5-1.5s0.7-1.5,1.5-1.5h5.8c0.8,0,1.5,0.7,1.5,1.5
		S-4187.6,3447-4188.5,3447z"/>
	<path class="st0" d="M-4128.3,3460l-3.6-1.9l-3.5,1.8l-4.4-1.8l-3.9,1.9l-3.9-1.9l-3.7,1.9l-4.1-1.9l-4,1.9l-4.2-2l-3.7,2l-3.9-1.9
		l-3.3,1.8l-4-1.9l-4.2,1.9l-4.1-1.9l-4,1.9l-5.1-2.6l0-13.1l2-8.1v-6.8l-0.1-36.3l-1.8-9.4l-0.1-11.5l5.2-2.7l3.6,1.9l3.5-1.8
		l4.4,1.9l3.8-1.9l3.9,1.9l3.7-1.9l4.1,1.9l4-1.9l4.2,2l3.7-2l3.9,1.9l3.3-1.8l4,1.9l4.2-1.9l4.1,1.9l4-1.9l5.1,2.6l0,12.8l-2,8.1
		l0,43.1l1.8,9.4l0,11.8L-4128.3,3460z M-4186.7,3454.7l4.2,1.9l4.2-1.9l3.9,1.8l3.4-1.9l3.9,1.9l3.7-2l4.3,2l4-1.9l4,1.9l3.7-1.9
		l3.9,1.9l3.8-1.8l4.3,1.8l3.6-1.9l3.6,1.9l2.2-1.1l0-9.8l-1.8-9.4l-0.1-43.6l2-8.2V3374l-2.1-1.1l-3.9,1.9l-4.2-1.9l-4.2,1.9
		l-3.9-1.8l-3.4,1.9l-3.9-1.9l-3.7,2l-4.3-2l-4,1.9l-4-1.9l-3.7,1.9l-3.9-1.9l-3.8,1.8l-4.3-1.8l-3.6,1.9l-3.6-1.9l-2.2,1.1l0,9.5
		l1.8,9.4l0.1,43.6l-2,8.3v10.7l2.1,1.1L-4186.7,3454.7z M-4124.4,3384.6L-4124.4,3384.6L-4124.4,3384.6z"/>
</g>
</svg>
