<?xml version="1.0" encoding="utf-8"?>
<!-- Generator: Adobe Illustrator 19.0.0, SVG Export Plug-In . SVG Version: 6.00 Build 0)  -->
<svg version="1.1" id="Layer_1" xmlns="http://www.w3.org/2000/svg" xmlns:xlink="http://www.w3.org/1999/xlink" x="0px" y="0px"
	 viewBox="-4198.9 3359.3 80.3 100.5" style="enable-background:new -4198.9 3359.3 80.3 100.5;" xml:space="preserve">
<style type="text/css">
	.st0{fill:#FD5F00;}
</style>
<g>
	<path class="st0" d="M-4140.7,3376.6h-56.5c-0.8,0-0.5-0.7-0.5-1.5c0-0.8-0.3-1.5,0.5-1.5h56.5c0.8,0,1.5,0.7,1.5,1.5
		C-4139.2,3375.9-4139.9,3376.6-4140.7,3376.6z"/>
	<path class="st0" d="M-4120.3,3376.6h-8.8c-0.8,0-1.5-0.7-1.5-1.5c0-0.8,0.7-1.5,1.5-1.5h8.8c0.8,0,1.5,0.7,1.5,1.5
		C-4118.8,3375.9-4119.5,3376.6-4120.3,3376.6z"/>
	<path class="st0" d="M-4120.9,3445.5h-56.5c-0.8,0-1.5-0.7-1.5-1.5c0-0.8,0.7-1.5,1.5-1.5h56.5c0.8,0,1.5,0.7,1.5,1.5
		C-4119.4,3444.8-4120,3445.5-4120.9,3445.5z"/>
	<path class="st0" d="M-4190.8,3445.5h-6.3c-0.8,0-1.5-0.7-1.5-1.5c0-0.8,0.7-1.5,1.5-1.5h6.3c0.8,0,1.5,0.7,1.5,1.5
		C-4189.3,3444.8-4190,3445.5-4190.8,3445.5z"/>
	<path class="st0" d="M-4124.6,3459.8l-4-2.1l-3.8,2l-4.8-2l-4.2,2l-4.3-2l-4.1,2l-4.5-2.1l-4.4,2.1l-4.6-2.2l-4.1,2.2l-4.3-2.1
		l-3.7,2l-4.4-2.1l-4.6,2.1l-4.5-2.1l-4.4,2.1l-5.4-2.8l0-14.3l2.2-8.9v-7.6l0-41l-2-10.3l0-12.5l5.6-2.9l4,2.1l3.8-2l4.8,2l4.2-2
		l4.3,2l4.1-2l4.4,2.1l4.4-2.1l4.6,2.2l4.1-2.2l4.3,2.1l3.7-2l4.4,2.1l4.6-2.1l4.5,2.1l4.4-2.1l5.4,2.8l0,13.9l-2.2,8.9l0.1,48.5
		l2,10.3l0.1,12.9L-4124.6,3459.8z M-4188.8,3454.3l4.6,2.1l4.6-2.1l4.3,2l3.7-2l4.3,2.1l4.1-2.2l4.7,2.2l4.4-2.1l4.4,2.1l4.1-2.1
		l4.3,2.1l4.2-2l4.7,2l4-2.1l4,2.1l2.5-1.3l0-10.9l-2-10.3l0-49l2.2-9.1v-11.6l-2.5-1.3l-4.3,2.1l-4.6-2.2l-4.6,2.1l-4.3-2l-3.7,2
		l-4.3-2.1l-4.1,2.2l-4.7-2.2l-4.4,2.1l-4.4-2.1l-4.1,2.1l-4.3-2.1l-4.2,2l-4.7-2l-4,2.1l-4-2.1l-2.5,1.3l0,10.6l2,10.3l0.1,49
		l-2.2,9.1v11.9l2.5,1.3L-4188.8,3454.3z M-4120.3,3375.9L-4120.3,3375.9L-4120.3,3375.9z"/>
</g>
</svg>
