<?xml version="1.0" encoding="utf-8"?>
<!-- Generator: Adobe Illustrator 24.2.0, SVG Export Plug-In . SVG Version: 6.00 Build 0)  -->
<svg version="1.1" id="Layer_1" xmlns="http://www.w3.org/2000/svg" xmlns:xlink="http://www.w3.org/1999/xlink" x="0px" y="0px"
	 viewBox="0 0 534 470" style="enable-background:new 0 0 534 470;" xml:space="preserve">
<style type="text/css">
	.st0{fill:#FD5F00;}
</style>
<g>
	<path class="st0" d="M509,251.87c0-4.14,3.37-7.48,7.51-7.48c4.14,0,7.48,3.35,7.48,7.48V436.8c0,4.14-3.35,7.51-7.48,7.51H219.92
		c-4.17,0-7.51-3.37-7.51-7.51v-8.9h-96.15c-4.14,0-7.48-3.35-7.48-7.48v-4.85H19.51c-4.14,0-7.51-3.34-7.51-7.48V251.87
		c0-4.14,3.37-7.48,7.51-7.48c4.14,0,7.48,3.35,7.48,7.48v148.71h81.75v-28.26h-48.9c-4.14,0-7.48-3.37-7.48-7.51
		s3.35-7.51,7.48-7.51h48.9v-28.32h-48.9c-4.14,0-7.48-3.35-7.48-7.48c0-4.14,3.35-7.51,7.48-7.51h48.9v-28.32h-48.9
		c-4.14,0-7.48-3.34-7.48-7.48c0-4.17,3.35-7.51,7.48-7.51h48.9v-23.7h-48.9c-4.14,0-7.48-3.37-7.48-7.51V200.1
		c0-10.09,4.11-19.27,10.77-25.91c5.33-5.33,12.27-9.04,20.01-10.29c-3.37-5.73-5.33-12.36-5.33-19.45V111.3
		c0-6.83,2.81-13.04,7.28-17.52c4.51-4.51,10.71-7.29,17.55-7.29h6.09V69.2H27v148.71c0,4.14-3.34,7.48-7.48,7.48
		c-4.14,0-7.51-3.35-7.51-7.48V61.69c0-4.14,3.37-7.48,7.51-7.48h89.26v-4.85c0-4.14,3.35-7.48,7.48-7.48h96.15v-8.9
		c0-4.14,3.35-7.51,7.51-7.51h218.72c2.07,0,3.97,0.85,5.33,2.24l77.84,77.84c1.45,1.45,2.18,3.38,2.18,5.3v107.06
		c0,4.14-3.35,7.48-7.48,7.48c-4.14,0-7.51-3.35-7.51-7.48v-99.58h-70.36c-4.14,0-7.51-3.35-7.51-7.48V40.46H227.41v388.86H509
		L509,251.87z M108.75,128.67c-0.11-0.08-0.23-0.2-0.34-0.28c-3.8,2.01-9.18,4.02-15.59,3.91v12.16c0,6.44,2.67,12.27,6.89,16.53
		c2.52,2.52,5.61,4.48,9.04,5.64L108.75,128.67L108.75,128.67z M92.82,117.36c4.28,0.17,8.39-1.42,11.59-4.2
		c1.25-1.08,2.81-1.67,4.34-1.79v-9.89h-6.09c-2.69,0-5.16,1.11-6.94,2.89c-1.79,1.79-2.89,4.22-2.89,6.92V117.36z M212.41,120.88
		c-0.28-0.23-0.57-0.45-0.85-0.71c-4.08,2.24-10.09,4.54-17.29,4.28V138c0,7.06,2.89,13.46,7.54,18.11
		c2.92,2.92,6.55,5.16,10.6,6.41L212.41,120.88L212.41,120.88z M194.27,109.48c4.71,0.34,9.75-1.45,13.27-4.56
		c1.42-1.22,3.15-1.82,4.88-1.82V91.45h-7.09c-3.03,0-5.78,1.25-7.79,3.26c-2.01,2.01-3.26,4.76-3.26,7.8L194.27,109.48z
		 M98.34,178.42h-9.3c-5.95,0-11.37,2.44-15.31,6.38c-3.94,3.94-6.38,9.35-6.38,15.31v31.86h12.47v-20.64
		c0-4.14,3.37-7.48,7.51-7.48s7.48,3.34,7.48,7.48v20.64h13.92v-49.83C105.06,181.4,101.58,180.15,98.34,178.42L98.34,178.42z
		 M212.41,177.94c-4.11-0.77-7.99-2.15-11.57-4.08h-10.09c-6.52,0-12.47,2.69-16.78,7c-4.31,4.31-6.97,10.23-6.97,16.75v34.67h14.43
		v-22.62c0-4.14,3.35-7.48,7.51-7.48c4.14,0,7.48,3.34,7.48,7.48v22.62h15.99V177.94z M185.31,159.26
		c-3.83-6.21-6.04-13.46-6.04-21.26v-35.49c0-7.17,2.92-13.69,7.65-18.4c4.71-4.73,11.23-7.65,18.4-7.65h7.09V56.87h-88.64V412.9
		h88.64v-31.35h-52.92c-4.14,0-7.48-3.34-7.48-7.51c0-4.14,3.35-7.48,7.48-7.48h52.92v-31.41h-52.92c-4.14,0-7.48-3.37-7.48-7.51
		s3.35-7.48,7.48-7.48h52.92v-31.41h-52.92c-4.14,0-7.48-3.37-7.48-7.51s3.35-7.48,7.48-7.48h52.92v-26.48h-52.92
		c-4.14,0-7.48-3.34-7.48-7.48v-42.18c0-10.66,4.34-20.35,11.37-27.35C169.18,164.44,176.81,160.45,185.31,159.26L185.31,159.26z
		 M361.29,119.37c-9.72,1.25-24.83,0.79-37.56-10.15c-4.54,2.55-11.37,5.22-19.56,4.76v15.45c0,7.85,3.2,15,8.39,20.18
		s12.3,8.39,20.15,8.39c7.85,0,15-3.2,20.18-8.39c5.16-5.19,8.39-12.33,8.39-20.18L361.29,119.37L361.29,119.37z M304.17,98.99
		c5.47,0.6,11.42-1.42,15.53-5.07c3.12-2.69,7.85-2.35,10.55,0.77c9.98,11.45,23.73,10.97,31.04,9.64V90.8
		c0-3.49-1.45-6.66-3.74-8.96c-2.3-2.29-5.47-3.74-8.96-3.74h-31.75c-3.49,0-6.63,1.45-8.96,3.74c-2.3,2.3-3.71,5.47-3.71,8.96
		L304.17,98.99L304.17,98.99z M376.29,129.44c0,8.7-2.58,16.84-7,23.64c9.5,1.13,18.06,5.47,24.52,11.94
		c7.51,7.51,12.19,17.88,12.19,29.31v45.9c0,4.14-3.37,7.51-7.51,7.51c-43.82,0-87.68,0-131.5,0c-4.17,0-7.51-3.38-7.51-7.51v-45.9
		c0-11.42,4.68-21.8,12.19-29.31c6.46-6.46,14.99-10.8,24.52-11.94c-4.45-6.8-7.03-14.94-7.03-23.64V90.8
		c0-7.63,3.12-14.54,8.14-19.56c5.02-5.02,11.93-8.14,19.56-8.14h31.75c7.63,0,14.57,3.12,19.56,8.14
		c5.02,5.02,8.14,11.93,8.14,19.56L376.29,129.44z M353.3,167.82c-6.12,3.32-13.13,5.19-20.58,5.19c-7.43,0-14.43-1.87-20.58-5.19
		H301c-7.29,0-13.92,2.98-18.74,7.8c-4.82,4.79-7.8,11.42-7.8,18.71v38.38h17.04v-25.26c0-4.17,3.35-7.51,7.51-7.51
		c4.14,0,7.48,3.35,7.48,7.51v25.26h52.44v-25.26c0-4.17,3.37-7.51,7.51-7.51s7.48,3.35,7.48,7.51v25.26h17.04v-38.38
		c0-7.29-2.98-13.92-7.8-18.71c-4.79-4.82-11.42-7.8-18.71-7.8H353.3z M266.98,393.85c-4.17,0-7.51-3.34-7.51-7.51
		c0-4.14,3.35-7.48,7.51-7.48h151.85c4.14,0,7.48,3.34,7.48,7.48c0,4.17-3.35,7.51-7.48,7.51H266.98z M266.98,343.34
		c-4.17,0-7.51-3.34-7.51-7.48c0-4.17,3.35-7.51,7.51-7.51h202.48c4.14,0,7.48,3.34,7.48,7.51c0,4.14-3.35,7.48-7.48,7.48H266.98z
		 M266.98,292.83c-4.17,0-7.51-3.34-7.51-7.48s3.35-7.51,7.51-7.51h202.48c4.14,0,7.48,3.37,7.48,7.51s-3.35,7.48-7.48,7.48H266.98z
		 M498.4,103.33l-52.27-52.27v52.27H498.4z"/>
</g>
</svg>
