<?xml version="1.0" encoding="utf-8"?>
<!-- Generator: Adobe Illustrator 24.2.0, SVG Export Plug-In . SVG Version: 6.00 Build 0)  -->
<svg version="1.1" id="Layer_1" xmlns="http://www.w3.org/2000/svg" xmlns:xlink="http://www.w3.org/1999/xlink" x="0px" y="0px"
	 viewBox="0 0 92.96 115.52" style="enable-background:new 0 0 92.96 115.52;" xml:space="preserve">
<style type="text/css">
	.st0{fill:#FD5F00;}
</style>
<g>
	<path class="st0" d="M67.02,21.4H4c-0.83,0-0.78-0.67-0.78-1.5S3.17,18.4,4,18.4h63.02c0.83,0,1.5,0.67,1.5,1.5
		S67.85,21.4,67.02,21.4z"/>
	<path class="st0" d="M89.74,21.4h-9.87c-0.83,0-1.5-0.67-1.5-1.5s0.67-1.5,1.5-1.5h9.87c0.83,0,1.5,0.67,1.5,1.5
		S90.57,21.4,89.74,21.4z"/>
	<path class="st0" d="M89.14,99.55H26.11c-0.83,0-1.5-0.67-1.5-1.5s0.67-1.5,1.5-1.5h63.03c0.83,0,1.5,0.67,1.5,1.5
		S89.97,99.55,89.14,99.55z"/>
	<path class="st0" d="M11.07,99.55H4c-0.83,0-1.5-0.67-1.5-1.5s0.67-1.5,1.5-1.5h7.07c0.83,0,1.5,0.67,1.5,1.5
		S11.9,99.55,11.07,99.55z"/>
	<path class="st0" d="M85,115.52l-4.42-2.38l-4.26,2.26l-5.34-2.27l-4.72,2.28l-4.76-2.29l-4.57,2.29l-4.97-2.31l-4.95,2.36
		l-5.14-2.41l-4.55,2.45l-4.78-2.33l-4.09,2.25l-4.93-2.31l-5.16,2.34l-5.07-2.38l-4.91,2.34L2.5,112.4l0.04-15.79l2.45-9.94v-8.45
		L4.93,31.18l-2.2-11.49L2.68,5.8l6.06-3.12l4.42,2.37l4.27-2.26l5.34,2.27l4.72-2.28l4.76,2.29l4.57-2.29l4.97,2.31l4.95-2.36
		l5.14,2.41l4.55-2.45l4.78,2.33l4.09-2.25l4.93,2.31l5.16-2.34l5.07,2.38l4.91-2.34l5.89,3.02L91.2,21.18l-2.45,9.94v8.85
		l0.06,46.65l2.2,11.49l0.05,14.29L85,115.52z M13.28,109.76l5.11,2.4l5.16-2.34l4.79,2.25l4.11-2.27l4.8,2.33l4.53-2.43l5.22,2.45
		l4.95-2.36l4.93,2.29l4.59-2.31l4.78,2.31l4.64-2.24l5.28,2.25l4.42-2.34l4.44,2.39l3.02-1.56l-0.04-12.31l-2.2-11.5l-0.06-56
		l2.49-10.12V7.63l-2.93-1.5l-4.85,2.32l-5.11-2.4l-5.16,2.34l-4.79-2.25L61.28,8.4l-4.8-2.33L51.96,8.5l-5.22-2.45l-4.95,2.36
		l-4.93-2.29l-4.59,2.31l-4.78-2.31l-4.64,2.24l-5.28-2.25l-4.42,2.34L8.71,6.07L5.68,7.63l0.05,11.91l2.2,11.49l0.06,56L5.5,97.16
		v13.41l2.93,1.5L13.28,109.76z M89.74,20.82L89.74,20.82L89.74,20.82z"/>
</g>
</svg>
