<?xml version="1.0" encoding="utf-8"?>
<!-- Generator: Adobe Illustrator 19.0.0, SVG Export Plug-In . SVG Version: 6.00 Build 0)  -->
<svg version="1.1" id="Layer_1" xmlns="http://www.w3.org/2000/svg" xmlns:xlink="http://www.w3.org/1999/xlink" x="0px" y="0px"
	 viewBox="-4203.2 3345.5 89.1 113.7" style="enable-background:new -4203.2 3345.5 89.1 113.7;" xml:space="preserve">
<style type="text/css">
	.st0{fill:#FD5F00;}
</style>
<g>
	<path class="st0" d="M-4138.5,3364.7h-63c-0.8,0-0.8-0.7-0.8-1.5c0-0.8,0-1.5,0.8-1.5h63c0.8,0,1.5,0.7,1.5,1.5
		C-4137,3364-4137.7,3364.7-4138.5,3364.7z"/>
	<path class="st0" d="M-4115.8,3364.7h-9.9c-0.8,0-1.5-0.7-1.5-1.5c0-0.8,0.7-1.5,1.5-1.5h9.9c0.8,0,1.5,0.7,1.5,1.5
		C-4114.3,3364-4115,3364.7-4115.8,3364.7z"/>
	<path class="st0" d="M-4116.4,3442.8h-63c-0.8,0-1.5-0.7-1.5-1.5c0-0.8,0.7-1.5,1.5-1.5h63c0.8,0,1.5,0.7,1.5,1.5
		C-4114.9,3442.1-4115.6,3442.8-4116.4,3442.8z"/>
	<path class="st0" d="M-4194.5,3442.8h-7.1c-0.8,0-1.5-0.7-1.5-1.5c0-0.8,0.7-1.5,1.5-1.5h7.1c0.8,0,1.5,0.7,1.5,1.5
		C-4193,3442.1-4193.7,3442.8-4194.5,3442.8z"/>
	<path class="st0" d="M-4120.6,3458.8l-4.4-2.4l-4.3,2.3l-5.3-2.3l-4.7,2.3l-4.8-2.3l-4.6,2.3l-5-2.3l-5,2.4l-5.1-2.4l-4.5,2.4
		l-4.8-2.3l-4.1,2.3l-4.9-2.3l-5.2,2.3l-5.1-2.4l-4.9,2.3l-5.9-3l0-15.8l2.4-9.9v-8.4l-0.1-47l-2.2-11.5l-0.1-13.9l6.1-3.1l4.4,2.4
		l4.3-2.3l5.3,2.3l4.7-2.3l4.8,2.3l4.6-2.3l5,2.3l4.9-2.4l5.1,2.4l4.5-2.4l4.8,2.3l4.1-2.3l4.9,2.3l5.2-2.3l5.1,2.4l4.9-2.3l5.9,3
		l-0.1,15.4l-2.4,9.9v8.9l0.1,46.6l2.2,11.5l0,14.3L-4120.6,3458.8z M-4192.3,3453l5.1,2.4l5.2-2.3l4.8,2.3l4.1-2.3l4.8,2.3l4.5-2.4
		l5.2,2.4l4.9-2.4l4.9,2.3l4.6-2.3l4.8,2.3l4.6-2.2l5.3,2.3l4.4-2.3l4.4,2.4l3-1.6l0-12.3l-2.2-11.5l-0.1-56l2.5-10.1v-13l-2.9-1.5
		l-4.8,2.3l-5.1-2.4l-5.2,2.3l-4.8-2.3l-4.1,2.3l-4.8-2.3l-4.5,2.4l-5.2-2.4l-4.9,2.4l-4.9-2.3l-4.6,2.3l-4.8-2.3l-4.6,2.2l-5.3-2.3
		l-4.4,2.3l-4.4-2.4l-3,1.6l0.1,11.9l2.2,11.5l0.1,56l-2.5,10.1v13.4l2.9,1.5L-4192.3,3453z M-4115.8,3364.1L-4115.8,3364.1
		L-4115.8,3364.1z"/>
</g>
</svg>
