<?xml version="1.0" encoding="utf-8"?>
<!-- Generator: Adobe Illustrator 19.0.0, SVG Export Plug-In . SVG Version: 6.00 Build 0)  -->
<svg version="1.1" id="Layer_1" xmlns="http://www.w3.org/2000/svg" xmlns:xlink="http://www.w3.org/1999/xlink" x="0px" y="0px"
	 viewBox="-4187.1 3391.6 57 68.6" style="enable-background:new -4187.1 3391.6 57 68.6;" xml:space="preserve">
<style type="text/css">
	.st0{fill:#FD5F00;}
</style>
<g>
	<path class="st0" d="M-4145.9,3404.8h-38.6c-0.8,0-1.5-0.7-1.5-1.5s0.7-1.5,1.5-1.5h38.6c0.8,0,1.5,0.7,1.5,1.5
		S-4145,3404.8-4145.9,3404.8z"/>
	<path class="st0" d="M-4131.6,3404.8h-6.2c-0.8,0-1.5-0.7-1.5-1.5s0.7-1.5,1.5-1.5h6.2c0.8,0,1.5,0.7,1.5,1.5
		S-4130.7,3404.8-4131.6,3404.8z"/>
	<path class="st0" d="M-4131.9,3449.8h-39.6c-0.8,0-1.5-0.7-1.5-1.5s0.7-1.5,1.5-1.5h39.6c0.8,0,1.5,0.7,1.5,1.5
		S-4131.1,3449.8-4131.9,3449.8z"/>
	<path class="st0" d="M-4181,3449.8h-4.5c-0.8,0-1.5-0.7-1.5-1.5s0.7-1.5,1.5-1.5h4.5c0.8,0,1.5,0.7,1.5,1.5
		S-4180.2,3449.8-4181,3449.8z"/>
	<path class="st0" d="M-4134.5,3459.9l-2.8-1.5l-2.7,1.4l-3.4-1.4l-3,1.4l-3-1.4l-2.9,1.4l-3.1-1.4l-3.1,1.5l-3.2-1.5l-2.9,1.5
		l-3-1.5l-2.6,1.4l-3.1-1.5l-3.2,1.5l-3.2-1.5l-3.1,1.5l-4.3-2.2l0-10.4l1.5-6.2l0-30.7l-1.4-7.3l0-9.1l4.4-2.3l2.8,1.5l2.6-1.4
		l3.4,1.4l3-1.4l3,1.4l2.9-1.4l3.1,1.4l3.1-1.5l3.2,1.5l2.9-1.5l3,1.5l2.6-1.4l3.1,1.5l3.2-1.5l3.2,1.5l3.1-1.5l4.3,2.2l0,10.1
		l-1.5,6.2l0,30.7l1.4,7.3l0,9.3L-4134.5,3459.9z M-4179.6,3455.1l3.2,1.5l3.2-1.5l3,1.4l2.6-1.4l3,1.5l2.8-1.5l3.3,1.6l3.1-1.5
		l3.1,1.4l2.9-1.4l3,1.4l2.9-1.4l3.3,1.4l2.8-1.5l2.8,1.5l1.3-0.7l0-7.4l-1.4-7.3l0-31.2l1.6-6.4v-7.8l-1.3-0.7l-3,1.5l-3.2-1.5
		l-3.2,1.5l-3-1.4l-2.6,1.4l-3-1.5l-2.8,1.5l-3.3-1.5l-3.1,1.5l-3.1-1.4l-2.9,1.5l-3-1.5l-2.9,1.4l-3.3-1.4l-2.8,1.5l-2.8-1.5
		l-1.3,0.7l0,7.1l1.4,7.3l0,31.2l-1.6,6.4v8l1.3,0.7L-4179.6,3455.1z M-4131.6,3403.8L-4131.6,3403.8L-4131.6,3403.8z"/>
</g>
</svg>
