<?xml version="1.0" encoding="utf-8"?>
<!-- Generator: Adobe Illustrator 19.0.0, SVG Export Plug-In . SVG Version: 6.00 Build 0)  -->
<svg version="1.1" id="Layer_1" xmlns="http://www.w3.org/2000/svg" xmlns:xlink="http://www.w3.org/1999/xlink" x="0px" y="0px"
	 viewBox="-4190.2 3383.7 63 76.5" style="enable-background:new -4190.2 3383.7 63 76.5;" xml:space="preserve">
<style type="text/css">
	.st0{fill:#FD5F00;}
</style>
<g>
	<path class="st0" d="M-4144.7,3397.8h-42.9c-0.8,0-1.5-0.7-1.5-1.5s0.7-1.5,1.5-1.5h42.9c0.8,0,1.5,0.7,1.5,1.5
		S-4143.8,3397.8-4144.7,3397.8z"/>
	<path class="st0" d="M-4128.8,3397.8h-6.9c-0.8,0-1.5-0.7-1.5-1.5s0.7-1.5,1.5-1.5h6.9c0.8,0,1.5,0.7,1.5,1.5
		S-4128,3397.8-4128.8,3397.8z"/>
	<path class="st0" d="M-4129.3,3448.9h-43.9c-0.8,0-1.5-0.7-1.5-1.5c0-0.8,0.7-1.5,1.5-1.5h43.9c0.8,0,1.5,0.7,1.5,1.5
		C-4127.8,3448.2-4128.4,3448.9-4129.3,3448.9z"/>
	<path class="st0" d="M-4183.6,3448.9h-4.9c-0.8,0-1.5-0.7-1.5-1.5c0-0.8,0.7-1.5,1.5-1.5h4.9c0.8,0,1.5,0.7,1.5,1.5
		C-4182.1,3448.2-4182.8,3448.9-4183.6,3448.9z"/>
	<path class="st0" d="M-4132.1,3460l-3.1-1.6l-2.9,1.6l-3.7-1.6l-3.3,1.6l-3.3-1.6l-3.2,1.6l-3.5-1.6l-3.4,1.6l-3.6-1.7l-3.2,1.7
		l-3.3-1.6l-2.8,1.6l-3.5-1.6l-3.6,1.6l-3.5-1.6l-3.4,1.6l-4.5-2.3l0-11.4l1.7-6.9l-0.1-35.2l-1.5-8l0-9.9l4.7-2.4l3.1,1.6l2.9-1.6
		l3.7,1.6l3.3-1.6l3.3,1.6l3.2-1.6l3.5,1.6l3.4-1.6l3.6,1.7l3.2-1.7l3.3,1.6l2.8-1.6l3.5,1.6l3.6-1.6l3.5,1.6l3.4-1.6l4.5,2.3
		l0,11.1l-1.7,6.9l0,35.2l1.5,8l0,10.2L-4132.1,3460z M-4182.1,3455l3.6,1.7l3.6-1.6l3.3,1.6l2.9-1.6l3.3,1.6l3.1-1.7l3.6,1.7
		l3.4-1.6l3.4,1.6l3.2-1.6l3.3,1.6l3.2-1.6l3.7,1.6l3.1-1.6l3.1,1.7l1.6-0.8l0-8.2l-1.5-8l-0.1-35.7l1.7-7v-8.7l-1.6-0.8l-3.4,1.6
		l-3.6-1.7l-3.6,1.6l-3.3-1.6l-2.9,1.6l-3.3-1.6l-3.1,1.7l-3.7-1.7l-3.4,1.6l-3.4-1.6l-3.2,1.6l-3.3-1.6l-3.2,1.6l-3.7-1.6l-3.1,1.6
		l-3.1-1.7l-1.6,0.9l0,8l1.5,8l0.1,35.7l-1.7,7v9l1.6,0.8L-4182.1,3455z M-4128.8,3397L-4128.8,3397L-4128.8,3397z"/>
</g>
</svg>
