<?xml version="1.0" encoding="utf-8"?>
<!-- Generator: Adobe Illustrator 24.2.0, SVG Export Plug-In . SVG Version: 6.00 Build 0)  -->
<svg version="1.1" id="Layer_1" xmlns="http://www.w3.org/2000/svg" xmlns:xlink="http://www.w3.org/1999/xlink" x="0px" y="0px"
	 viewBox="0 0 60.02 62.43" style="enable-background:new 0 0 60.02 62.43;" xml:space="preserve">
<style type="text/css">
	.st0{fill:#FFFFFF;}
</style>
<g>
	<path class="st0" d="M20.07,38.6h30.7c4.34,0,7.87-3.54,7.87-7.87V19.28c0-0.97-0.79-1.76-1.76-1.76s-1.76,0.79-1.76,1.76v11.44
		c0,2.41-1.96,4.36-4.36,4.36h-30.7c-2.41,0-4.36-1.96-4.36-4.36v-4.64v-6.23v-1.42V8.16c0-0.06,0-0.13-0.01-0.19
		c0-0.01,0-0.03,0-0.04c0-0.04-0.01-0.09-0.01-0.12s-0.01-0.07-0.03-0.1c0-0.01-0.01-0.04-0.01-0.06c-0.01-0.04-0.03-0.07-0.04-0.12
		c0-0.01-0.01-0.03-0.01-0.04c-0.01-0.03-0.03-0.07-0.04-0.1c-0.01-0.01-0.01-0.04-0.03-0.06c-0.01-0.03-0.03-0.06-0.04-0.09
		c-0.01-0.03-0.03-0.04-0.04-0.07c-0.01-0.01-0.03-0.04-0.04-0.06c-0.01-0.03-0.04-0.06-0.06-0.07c-0.01-0.01-0.03-0.03-0.04-0.04
		c-0.03-0.03-0.04-0.06-0.07-0.09c-0.01-0.01-0.03-0.03-0.04-0.03c-0.03-0.03-0.06-0.06-0.09-0.07c-0.01-0.01-0.03-0.03-0.04-0.04
		c-0.03-0.01-0.06-0.04-0.09-0.06c-0.03-0.03-0.07-0.04-0.1-0.07c-0.01,0-0.03-0.01-0.03-0.03c-0.06-0.03-0.12-0.06-0.18-0.09
		L3.81,1.97C2.92,1.59,1.9,2.02,1.52,2.91c-0.38,0.88,0.04,1.92,0.94,2.3l9.73,4.11v9.11v1.42v6.23v4.64v9.99
		c0,4.13,3.17,7.5,7.21,7.84c-0.82,1.23-1.3,2.71-1.3,4.3c0,4.29,3.5,7.78,7.78,7.78s7.78-3.5,7.78-7.78c0-1.58-0.47-3.04-1.27-4.27
		h9.84c-0.8,1.23-1.27,2.69-1.27,4.27c0,4.29,3.5,7.78,7.78,7.78s7.78-3.5,7.78-7.78s-3.5-7.78-7.78-7.78H20.07
		c-2.41,0-4.36-1.96-4.36-4.36v-3.44C16.95,38.11,18.46,38.6,20.07,38.6z M30.15,52.85c0,2.36-1.92,4.27-4.27,4.27
		s-4.27-1.92-4.27-4.27c0-2.36,1.92-4.27,4.27-4.27S30.15,50.5,30.15,52.85z M52.99,52.85c0,2.36-1.92,4.27-4.27,4.27
		c-2.36,0-4.27-1.92-4.27-4.27c0-2.36,1.92-4.27,4.27-4.27C51.08,48.58,52.99,50.5,52.99,52.85z"/>
	<path class="st0" d="M48.58,23H21.46c-0.89,0-1.61-0.72-1.61-1.61c0-0.89,0.72-1.61,1.61-1.61h27.12c0.89,0,1.61,0.72,1.61,1.61
		C50.19,22.27,49.47,23,48.58,23z"/>
	<path class="st0" d="M48.58,30.69H21.46c-0.89,0-1.61-0.72-1.61-1.61s0.72-1.61,1.61-1.61h27.12c0.89,0,1.61,0.72,1.61,1.61
		S49.47,30.69,48.58,30.69z"/>
</g>
</svg>
