<?xml version="1.0" encoding="utf-8"?>
<!-- Generator: Adobe Illustrator 25.2.0, SVG Export Plug-In . SVG Version: 6.00 Build 0)  -->
<svg version="1.1" id="Capa_1" xmlns="http://www.w3.org/2000/svg" xmlns:xlink="http://www.w3.org/1999/xlink" x="0px" y="0px"
	 viewBox="0 0 213 213" style="enable-background:new 0 0 213 213;" xml:space="preserve">
<style type="text/css">
	.st0{fill:#FFFFFF;}
</style>
<g>
	<rect x="38.6" y="33.6" class="st0" width="56.7" height="12"/>
	<path class="st0" d="M171.8,47.1c2,0,3.9-0.8,5.3-2.2c1.4-1.4,2.2-3.3,2.2-5.3s-0.8-3.9-2.2-5.3c-1.4-1.4-3.3-2.2-5.3-2.2
		s-3.9,0.8-5.3,2.2c-1.4,1.4-2.2,3.3-2.2,5.3s0.8,3.9,2.2,5.3C167.9,46.3,169.9,47.1,171.8,47.1z"/>
	<path class="st0" d="M144.8,47.1c2,0,3.9-0.8,5.3-2.2c1.4-1.4,2.2-3.3,2.2-5.3s-0.8-3.9-2.2-5.3c-1.4-1.4-3.3-2.2-5.3-2.2
		s-3.9,0.8-5.3,2.2c-1.4,1.4-2.2,3.3-2.2,5.3s0.8,3.9,2.2,5.3C140.9,46.3,142.9,47.1,144.8,47.1z"/>
	<path class="st0" d="M117.8,47.1c2,0,3.9-0.8,5.3-2.2s2.2-3.3,2.2-5.3s-0.8-3.9-2.2-5.3c-1.4-1.4-3.3-2.2-5.3-2.2s-3.9,0.8-5.3,2.2
		s-2.2,3.3-2.2,5.3s0.8,3.9,2.2,5.3C113.9,46.3,115.9,47.1,117.8,47.1z"/>
	<path class="st0" d="M211.3,10.5H1.8v154.9h49.5v37l69.6-37h90.4V10.5z M199.8,153.9h-81.8l-55.2,29.5v-29.5H13.3V68.6h186.5V153.9
		z M199.8,57.1H13.3V22h186.5V57.1z"/>
	<rect x="42.7" y="91" class="st0" width="127.7" height="12"/>
	<rect x="42.7" y="117.5" class="st0" width="127.7" height="12"/>
</g>
</svg>
