<?xml version="1.0" encoding="utf-8"?>
<!-- Generator: Adobe Illustrator 24.2.0, SVG Export Plug-In . SVG Version: 6.00 Build 0)  -->
<svg version="1.1" id="Layer_1" xmlns="http://www.w3.org/2000/svg" xmlns:xlink="http://www.w3.org/1999/xlink" x="0px" y="0px"
	 viewBox="0 0 534 493.77" style="enable-background:new 0 0 534 493.77;" xml:space="preserve">
<style type="text/css">
	.st0{fill:#FD5F00;}
</style>
<g id="XMLID_1258_">
	<g id="XMLID_1850_">
		<path id="XMLID_1911_" class="st0" d="M499.93,207.29c-2.17-2.17-5.29-3.11-8.3-2.51l-79.11,15.92c-3.32,0.67-6,3.11-6.98,6.34
			c-0.98,3.24-0.1,6.75,2.3,9.15l10.7,10.7l-42,42l-32.52-32.52c-1.72-1.72-4.06-2.69-6.49-2.69s-4.77,0.97-6.49,2.69l-39.9,39.9
			l14.97-53.78c3.64-13.07,1.02-26.77-7.19-37.58c-5.03-6.62-11.67-11.5-19.17-14.29l11.96-34.18c3.3,0.29,6.6,0.44,9.85,0.44
			c26.51,0,52.35-9.34,72.77-26.3l2.19-1.82c10.77-8.94,12.61-24.49,4.19-35.39c-4.27-5.53-10.43-8.99-17.36-9.76
			c-6.93-0.77-13.71,1.27-19.07,5.72l-2.48,2.06c-3.66,3.04-7.67,5.67-11.9,7.8c-14.15,7.14-31.83,3.96-43.57-7.66
			c17.08-5.29,29.53-21.24,29.53-40.04c0-23.11-18.8-41.9-41.91-41.9c-23.11,0-41.91,18.8-41.91,41.91c0,9.2,2.98,17.7,8.02,24.62
			c-9.53,2.05-18.11,6.97-24.68,13.92c-0.38,0.34-0.75,0.7-1.08,1.11c-16.18,19.88-37.75,34.13-62.38,41.23
			c-6.67,1.92-11.95,6.35-15.11,11.96l-18.81-18.81c-8.23-8.23-21.62-8.23-29.86,0L63.5,150.17l0,0l0,0l-24.62,24.62
			c-3.99,3.99-6.18,9.29-6.18,14.93c0,5.64,2.2,10.94,6.18,14.93l67.84,67.84c3.99,3.99,9.29,6.18,14.93,6.18
			c5.64,0,10.94-2.2,14.93-6.18l25.49-25.49l-12.09,31.7c-1.81,4.74,0.57,10.04,5.31,11.85c1.08,0.41,2.18,0.6,3.27,0.6
			c3.7,0,7.18-2.25,8.58-5.91l30.11-78.94h57.47h9.93c7.78,0,14.95,3.55,19.65,9.75c4.71,6.2,6.21,14.05,4.12,21.55l-20.86,74.94
			c-0.94,3.37-4.04,5.73-7.54,5.73c-3.14,0-5.08-1.72-5.95-2.75c-0.87-1.03-2.27-3.21-1.78-6.31l11.1-69.77
			c0.42-2.65-0.34-5.36-2.08-7.4s-4.3-3.22-6.98-3.22h-21.76c-3.46,0-6.63,1.95-8.19,5.04c-0.54,1.06-53.79,106.36-71.74,141.94
			c-1.8,3.56-5.7,5.6-9.71,5.05l-0.44-0.06c-2.73-0.37-5.11-1.94-6.52-4.31c-1.41-2.37-1.65-5.21-0.67-7.78l5.66-14.83
			c1.81-4.74-0.57-10.04-5.31-11.85c-4.74-1.81-10.04,0.57-11.85,5.31l-5.66,14.83c-2.99,7.84-2.25,16.48,2.04,23.7
			c4.29,7.22,11.52,12,19.83,13.13l0.44,0.06c1.26,0.17,2.51,0.25,3.76,0.25c10.39,0,20.06-5.81,24.81-15.23
			c15.68-31.08,58.31-115.39,69.18-136.89h5.36l-9.41,59.15c-1.21,7.58,0.96,15.27,5.94,21.11c3.21,3.76,7.36,6.47,11.95,7.94
			L149.8,437.62c-1.72,1.72-2.69,4.06-2.69,6.49c0,2.43,0.97,4.77,2.69,6.49l26.33,26.33c1.79,1.79,4.14,2.69,6.49,2.69
			s4.7-0.9,6.49-2.69l50.61-50.61c3.58-3.58,3.58-9.4,0-12.98c-3.59-3.58-9.4-3.58-12.98,0l-44.12,44.12l-13.35-13.35l168.25-168.25
			l32.52,32.52c1.72,1.72,4.06,2.69,6.49,2.69s4.77-0.97,6.49-2.69l54.98-54.99c3.58-3.58,3.58-9.4,0-12.98l-5.08-5.08l48.79-9.82
			l-9.82,48.79l-7.56-7.56c-3.59-3.58-9.4-3.58-12.98,0l-74.82,74.82l-32.52-32.52c-3.59-3.58-9.4-3.58-12.98,0l-52.37,52.37
			c-3.58,3.58-3.58,9.4,0,12.98c3.59,3.58,9.4,3.58,12.98,0l45.88-45.88l32.52,32.52c3.59,3.58,9.4,3.58,12.98,0l74.82-74.82
			l13.18,13.18c2.39,2.39,5.91,3.28,9.15,2.3c3.24-0.98,5.68-3.66,6.34-6.98l15.92-79.11C503.04,212.58,502.1,209.46,499.93,207.29z
			 M273.93,27.97c12.98,0,23.55,10.56,23.55,23.55c0,12.98-10.56,23.55-23.55,23.55c-12.98,0-23.55-10.56-23.55-23.55
			C250.38,38.54,260.94,27.97,273.93,27.97z M183.1,190.67l-11.17-11.17c5.31-1.73,10.52-3.71,15.62-5.93L183.1,190.67z
			 M152.12,158.83c-1.08-3.77,1.1-7.71,4.86-8.8c15.09-4.35,29.16-11.06,41.84-19.82l-5.18,19.93
			c-10.32,5.7-21.31,10.26-32.73,13.55c-0.21,0.06-0.43,0.11-0.65,0.16c-1.69,0.32-3.39-0.01-4.81-0.83l-2.69-2.69
			C152.5,159.86,152.28,159.36,152.12,158.83z M101.1,138.52c0.54-0.54,1.24-0.8,1.95-0.8s1.41,0.27,1.95,0.8l33.46,33.46
			c1.55,2.12,3.4,3.97,5.49,5.49l28.89,28.89c1.07,1.07,1.07,2.82,0,3.89l-18.13,18.13l-20.16-20.16l3.84-3.84
			c3.58-3.58,3.58-9.4,0-12.98l-20.66-20.66c-3.59-3.58-9.4-3.58-12.98,0l-3.84,3.84l-17.93-17.93L101.1,138.52z M113.66,203.14
			c-0.88,0.88-1.9,1.01-2.44,1.01c-0.53,0-1.56-0.13-2.44-1.01v0l-2.81-2.81c-0.88-0.88-1.01-1.9-1.01-2.44
			c0-0.53,0.13-1.56,1.01-2.44l5.24-5.24l7.68,7.68L113.66,203.14z M123.59,259.5c-0.67,0.67-1.43,0.81-1.95,0.81
			c-0.52,0-1.28-0.14-1.95-0.81l-67.84-67.84c-0.67-0.67-0.81-1.43-0.81-1.95c0-0.52,0.14-1.28,0.81-1.95l18.13-18.13l18.78,18.78
			c-1.41,2.92-2.16,6.14-2.16,9.47c0,5.82,2.27,11.3,6.39,15.42l2.81,2.81v0c4.12,4.12,9.59,6.39,15.42,6.39
			c3.34,0,6.56-0.75,9.47-2.16l21.02,21.02L123.59,259.5z M254.7,187.93h-51.92l18.86-72.49c3.37-12.96,15.08-22.01,28.47-22.01
			c8.27,0,15.93,3.34,21.55,9.39c17.25,18.58,44.59,23.84,66.49,12.79c5.47-2.76,10.64-6.15,15.36-10.07l2.48-2.06
			c1.5-1.24,3.39-1.82,5.32-1.6c1.93,0.21,3.65,1.18,4.85,2.73c2.31,2.99,1.68,7.49-1.39,10.05l-2.19,1.82
			c-17.13,14.23-38.81,22.07-61.04,22.07c-4.83,0-9.76-0.39-14.67-1.15c-4.38-0.69-8.61,1.86-10.07,6.04l-15.58,44.5H254.7z"/>
		<path id="XMLID_1920_" class="st0" d="M259.37,384.85c-2.41,0-4.78,0.98-6.49,2.69c-1.71,1.71-2.69,4.07-2.69,6.49
			c0,2.42,0.98,4.78,2.69,6.49c1.71,1.72,4.08,2.69,6.49,2.69c2.41,0,4.78-0.97,6.49-2.69c1.71-1.71,2.69-4.07,2.69-6.49
			c0-2.42-0.98-4.78-2.69-6.49C264.15,385.83,261.79,384.85,259.37,384.85z"/>
		<path id="XMLID_1921_" class="st0" d="M145.45,325.5c2.41,0,4.78-0.98,6.49-2.69c1.71-1.71,2.69-4.07,2.69-6.49
			c0-2.41-0.98-4.78-2.69-6.49c-1.72-1.71-4.08-2.69-6.49-2.69c-2.41,0-4.78,0.98-6.5,2.69c-1.71,1.71-2.68,4.08-2.68,6.49
			c0,2.41,0.97,4.78,2.68,6.49C140.67,324.52,143.03,325.5,145.45,325.5z"/>
	</g>
</g>
</svg>
