<?xml version="1.0" encoding="utf-8"?>
<!-- Generator: Adobe Illustrator 19.0.0, SVG Export Plug-In . SVG Version: 6.00 Build 0)  -->
<svg version="1.1" id="Layer_1" xmlns="http://www.w3.org/2000/svg" xmlns:xlink="http://www.w3.org/1999/xlink" x="0px" y="0px"
	 viewBox="0 0 42.8 43.1" style="enable-background:new 0 0 42.8 43.1;" xml:space="preserve">
<style type="text/css">
	.st0{fill:#FD5F00;}
</style>
<g id="XMLID_42_">
	<path id="XMLID_3_" class="st0" d="M21.4,42.8c-4.5,0-8.8-1.4-12.5-4.1c-4.6-3.3-7.6-8.3-8.4-13.9C-1.4,13.2,6.6,2.3,18.1,0.6
		c4.8-0.7,9.8,0.2,14,2.7c0.7,0.4,1,1.3,0.5,2.1s-1.3,1-2.1,0.5c-3.6-2.1-7.9-2.9-12-2.3C8.7,5.1,1.8,14.4,3.4,24.3
		c0.7,4.8,3.3,9,7.2,11.9c3.9,2.9,8.7,4,13.6,3.3c4.8-0.7,9-3.3,11.9-7.2c2.9-3.9,4-8.7,3.3-13.6c-0.1-0.8,0.4-1.6,1.3-1.7
		c0.8-0.1,1.6,0.4,1.7,1.3c0.9,5.6-0.5,11.2-3.8,15.8c-3.3,4.6-8.3,7.6-13.9,8.4C23.5,42.7,22.4,42.8,21.4,42.8z"/>
	<path id="XMLID_2_" class="st0" d="M20.5,28.5c-0.4,0-0.8-0.2-1.1-0.4L9.3,17.8c-0.6-0.6-0.6-1.5,0-2.1c0.6-0.6,1.5-0.6,2.1,0
		l9.1,9.1l16-16c0.6-0.6,1.5-0.6,2.1,0c0.6,0.6,0.6,1.5,0,2.1L21.6,28C21.3,28.3,20.9,28.5,20.5,28.5z"/>
</g>
</svg>
