<svg version="1.1" xmlns="http://www.w3.org/2000/svg" xmlns:xlink="http://www.w3.org/1999/xlink" x="0px" y="0px"
	 viewBox="0 0 306 346.89" style="enable-background:new 0 0 306 346.89;" xml:space="preserve">
<g>
	<path class="st0" d="M261.08,292.06h-22.85c-3.65,0-6.6-2.96-6.6-6.6c0-3.65,2.96-6.6,6.6-6.6h16.24V149.69l-83.1-85.41H51.51
		v214.57h27.94c3.65,0,6.6,2.96,6.6,6.6c0,3.65-2.96,6.6-6.6,6.6H44.91c-3.65,0-6.6-2.96-6.6-6.6V57.68c0-3.65,2.96-6.6,6.6-6.6
		h129.26c1.78,0,3.49,0.72,4.74,2l86.92,89.33c1.2,1.23,1.87,2.88,1.87,4.6v138.45C267.69,289.11,264.73,292.06,261.08,292.06z"/>
	<path class="st0" d="M261.08,153.61h-86.92c-3.65,0-6.6-2.96-6.6-6.6V57.68c0-2.69,1.63-5.1,4.12-6.12
		c2.48-1.01,5.34-0.41,7.22,1.52l86.92,89.33c1.85,1.9,2.38,4.72,1.35,7.17C266.14,152.02,263.74,153.61,261.08,153.61z
		 M180.77,140.41h64.67l-64.67-66.48V140.41z"/>
	<path class="st0" d="M153.27,316.85c-1.49,0-2.98-0.5-4.21-1.53c-2.8-2.33-3.2-6.48-0.87-9.29l38.35-46.24
		c2.32-2.82,6.48-3.21,9.29-0.87c2.81,2.33,3.2,6.49,0.87,9.29l-38.34,46.24C157.05,316.03,155.17,316.85,153.27,316.85z"/>
	<path class="st0" d="M153.28,316.85c-1.91,0-3.77-0.83-5.05-2.36l-38.91-46.24c-2.35-2.79-1.99-6.96,0.8-9.3
		c2.79-2.36,6.95-1.99,9.3,0.8l27.25,32.39v-72.4c0-3.65,2.96-6.6,6.6-6.6c3.65,0,6.6,2.96,6.6,6.6v90.5c0,2.77-1.73,5.25-4.34,6.2
		C154.8,316.72,154.04,316.85,153.28,316.85z"/>
</g>
</svg>
