<?xml version="1.0" encoding="utf-8"?>
<!-- Generator: Adobe Illustrator 25.2.1, SVG Export Plug-In . SVG Version: 6.00 Build 0)  -->
<svg version="1.1" id="Layer_1" xmlns="http://www.w3.org/2000/svg" xmlns:xlink="http://www.w3.org/1999/xlink" x="0px" y="0px"
	 viewBox="0 0 98.3 98.54" style="enable-background:new 0 0 98.3 98.54;" xml:space="preserve">
<style type="text/css">
	.st0{fill:#FD5F00;}
</style>
<g>
	<g>
		<path class="st0" d="M67.55,97.14H30.61c-16.1,0-29.19-13.1-29.19-29.19V31.01c0-16.1,13.1-29.19,29.19-29.19h36.94
			c16.1,0,29.19,13.1,29.19,29.19v36.94C96.74,84.05,83.65,97.14,67.55,97.14z M30.61,5.36c-14.14,0-25.65,11.51-25.65,25.65v36.94
			c0,14.14,11.51,25.65,25.65,25.65h36.94c14.14,0,25.65-11.51,25.65-25.65V31.01c0-14.14-11.51-25.65-25.65-25.65
			C67.55,5.36,30.61,5.36,30.61,5.36z"/>
	</g>
</g>
<g>
	<path class="st0" d="M44.67,57.96v5.01H23.78V35.99h20.39V41H29.98v5.86h12.52v4.86H29.98v6.24H44.67z"/>
	<path class="st0" d="M74.38,35.99v26.98h-5.13L55.8,46.59v16.38h-6.17V35.99h5.16l13.41,16.38V35.99H74.38z"/>
</g>
</svg>
