<?xml version="1.0" encoding="utf-8"?>
<!-- Generator: Adobe Illustrator 25.2.1, SVG Export Plug-In . SVG Version: 6.00 Build 0)  -->
<svg version="1.1" id="Layer_1" xmlns="http://www.w3.org/2000/svg" xmlns:xlink="http://www.w3.org/1999/xlink" x="0px" y="0px"
	 viewBox="0 0 30 30" style="enable-background:new 0 0 30 30;" xml:space="preserve">
<style type="text/css">
	.st0{clip-path:url(#SVGID_2_);fill:url(#SVGID_3_);}
	.st1{fill:#20326C;}
	.st2{fill:#F5F2ED;}
	.st3{fill:#E62708;}
	.st4{fill:#353762;}
</style>
<g>
	<g>
		<defs>
			<path id="SVGID_1_" d="M14.99,0C8.25,0,2.13,4.57,0.44,11.4c-1.99,8.04,2.91,16.17,10.95,18.16c8.04,1.99,16.17-2.91,18.16-10.95
				c1.99-8.04-2.91-16.17-10.95-18.16C17.39,0.14,16.18,0,14.99,0C14.99,0,14.99,0,14.99,0"/>
		</defs>
		<clipPath id="SVGID_2_">
			<use xlink:href="#SVGID_1_"  style="overflow:visible;"/>
		</clipPath>
		
			<radialGradient id="SVGID_3_" cx="-1972.832" cy="2003.2537" r="0.076" gradientTransform="matrix(197.4678 0 0 -197.4678 389585.7813 395593.0938)" gradientUnits="userSpaceOnUse">
			<stop  offset="0" style="stop-color:#FFFFFF"/>
			<stop  offset="0.7809" style="stop-color:#FFFFFF"/>
			<stop  offset="0.8222" style="stop-color:#F9F8F8"/>
			<stop  offset="0.8841" style="stop-color:#E8E6E3"/>
			<stop  offset="0.9588" style="stop-color:#CDC8C2"/>
			<stop  offset="1" style="stop-color:#BCB4AC"/>
		</radialGradient>
		<rect x="-1.55" y="0" class="st0" width="33.1" height="31.55"/>
	</g>
	<g>
		<path class="st1" d="M0.44,11.4C2.43,3.36,10.56-1.55,18.6,0.44c8.04,1.99,12.94,10.12,10.95,18.16
			c-1.99,8.04-10.12,12.94-18.16,10.95C3.36,27.57-1.55,19.44,0.44,11.4"/>
	</g>
	<g>
		<path class="st2" d="M25.64,4.43l-6.03,4.02V0.73c-0.33-0.11-0.66-0.2-1-0.29c-2.83-0.7-5.67-0.55-8.25,0.3v7.71l-6.01-4
			C2.97,5.83,1.85,7.5,1.09,9.39l1.59,1.06H0.71c-0.1,0.31-0.19,0.63-0.27,0.95c-0.71,2.85-0.54,5.71,0.32,8.31h1.96l-1.57,1.05
			c0.76,1.83,1.89,3.51,3.3,4.91l5.9-3.93v7.53c0.34,0.11,0.69,0.21,1.04,0.3c2.82,0.7,5.64,0.55,8.21-0.28v-7.55l5.93,3.95
			c1.39-1.37,2.53-3.03,3.31-4.9l-1.61-1.07h2c0.12-0.36,0.22-0.73,0.32-1.1c0.69-2.8,0.55-5.6-0.27-8.16h-2.01l1.62-1.08
			C28.15,7.52,27.04,5.84,25.64,4.43"/>
	</g>
	<g>
		<path class="st3" d="M8.05,10.45l-5.57-3.7c-0.37,0.56-0.71,1.15-1,1.77l2.91,1.93H8.05z M27.5,6.71
			c-0.37-0.56-0.79-1.1-1.24-1.62l-6.66,4.43v0.92h2.28L27.5,6.71z M2.52,23.31c0.38,0.56,0.79,1.1,1.24,1.61l6.6-4.39V19.7h-2.4
			L2.52,23.31z M29.77,12.37H17.68V0.25c-1.83-0.33-3.66-0.32-5.4,0v12.13H0.24c-0.33,1.83-0.31,3.66,0.02,5.4h12.02v11.97
			c1.83,0.34,3.66,0.33,5.4,0.01V17.77h12.06C30.08,15.94,30.08,14.12,29.77,12.37 M22.02,19.7l5.46,3.63
			c0.37-0.56,0.71-1.15,1.01-1.76l-2.81-1.87L22.02,19.7z"/>
	</g>
	<g>
		<path class="st4" d="M19.61,2.29L19.61,2.29v0.97c0.06-0.18,0.09-0.36,0.09-0.52C19.7,2.58,19.67,2.43,19.61,2.29"/>
	</g>
</g>
</svg>
