<?xml version="1.0" encoding="utf-8"?>
<!-- Generator: Adobe Illustrator 25.1.0, SVG Export Plug-In . SVG Version: 6.00 Build 0)  -->
<svg version="1.1" id="Capa_1" xmlns="http://www.w3.org/2000/svg" xmlns:xlink="http://www.w3.org/1999/xlink" x="0px" y="0px"
	 viewBox="0 0 224.5 224.5" style="enable-background:new 0 0 224.5 224.5;" xml:space="preserve">
<style type="text/css">
	.st0{fill:#BDBDBD;}
</style>
<g>
	<path class="st0" d="M223.5,108.4c-1.8-3-44.3-72.5-111.2-72.5S2.9,105.4,1.1,108.4c-1.4,2.4-1.4,5.4,0,7.7
		c1.8,3,44.3,72.5,111.2,72.5s109.4-69.5,111.2-72.5C224.9,113.8,224.9,110.8,223.5,108.4z M112.3,173.6
		c-49.9,0-86.2-47.4-95.8-61.4c9.6-14,45.8-61.4,95.8-61.4c49.9,0,86.2,47.4,95.8,61.4C198.5,126.3,162.3,173.6,112.3,173.6z"/>
	<path class="st0" d="M112.3,61.7c-27.9,0-50.5,22.7-50.5,50.5c0,27.9,22.7,50.5,50.5,50.5c27.9,0,50.5-22.7,50.5-50.5
		C162.8,84.4,140.1,61.7,112.3,61.7z M112.3,147.8c-19.6,0-35.5-15.9-35.5-35.5c0-19.6,15.9-35.5,35.5-35.5s35.5,15.9,35.5,35.5
		C147.8,131.9,131.9,147.8,112.3,147.8z"/>
	<path class="st0" d="M112.3,92.9c-10.7,0-19.4,8.7-19.4,19.4c0,10.7,8.7,19.4,19.4,19.4c10.7,0,19.4-8.7,19.4-19.4
		C131.6,101.6,123,92.9,112.3,92.9z"/>
</g>
</svg>
