<?xml version="1.0" encoding="utf-8"?>
<!-- Generator: Adobe Illustrator 24.2.0, SVG Export Plug-In . SVG Version: 6.00 Build 0)  -->
<svg version="1.1" id="Layer_1" xmlns="http://www.w3.org/2000/svg" xmlns:xlink="http://www.w3.org/1999/xlink" x="0px" y="0px"
	 viewBox="0 0 470 470" style="enable-background:new 0 0 470 470;" xml:space="preserve">
<style type="text/css">
	.st0{fill:#FD5F00;}
</style>
<g>
	<path class="st0" d="M470,310.71V159.18c0-3.32-2.18-6.25-5.37-7.19l-70.11-20.8c5.43-13.28,8.81-26.45,8.81-38.68
		c0-51-41.49-92.5-92.5-92.5s-92.5,41.49-92.5,92.5c0,12.23,3.38,25.41,8.81,38.68l-67.98,20.17L9.63,106.99
		c-2.27-0.67-4.72-0.24-6.62,1.18S0,111.81,0,114.18V265.9c0,0.02,0,0.04,0,0.05V417.5c0,3.32,2.18,6.25,5.37,7.19l151.55,44.97
		c0.04,0.01,0.11,0.03,0.11,0.03c0.02,0.01,0.05,0.01,0.07,0.02c0.28,0.08,0.57,0.14,0.86,0.19c0.08,0.01,0.16,0.03,0.24,0.04
		c0.31,0.04,0.63,0.07,0.96,0.07c0.35,0,0.67-0.03,0.98-0.07c0.08-0.01,0.15-0.02,0.23-0.04c0.29-0.05,0.58-0.11,0.86-0.19
		c0.02-0.01,0.05-0.01,0.07-0.02l0.07-0.02c0.04-0.01,146.43-43.45,146.43-43.45c0.93,0.41,1.96,0.65,3.04,0.65s2.11-0.23,3.04-0.65
		l146.5,43.46c0.7,0.21,1.42,0.31,2.13,0.31c1.6,0,3.17-0.51,4.49-1.49c1.9-1.42,3.01-3.64,3.01-6.01V310.77
		C470,310.76,470,310.73,470,310.71L470,310.71z M455,164.77v136.02l-136.67-40.55v-21.33c9.78-10.07,48.19-50.99,69.88-93.95
		L455,164.77L455,164.77z M310.83,15c42.73,0,77.5,34.77,77.5,77.5c0,12.18-4.08,25.75-10.41,39.49c-0.31,0.5-0.57,1.05-0.77,1.63
		c-18.07,38.15-53.03,77.25-66.33,91.4c-13.29-14.13-48.21-53.18-66.29-91.31c-0.2-0.64-0.49-1.24-0.83-1.78
		c-6.31-13.71-10.37-27.25-10.37-39.42C233.33,49.77,268.1,15,310.83,15z M303.33,238.91v21.33l-136.67,40.55V164.77l66.79-19.82
		C255.14,187.91,293.55,228.84,303.33,238.91z M15,275.89l51.82,15.38c0.71,0.21,1.43,0.31,2.14,0.31c3.24,0,6.22-2.11,7.19-5.37
		c1.18-3.97-1.08-8.14-5.06-9.32L15,260.24V124.22l136.66,40.55v136.02l-51.82-15.38c-3.97-1.18-8.15,1.08-9.32,5.06
		c-1.18,3.97,1.08,8.14,5.06,9.32l56.08,16.64v136.02L15,411.9V275.89L15,275.89z M318.33,411.9v-54.3c0-4.14-3.36-7.5-7.5-7.5
		s-7.5,3.36-7.5,7.5v54.3l-136.67,40.55V316.44l136.67-40.55v51.72c0,4.14,3.36,7.5,7.5,7.5s7.5-3.36,7.5-7.5v-51.72L455,316.44
		v136.02L318.33,411.9z"/>
	<path class="st0" d="M310.83,145c28.95,0,52.5-23.55,52.5-52.5c0-28.95-23.55-52.5-52.5-52.5s-52.5,23.55-52.5,52.5
		C258.33,121.45,281.88,145,310.83,145z M310.83,55c20.68,0,37.5,16.82,37.5,37.5s-16.82,37.5-37.5,37.5s-37.5-16.82-37.5-37.5
		S290.15,55,310.83,55z"/>
</g>
</svg>
