<?xml version="1.0" encoding="utf-8"?>
<!-- Generator: Adobe Illustrator 24.2.0, SVG Export Plug-In . SVG Version: 6.00 Build 0)  -->
<svg version="1.1" id="Layer_1" xmlns="http://www.w3.org/2000/svg" xmlns:xlink="http://www.w3.org/1999/xlink" x="0px" y="0px"
	 viewBox="0 0 88.56 71.54" style="enable-background:new 0 0 88.56 71.54;" xml:space="preserve">
<style type="text/css">
	.st0{fill:#FD5F00;}
</style>
<g>
	<path class="st0" d="M20.49,61.52c-0.5,0-0.99-0.12-1.44-0.37l-7.85-4.31c-0.4-0.22-0.65-0.64-0.65-1.1V15.82c0-1.65,1.34-3,3-3
		h13.1c1.65,0,3,1.34,3,3v39.92c0,0.44-0.23,0.84-0.6,1.07l-7,4.27C21.58,61.37,21.04,61.52,20.49,61.52z M13.06,55l7.2,3.96
		c0.16,0.09,0.35,0.08,0.5-0.01l6.4-3.91V15.82c0-0.27-0.22-0.5-0.5-0.5h-13.1c-0.27,0-0.5,0.22-0.5,0.5
		C13.06,15.82,13.06,55,13.06,55z M28.4,55.74L28.4,55.74L28.4,55.74z"/>
	<path class="st0" d="M11.81,65.4c-0.69,0-1.25-0.56-1.25-1.25v-8.41c0-0.69,0.56-1.25,1.25-1.25s1.25,0.56,1.25,1.25v8.41
		C13.06,64.84,12.5,65.4,11.81,65.4z"/>
	<path class="st0" d="M28.4,65.4c-0.69,0-1.25-0.56-1.25-1.25v-8.41c0-0.69,0.56-1.25,1.25-1.25s1.25,0.56,1.25,1.25v8.41
		C29.65,64.84,29.09,65.4,28.4,65.4z"/>
	<path class="st0" d="M44.95,61.52c-0.5,0-0.99-0.12-1.44-0.37l-7.85-4.31c-0.4-0.22-0.65-0.64-0.65-1.1V15.82c0-1.65,1.34-3,3-3
		h13.1c1.65,0,3,1.34,3,3v39.92c0,0.44-0.23,0.84-0.6,1.07l-7,4.27C46.04,61.37,45.5,61.52,44.95,61.52z M37.52,55l7.2,3.96
		c0.15,0.08,0.35,0.08,0.5-0.01l6.4-3.91V15.82c0-0.27-0.22-0.5-0.5-0.5h-13.1c-0.27,0-0.5,0.22-0.5,0.5
		C37.52,15.82,37.52,55,37.52,55z M52.86,55.74L52.86,55.74L52.86,55.74z"/>
	<path class="st0" d="M36.27,65.4c-0.69,0-1.25-0.56-1.25-1.25v-8.41c0-0.69,0.56-1.25,1.25-1.25s1.25,0.56,1.25,1.25v8.41
		C37.52,64.84,36.96,65.4,36.27,65.4z"/>
	<path class="st0" d="M52.86,65.4c-0.69,0-1.25-0.56-1.25-1.25v-8.41c0-0.69,0.56-1.25,1.25-1.25s1.25,0.56,1.25,1.25v8.41
		C54.11,64.84,53.55,65.4,52.86,65.4z"/>
	<path class="st0" d="M69.41,61.52c-0.5,0-0.99-0.12-1.44-0.37l-7.85-4.31c-0.4-0.22-0.65-0.64-0.65-1.1V15.82c0-1.65,1.34-3,3-3
		h13.1c1.65,0,3,1.34,3,3v39.92c0,0.44-0.23,0.84-0.6,1.07l-7,4.27C70.49,61.37,69.95,61.52,69.41,61.52z M61.97,55l7.2,3.96
		c0.15,0.08,0.35,0.08,0.5-0.01l6.4-3.91V15.82c0-0.27-0.22-0.5-0.5-0.5h-13.1c-0.27,0-0.5,0.22-0.5,0.5V55z M77.31,55.74
		L77.31,55.74L77.31,55.74z"/>
	<path class="st0" d="M60.72,65.4c-0.69,0-1.25-0.56-1.25-1.25v-8.41c0-0.69,0.56-1.25,1.25-1.25s1.25,0.56,1.25,1.25v8.41
		C61.97,64.84,61.41,65.4,60.72,65.4z"/>
	<path class="st0" d="M77.31,65.4c-0.69,0-1.25-0.56-1.25-1.25v-8.41c0-0.69,0.56-1.25,1.25-1.25s1.25,0.56,1.25,1.25v8.41
		C78.56,64.84,78,65.4,77.31,65.4z"/>
	<path class="st0" d="M76.83,28.53H12.62c-0.69,0-1.25-0.56-1.25-1.25s0.56-1.25,1.25-1.25h64.21c0.69,0,1.25,0.56,1.25,1.25
		S77.52,28.53,76.83,28.53z"/>
	<path class="st0" d="M77.05,38.94H12.62c-0.69,0-1.25-0.56-1.25-1.25s0.56-1.25,1.25-1.25h64.43c0.69,0,1.25,0.56,1.25,1.25
		S77.74,38.94,77.05,38.94z"/>
	<path class="st0" d="M85.6,66.6H3.07c-0.69,0-1.25-0.56-1.25-1.25s0.56-1.25,1.25-1.25H85.6c0.69,0,1.25,0.56,1.25,1.25
		S86.29,66.6,85.6,66.6z"/>
</g>
</svg>
