<?xml version="1.0" encoding="utf-8"?>
<!-- Generator: Adobe Illustrator 24.2.0, SVG Export Plug-In . SVG Version: 6.00 Build 0)  -->
<svg version="1.1" id="Layer_1" xmlns="http://www.w3.org/2000/svg" xmlns:xlink="http://www.w3.org/1999/xlink" x="0px" y="0px"
	 viewBox="0 0 57.58 71.54" style="enable-background:new 0 0 57.58 71.54;" xml:space="preserve">
<style type="text/css">
	.st0{fill:#FD5F00;}
</style>
<g>
	<path class="st0" d="M49.27,66.56H9.83c-0.59,0-1.1-0.41-1.22-0.99l-6.75-31.4c-0.08-0.37,0.01-0.75,0.25-1.05
		c0.24-0.29,0.59-0.46,0.97-0.46h52.93c0.38,0,0.73,0.17,0.97,0.46s0.33,0.68,0.25,1.05l-6.75,31.4
		C50.37,66.14,49.86,66.56,49.27,66.56z M10.84,64.06h37.42l6.21-28.9H4.63L10.84,64.06z"/>
	<path class="st0" d="M29.71,65.98c-0.69,0-1.25-0.56-1.25-1.25V34.29c0-0.46,0.25-0.88,0.65-1.1c1.2-0.69,10.13-9.59,17.92-17.62
		c0.48-0.5,1.27-0.51,1.77-0.03s0.51,1.27,0.03,1.77c-2.54,2.61-14.5,14.89-17.87,17.6v29.82C30.96,65.42,30.4,65.98,29.71,65.98z"
		/>
	<path class="st0" d="M20.37,65.98c-0.61,0-1.14-0.45-1.24-1.07l-4.5-30.45c-0.1-0.68,0.37-1.32,1.05-1.42
		c0.69-0.1,1.32,0.37,1.42,1.05l4.5,30.45c0.1,0.68-0.37,1.32-1.05,1.42C20.49,65.98,20.43,65.98,20.37,65.98z"/>
	<path class="st0" d="M39.05,65.98c-0.06,0-0.12,0-0.18-0.01c-0.68-0.1-1.15-0.74-1.05-1.42l4.5-30.45c0.1-0.68,0.73-1.16,1.42-1.05
		c0.68,0.1,1.15,0.74,1.05,1.42l-4.5,30.45C40.2,65.54,39.66,65.98,39.05,65.98z"/>
	<path class="st0" d="M52.2,51.11H6.53c-0.69,0-1.25-0.56-1.25-1.25s0.56-1.25,1.25-1.25H52.2c0.69,0,1.25,0.56,1.25,1.25
		S52.89,51.11,52.2,51.11z"/>
	<path class="st0" d="M10.56,46.63c-0.24,0-0.49-0.07-0.69-0.21c-0.3-0.2-0.5-0.52-0.55-0.88L8.5,39.39l-5.33-19.7L0.4,12.63
		c-0.13-0.33-0.11-0.7,0.05-1.02s0.45-0.55,0.79-0.64l21.91-5.93c0.36-0.1,0.74-0.03,1.04,0.18s0.5,0.55,0.53,0.92l0.62,6.97
		l5.39,19.91l2.86,5.89c0.16,0.33,0.17,0.73,0.01,1.06c-0.15,0.34-0.45,0.59-0.81,0.69l-21.91,5.93
		C10.78,46.62,10.67,46.63,10.56,46.63z M3.24,13.01l2.28,5.83c0.02,0.04,0.03,0.09,0.04,0.13l5.37,19.84
		c0.01,0.05,0.03,0.11,0.03,0.16l0.64,4.83l19.07-5.17L28.43,34c-0.03-0.07-0.06-0.14-0.08-0.22L22.9,13.65
		c-0.02-0.07-0.03-0.14-0.04-0.22l-0.5-5.6L3.24,13.01z"/>
</g>
</svg>
