<?xml version="1.0" encoding="utf-8"?>
<!-- Generator: Adobe Illustrator 24.2.0, SVG Export Plug-In . SVG Version: 6.00 Build 0)  -->
<svg version="1.1" id="Layer_1" xmlns="http://www.w3.org/2000/svg" xmlns:xlink="http://www.w3.org/1999/xlink" x="0px" y="0px"
	 viewBox="0 0 60.61 71.54" style="enable-background:new 0 0 60.61 71.54;" xml:space="preserve">
<style type="text/css">
	.st0{fill:#FD5F00;}
</style>
<path class="st0" d="M30.86,51.95L34.8,48c0.76,0.13,1.53,0.19,2.31,0.19c3.85,0,7.73-1.59,10.6-4.47
	c3.64-3.64,5.22-8.87,4.13-13.64c-0.11-0.49-0.5-0.88-0.99-0.99c-4.78-1.09-10,0.49-13.64,4.13c-3.46,3.46-5.06,8.35-4.27,12.92
	l-2.08,2.08v-2.54c0-4.06-1.57-7.87-4.41-10.76c0.78-4.57-0.82-9.46-4.27-12.91c-3.64-3.64-8.87-5.22-13.64-4.13
	c-0.49,0.11-0.88,0.5-0.99,0.99c-1.09,4.78,0.49,10,4.13,13.64c2.88,2.88,6.75,4.47,10.6,4.47c0.78,0,1.55-0.06,2.32-0.2
	c2.35,2.39,3.64,5.54,3.64,8.9v13.74c-6.85,0.18-13.28,1.77-18.58,4.52c-1.31,0.68-0.83,2.65,0.64,2.65l0,0
	c5.38-2.9,12.19-4.56,19.25-4.56s13.87,1.65,19.25,4.56l0,0c1.47,0,1.95-1.97,0.64-2.65c-5.3-2.75-11.73-4.34-18.58-4.52
	C30.86,59.42,30.86,51.95,30.86,51.95z M39.07,35.08c2.79-2.79,6.7-4.13,10.37-3.58c0.54,3.67-0.79,7.57-3.58,10.37
	c-2.35,2.35-5.49,3.67-8.62,3.7l7.56-7.56c0.51-0.51,0.51-1.35,0-1.86c-0.51-0.51-1.35-0.51-1.86,0l-7.57,7.57
	C35.4,40.59,36.72,37.44,39.07,35.08z M16.45,24.94c-0.51-0.51-1.35-0.51-1.86,0c-0.51,0.51-0.51,1.35,0,1.86l7.57,7.57
	c-3.13-0.03-6.28-1.34-8.64-3.7c-2.79-2.79-4.13-6.7-3.58-10.37c3.67-0.54,7.57,0.79,10.37,3.58c2.35,2.35,3.67,5.49,3.7,8.62
	L16.45,24.94z"/>
</svg>
