<?xml version="1.0" encoding="utf-8"?>
<!-- Generator: Adobe Illustrator 24.2.0, SVG Export Plug-In . SVG Version: 6.00 Build 0)  -->
<svg version="1.1" id="Layer_1" xmlns="http://www.w3.org/2000/svg" xmlns:xlink="http://www.w3.org/1999/xlink" x="0px" y="0px"
	 viewBox="0 0 99.72 71.54" style="enable-background:new 0 0 99.72 71.54;" xml:space="preserve">
<style type="text/css">
	.st0{fill:#FD5F00;}
	.st1{fill-rule:evenodd;clip-rule:evenodd;fill:#FD5F00;}
</style>
<g>
	<path class="st0" d="M72.68,60.76h-7.89c-0.69,0-1.25-0.56-1.25-1.25s0.56-1.25,1.25-1.25h6.64v-5.14H50.59v5.14h2.53
		c0.69,0,1.25,0.56,1.25,1.25s-0.56,1.25-1.25,1.25h-3.78c-0.69,0-1.25-0.56-1.25-1.25v-7.64c0-0.69,0.56-1.25,1.25-1.25h23.34
		c0.69,0,1.25,0.56,1.25,1.25v7.64C73.93,60.2,73.37,60.76,72.68,60.76z"/>
	<path class="st0" d="M95.43,60.76h-6.48c-0.69,0-1.25-0.56-1.25-1.25s0.56-1.25,1.25-1.25h5.23V44.59l-3.27-13.51H73.93v27.18h2.83
		c0.69,0,1.25,0.56,1.25,1.25s-0.56,1.25-1.25,1.25h-4.08c-0.69,0-1.25-0.56-1.25-1.25V29.83c0-0.69,0.56-1.25,1.25-1.25H91.9
		c0.58,0,1.08,0.39,1.21,0.96l3.54,14.61c0.02,0.1,0.04,0.2,0.04,0.29v15.07C96.68,60.2,96.13,60.76,95.43,60.76z"/>
	<path class="st0" d="M11.97,60.76H7.73c-0.69,0-1.25-0.56-1.25-1.25v-7.64c0-0.69,0.56-1.25,1.25-1.25h32.83
		c0.69,0,1.25,0.56,1.25,1.25v7.62c0,0.69-0.56,1.25-1.25,1.25h-3.65c-0.69,0-1.25-0.56-1.25-1.25s0.56-1.25,1.25-1.25h2.4v-5.12
		H8.98v5.14h2.99c0.69,0,1.25,0.56,1.25,1.25S12.66,60.76,11.97,60.76z"/>
	<path class="st0" d="M83.12,66.6c-3.91,0-7.08-3.18-7.08-7.08s3.18-7.08,7.08-7.08s7.08,3.18,7.08,7.08S87.03,66.6,83.12,66.6z
		 M83.12,54.93c-2.53,0-4.58,2.06-4.58,4.58s2.06,4.58,4.58,4.58s4.58-2.06,4.58-4.58S85.65,54.93,83.12,54.93z"/>
	<path class="st0" d="M68.56,52.38H5.14c-0.69,0-1.25-0.56-1.25-1.25V18.81c0-0.69,0.56-1.25,1.25-1.25h63.42
		c0.69,0,1.25,0.56,1.25,1.25v32.31C69.81,51.82,69.25,52.38,68.56,52.38z M6.39,49.88h60.92V20.06H6.39V49.88z"/>
	<path class="st0" d="M31.07,66.6c-3.91,0-7.08-3.18-7.08-7.08s3.18-7.08,7.08-7.08s7.08,3.18,7.08,7.08S34.98,66.6,31.07,66.6z
		 M31.07,54.93c-2.53,0-4.58,2.06-4.58,4.58s2.06,4.58,4.58,4.58s4.58-2.06,4.58-4.58S33.6,54.93,31.07,54.93z"/>
	<path class="st0" d="M17.87,66.6c-3.91,0-7.08-3.18-7.08-7.08s3.18-7.08,7.08-7.08s7.08,3.18,7.08,7.08S21.77,66.6,17.87,66.6z
		 M17.87,54.93c-2.53,0-4.58,2.06-4.58,4.58s2.06,4.58,4.58,4.58s4.58-2.06,4.58-4.58S20.4,54.93,17.87,54.93z"/>
	<path class="st0" d="M58.96,66.6c-3.91,0-7.08-3.18-7.08-7.08s3.18-7.08,7.08-7.08s7.08,3.18,7.08,7.08S62.86,66.6,58.96,66.6z
		 M58.96,54.93c-2.53,0-4.58,2.06-4.58,4.58s2.06,4.58,4.58,4.58s4.58-2.06,4.58-4.58S61.48,54.93,58.96,54.93z"/>
	<g>
		<path class="st1" d="M48.09,33.13c0.01-0.01,0.03-0.02,0.03-0.02c-0.01-0.01-0.02-0.01-0.02,0
			C48.09,33.11,48.09,33.13,48.09,33.13L48.09,33.13L48.09,33.13z M49.32,32.51C49.32,32.51,49.31,32.51,49.32,32.51L49.32,32.51
			L49.32,32.51z M49.32,32.51l-0.02,0.01L49.32,32.51L49.32,32.51z M28.44,38.19l0.5-1.72h1.6l0.51,1.72h1.4l-1.7-5.79h-1.31
			l-1.67,5.79H28.44L28.44,38.19z M50.53,34.51l0.1,0.23c0.01-0.02,0.02-0.03,0.05-0.05c0.05-0.04,0.1-0.09,0.12-0.09
			s0.04-0.03,0.05-0.04c0.01-0.01,0.01-0.02,0.01-0.02c0.02,0.01,0.03,0.01,0.04-0.01c0.01,0.06,0.01,0.05,0.03,0.06
			c0.02,0.02,0.02,0.02,0.02,0.04s0,0.06,0,0.06c0.03,0.02,0.06,0.01,0.07,0.01c0.02-0.01,0.08-0.03,0.09-0.03l0,0l-0.02-0.04
			c-0.03-0.06-0.07-0.12-0.11-0.17c0,0,0,0-0.01,0s-0.04-0.01-0.05,0s-0.02-0.01-0.02-0.01c0-0.01,0.01-0.01,0.02-0.02
			c0.01-0.01,0.02-0.02,0.02-0.03c-0.02-0.03-0.04-0.07-0.07-0.1h-0.01c0,0-0.02-0.01-0.04-0.01s-0.04-0.01-0.04-0.01h-0.03
			c0,0-0.02,0-0.03-0.01s-0.03-0.02-0.04-0.03c-0.02,0.02-0.05,0.03-0.08,0.05c0,0.01,0,0.01,0,0.01c0,0.02-0.02,0.03-0.04,0.03
			c0,0-0.02,0.02-0.04,0.03c0.01,0.01,0.02,0.04,0.03,0.07C50.57,34.44,50.54,34.49,50.53,34.51L50.53,34.51L50.53,34.51z
			 M50.82,34.22c-0.01-0.02-0.02-0.03-0.04-0.05c-0.01,0.01-0.02,0.02-0.03,0.02h0.01C50.76,34.2,50.79,34.21,50.82,34.22
			L50.82,34.22z M50.61,34.77l-0.01,0.02c-0.01,0.03-0.03,0.04-0.06,0.06c-0.03,0.01-0.05,0.02-0.08,0.01
			c-0.03-0.01-0.03,0.03-0.03,0.08c0,0.05-0.02,0.07-0.04,0.09s-0.01,0.04-0.01,0.05s0,0.02,0,0.04c-0.05,0.02-0.11,0.04-0.16,0.06
			c-0.05-0.19-0.11-0.37-0.17-0.55l-0.03-0.07c0.13-0.04,0.26-0.08,0.37-0.14l0.01,0.02c-0.02-0.01-0.05,0.02-0.11,0.04
			c-0.02,0-0.05,0.01-0.06,0.02c-0.01,0-0.02,0.01-0.02,0.01s-0.03,0.05-0.01,0.06c0.02,0.01,0.03,0.03,0.03,0.05
			c0,0.01,0.03,0.1,0.03,0.11c0,0.01,0,0.03,0.02,0.03s0.02,0.01,0.03,0.02c0.01,0.01,0.02,0.06,0.02,0.06
			c0.02-0.01,0.06-0.05,0.08-0.03s0.06,0.03,0.06,0.03c0.01-0.01,0.01-0.02,0.01-0.02s0-0.02,0.03-0.03s0.05-0.03,0.05-0.03
			c0.01-0.02,0.02-0.07,0.02-0.09v-0.01L50.61,34.77L50.61,34.77z M50.28,35.41c0.01-0.01,0.01-0.03,0.02-0.04
			c0.01-0.03,0.06-0.08,0.06-0.08l0.04-0.07c-0.01-0.02-0.01-0.05-0.01-0.07c-0.05,0.02-0.1,0.04-0.16,0.05
			C50.25,35.27,50.26,35.34,50.28,35.41L50.28,35.41z M48.92,32.36L48.92,32.36L48.92,32.36L48.92,32.36h0.03l0,0
			c1.7,0.02,3.08,1.4,3.08,3.11s-1.38,3.1-3.08,3.11l0,0h-0.03l0,0l0,0l0,0h-0.03l0,0c-1.7-0.02-3.08-1.4-3.08-3.11
			s1.38-3.1,3.08-3.11l0,0H48.92L48.92,32.36z M49.16,32.49c-0.01,0-0.03-0.01-0.04-0.01c-0.05,0-0.11-0.01-0.11-0.01
			s-0.03-0.01-0.06-0.02l0,0l0,0l0,0l0,0l0,0l0,0l0,0l0,0l0,0l0,0l0,0l0,0l0,0l0,0l0,0c-0.09,0-0.17,0.01-0.26,0.01h0.01l0.01,0.01
			l0.01,0.01c0.02,0.01,0.04,0.03,0.06,0.05c0.05-0.01,0.11-0.01,0.17-0.01l0,0l0,0l0,0l0,0h0.02h0.02l0,0l0,0l0,0l0,0
			c0.06,0,0.11,0.01,0.17,0.01C49.14,32.51,49.15,32.5,49.16,32.49L49.16,32.49z M48.95,32.55L48.95,32.55L48.95,32.55h-0.03h-0.03
			l0,0l0,0c-0.05,0-0.1,0-0.15,0.01h-0.02l-0.01,0.01l-0.01-0.01c-0.06,0.01-0.12,0.02-0.17,0.04v0.01h-0.01
			c-0.05,0.02-0.11,0.04-0.15,0.06v0.01h-0.01c-0.02,0.01-0.03,0.02-0.04,0.02c-0.03,0.02-0.05,0.03-0.07,0.05v0.01h-0.01
			c-0.01,0.01-0.02,0.02-0.03,0.03s-0.02,0.03-0.03,0.04v0.01h-0.01l0,0c-0.01,0.02-0.01,0.03-0.02,0.05c0,0.01,0,0.02,0,0.03v0.01
			l0,0l0,0l0,0c0.01,0,0.02,0,0.04,0c0.01,0.01,0.01,0.01,0.02,0.01c0.01,0,0.01,0.01,0,0.01c0,0-0.03,0-0.04,0c0,0-0.01,0-0.02,0
			c0,0.01,0,0.01,0.01,0.02c0.01,0,0.02,0,0.02,0.01S48.21,33,48.21,33s0.02,0,0.02,0.01c-0.01,0.01-0.01,0.03-0.02,0.03
			c0,0-0.01,0-0.01,0.01s0.01,0.01,0.02,0.02c0.01,0,0.02-0.01,0.03-0.01c0.01-0.01,0.01,0,0.03,0c0.02,0.01,0,0.02-0.01,0.03
			c0,0-0.01,0-0.02,0.01l0.01,0.01l0,0l0,0c0.01,0.01,0.02,0,0.02,0l-0.01,0.01l0.02,0.01l0,0c0-0.01,0.01-0.01,0.01-0.02
			c0-0.01,0.01-0.02,0.01-0.03s0.01-0.02,0.01-0.02l0.02,0.01l0.02,0.05c-0.02,0.01-0.03,0.02-0.02,0.03s0.01,0.02,0.02,0.02
			c0.01,0,0.03,0,0.04,0.01c0,0.01,0.03,0.01,0.04,0.01l-0.02,0.01c0,0,0,0,0,0.01l0.02,0.01c0.01,0,0.02,0.01,0.03,0.01
			c0.02,0.01,0.05,0.02,0.07,0.02l0,0l0.01,0.01c0.05,0.01,0.1,0.02,0.16,0.03v-0.01c-0.01-0.03-0.02-0.04-0.04-0.05
			s-0.08-0.01-0.08-0.01c-0.02-0.02-0.03-0.03-0.02-0.05c0-0.02,0-0.05,0.04-0.05s0.06-0.01,0.06-0.01
			c0.02-0.02,0.04-0.03,0.04-0.03c-0.03-0.01-0.03-0.01-0.01-0.02c0.02-0.01,0.11-0.04,0.11-0.04c0.01,0.01,0.05,0.03,0.05,0.03
			s0.01,0.01,0.01-0.01c0-0.02,0-0.05,0-0.05s0.06-0.01,0.09-0.02c0.02-0.01,0.03,0.01,0.04,0.01c0.02,0.01,0.03,0.01,0.03,0.01
			c-0.05,0.02-0.07,0.03-0.05,0.03s0.03,0.01,0.03,0.01c0.02-0.02,0.1-0.05,0.11-0.03c0,0,0,0.03,0,0.05
			c0.01,0.02,0.01,0.04,0.01,0.09c0,0,0.02,0.03,0.04,0.04c0.02,0.01,0.04,0.02,0.04,0.04s0.01,0.03,0.01,0.04
			c0.03-0.01,0.06-0.01,0.09-0.02l0.01-0.01l0,0c0.02-0.01,0.05-0.01,0.07-0.02c0.01,0,0.02-0.01,0.03-0.01
			c0.02-0.01,0.03-0.01,0.04-0.02l0.01-0.01h0.01c0.01-0.01,0.02-0.01,0.04-0.02c0.02-0.01,0.03-0.02,0.05-0.03
			c0.01-0.01,0.02-0.01,0.03-0.02l0.01-0.01h0.01c0.01-0.01,0.01-0.01,0.02-0.02l0,0c0.01-0.01,0.02-0.03,0.03-0.04
			c0.01-0.01,0.01-0.02,0.02-0.03l0,0l0,0c0,0,0-0.01,0.01-0.01c0.01-0.02,0.01-0.03,0.01-0.05l0,0l0,0v-0.01c0-0.01,0-0.02,0-0.03
			c0-0.02-0.01-0.03-0.02-0.05l0,0h-0.01v-0.01c-0.01-0.01-0.01-0.02-0.02-0.03c-0.04-0.02-0.1-0.05-0.12-0.06
			c-0.02-0.02,0.01-0.01,0.02,0c0.01,0.01,0.04,0.02,0.07,0.03l-0.01-0.01h-0.01v-0.01c-0.02-0.02-0.05-0.04-0.07-0.05
			c-0.01-0.01-0.03-0.02-0.04-0.02h-0.01v-0.01c-0.04-0.02-0.1-0.04-0.15-0.06h-0.01v-0.01c-0.05-0.01-0.11-0.03-0.17-0.04
			l-0.01,0.01l-0.01-0.01h-0.02C49.05,32.55,49,32.55,48.95,32.55L48.95,32.55z M48.89,34.67L48.89,34.67L48.89,34.67L48.89,34.67
			L48.89,34.67L48.89,34.67L48.89,34.67l0.01-0.05l0,0v-0.65l0,0l0,0l0,0l0,0l0,0l0,0c-0.06,0-0.12,0-0.18-0.01
			c-0.06,0-0.12-0.01-0.18-0.02c-0.01,0.05-0.03,0.1-0.04,0.16l-0.01,0.05h0.01h-0.01l-0.01,0.02c0.01,0,0.01,0.01,0.02,0.02
			c0.02,0.01,0.02,0.03,0.01,0.05c0,0.02-0.01,0.07-0.04,0.06c-0.01,0-0.02-0.01-0.03-0.01l-0.01,0.05l0,0
			c0.01-0.01,0.07-0.04,0.07-0.04c-0.02,0.02-0.03,0.04-0.03,0.06c0,0.01-0.02,0.04-0.02,0.04c0.04-0.02,0.05-0.01,0.07,0l0.04,0.02
			c0,0,0,0.02,0.01,0.04s0.02,0.03,0.01,0.05c-0.01,0.01-0.03,0.02-0.03,0.06c0,0-0.11-0.04-0.12-0.05l-0.01-0.01
			c-0.01,0.05-0.02,0.09-0.03,0.14l0,0c0.1,0.01,0.2,0.02,0.3,0.03c0.03,0,0.05,0,0.08,0C48.81,34.66,48.85,34.67,48.89,34.67
			L48.89,34.67L48.89,34.67z M48.89,35.4c-0.21,0-0.42-0.02-0.62-0.05c-0.04,0.26-0.06,0.53-0.09,0.8l0,0
			c0.14,0.02,0.28,0.03,0.43,0.04c0.05,0,0.1,0,0.15,0.01c0.04,0,0.08,0,0.12,0l0,0l0,0l0,0l0,0l0,0l0,0l0,0v-0.75l0,0L48.89,35.4
			L48.89,35.4L48.89,35.4L48.89,35.4L48.89,35.4z M48.89,38.4L48.89,38.4L48.89,38.4L48.89,38.4L48.89,38.4L48.89,38.4L48.89,38.4
			l0.01-0.27h0h-0.01l0,0c-0.1,0-0.2,0-0.29-0.01c-0.01,0-0.01,0.01-0.02,0.01c-0.01,0-0.02,0-0.02,0.02
			c-0.01,0-0.02,0.01-0.02,0.01s-0.02,0.02-0.03,0.02s-0.05,0.02-0.07,0.03s-0.05,0-0.06-0.01c0,0-0.03-0.01-0.04-0.01
			c-0.01,0-0.03-0.01-0.03-0.01s-0.01-0.01-0.02,0l0.01,0.02c0,0,0.01,0,0.01,0.01s0.02,0.03,0.04,0.04
			c0.02,0.01,0.02,0.01,0.02,0.02c0,0.01-0.02,0.01-0.03,0.02c0.02,0.03,0.03,0.07,0.05,0.09l0,0c0.04,0.01,0.09,0.01,0.13,0.01
			c0.08,0.01,0.16,0.01,0.24,0.02C48.8,38.4,48.85,38.4,48.89,38.4L48.89,38.4L48.89,38.4z M48.95,35.4L48.95,35.4L48.95,35.4
			L48.95,35.4l-0.01,0.05l0,0v0.75l0,0l0,0l0,0l0,0l0,0l0,0l0,0c0.04,0,0.08,0,0.12,0c0.05,0,0.1,0,0.15-0.01
			c0.15-0.01,0.29-0.02,0.43-0.04l0,0c-0.02-0.27-0.05-0.54-0.09-0.8C49.38,35.38,49.17,35.39,48.95,35.4L48.95,35.4z M49.61,35.35
			c0.21-0.03,0.4-0.07,0.59-0.13c0.02,0.07,0.04,0.15,0.06,0.22l0.01,0.04c0,0.03-0.01,0.09-0.02,0.11c-0.02,0.03,0,0.03-0.03,0.16
			c0.02,0.01,0.04,0.05,0.06,0.12c-0.01,0.05-0.01,0.1,0,0.14c-0.01,0.01-0.01,0.02-0.02,0.03c-0.18,0.04-0.36,0.08-0.56,0.11
			C49.67,35.88,49.64,35.61,49.61,35.35L49.61,35.35z M51.16,34.69L51.16,34.69c0.04,0,0.08,0,0.08,0c0.02-0.01,0.02-0.02,0.01-0.04
			c-0.01-0.01-0.01-0.02-0.02-0.03C51.21,34.65,51.19,34.67,51.16,34.69L51.16,34.69z M51.33,34.49c0.01-0.01,0.06-0.04,0.06-0.04
			c0-0.02,0-0.03,0-0.05v-0.01v-0.01C51.37,34.42,51.35,34.46,51.33,34.49L51.33,34.49z M51.4,34.36L51.4,34.36
			c0.02-0.01,0.03-0.04,0.03-0.04l-0.01-0.02C51.42,34.31,51.41,34.33,51.4,34.36L51.4,34.36z M51.84,34.72c0,0.02,0,0.04,0.01,0.07
			v-0.01c0-0.01,0-0.02,0-0.03v-0.01L51.84,34.72L51.84,34.72z M51.84,34.84L51.84,34.84c-0.01-0.03-0.02-0.07-0.03-0.08
			c-0.02-0.01-0.05-0.07-0.05-0.08c0-0.01-0.02-0.05-0.04-0.06c-0.02-0.01-0.04-0.06-0.05-0.07c0-0.01,0-0.03-0.04-0.05
			s-0.04-0.02-0.09-0.06c0.01,0.02,0,0.02-0.06-0.03c0.01,0.01,0.06,0.08,0.08,0.11c0.02,0.02,0.05,0.06,0.07,0.09
			s0.03,0.04,0.06,0.05c0.02,0,0.05,0.06,0.05,0.09c0,0.02,0.03,0.05,0.04,0.07c0.02,0.02,0.02,0.04,0.05,0.07l0,0
			C51.83,34.86,51.84,34.85,51.84,34.84L51.84,34.84z M51.51,34.01c0,0,0,0.01,0.01,0.02c0.01,0.02,0.02,0.06,0.04,0.07L51.51,34.01
			L51.51,34.01z M51.8,34.55l0.03,0.05c-0.01-0.03-0.02-0.05-0.03-0.08V34.55L51.8,34.55z M51.41,34.25
			c-0.01-0.03-0.02-0.04-0.02-0.05c-0.01-0.02-0.03-0.08-0.05-0.09s-0.01-0.02-0.01-0.02c-0.01,0.03-0.03,0.06-0.04,0.09
			c0.04,0.05,0.07,0.1,0.11,0.15C51.39,34.3,51.4,34.27,51.41,34.25L51.41,34.25z M51.11,33.97c0-0.01,0-0.01,0-0.02
			c-0.01-0.02-0.01-0.06-0.01-0.06l0.01-0.03c0.02,0.01,0.03,0.01,0.04,0.01l0.02-0.02c-0.01-0.05-0.01-0.09-0.01-0.09
			c-0.03-0.04-0.02-0.04-0.06-0.04h-0.01c-0.01,0.06-0.03,0.12-0.06,0.17C51.06,33.91,51.08,33.94,51.11,33.97L51.11,33.97z
			 M51.37,34.36c-0.01,0.02-0.02,0.04-0.03,0.06c-0.02,0.03-0.03,0.05-0.05,0.08c-0.01,0-0.02,0-0.02,0c-0.02,0-0.03,0.01-0.04,0.04
			c0,0,0,0.03,0,0.04l0,0c-0.02,0.03-0.05,0.05-0.07,0.08l-0.02-0.03l-0.17-0.25c0.01,0.01,0.02,0.01,0.02,0.01
			s-0.01-0.05-0.01-0.07c0-0.01-0.03-0.03-0.05-0.05c-0.01-0.02,0.02-0.01,0.04-0.01l-0.01-0.02c0,0,0.01-0.01-0.02,0
			c-0.01,0-0.04,0-0.07-0.01l-0.06-0.09l0.01-0.01c0.03,0.01,0.07,0.02,0.11,0.02c0,0,0.01,0.02,0.02,0.03
			c0.01,0.01,0.02,0.02,0.04,0.04c0.02,0.01,0.05,0.03,0.06,0.04c0.02,0.01,0.02,0.01,0.03,0c0,0,0,0.02,0,0.04
			c0.01,0,0.05,0.03,0.06,0.03c0.01,0.01,0.01-0.01,0-0.04c-0.01-0.03-0.02-0.02-0.04-0.02s0-0.02,0.02-0.02
			c0.01,0,0.01-0.01,0-0.02c-0.01-0.02-0.02,0-0.05,0l0.01-0.02c0.01-0.02-0.03-0.06-0.04-0.08c-0.01-0.02,0.03-0.04,0.05-0.03
			c0.02,0,0-0.05,0-0.07s-0.03-0.01-0.04-0.02C51.04,34,51.02,33.97,51,33.94c0-0.01,0.01-0.02,0.01-0.02
			c0.03,0.03,0.05,0.06,0.08,0.08c-0.02,0.01-0.01,0.01,0.01,0.01l0.01,0.01c0,0.01,0,0.06-0.02,0.09c0,0,0,0,0.01,0.01
			s0.03,0.04,0.04,0.06c0.01,0.02,0.03,0.02,0.07,0.05c0,0,0,0,0-0.02s0.02-0.02,0.04-0.02C51.29,34.25,51.33,34.3,51.37,34.36
			L51.37,34.36z M50.95,34.37l-0.03-0.05C50.93,34.33,50.95,34.34,50.95,34.37L50.95,34.37L50.95,34.37z M50.19,35.18
			c-0.05-0.19-0.11-0.38-0.18-0.56l-0.02-0.07c-0.09,0.02-0.17,0.05-0.27,0.06c-0.07,0.01-0.14,0.03-0.22,0.04
			c0.04,0.21,0.07,0.43,0.1,0.65C49.81,35.28,50,35.24,50.19,35.18L50.19,35.18z M49.57,35.32c-0.02-0.15-0.04-0.3-0.07-0.44
			c-0.01-0.07-0.02-0.14-0.04-0.21c-0.1,0.01-0.2,0.02-0.3,0.03c-0.07,0-0.14,0.01-0.21,0.01l0,0l0,0l0,0l0,0v0.66
			C49.16,35.36,49.37,35.34,49.57,35.32L49.57,35.32z M49.38,38.46c0.01-0.01,0.03-0.02,0.04-0.04c0.01-0.01,0.01-0.01,0.02-0.02
			c-0.03,0-0.07,0.01-0.1,0.01c-0.12,0.01-0.25,0.02-0.38,0.02l0,0h-0.01h-0.01v0.07c0.14,0,0.27-0.01,0.41-0.03L49.38,38.46
			L49.38,38.46L49.38,38.46L49.38,38.46L49.38,38.46z M49.43,38.46c0.17-0.03,0.34-0.07,0.5-0.13l-0.01-0.02l0,0
			c-0.05,0.01-0.1,0.02-0.15,0.03c-0.09,0.02-0.19,0.04-0.29,0.05C49.46,38.42,49.45,38.44,49.43,38.46L49.43,38.46z M49.51,38.36
			c0.09-0.01,0.17-0.03,0.26-0.05c0.03-0.01,0.07-0.02,0.1-0.02c0.04-0.01,0.08-0.02,0.11-0.03c0.06-0.05,0.11-0.11,0.16-0.18
			c0.03-0.04,0.05-0.08,0.08-0.12c-0.17,0.05-0.36,0.09-0.55,0.11l-0.04,0.01C49.59,38.19,49.55,38.28,49.51,38.36L49.51,38.36z
			 M49.63,38.04c0.18-0.02,0.35-0.06,0.52-0.1c0.03-0.01,0.06-0.02,0.09-0.02c0.05-0.11,0.1-0.23,0.13-0.36
			c0.01-0.03,0.02-0.07,0.02-0.1c-0.21,0.06-0.44,0.11-0.68,0.14C49.69,37.76,49.66,37.91,49.63,38.04L49.63,38.04z M49.71,37.56
			c0.21-0.03,0.42-0.07,0.61-0.12c0.03-0.01,0.05-0.01,0.08-0.02l0.01-0.04c0.03-0.18,0.04-0.37,0.04-0.57
			c-0.22,0.06-0.46,0.11-0.71,0.15C49.73,37.17,49.73,37.37,49.71,37.56L49.71,37.56z M49.73,36.92c0.22-0.03,0.44-0.07,0.64-0.13
			c0.02-0.01,0.05-0.01,0.07-0.02l-0.01-0.27c-0.01-0.08-0.01-0.15-0.02-0.23c-0.02-0.01-0.03-0.02-0.04-0.03
			c-0.01-0.02-0.07-0.05-0.08-0.05c-0.01-0.01-0.01-0.02-0.01-0.03s0.01-0.03,0.01-0.03c-0.03-0.02-0.03-0.04-0.05-0.05l0,0
			c-0.17,0.04-0.35,0.08-0.53,0.1c0.01,0.09,0.01,0.17,0.02,0.26C49.72,36.6,49.73,36.77,49.73,36.92L49.73,36.92z M49.49,34.63
			h0.03c0.13-0.02,0.26-0.04,0.38-0.07c0.02-0.01,0.05-0.01,0.07-0.02c-0.09-0.24-0.19-0.47-0.29-0.66
			c-0.11,0.03-0.22,0.05-0.34,0.07C49.4,34.14,49.45,34.38,49.49,34.63L49.49,34.63z M49.33,33.9c0.09-0.01,0.18-0.03,0.26-0.05
			c0.03-0.01,0.05-0.01,0.07-0.02c-0.04-0.07-0.07-0.13-0.11-0.19l-0.02-0.03l0,0c0,0.02-0.01,0.03-0.03,0.03s-0.03,0.02-0.05,0.03
			s-0.03,0.01-0.06,0.01c-0.03,0-0.02-0.04-0.02-0.04c-0.03,0.01-0.04-0.03-0.07-0.03c0,0,0,0,0.01-0.03s0.03-0.02,0.05,0
			s0.03-0.02,0.09-0.03c0-0.03,0.02-0.02,0.05,0l-0.01-0.02c-0.04-0.07-0.09-0.13-0.13-0.19c-0.02-0.02-0.03-0.04-0.05-0.06
			c-0.03,0.01-0.07,0.02-0.11,0.02c0,0-0.01,0-0.01,0.01c-0.02,0.01-0.01,0.01,0,0.02c0.01,0.01,0.04,0.02,0.05,0.03
			c0.02,0.01,0.01,0.02,0.02,0.03c0.01,0.02-0.01,0-0.03,0c-0.01,0-0.04,0-0.05-0.01s-0.01-0.01-0.03-0.01
			c0.01,0.02,0.02,0.04,0.03,0.07c0.01,0,0.03-0.01,0.05-0.01c0.02-0.01,0.03,0,0.02,0.01s-0.03,0.04-0.04,0.06
			c0.02,0.04,0.03,0.09,0.05,0.14C49.28,33.72,49.31,33.81,49.33,33.9L49.33,33.9z M49.18,33.53c-0.01,0.01-0.03,0.03-0.04,0.04
			c-0.01,0.01-0.04,0.03-0.05,0.05s-0.03,0.04-0.05,0.05s-0.03,0.02-0.04,0.05c-0.01,0.02-0.03,0.05-0.05,0.06v0.16l0,0l0,0l0,0l0,0
			l0,0l0,0l0,0c0.04,0,0.09,0,0.13,0h0.04c0.06,0,0.12-0.01,0.17-0.02l0,0c-0.03-0.1-0.05-0.19-0.08-0.27
			C49.21,33.6,49.19,33.56,49.18,33.53L49.18,33.53z M49.31,33.94c-0.06,0.01-0.12,0.01-0.18,0.02c-0.06,0-0.12,0.01-0.18,0.01l0,0
			l0,0l0,0l0,0l0,0l0,0v0.65l0,0v0.05l0,0l0,0l0,0l0,0l0,0l0,0l0,0c0.04,0,0.09,0,0.13,0c0.03,0,0.05,0,0.08,0
			c0.1-0.01,0.2-0.01,0.3-0.03l0,0c-0.04-0.19-0.07-0.37-0.11-0.53C49.33,34.04,49.32,33.99,49.31,33.94L49.31,33.94z M49.66,36.19
			c-0.14,0.02-0.28,0.03-0.43,0.04c-0.09,0-0.18,0.01-0.28,0.01l0,0l0,0l0,0l0,0v0.27l0,0v0.35v0.12l0,0l0,0l0,0l0,0l0,0l0,0l0,0
			c0.04,0,0.08,0,0.12,0c0.06,0,0.13,0,0.19-0.01c0.15-0.01,0.29-0.02,0.43-0.04l0,0c0-0.16-0.01-0.32-0.02-0.48v-0.08
			C49.67,36.3,49.67,36.25,49.66,36.19L49.66,36.19z M49.7,36.96c-0.14,0.02-0.28,0.03-0.43,0.04c-0.1,0.01-0.21,0.01-0.31,0.01l0,0
			h-0.01h-0.01v0.08c0.01,0,0.02,0,0.03,0c0.03,0,0.07,0,0.09,0.01s0.04,0.01,0.06,0.01c0.02-0.01,0.03,0,0.05,0.01
			s0.08,0.05,0.09,0.06c0.02,0.01,0.03,0.02,0.05,0.01c0.02-0.01,0.05,0.01,0.05,0c0,0,0.03,0.03,0.03,0.08
			c-0.01,0.05-0.02,0.08-0.02,0.08c0,0.01-0.05,0.06-0.07,0.06c-0.02,0.01-0.03,0.03-0.05,0.04c-0.01,0.01-0.02,0.02-0.03,0.03
			c0,0.01-0.04,0.04-0.06,0.05c0,0.01,0,0.02-0.01,0.04c0,0.01,0.01,0.01,0,0.03c0.04,0,0.09,0,0.13-0.01
			c0.13-0.01,0.26-0.02,0.38-0.04l0,0c0.01-0.15,0.02-0.3,0.02-0.47C49.7,37.05,49.7,37.01,49.7,36.96L49.7,36.96z M49.67,37.6
			c-0.12,0.02-0.25,0.03-0.38,0.04c-0.04,0-0.09,0.01-0.13,0.01v0.01c0,0.01-0.01,0.03-0.01,0.06c0,0-0.01,0.02-0.02,0.03
			c-0.02,0.01-0.03,0.05-0.04,0.06c-0.01,0.01-0.01,0.01-0.02,0.03c-0.01,0.01-0.02,0.01-0.02,0.03c-0.02,0-0.04,0.02-0.05,0.03
			c0,0-0.03,0.01-0.04,0c-0.01,0-0.01,0-0.02,0v0.17l0,0v0.03l0,0l0,0l0,0l0,0l0,0l0,0l0,0c0.04,0,0.08,0,0.12,0
			c0.08,0,0.16-0.01,0.24-0.01c0.03,0,0.06,0,0.08-0.01c0.07-0.01,0.13-0.01,0.2-0.02l0,0c0.03-0.1,0.05-0.22,0.07-0.36
			C49.67,37.66,49.67,37.63,49.67,37.6L49.67,37.6z M49.59,38.08c-0.09,0.01-0.18,0.02-0.27,0.03c-0.12,0.01-0.24,0.01-0.36,0.01
			l0,0h-0.01h-0.01v0.27l0,0l0,0l0,0l0,0l0,0l0,0l0,0c0.04,0,0.09,0,0.13,0c0.08,0,0.16-0.01,0.24-0.02c0.04,0,0.09-0.01,0.13-0.01
			l0,0c0.04-0.06,0.08-0.14,0.11-0.23C49.58,38.12,49.58,38.1,49.59,38.08L49.59,38.08z M50.47,38.07c0.03-0.02,0.05-0.04,0.08-0.06
			c0.04-0.04,0.09-0.08,0.12-0.13c0.03-0.04,0.06-0.08,0.09-0.12c-0.13,0.06-0.28,0.12-0.44,0.17c-0.02,0.01-0.04,0.01-0.06,0.02
			l-0.22,0.3c0.05-0.02,0.1-0.03,0.15-0.05c0.03-0.01,0.05-0.02,0.08-0.03C50.34,38.13,50.41,38.1,50.47,38.07L50.47,38.07z
			 M50,38.29c-0.01,0.01-0.02,0.02-0.03,0.02c0.06-0.02,0.11-0.04,0.17-0.07C50.09,38.26,50.05,38.28,50,38.29L50,38.29z
			 M51.29,37.36c0.17-0.21,0.31-0.44,0.41-0.69c-0.02,0.03-0.05,0.06-0.07,0.09c-0.08,0.17-0.18,0.34-0.29,0.49l-0.02,0.03
			c-0.02,0.03-0.04,0.07-0.06,0.1l0,0L51.29,37.36L51.29,37.36L51.29,37.36z M51.18,37.46l0.02-0.02l-0.03,0.04L51.18,37.46
			L51.18,37.46z M51.14,37.49c0.02-0.03,0.06-0.08,0.07-0.1c0.01-0.02,0.05-0.07,0.05-0.09c0.01-0.03,0.05-0.06,0.04-0.1
			c-0.01-0.04,0.01-0.08,0.01-0.08c-0.01-0.06,0-0.06,0.01-0.09l0,0c-0.09,0.06-0.19,0.12-0.29,0.17l-0.18,0.47
			c0.03-0.01,0.06-0.03,0.08-0.05c0.07-0.04,0.13-0.08,0.19-0.13H51.14L51.14,37.49z M50.79,37.71c0.06-0.1,0.11-0.21,0.15-0.33
			c0.02-0.05,0.03-0.1,0.04-0.15c-0.08,0.04-0.15,0.07-0.24,0.1c-0.04,0.02-0.08,0.03-0.12,0.05c-0.06,0.02-0.13,0.04-0.2,0.06
			c-0.01,0.06-0.03,0.13-0.04,0.19c-0.03,0.1-0.06,0.19-0.1,0.28l0.03-0.01c0.04-0.01,0.08-0.03,0.13-0.04
			c0.11-0.04,0.21-0.08,0.3-0.12C50.75,37.72,50.77,37.72,50.79,37.71L50.79,37.71z M50.81,37.73c-0.04,0.06-0.08,0.12-0.12,0.17
			c-0.02,0.03-0.04,0.05-0.07,0.07c0.19-0.13,0.36-0.28,0.51-0.44C51.04,37.6,50.93,37.67,50.81,37.73L50.81,37.73z M51.77,36.49
			c0.02-0.04,0.03-0.09,0.04-0.13c0.01-0.05,0.01-0.1,0.02-0.14c0-0.02,0-0.04,0.01-0.05c-0.04,0.16-0.09,0.31-0.15,0.46
			c0.01-0.01,0.02-0.03,0.03-0.04c0.02-0.02,0.03-0.05,0.04-0.08L51.77,36.49L51.77,36.49L51.77,36.49z M51.33,36.99
			c0.01-0.02,0.02-0.03,0.03-0.04c0.02-0.02,0.04-0.05,0.04-0.08c0-0.02,0.01-0.07,0.02-0.08c0.01-0.01,0.02-0.05,0.02-0.05
			c-0.02-0.04-0.01-0.05,0-0.07s0-0.05,0-0.06c0-0.01,0.01-0.09,0.01-0.09c-0.02-0.01-0.02-0.02-0.04-0.05
			c-0.01-0.01-0.03-0.04-0.04-0.06c-0.05,0.03-0.11,0.07-0.17,0.1c-0.03,0.02-0.06,0.03-0.09,0.05c0,0.21-0.02,0.41-0.06,0.6v0.01
			c0.03-0.02,0.06-0.03,0.09-0.05C51.19,37.08,51.26,37.03,51.33,36.99L51.33,36.99z M50.99,37.19C51,37.16,51,37.13,51.01,37.1
			c0.03-0.16,0.05-0.34,0.05-0.52c-0.18,0.09-0.37,0.16-0.58,0.22l-0.04,0.58v0.03c0.03-0.01,0.06-0.02,0.09-0.03
			s0.06-0.02,0.08-0.03c0.05-0.02,0.09-0.03,0.13-0.05c0.08-0.03,0.15-0.06,0.22-0.09L50.99,37.19L50.99,37.19z M51.95,35.52v-0.05
			v-0.05c0-0.17-0.02-0.34-0.05-0.5v-0.03c-0.01-0.03-0.02-0.05-0.02-0.08c0,0.03-0.01,0.07-0.02,0.1c0.01,0.01,0.01,0.03,0.02,0.05
			c0-0.02-0.01-0.09-0.01-0.11c0.04,0.19,0.06,0.38,0.06,0.58c0,0.09,0,0.17-0.01,0.26c0-0.01,0.01-0.02,0.01-0.03
			C51.94,35.62,51.95,35.57,51.95,35.52L51.95,35.52z M51.34,36.38c0.02-0.05,0.02-0.08,0.02-0.09v-0.06l-0.01-0.08
			c-0.04-0.01-0.06,0-0.07,0.02s-0.04,0.04-0.04,0.04c-0.03-0.04-0.07-0.06-0.07-0.06c-0.05,0.03-0.08,0.05-0.1,0.07
			c0.01,0.1,0.02,0.2,0.02,0.3v0.01l0.02-0.01c0.02-0.01,0.05-0.03,0.07-0.04C51.24,36.44,51.29,36.41,51.34,36.38L51.34,36.38z
			 M51.06,36.54v-0.03c0-0.09-0.01-0.18-0.01-0.26c-0.03,0.04-0.08,0.09-0.09,0.1c-0.04-0.02-0.05,0-0.07,0.02
			c-0.04,0.03-0.05,0.04-0.07,0.04c-0.01,0-0.04,0.02-0.05,0.03c-0.01,0.02-0.02,0.02-0.04,0.02s-0.08,0-0.1-0.02
			c-0.02-0.02-0.07-0.04-0.08-0.04c-0.02-0.01-0.07-0.02-0.07-0.02c-0.01-0.04-0.01-0.05-0.04-0.07l-0.01-0.01l0.02,0.22l0.02,0.26
			c0.06-0.02,0.12-0.04,0.17-0.06c0.13-0.05,0.26-0.1,0.37-0.15L51.06,36.54L51.06,36.54z M51.9,35.83c0,0.04-0.01,0.08-0.02,0.12
			c0,0.06,0,0.12-0.01,0.18c0.03-0.12,0.05-0.25,0.06-0.38C51.93,35.78,51.92,35.8,51.9,35.83L51.9,35.83z M51.05,33.71
			c-0.03,0-0.05,0-0.05,0c-0.02-0.06-0.06-0.12-0.07-0.12c0,0.04-0.01,0.08,0.01,0.1c0.02,0.02,0.01,0.04,0.02,0.04
			c0.02,0,0.02,0.01,0.03,0.02c0,0.01,0.03,0.04,0,0.03c-0.03,0-0.04-0.03-0.05-0.04c-0.02,0.02-0.03,0.01-0.04-0.01
			c0,0.02,0,0.03,0,0.04l0.1,0.09c0.01-0.01,0.01-0.02,0.02-0.03C51.03,33.79,51.04,33.75,51.05,33.71L51.05,33.71z M50.99,33.89
			l-0.03-0.03c0.01,0.01,0.01,0.02,0.01,0.03c0,0,0,0.01,0.01,0.01l0,0L50.99,33.89L50.99,33.89z M50.42,33.74
			c0-0.02,0-0.03,0.01-0.04c0-0.01,0.03-0.03,0.04-0.02v-0.05c0-0.01-0.02-0.03-0.03-0.04c-0.01-0.01-0.02-0.02-0.03-0.03
			s-0.03-0.03-0.03-0.03c-0.01-0.01,0.02-0.02,0.03-0.01c0.03,0,0.02,0,0.01-0.01c-0.01-0.01-0.04-0.02-0.05-0.03
			c-0.03,0.03-0.06,0.07-0.09,0.1l0.04,0.05l0.03,0.02c0.01,0.01,0.01,0.01,0.01,0.02L50.42,33.74L50.42,33.74z M50.76,34.15
			l-0.02,0.01l-0.03,0.02c-0.01-0.01-0.02-0.01-0.02-0.02c-0.02-0.02-0.02-0.03,0-0.05c0,0,0.03,0.01,0.04,0.02L50.76,34.15
			L50.76,34.15z M50.66,34.23l-0.03,0.02v-0.01C50.64,34.23,50.65,34.23,50.66,34.23L50.66,34.23z M50.27,34.06
			c0,0,0-0.01,0.01-0.02c0.02-0.03,0.01-0.08,0-0.11s0.01-0.03,0.03-0.05c0,0-0.02-0.07-0.03-0.09s-0.05-0.05-0.07-0.06
			c-0.02-0.01-0.01-0.03-0.01-0.07l0.03,0.05c0,0,0,0,0.02,0s0.01,0,0.01,0.03c0,0.02,0.02,0.03,0.03,0.04c0,0,0.03-0.01,0.04-0.02
			c0.02-0.01,0.04-0.01,0.06,0l-0.06-0.07c0,0.01,0,0.02-0.01,0.03c-0.02,0.01,0.01,0.02,0,0.03c-0.01,0-0.04-0.04-0.05-0.06
			s-0.06-0.05-0.08-0.06c-0.01,0.01-0.02,0.01-0.03,0.02l-0.03,0.02l0,0c0.01,0.03,0,0.03-0.04,0.02c-0.03,0.02-0.05,0.03-0.08,0.05
			c0.04,0.05,0.08,0.1,0.13,0.16c0.02,0.03,0.05,0.06,0.07,0.09h0.01c0,0,0,0.01,0.01,0.02C50.25,34.02,50.26,34.04,50.27,34.06
			L50.27,34.06z M50.37,34.39c-0.02-0.04-0.03-0.09-0.04-0.1c-0.02-0.01-0.05,0-0.04-0.03c-0.04,0-0.06-0.01-0.07,0.01
			c-0.03-0.01-0.04-0.02-0.03-0.04c0.01-0.02,0.07-0.03,0.07-0.03c-0.02-0.03-0.04-0.04-0.04-0.04s0.03-0.01,0.05-0.01
			c0,0,0.01,0,0.01-0.01c-0.01-0.02-0.03-0.04-0.04-0.06c-0.01,0-0.01,0.01-0.02,0.01c-0.02,0-0.03,0.03-0.03,0.04
			c0,0.01-0.02,0.02-0.03,0.03c-0.01,0-0.02,0.01-0.03,0.01c0.01-0.02,0.01-0.02,0.01-0.04s0.01-0.03,0-0.03
			c-0.01-0.01-0.01-0.02-0.02-0.01c-0.01,0.01-0.02,0.02-0.02,0.02c-0.01,0-0.01-0.02-0.01-0.03c0.01-0.01,0.02-0.03,0.02-0.04
			c0-0.01-0.01-0.02-0.01-0.03c-0.01-0.01-0.02-0.02-0.03-0.03s0-0.02-0.01-0.03c-0.03-0.01-0.04,0-0.06,0
			c-0.01,0.01-0.02,0-0.03-0.01s-0.04-0.05-0.04-0.06c-0.01-0.01-0.02-0.05-0.02-0.05l0.04-0.03c-0.07,0.03-0.14,0.06-0.22,0.08
			L50,34.52c0.06-0.02,0.11-0.03,0.16-0.05C50.24,34.44,50.31,34.42,50.37,34.39L50.37,34.39z M49.93,33.78l0.01,0.04
			c0.01,0.01,0.02-0.01,0.05-0.02c0.01,0,0.03,0.05,0.02,0.08h0.03c0,0,0.02,0,0.04,0.01s0.03,0.01,0.04,0.02
			c0.01,0.01,0.02,0.01,0.03,0.02l-0.02-0.03c-0.04-0.06-0.08-0.11-0.13-0.16C49.98,33.76,49.96,33.77,49.93,33.78L49.93,33.78z
			 M50.18,33.98L50.18,33.98C50.18,33.98,50.18,33.99,50.18,33.98L50.18,33.98L50.18,33.98z M49.18,32.52
			c0.01-0.01,0.02-0.01,0.02-0.02l0,0c0.02,0,0.04,0.01,0.05,0c0,0,0,0,0.01,0s0.03,0,0.04,0l0,0l0,0l0,0l0,0l0,0h0.01l0,0h0.01
			c0,0-0.01,0-0.03,0l0,0C49.22,32.52,49.22,32.52,49.18,32.52L49.18,32.52L49.18,32.52z M49.53,32.63c-0.02,0-0.04-0.01-0.05-0.01
			s-0.01,0-0.02,0c0.01,0,0.02,0.01,0.03,0.02L49.53,32.63L49.53,32.63z M49.95,32.73c0-0.01-0.01-0.01-0.02-0.01
			c-0.03-0.01-0.06-0.04-0.09-0.05c-0.04-0.01-0.04,0.01-0.03,0.02c0.02,0.02,0.01,0.01-0.06,0.01s-0.04-0.01-0.04-0.02
			c-0.01-0.01-0.01-0.02-0.05-0.02c-0.02,0-0.03-0.01-0.03-0.01H49.6c-0.02,0-0.04,0-0.07,0.01c0.03,0.02,0.06,0.04,0.08,0.06
			c0.02,0,0.04,0,0.06,0c0,0-0.01-0.01-0.01-0.02l0.05,0.01C49.79,32.71,49.87,32.72,49.95,32.73L49.95,32.73z M49.93,32.87
			c-0.02-0.01-0.03-0.02-0.04-0.03c0,0-0.05-0.03-0.06-0.05c0-0.01-0.03-0.03-0.06-0.04c-0.04,0-0.07,0-0.11,0h-0.02
			c0.01,0.01,0.02,0.03,0.03,0.04c0.01,0,0.01,0,0.01,0c0.03,0.01,0.08,0.04,0.1,0.03c0.02-0.01,0.04,0,0.06,0.02
			c0.01,0,0.01,0.01,0.01,0.01L49.93,32.87L49.93,32.87z M49.99,32.98L49.99,32.98c0.03-0.02,0.05,0,0.07,0.01
			c0.02,0.01,0-0.03-0.02-0.03s-0.04-0.04-0.05-0.05l-0.03-0.02c-0.05-0.01-0.09-0.02-0.14-0.03c-0.01,0.01-0.01,0.02-0.03,0
			c0,0-0.01-0.01-0.02-0.01c-0.02,0-0.03,0-0.04-0.01h-0.02c0.01,0.02,0.01,0.04,0.01,0.07c0.07,0.01,0.15,0.03,0.24,0.06
			L49.99,32.98L49.99,32.98z M49.83,33.07c0-0.01,0.01-0.02,0.03,0c0.03,0.02,0.03,0.01,0.04,0c0,0,0.07-0.01,0.1-0.02
			c0.03-0.01,0.05-0.01,0.07,0.02c0.01,0.02,0.02,0.02,0.03,0.04s-0.04,0.02-0.06,0.04c0.03,0.01,0.1,0.02,0.14,0.03l0.04-0.02
			c0,0-0.03-0.02-0.04-0.02c-0.01,0-0.05-0.05-0.07-0.06c-0.01,0-0.01-0.01-0.01-0.02c-0.13-0.05-0.26-0.08-0.36-0.1h-0.01
			c0,0.03-0.01,0.05-0.02,0.07L49.83,33.07L49.83,33.07z M50.33,33.46L50.33,33.46c-0.02-0.02,0.01-0.07,0.02-0.07
			c0,0,0.01,0,0.01-0.01c-0.02-0.01-0.04-0.02-0.06-0.04c0,0.01,0,0.02,0,0.03c0,0.02,0,0.02-0.01,0.07c0,0-0.01,0-0.04-0.01
			c-0.03,0-0.03-0.02-0.07-0.05c-0.03-0.03-0.05-0.05-0.08-0.1c-0.03-0.05-0.04-0.03-0.07-0.04c-0.03,0.03,0.03,0.06,0.05,0.07
			s0.02,0.04,0.03,0.08c0,0,0.06,0.06,0.09,0.08c0,0,0.03,0,0.06,0.01c0.01,0.01,0.01,0.02,0.01,0.04l0.01-0.01
			C50.3,33.5,50.32,33.48,50.33,33.46L50.33,33.46z M49.86,33.25c-0.01-0.02-0.01-0.03-0.02-0.04c-0.01-0.03-0.02-0.01-0.01-0.03
			c0.01-0.01,0.01-0.05,0-0.07c-0.02-0.01-0.04-0.02-0.06-0.03c-0.03-0.01-0.05-0.02-0.08-0.03c-0.01,0.01-0.01,0.02-0.02,0.03
			c-0.01,0.01-0.02,0.03-0.03,0.04l0.09,0.05C49.77,33.2,49.81,33.22,49.86,33.25L49.86,33.25z M50.18,33.6
			c-0.01-0.01-0.02-0.01-0.03-0.01c-0.01-0.01-0.02-0.01-0.01,0.02c0,0.01,0,0.01,0,0.02C50.15,33.62,50.17,33.61,50.18,33.6
			L50.18,33.6z M50.08,33.67c-0.01-0.01-0.04-0.04-0.06-0.05c-0.03-0.03-0.07-0.16-0.07-0.18c0-0.03-0.01-0.06-0.04-0.09
			c-0.01-0.01-0.01-0.01-0.02-0.02c-0.04-0.03-0.08-0.06-0.12-0.08c-0.05-0.03-0.11-0.07-0.16-0.1c-0.03,0.02-0.06,0.04-0.1,0.06
			l0.11,0.09c0.12,0.11,0.23,0.22,0.34,0.35c0.02,0.02,0.03,0.04,0.05,0.06C50.03,33.69,50.05,33.68,50.08,33.67L50.08,33.67z
			 M49.98,33.72l-0.07-0.08c-0.09-0.1-0.18-0.19-0.27-0.28c-0.05-0.05-0.11-0.1-0.16-0.14c-0.04,0.02-0.08,0.04-0.13,0.05
			c0.01,0.02,0.03,0.03,0.04,0.05l0,0c0.03,0.04,0.06,0.08,0.09,0.12c0.04,0.06,0.08,0.13,0.12,0.2c0.03,0.06,0.07,0.12,0.1,0.18
			c0.05-0.01,0.09-0.03,0.14-0.05c0.04-0.01,0.07-0.03,0.11-0.05H49.98L49.98,33.72z M47.77,34.71c-0.01,0-0.03,0.01-0.04,0.02
			c0,0,0,0.02,0,0.03s-0.01,0.02-0.02,0.02c-0.01,0.01-0.01,0.01-0.03,0.03c0,0,0-0.03-0.01-0.04c0,0,0,0.02,0,0.03
			s0,0.03-0.01,0.04c0,0.01-0.01,0.01-0.02,0.02c-0.01,0.02-0.01,0.01-0.02,0c-0.01-0.01,0-0.01,0-0.02c0-0.01,0.01-0.03,0.01-0.03
			s0.01-0.02,0.02-0.03c0.01-0.01,0.01-0.01,0-0.01s-0.02,0.01-0.02,0.02c0,0.01,0,0.01-0.01,0.02c-0.01,0.01,0,0.02,0,0.01
			c0-0.01-0.01-0.01-0.03-0.03l0.02,0.04c0,0.01-0.01,0.02-0.02,0.04c0,0,0.01,0,0.02,0.01c0.01,0.01,0,0.03-0.01,0.07
			c0,0-0.04,0.03-0.05,0.04c-0.01,0.01-0.06,0.03-0.1,0.04c-0.03,0.01-0.06,0.01-0.09,0.02c0.09,0.04,0.18,0.07,0.28,0.1
			C47.67,35.02,47.72,34.86,47.77,34.71L47.77,34.71z M46.85,35.77c0.01-0.03,0.02-0.06,0.03-0.09l-0.01-0.02c0,0,0,0.02-0.01,0.03
			s0,0.02,0,0.04c0,0,0,0,0,0.01C46.84,35.75,46.84,35.76,46.85,35.77L46.85,35.77L46.85,35.77z M46.93,35.51
			c0.05-0.14,0.09-0.29,0.15-0.44c-0.01,0-0.01,0-0.03,0c-0.04,0-0.02,0.01-0.05-0.01c-0.03-0.03-0.02,0.02-0.02,0.02
			s-0.05-0.02-0.07-0.05s-0.03-0.01-0.03-0.01S46.8,34.99,46.82,35s-0.05,0.03-0.08,0.02c-0.03-0.01-0.03,0.02-0.04,0.04
			c-0.01,0.03-0.01,0.04-0.02,0.07c0,0-0.03,0.04-0.04,0.04c-0.01,0.01-0.01,0.01,0,0.03c0,0-0.02,0.02-0.02,0.04s0,0.03-0.01,0.07
			c0,0,0,0.04,0,0.06c0,0.03,0.01,0.03,0,0.07c0,0.02,0.01,0.02,0.02,0.05c0.01,0.02,0.01,0.02,0.03,0.06c0,0,0.03,0.01,0.06,0.01
			c0.03,0,0.03,0,0.04,0.03c0.01,0.03,0,0,0,0s0.04,0,0.05-0.04c0,0,0.02-0.03,0.02-0.04c0-0.02,0.01-0.02,0.03-0.02
			s0.02,0.01,0.05,0.01C46.92,35.5,46.92,35.51,46.93,35.51L46.93,35.51z M46.41,35.43l-0.01,0.05l0.02,0.02
			c0.02,0.02,0.04,0.03,0.06,0.05c-0.01-0.01-0.01-0.02-0.02-0.02c-0.01-0.02-0.02-0.05-0.04-0.06
			C46.42,35.45,46.42,35.44,46.41,35.43L46.41,35.43z M46.87,35.78l0.04,0.02c0.11,0.05,0.23,0.1,0.36,0.15
			c0.06,0.02,0.11,0.04,0.17,0.05c0.01-0.03,0.01-0.06,0.02-0.09c0,0,0,0-0.01-0.01s-0.01-0.02-0.01-0.02
			c0.01-0.01,0.02-0.01,0.02,0l0,0c0-0.02,0.01-0.05,0.01-0.07c0.02-0.12,0.05-0.24,0.08-0.36c0.02-0.08,0.04-0.16,0.06-0.23
			c-0.1-0.03-0.2-0.07-0.29-0.11c-0.01,0.01-0.02,0.03-0.03,0.04c0,0,0,0.02-0.01,0.04c0,0.02,0,0.11,0,0.16s-0.01,0.03-0.02,0.06
			c0,0.03-0.01,0.04-0.02,0.04c-0.03,0.01-0.05-0.02-0.04-0.06c0-0.01-0.01-0.11-0.01-0.11c0-0.01,0.02-0.04,0.02-0.06
			s-0.01-0.06-0.03-0.07c-0.01,0-0.05-0.01-0.08-0.06c0-0.01,0-0.01-0.01-0.01c-0.06,0.15-0.11,0.31-0.16,0.47
			c0.01,0.01,0,0.01,0,0.02c0,0,0,0,0,0.01C46.92,35.64,46.89,35.71,46.87,35.78L46.87,35.78z M48.24,35.35
			c-0.21-0.03-0.4-0.07-0.59-0.13c-0.02,0.07-0.04,0.15-0.06,0.22c-0.03,0.12-0.06,0.25-0.08,0.37v0.01l0,0
			c0.01,0.01,0.02,0.01,0.03,0.01s0.03,0,0.04,0.01c0.01,0.01,0.03,0.02,0.04,0.02c0.02,0,0.02,0,0.03,0.02
			c0.01,0.01,0.01,0.02,0.02,0.03c0.01,0,0.03,0.01,0.03,0.03c0,0.01,0,0.02-0.01,0.01c-0.01,0-0.05-0.01-0.06,0
			c-0.03-0.01-0.03,0-0.05,0c-0.02,0.01-0.02,0.01-0.03,0s-0.01-0.02-0.01-0.02c-0.03-0.01-0.04-0.01-0.05-0.01l-0.01-0.01
			c-0.01,0.03-0.01,0.07-0.02,0.1c0.02,0.01,0.05,0.01,0.07,0.02c0.19,0.05,0.39,0.09,0.6,0.12C48.17,35.88,48.2,35.61,48.24,35.35
			L48.24,35.35z M47.51,35.85l-0.01,0.03h0.01c0.01,0,0.02,0,0.01-0.01C47.51,35.87,47.51,35.86,47.51,35.85L47.51,35.85z
			 M46.35,34.57l-0.01,0.02l-0.02,0.04c-0.08,0.16-0.15,0.33-0.21,0.5l0.01,0.02c0.05,0.09,0.12,0.17,0.2,0.25l0.02,0.02l0.03,0.03
			l0.01-0.03l0.01-0.04c0-0.01-0.01-0.02-0.01-0.02c0-0.02,0-0.03-0.01-0.04c-0.01-0.01-0.01-0.03-0.01-0.03s0.01,0.01,0,0
			s-0.01-0.02-0.01-0.04c0-0.01,0.04-0.13,0.04-0.13c-0.01-0.06-0.01-0.08-0.01-0.09s0-0.01,0-0.02c0-0.02-0.01-0.03,0-0.04
			c-0.01-0.02,0-0.04,0-0.04c0-0.01,0-0.03,0-0.03c0.02-0.02,0.02-0.03,0.02-0.03c-0.01-0.02-0.01-0.02,0-0.04v-0.04
			c0,0,0.01-0.06,0-0.08s0.01-0.09,0.03-0.11c0.01-0.02,0.02-0.08,0-0.11c0,0-0.04,0.11-0.05,0.12c0,0.01-0.01,0.05-0.01,0.07
			c-0.01,0.01-0.01,0.03,0,0.06l-0.01,0.05c0,0,0,0.05-0.01,0.06c-0.01,0.02-0.01,0.08-0.01,0.11s0,0.04,0,0.05
			s-0.02,0.03-0.02,0.02c-0.01-0.01-0.01-0.05,0-0.08c0,0,0-0.02-0.01-0.04c-0.01-0.01,0.02-0.1,0.03-0.14l-0.01-0.07
			c0,0,0,0,0.03-0.02C46.34,34.66,46.35,34.6,46.35,34.57L46.35,34.57z M46.42,34.31c-0.03-0.08-0.04-0.16-0.04-0.24v-0.02
			c-0.13,0.17-0.25,0.37-0.34,0.59c-0.01,0.03-0.03,0.07-0.04,0.1v0.01c0,0.01,0,0.02,0,0.03c0,0.1,0.03,0.19,0.07,0.29
			c0,0.01,0.01,0.02,0.01,0.03c0.05-0.15,0.11-0.3,0.18-0.44l0.01-0.02c0.04-0.07,0.07-0.14,0.11-0.2c0.01-0.03,0.02-0.07,0.03-0.11
			L46.42,34.31L46.42,34.31z M46.39,33.99c0-0.03,0.01-0.06,0.02-0.09l-0.38,0.7C46.12,34.37,46.25,34.17,46.39,33.99L46.39,33.99z
			 M46.54,33.65L46.54,33.65v0.02c-0.04,0.06-0.07,0.12-0.09,0.19v0.01c-0.01,0.02-0.01,0.05-0.02,0.07
			c0.08-0.1,0.17-0.19,0.26-0.28l0.02-0.02l0.04-0.03c0-0.08,0.02-0.15,0.05-0.23c-0.07,0.05-0.13,0.11-0.19,0.17
			c-0.02,0.02-0.04,0.04-0.06,0.06L46.54,33.65L46.54,33.65z M46.42,34c0,0.02,0,0.04,0,0.06v0.01c0,0.05,0.01,0.1,0.02,0.14
			c0.01-0.01,0.01-0.02,0.01-0.03c0-0.02,0.04-0.07,0.07-0.11l-0.01-0.02c0,0,0.01-0.01,0.02-0.03c0.01-0.03,0.02-0.03,0.03-0.06
			c0.01-0.02,0.05-0.06,0.05-0.06c0.02,0,0.12-0.12,0.14-0.13c0.01,0,0.02-0.01,0.02-0.02c-0.01-0.03-0.01-0.07-0.02-0.1v-0.01
			l-0.01,0.01l0,0C46.63,33.76,46.52,33.88,46.42,34L46.42,34z M47.66,35.18c0.18,0.05,0.38,0.1,0.58,0.13
			c0.03-0.22,0.07-0.44,0.1-0.65c-0.07-0.01-0.14-0.02-0.21-0.04c-0.02,0.02-0.04,0.06-0.04,0.03c0-0.02-0.01-0.03,0-0.04
			c-0.03-0.01-0.05-0.01-0.08-0.02c-0.01,0-0.03,0-0.04,0.01c-0.01,0.01-0.03,0.01-0.04,0.01c-0.01,0-0.02,0.01-0.02,0.03
			c0,0.01-0.01,0.02-0.03,0.04c0,0,0.01,0.01,0.01,0.02c0.01,0.01,0.02,0.02,0.03,0.01c0,0.01-0.01,0.02-0.03,0.01
			c-0.02,0-0.04-0.01-0.05,0s-0.02,0-0.03,0C47.76,34.86,47.71,35.02,47.66,35.18L47.66,35.18z M48.28,35.32
			c0.2,0.03,0.41,0.04,0.63,0.05V34.7l0,0l0,0l0,0l0,0c-0.07,0-0.14,0-0.21-0.01c-0.1-0.01-0.2-0.02-0.3-0.03
			c-0.01,0.07-0.02,0.14-0.04,0.21C48.32,35.02,48.3,35.17,48.28,35.32L48.28,35.32z M48.47,38.46L48.47,38.46L48.47,38.46
			L48.47,38.46l0.03,0.01c0.13,0.02,0.27,0.03,0.41,0.03v-0.07H48.9h-0.01l0,0c-0.13,0-0.25-0.01-0.38-0.02
			c-0.03,0-0.07-0.01-0.1-0.01c0.01,0.01,0.01,0.01,0.02,0.02C48.44,38.43,48.46,38.45,48.47,38.46L48.47,38.46z M48.42,38.46
			c-0.02-0.02-0.04-0.04-0.05-0.06c-0.09-0.01-0.17-0.03-0.25-0.04l0.02,0.02c0.01,0.01,0,0.01-0.01,0.02
			C48.22,38.42,48.32,38.44,48.42,38.46L48.42,38.46z M48.34,38.36c-0.02-0.03-0.03-0.06-0.05-0.09c-0.01,0-0.02,0-0.02,0
			c-0.01,0.01-0.05,0-0.06-0.01c-0.01,0-0.02-0.01-0.03,0s-0.02,0-0.03,0c0,0,0,0.01,0,0.02c0,0.01,0.01,0.02,0.01,0.03l-0.01,0.01
			c-0.01,0-0.02,0-0.03,0.01c-0.01,0-0.01,0.01-0.02,0.01c0,0,0,0-0.01,0C48.18,38.33,48.26,38.35,48.34,38.36L48.34,38.36z
			 M47.68,37.97l-0.04-0.01c0.02,0.04,0.05,0.08,0.08,0.12l0,0c0-0.01,0-0.01,0.01-0.02C47.72,38.06,47.69,38,47.68,37.97
			L47.68,37.97z M47.47,37.48c0.01,0.03,0.01,0.05,0.02,0.08c0.03,0.13,0.07,0.25,0.13,0.36l0.05,0.01c-0.01-0.02-0.01-0.04,0-0.05
			c0.01-0.02,0-0.05-0.01-0.07c-0.01-0.03-0.02-0.04,0-0.06c0.01-0.02-0.01-0.04-0.01-0.07s-0.02-0.04-0.03-0.06
			s-0.02-0.03-0.03-0.04c-0.01-0.01-0.03-0.03-0.05-0.04c-0.02-0.01-0.04-0.02-0.05-0.04C47.48,37.49,47.47,37.48,47.47,37.48
			L47.47,37.48z M48.13,36.57c0-0.04,0-0.09,0.01-0.13c0-0.09,0.01-0.17,0.02-0.26c-0.24-0.03-0.47-0.08-0.68-0.14
			c-0.01,0.07-0.02,0.13-0.03,0.2c0.03-0.02,0.06-0.01,0.07-0.03c0.02-0.02,0.02-0.01,0.02-0.01c0.01,0.01,0,0-0.01,0.02
			c-0.01,0.01-0.03,0.07-0.03,0.08c0,0.01,0,0.02,0.01,0.03c0.03,0.01,0.03,0,0.04,0c0.01-0.01,0.01-0.01,0.02-0.01
			c0-0.02,0.01-0.02,0-0.04c0.01,0,0.03,0.01,0.03,0.01c0.01,0.01,0.03,0.04,0.04,0.04c0.01,0,0.02,0.01,0.03,0.02
			c0.03,0,0.04,0,0.06,0.01c0.01,0.01,0.02,0,0.04,0.01c0.01,0.01,0.04,0.02,0.05,0.03c0.02,0,0.04,0,0.06,0s0.03,0.01,0.04,0
			c0.02,0.01,0.02,0,0.03,0.01s0.01,0.02,0.02,0.02c0.01,0,0.06,0.03,0.06,0.03c-0.01,0.02-0.01,0.04,0,0.04
			c0.01,0.01,0.02,0.01,0.03,0.01c0,0,0.03,0.01,0.04,0.02C48.1,36.55,48.11,36.56,48.13,36.57L48.13,36.57z M48.35,34.63
			c0.01-0.05,0.02-0.1,0.03-0.14c-0.01,0-0.02,0-0.03,0c0-0.03,0.01-0.05,0.03-0.05h0.01c0.01-0.04,0.02-0.08,0.03-0.12
			c-0.01,0.02-0.04,0.03-0.05,0.04c-0.01,0-0.09-0.01-0.09-0.01s-0.04-0.03-0.07-0.02s-0.05,0-0.05,0
			c-0.02-0.01-0.02-0.01-0.03,0.01c-0.01,0.02-0.05,0.04-0.06,0.03c-0.01,0-0.04,0.03-0.04,0.03c0.06-0.01,0.06,0.01,0.09-0.01
			c0.03-0.02,0.07-0.02,0.08-0.01c0.01,0.01,0,0.05-0.02,0.04s-0.05,0.01-0.05,0.01c0.04,0.01,0.06,0.02,0.04,0.04
			c-0.01,0.02,0,0.05,0,0.05s0.01,0.04,0.02,0.04c0.01,0,0.06,0.03,0.07,0.03s0.02,0.02,0.03,0.02s0.02,0-0.03,0.01
			c-0.02,0-0.04,0-0.05,0c0.04,0.01,0.09,0.02,0.14,0.02V34.63L48.35,34.63z M48.45,34.17l0.01-0.02c-0.02,0-0.03,0.01-0.04,0.01
			c-0.02,0.01-0.06,0.01-0.06,0.01c0,0.02,0.02,0.02,0.04,0.02C48.42,34.19,48.43,34.18,48.45,34.17L48.45,34.17z M48.46,34.13
			c0.02-0.07,0.03-0.13,0.05-0.19c-0.05-0.01-0.09-0.01-0.14-0.02c-0.01,0.01-0.01,0.03-0.01,0.03l0.03,0.01
			c-0.01,0.02-0.01,0.04,0,0.05s-0.01,0.05-0.01,0.05C48.41,34.08,48.43,34.1,48.46,34.13L48.46,34.13L48.46,34.13z M48.3,33.9
			c-0.03-0.01-0.06-0.01-0.09-0.02c-0.01,0.01-0.03,0.02-0.03,0.02c0.06,0.03,0.05,0.01,0.08,0.01C48.27,33.91,48.29,33.9,48.3,33.9
			L48.3,33.9z M48.05,34.57c0.03,0.01,0.06,0.01,0.09,0.02l0.03-0.01C48.14,34.56,48.1,34.55,48.05,34.57
			C48.06,34.57,48.05,34.57,48.05,34.57L48.05,34.57z M48.51,33.9c0.03-0.1,0.05-0.19,0.08-0.27c0.04-0.12,0.08-0.22,0.12-0.29
			c0-0.01-0.01-0.02-0.01-0.03c-0.06-0.01-0.11-0.02-0.16-0.03c-0.02,0.02-0.03,0.04-0.05,0.06c-0.01,0.02-0.03,0.03-0.04,0.05
			c0.01,0.01,0.01,0.03,0.01,0.03s0.01,0.01,0.01,0.03s0,0.09,0,0.09s0,0.02,0.01,0.03s0.03,0.02,0.03,0.02
			c-0.01,0.02-0.01,0.03-0.02,0.03c-0.01,0-0.03,0.02-0.04,0.03c-0.01,0.01-0.02,0.01-0.02,0s-0.02-0.04-0.02-0.04l-0.01-0.03
			c-0.02,0-0.03,0-0.03,0s0-0.02,0,0s0,0.05,0,0.05s-0.01,0.01,0,0.02c0.01,0,0.03,0.02,0.03,0.02c0,0.02-0.02,0.04-0.02,0.05
			s-0.01,0.03-0.01,0.03c-0.01,0.02-0.05,0.02-0.05,0.02c-0.02-0.03-0.03-0.03-0.04-0.03c-0.01,0-0.02-0.02-0.04-0.03
			c0,0-0.01,0-0.01-0.01c-0.01,0.03-0.03,0.05-0.04,0.08c0.02,0.01,0.04,0.01,0.04,0.01c-0.01,0.02-0.01,0.04-0.01,0.05l0.02,0.01
			c0.03,0.01,0.05,0.01,0.08,0.02c0.01-0.01,0.01-0.01,0.02-0.02c0.01,0.01,0.02,0.02,0.02,0.03C48.42,33.89,48.47,33.9,48.51,33.9
			L48.51,33.9z M48.71,33.42c-0.03,0.06-0.06,0.14-0.08,0.22c-0.03,0.08-0.05,0.17-0.08,0.27l0,0c0.06,0.01,0.11,0.01,0.17,0.02
			h0.04c0.04,0,0.09,0,0.13,0l0,0l0,0l0,0l0,0l0,0l0,0l0,0v-0.04l-0.04,0.02c-0.03-0.02-0.07-0.04-0.08-0.05
			c-0.01-0.01-0.03-0.02-0.04-0.04c-0.01-0.02,0-0.04-0.03-0.06c-0.02-0.03-0.03-0.05-0.02-0.07c0-0.02-0.01-0.06-0.01-0.06
			s0-0.02,0.01-0.04c0-0.02,0.01-0.05,0.02-0.05c0.01-0.01,0.06-0.03,0.06-0.03c0-0.04-0.01-0.07-0.01-0.09
			C48.73,33.42,48.72,33.42,48.71,33.42L48.71,33.42z M48.18,36.19c0,0.06-0.01,0.12-0.01,0.17v0.08c0,0.05-0.01,0.1-0.01,0.15
			c0.01,0.01,0.01,0.02,0.01,0.03c0,0.03,0.04,0.05,0.04,0.05c0.02,0,0.03,0,0.05,0s0.05,0,0.06,0c0.01,0,0.03,0,0.05,0.02
			c0.06,0.01,0.07,0.03,0.08,0.05c0.03,0.02,0.03,0.02,0.05,0.03c0.01,0.01,0.05,0.02,0.05,0.04c0.01,0.02,0.01,0.04,0.02,0.05
			c0.01,0.01,0.04,0.02,0.02,0.04s-0.05,0.06-0.05,0.06h-0.01h0.03c0.01-0.01,0.01,0,0.02,0c0.06,0,0.12,0.01,0.18,0.01
			c0.04,0,0.08,0,0.12,0l0,0l0,0l0,0l0,0l0,0l0,0l0,0v-0.12V36.5l0,0v-0.27l0,0l0,0l0,0l0,0c-0.09,0-0.19,0-0.28-0.01
			C48.47,36.22,48.32,36.21,48.18,36.19L48.18,36.19z M48.91,37.07v-0.06H48.9h-0.01l0,0c-0.07,0-0.15,0-0.22,0
			c-0.01,0.01-0.03,0.04-0.05,0.04c-0.03,0-0.05,0-0.05,0c0.01,0.02,0.02,0.03,0.04,0.03s0.03,0,0.04-0.02
			c0.02-0.02,0.02-0.05,0.05-0.05s0.05,0,0.08,0.01C48.82,37.04,48.88,37.05,48.91,37.07L48.91,37.07L48.91,37.07z M48.57,37h-0.03
			l0,0c0,0.01,0,0.02,0.01,0.03C48.56,37.01,48.56,37.03,48.57,37L48.57,37z M48.64,38.08c0.04,0,0.08,0,0.13,0.01
			c0.04,0,0.08,0,0.12,0l0,0l0,0l0,0l0,0l0,0l0,0l0,0v-0.03l0,0V37.9c-0.01,0-0.02,0-0.03,0c0,0-0.02,0.01-0.03,0.01
			s-0.03,0.01-0.04,0.01c-0.01,0-0.03,0.01-0.04,0.01c-0.01,0.01-0.02,0.01-0.05,0.02c-0.01,0.01-0.01,0.01-0.02,0.02
			c-0.01,0-0.02,0.01-0.02,0.02c-0.01,0.01,0,0.03,0,0.04c0,0.01,0.01,0,0,0.02l-0.03,0.02C48.65,38.08,48.65,38.08,48.64,38.08
			L48.64,38.08z M47.38,38.07c0.06,0.03,0.13,0.06,0.19,0.09c0.03,0.01,0.05,0.02,0.08,0.03c0.05,0.02,0.1,0.04,0.15,0.05
			l-0.01-0.01c-0.02,0-0.04-0.01-0.04-0.02c0-0.01-0.03-0.02-0.03-0.04s-0.01-0.03-0.03-0.04c0,0,0.01-0.01,0.01-0.03l-0.11-0.16
			c-0.02-0.01-0.04-0.01-0.06-0.02c-0.16-0.05-0.3-0.1-0.44-0.17c0.03,0.04,0.06,0.08,0.09,0.12c0.04,0.05,0.08,0.09,0.12,0.13
			C47.33,38.03,47.35,38.05,47.38,38.07L47.38,38.07z M47.85,38.29c-0.05-0.01-0.09-0.03-0.14-0.04c0.06,0.02,0.11,0.05,0.17,0.07
			C47.87,38.31,47.86,38.3,47.85,38.29L47.85,38.29L47.85,38.29L47.85,38.29L47.85,38.29L47.85,38.29z M46.56,37.36L46.56,37.36
			l0.02,0.02l0,0c-0.02-0.03-0.04-0.06-0.06-0.1c-0.06-0.12-0.12-0.25-0.16-0.37c-0.09-0.08-0.16-0.16-0.22-0.24
			C46.25,36.92,46.39,37.15,46.56,37.36L46.56,37.36z M46.67,37.46c0.02,0.02,0.04,0.03,0.06,0.05c0.06,0.04,0.12,0.09,0.19,0.13
			c0.03,0.02,0.06,0.03,0.08,0.05l-0.18-0.47c-0.16-0.08-0.29-0.17-0.41-0.26c0.04,0.11,0.08,0.21,0.14,0.32
			c0.02,0.04,0.04,0.08,0.06,0.11C46.63,37.41,46.65,37.43,46.67,37.46L46.67,37.46z M47.06,37.71c0.02,0.01,0.04,0.02,0.06,0.03
			c0.09,0.04,0.19,0.08,0.3,0.12c0.04,0.01,0.08,0.03,0.13,0.04l0.03,0.01c-0.04-0.09-0.07-0.18-0.1-0.28
			c-0.02-0.05-0.03-0.11-0.04-0.17c-0.01,0-0.01-0.01-0.03-0.03c-0.06-0.02-0.12-0.04-0.17-0.06c-0.04-0.01-0.08-0.03-0.12-0.05
			c-0.08-0.03-0.16-0.07-0.24-0.1c0.01,0.05,0.03,0.1,0.04,0.15C46.95,37.5,47,37.61,47.06,37.71L47.06,37.71z M47.03,37.73
			c-0.12-0.06-0.23-0.13-0.33-0.2c0.15,0.17,0.32,0.31,0.51,0.44c-0.02-0.02-0.04-0.05-0.07-0.07
			C47.11,37.85,47.07,37.79,47.03,37.73L47.03,37.73z M46.07,36.49L46.07,36.49L46.07,36.49c0.02,0.04,0.04,0.06,0.05,0.09
			c0.05,0.08,0.11,0.16,0.19,0.24c0.01,0.01,0.02,0.02,0.04,0.03l-0.09-0.62c-0.11-0.1-0.2-0.2-0.27-0.31c0,0.1,0.01,0.2,0.02,0.3
			c0.01,0.05,0.01,0.1,0.02,0.14C46.04,36.41,46.06,36.45,46.07,36.49L46.07,36.49z M46.4,36.89c0.01,0.01,0.02,0.02,0.04,0.03
			c0.09,0.07,0.19,0.14,0.3,0.2c0.03,0.02,0.06,0.03,0.09,0.05v-0.01c-0.04-0.19-0.06-0.39-0.06-0.6c-0.03-0.02-0.06-0.03-0.09-0.05
			c-0.14-0.08-0.26-0.16-0.37-0.25c0,0.08,0.01,0.17,0.02,0.25C46.33,36.64,46.36,36.77,46.4,36.89L46.4,36.89z M46.86,37.19
			l0.04,0.02c0.07,0.03,0.14,0.06,0.22,0.09c0.04,0.02,0.09,0.03,0.13,0.05c0.02,0.01,0.05,0.02,0.08,0.03
			c-0.01-0.02-0.03-0.03-0.03-0.04c0-0.02-0.02-0.04-0.03-0.06s-0.03-0.03-0.03-0.05s-0.01-0.03-0.03-0.06
			c-0.02-0.02-0.02-0.03-0.02-0.05s0-0.03-0.04-0.07c-0.01-0.02-0.07-0.08-0.08-0.1c-0.02-0.02-0.01-0.04-0.02-0.06
			c-0.01-0.02,0-0.03,0.02-0.03s0.02-0.02,0.02-0.03s0-0.02-0.02-0.05c0,0,0-0.04,0-0.06s0.02-0.02,0.02-0.04
			c-0.1-0.04-0.2-0.08-0.29-0.13c0,0.18,0.02,0.36,0.05,0.52C46.84,37.13,46.85,37.16,46.86,37.19L46.86,37.19z M45.9,35.52
			c0,0.05,0.01,0.1,0.02,0.15c0.01,0.04,0.02,0.08,0.04,0.12l0.01,0.01l0.11-0.65c-0.06-0.1-0.09-0.21-0.1-0.32
			c-0.01,0.02-0.02,0.05-0.02,0.08v0.03c-0.03,0.16-0.05,0.33-0.05,0.5v0.05L45.9,35.52L45.9,35.52z M45.99,35.86
			c0.01,0.01,0.01,0.02,0.02,0.03c0.05,0.09,0.12,0.18,0.21,0.26c0.01,0.01,0.03,0.03,0.04,0.04c0-0.07,0-0.13,0.01-0.2
			c0.01-0.17,0.05-0.34,0.09-0.5c-0.02-0.02-0.05-0.04-0.07-0.06c-0.08-0.08-0.14-0.16-0.19-0.24c-0.02,0.08-0.04,0.16-0.06,0.24
			C46.01,35.57,46,35.71,45.99,35.86L45.99,35.86z M46.3,36.22l0.03,0.02c0.1,0.08,0.21,0.16,0.34,0.23
			c0.02,0.01,0.05,0.03,0.07,0.04l0.02,0.01v-0.01c0-0.14,0.01-0.29,0.03-0.44c0.01-0.05,0.01-0.1,0.02-0.15
			c-0.01,0-0.01,0-0.01-0.01c-0.01-0.01-0.04-0.05-0.06-0.06c-0.02-0.01-0.03-0.04-0.04-0.05c-0.01-0.01-0.03-0.04-0.03-0.05
			c-0.01-0.02-0.02-0.06-0.02-0.06l0,0c-0.02-0.01-0.04-0.03-0.06-0.04c-0.02,0-0.02,0-0.03-0.01c0-0.01-0.02-0.02-0.03-0.03
			c-0.05-0.03-0.1-0.07-0.14-0.11c-0.04,0.14-0.06,0.28-0.08,0.42C46.3,36.03,46.3,36.13,46.3,36.22L46.3,36.22z M46.79,36.54
			l0.04,0.02c0.08,0.04,0.17,0.08,0.27,0.11c0,0,0.01,0,0.02,0c0.02,0,0.04-0.01,0.05-0.04c0.01-0.03,0.03-0.03,0.04-0.02
			c0.02,0.01,0.02,0,0.05-0.04c0,0-0.02,0-0.03-0.02c-0.02-0.02,0-0.08,0-0.11c0-0.02,0-0.02-0.02-0.06
			c-0.01-0.02-0.02-0.04-0.01-0.05c0.01-0.01,0.01,0,0-0.02s-0.04-0.04-0.04-0.04c-0.02,0.01-0.04,0.01-0.05,0.02
			c-0.01,0.01-0.01,0-0.01,0c0.01,0.01,0.01,0.03,0.01,0.04l-0.02,0.01c-0.01-0.02-0.02-0.03-0.02-0.03c0-0.01-0.01-0.01-0.01-0.02
			c0-0.01-0.01-0.01-0.03-0.02c-0.01-0.01-0.04-0.02-0.04-0.03c-0.01-0.01-0.04-0.05-0.04-0.07s-0.03-0.04-0.03-0.04
			c0,0.02,0,0.03-0.01,0.02s-0.02-0.02-0.02-0.03s0-0.05,0-0.05c-0.01-0.03-0.04-0.1-0.05-0.13c-0.01,0.04-0.01,0.09-0.02,0.13
			c-0.02,0.15-0.03,0.29-0.03,0.43L46.79,36.54L46.79,36.54z M47.42,36.26l0.02-0.22c-0.16-0.05-0.31-0.1-0.45-0.16l0,0
			c0,0.01,0.02,0.02,0.03,0.03s0.01,0.01,0.01,0.03c-0.01,0.01,0,0.01-0.01,0.03c0,0,0,0.03-0.01,0.06C47,36.05,47,36.06,47,36.08
			s0.01,0.02-0.01,0.04c0,0,0,0.02,0.02,0.03c0,0.01,0,0.01,0.01,0.03c0.01,0.01,0.02,0.04,0.04,0.05c0.01,0.02,0.01,0.03,0.02,0.02
			c0.01,0,0.04,0,0.08,0c0.03,0,0.03,0,0.04,0.02c0.01,0.02,0.02,0.03,0.05,0.05c0.02,0,0.06,0,0.06-0.01s0.03-0.02,0.03-0.02
			c0-0.04-0.01-0.04,0.01-0.04C47.36,36.25,47.39,36.26,47.42,36.26L47.42,36.26z M45.96,35.87c-0.02-0.04-0.04-0.08-0.05-0.12
			c0.01,0.13,0.03,0.25,0.06,0.38C45.96,36.04,45.96,35.95,45.96,35.87L45.96,35.87z M46.95,33.2c-0.01,0.02-0.03,0.03-0.04,0.05
			c0.09-0.06,0.18-0.11,0.27-0.16l0.04-0.02c0.04-0.02,0.08-0.04,0.12-0.06c0.02-0.02,0.07-0.05,0.08-0.07c0,0-0.02,0.01-0.04,0.01
			c-0.01,0-0.03,0-0.03-0.02c0-0.01,0-0.01-0.01-0.01c-0.03,0.01-0.05,0.03-0.08,0.04c-0.04,0.02-0.07,0.04-0.1,0.06l-0.06,0.05
			L46.95,33.2L46.95,33.2z M46.86,33.33L46.86,33.33l-0.02,0.02c-0.03,0.06-0.05,0.13-0.06,0.2c0,0.01,0,0.02,0,0.03
			c0.04-0.03,0.08-0.07,0.12-0.1c0.08-0.06,0.17-0.12,0.25-0.18c0-0.01-0.01-0.01-0.03-0.01c0,0,0.02-0.02,0.04-0.03
			c0.02-0.02,0.08-0.07,0.11-0.09s0.01-0.02-0.01-0.02c-0.02,0-0.06,0.04-0.04,0.02c0.01-0.02,0.05-0.07,0.07-0.08
			c0.01,0,0.02-0.02,0.03-0.04l-0.03,0.01c-0.04,0.02-0.07,0.03-0.11,0.05C47.08,33.18,46.97,33.25,46.86,33.33L46.86,33.33z
			 M46.79,33.62L46.79,33.62c0,0.02,0,0.03,0,0.03c0,0.02,0.01,0.04,0.01,0.07c0.02-0.02,0.03-0.05,0.04-0.07
			c0.02-0.04,0.02-0.01,0.02,0.03c0,0,0.04-0.06,0.07-0.08c0.02-0.02,0.03-0.09,0.03-0.11c0-0.01,0.01-0.02,0.03-0.04
			C46.92,33.51,46.85,33.56,46.79,33.62L46.79,33.62z M47.71,33.87c0.03-0.05,0.07-0.09,0.11-0.14c-0.05-0.02-0.09-0.05-0.14-0.08
			c-0.01,0.01-0.03,0.05-0.03,0.05c0.02,0,0.01,0.01,0,0.02c-0.01,0.01-0.04,0.06-0.04,0.06c0.04-0.01,0.05,0,0.06,0.02
			C47.69,33.82,47.7,33.85,47.71,33.87L47.71,33.87z M48.02,33.82c-0.06-0.02-0.12-0.05-0.17-0.07c-0.04,0.05-0.09,0.11-0.13,0.16
			c0,0.01,0.01,0.02,0.02,0.02c0.02,0,0.05,0.03,0.05,0.03c-0.05,0.03-0.03,0.07-0.04,0.08c0,0.01-0.02,0.05-0.01,0.06
			c0.01,0.01,0,0.05,0.03,0.06c0.02,0.01,0.02,0.01,0.02,0.01c0.01-0.01,0.03-0.04,0.05-0.04c-0.01-0.02-0.01-0.02-0.01-0.05
			c0.01-0.02,0-0.06,0.01-0.06c0.02-0.01,0.04-0.02,0.04-0.02c0.04-0.01,0.07-0.03,0.07-0.03l0.02-0.01
			c0.01-0.05,0.01-0.04,0.01-0.07s0.01-0.02,0-0.04s-0.02-0.02-0.02-0.02C48,33.83,48,33.83,48.02,33.82L48.02,33.82z M46.84,33.31
			L46.84,33.31l-0.12,0.1C46.76,33.37,46.8,33.34,46.84,33.31L46.84,33.31z M47.63,32.76c0.02-0.02,0.05-0.04,0.07-0.05l0,0
			l-0.08,0.04L47.63,32.76L47.63,32.76z M47.41,32.85l-0.04,0.02l0,0L47.41,32.85C47.41,32.86,47.41,32.86,47.41,32.85L47.41,32.85z
			 M48.33,32.51l-0.03,0.01c0.02,0,0.04,0,0.05,0.01l0,0c0.06,0.01,0.12,0.02,0.18,0.05c0.05-0.01,0.1-0.02,0.15-0.03
			c-0.01-0.01-0.03-0.02-0.04-0.03c-0.03-0.02-0.06-0.03-0.09-0.03l0,0c-0.03,0-0.07,0.01-0.1,0.01l0,0l0,0l0,0h-0.01l0,0
			C48.4,32.49,48.37,32.5,48.33,32.51L48.33,32.51L48.33,32.51L48.33,32.51L48.33,32.51z M48,32.61c0.1-0.01,0.21,0,0.36,0.02
			c0.04-0.02,0.08-0.03,0.12-0.05c-0.04-0.02-0.09-0.03-0.13-0.03c-0.05-0.01-0.11-0.01-0.17,0c-0.01,0.01-0.03,0.01-0.03,0.01
			s-0.04,0-0.04,0.01c-0.01,0.01-0.02,0.01-0.04,0.01s-0.04,0.01-0.05,0.02C48.02,32.61,48,32.61,48,32.61L48,32.61L48,32.61z
			 M47.84,32.67c-0.01,0.01-0.02,0.01-0.04,0.02l0,0c0,0.01,0,0.01-0.01,0.02c-0.01,0.01-0.04,0.04-0.05,0.04
			c0.02,0,0.04-0.01,0.06-0.01c0.01-0.03,0.03-0.02,0.04-0.03c0.02-0.01,0.04-0.01,0.05-0.02c0.03,0.01,0.04,0.02,0.04,0.02
			c0.1-0.01,0.19-0.01,0.29-0.01c0.02-0.02,0.05-0.04,0.08-0.06c-0.02,0-0.04,0-0.07-0.01c-0.11-0.01-0.19-0.01-0.27,0
			c-0.04,0-0.07,0.01-0.11,0.02L47.84,32.67L47.84,32.67z M47.81,32.89l0.34-0.08c0.01-0.02,0.03-0.04,0.04-0.06h-0.02
			c-0.08,0-0.15,0-0.23,0.01c0,0.01-0.01,0.01-0.02,0.01c-0.02,0-0.04,0.02-0.05,0.03s-0.04,0.05-0.06,0.08
			C47.82,32.88,47.81,32.89,47.81,32.89L47.81,32.89z M47.82,32.99c0.02-0.01,0.04-0.01,0.06-0.02c0.09-0.03,0.17-0.05,0.24-0.06
			c0-0.02,0.01-0.04,0.01-0.07h-0.02c-0.1,0.01-0.21,0.03-0.32,0.06c0,0.01-0.01,0.01-0.01,0.02c0,0.02-0.04,0.05-0.04,0.05h0.01
			c0.02-0.01,0.02-0.01,0.04,0C47.8,32.98,47.81,32.99,47.82,32.99L47.82,32.99z M47.82,33.16c0,0,0-0.01,0-0.02
			c0-0.02,0.02-0.07,0.03-0.12c0.03-0.01,0.06-0.02,0.09-0.03L47.93,33c-0.01,0.01-0.03,0.03-0.03,0.03h0.01
			c0.01-0.01,0.03,0,0.03,0c0.01,0.01,0.03,0,0.03,0c0.02,0,0.03,0,0.03,0c0.01,0.01,0.02,0,0.03,0s0.02,0,0.02,0
			c0-0.02,0-0.02,0.01-0.03s0.02-0.04,0.02-0.04c-0.01-0.01-0.01-0.03-0.03-0.01c-0.01,0.01-0.03,0.01-0.03,0.01s-0.02,0-0.04,0.01
			c-0.01,0.01-0.03,0.01-0.04,0.01l0,0c0.06-0.02,0.12-0.03,0.17-0.04h0.01c0,0.02,0.01,0.04,0.01,0.06l0,0
			c-0.01,0,0,0.01-0.02,0.02c-0.01,0.01-0.01,0.01-0.01,0.01L48,33.08c-0.01,0-0.02,0-0.02-0.01c-0.01-0.01-0.05,0-0.05,0
			c-0.03,0.01-0.04,0.02-0.04,0.03s-0.02,0.03-0.03,0.04c0,0-0.01,0-0.01,0.01L47.82,33.16L47.82,33.16z M47.91,33.31
			c-0.01,0-0.02-0.01-0.03-0.01l-0.01-0.03c0.01,0,0-0.02,0.02-0.04c0,0-0.07-0.01-0.11-0.01v-0.01l0.04-0.02v0.01
			c0.03,0,0.03,0,0.04,0.01c0.01,0.01,0.03,0.01,0.03,0.01c0.01,0,0.01,0,0.01,0.01c-0.01,0.01-0.01,0.03,0,0.02s0.02,0,0.03,0
			c0.01,0.01,0.04,0.01,0.04,0.01c0-0.01,0-0.02,0.01-0.03s0.02-0.03,0.01-0.04c0-0.01,0.01-0.02,0.02-0.02
			c0.01,0,0.03-0.03,0.03-0.03l0.03-0.02c-0.01-0.01-0.03-0.02-0.03-0.02l0,0l0.02-0.01l0.02-0.01l0.05-0.02
			c0.01,0,0.02,0.01,0.03,0.02l0,0l0.01,0.01c0.01,0.01,0.02,0.03,0.04,0.04l-0.05,0.03c0,0,0-0.01-0.01-0.01
			c-0.01-0.01-0.02-0.01-0.02-0.01c0,0.02-0.01,0.03-0.02,0.03c-0.01,0-0.03,0.02-0.03,0.03c0,0,0,0,0,0.01
			C48.03,33.23,47.97,33.27,47.91,33.31L47.91,33.31z M48.17,33.07L48.17,33.07L48.17,33.07L48.17,33.07L48.17,33.07z M47.71,33.63
			l0.02,0.01c0.01,0.01,0.02,0.01,0.03,0.02c0.02,0.01,0.05,0.03,0.07,0.04c0.02-0.02,0.03-0.04,0.05-0.06s0.04-0.05,0.06-0.07
			h-0.01c0,0,0.03-0.03,0.04-0.03L48,33.51c0-0.01,0-0.01,0.01-0.01l0.03-0.04c-0.01-0.01-0.03-0.01-0.04,0
			c-0.01,0.01-0.05,0.03-0.05,0.03s0-0.03,0,0s-0.02,0.05-0.02,0.05c-0.03-0.01-0.04-0.01-0.05,0s-0.04,0.01-0.04,0.01
			s-0.04,0.01-0.05,0.03c-0.03,0-0.06,0.01-0.06,0.01C47.73,33.6,47.72,33.62,47.71,33.63L47.71,33.63z M48.16,33.37l0.02-0.02
			c-0.01,0-0.01-0.01-0.01-0.02c0-0.01-0.02-0.01-0.01-0.02c0.01-0.01,0.01-0.03,0.01-0.03s0.01-0.01,0.02-0.01
			c0.01,0,0.02-0.01,0.02-0.02c0.01-0.01,0.03-0.02,0.03-0.02c0.02,0,0.04,0,0.05,0c0.01-0.01,0.02,0,0.02,0h0.01l0.02-0.02
			c-0.02-0.01-0.04-0.02-0.06-0.04h-0.01c-0.01-0.01-0.02-0.02-0.03-0.02l-0.03,0.02h0.01c0.02,0.01,0.04,0.04,0.02,0.04
			s-0.05,0.01-0.06,0.02c-0.01,0.01-0.05,0.01-0.05,0.02c0,0.01-0.01,0.07-0.02,0.07c-0.02,0-0.02,0.02-0.02,0.02l-0.02,0.05
			c0.05-0.02,0.03-0.02,0.06-0.01C48.13,33.37,48.15,33.37,48.16,33.37L48.16,33.37z M48.19,33.17c-0.02,0.01-0.05,0.03-0.07,0.04
			v0.01c0,0-0.01,0-0.02,0l-0.02,0.01c-0.02,0.01-0.04,0.02-0.06,0.04c0,0,0,0,0,0.01s-0.01,0.03-0.01,0.03s0.01,0.02-0.01,0.02
			c-0.02,0-0.03,0-0.03-0.01v-0.01l-0.03,0.02c0.01,0.01,0.01,0.03,0.01,0.05c0.03-0.02,0.08-0.03,0.08-0.04
			c0.01-0.01,0.02-0.02,0.02-0.02c-0.01-0.02-0.01-0.04-0.01-0.04c0.03-0.01,0.04-0.02,0.05-0.03c0.02-0.03,0.04-0.01,0.05-0.02
			C48.15,33.21,48.17,33.19,48.19,33.17L48.19,33.17L48.19,33.17z M47.87,33.72l0.03,0.01c0.03,0.02,0.07,0.03,0.11,0.05l0.03,0.01
			l0,0c0-0.03,0.01-0.04,0.02-0.06c0.01-0.01,0.05-0.05,0.05-0.05c0.01,0.01,0.04,0.04,0.06,0.03c0.02-0.01,0.03,0,0.03,0.01
			s0,0.02,0,0.02c0.02-0.03,0.03-0.06,0.05-0.08c0-0.01-0.01-0.02-0.01-0.02c-0.01-0.01-0.04-0.02-0.05-0.02s-0.02-0.02-0.02-0.02
			l-0.01-0.02c0.01,0,0.02-0.01,0.03-0.02c0-0.01,0-0.01,0.01-0.01s0.04,0.02,0.05,0.02c0.01-0.01,0.02,0,0.02,0
			c0-0.01-0.01-0.03,0-0.03s0.04-0.02,0.04-0.02l0.02-0.02c-0.01-0.05-0.01-0.07-0.01-0.07l-0.01-0.06
			c-0.01-0.02-0.01-0.02-0.03-0.02c-0.01,0-0.04,0-0.05-0.01l-0.01,0.01l-0.01,0.01v0.02c0,0.02-0.01,0.05-0.03,0.06
			c-0.02,0.01-0.03,0.02-0.04,0.03c-0.01,0.01-0.04,0.01-0.04,0l-0.04,0.04l0,0c0,0.01,0,0.03,0.01,0.04
			c0.01,0.02,0.03,0.04,0.02,0.06s-0.05-0.02-0.06-0.03c-0.01-0.01-0.03,0.01-0.05,0.02c0,0,0,0-0.01-0.01l-0.04,0.04L47.87,33.72
			L47.87,33.72z M48.43,33.36c0.01-0.01,0.02-0.03,0.03-0.04l0,0c0.01-0.02,0.03-0.03,0.04-0.05c-0.05-0.01-0.09-0.03-0.13-0.05
			l-0.02,0.02c0,0-0.02,0.03-0.01,0.05c0.02,0.01,0.03,0.02,0.03,0.03s0.01,0.01,0.02,0.01C48.4,33.33,48.42,33.35,48.43,33.36
			L48.43,33.36z M32.75,38.19h1.3v-5.04h0.27c0.75,0,1.07,0.45,1.07,1.09c0,0.88-0.53,1.04-1.13,1.04c-0.04,0-0.1-0.01-0.12-0.02
			l1.12,2.92h1.46l-1.12-2.52c0.56-0.18,1.1-0.6,1.1-1.48c0-1.36-1.04-1.79-1.96-1.79h-1.99L32.75,38.19L32.75,38.19z M38.27,38.19
			h1.29v-5.01h1.3V32.4h-3.89v0.78h1.3V38.19L38.27,38.19z M21.73,30.23c3.87-1.29,9.01-2,14.48-2c4.27,0,8.34,0.43,11.76,1.24
			l0.95-3.1l1.12,3.65c0.22,0.07,0.44,0.14,0.65,0.21c3.95,1.31,6.12,3.09,6.12,5.01c0,0.01,0,0.02,0,0.03l-0.27-0.09l1.08,0.35
			l-6.19,2.03l-0.09,0.11l-0.11,0.12l-0.12,0.11L50.99,38l-0.03,0.03l-0.56,1.83l0.15-0.05c3.13-1.04,5.13-2.4,5.67-3.81l0.53-0.17
			c-0.4,1.69-2.51,3.24-6.05,4.41c-0.15,0.05-0.3,0.1-0.45,0.14l-1.32,4.32l-1.12-3.66c-3.38,0.78-7.39,1.19-11.58,1.19
			c-5.47,0-10.61-0.71-14.48-2c-3.95-1.31-6.12-3.09-6.12-5.01C15.61,33.33,17.78,31.55,21.73,30.23L21.73,30.23z M49.18,32.62
			c0,0,0,0-0.02,0.01c-0.01,0.01,0.02,0.01,0.04,0.01C49.23,32.64,49.2,32.62,49.18,32.62L49.18,32.62z M49.21,32.6
			c-0.01,0-0.03-0.01-0.03,0s0.02,0.01,0.04,0.01C49.24,32.61,49.22,32.6,49.21,32.6L49.21,32.6z M49.19,32.59
			C49.21,32.59,49.22,32.59,49.19,32.59c-0.02-0.02-0.04-0.03-0.04-0.02C49.16,32.59,49.18,32.6,49.19,32.59L49.19,32.59z M50,34
			c0,0-0.01-0.01,0-0.03c0,0-0.03-0.03-0.04-0.03c-0.01,0-0.02,0.01-0.02,0.03c0,0,0,0-0.02-0.01s0.01,0.03,0.01,0.05
			c0,0-0.01,0.01-0.02,0.02c-0.01,0.01-0.01,0.02,0.01,0.03c0.01,0.01,0,0.01,0.03,0c0,0,0,0.04-0.01,0.05s-0.01,0.02,0.02,0.03
			c0,0,0.03-0.01,0.04-0.03c0.01-0.01,0.03-0.02,0.04-0.03c0.01-0.01-0.01-0.03-0.01-0.04C50.01,34.04,50,34.01,50,34L50,34z
			 M50.63,34.54c0,0,0.01,0.02,0,0.02c-0.01-0.01-0.03,0-0.02-0.01C50.62,34.53,50.62,34.52,50.63,34.54L50.63,34.54z M50.7,34.32
			c0,0,0.01,0.01,0.01,0.03s0.02,0.03,0.02,0.04c0.01,0.01,0.02,0.01,0.03,0.03s0.02,0.02,0.03,0.04c0.01,0.01,0,0.02-0.01,0.04
			s-0.02-0.02-0.02-0.03s-0.03-0.04-0.04-0.04c-0.01-0.01-0.01-0.01-0.01-0.02c0-0.01,0-0.03,0-0.03s-0.02-0.02-0.03-0.02
			c-0.01-0.01,0-0.02,0-0.04C50.68,34.28,50.7,34.31,50.7,34.32L50.7,34.32z M49.38,32.92L49.38,32.92c-0.01-0.02-0.02-0.01-0.04,0
			s-0.03,0.04,0,0.03c0.02-0.01,0.06-0.01,0.07-0.01L49.38,32.92L49.38,32.92z M49.47,32.96C49.44,32.96,49.44,32.96,49.47,32.96
			c0.01,0.02,0.02,0.02,0.02,0.02S49.5,32.96,49.47,32.96L49.47,32.96z M49.43,33c0.01,0.02-0.01,0.02,0.01,0.03
			c0.02,0,0.05,0,0.03-0.02c-0.02-0.01-0.06-0.05-0.06-0.05s-0.07,0-0.08,0.01c0,0.01,0.01,0.03,0.03,0.03S49.42,33.01,49.43,33
			L49.43,33z M48.42,33.07c0.01,0,0.06-0.01,0.06-0.01c0.01,0,0.01,0,0.01,0s0,0.01,0,0s0-0.02,0.01-0.03s0.02-0.05,0.02-0.05
			c-0.03,0.01-0.04,0-0.05,0.01s-0.03,0.02-0.03,0.02c-0.01,0-0.01,0.02-0.01,0.03C48.42,33.05,48.39,33.08,48.42,33.07L48.42,33.07
			z M48.34,33.02c-0.01,0.02-0.01,0.02,0,0.02c0.01-0.01,0.02-0.01,0.03-0.02c0.01,0,0-0.01,0-0.02c0-0.01,0.01-0.01,0-0.02
			c0,0-0.02,0.01-0.04,0.02C48.31,33,48.35,33.01,48.34,33.02L48.34,33.02z M48.29,32.98c-0.02-0.01,0-0.02-0.02-0.01
			c-0.02,0.01-0.03,0.01-0.01,0.01C48.27,32.98,48.29,32.98,48.29,32.98L48.29,32.98z M48.38,33.05c0-0.01,0.01-0.03,0.02-0.04
			c-0.03,0.02-0.04,0.03-0.04,0.03L48.38,33.05L48.38,33.05z M48.54,32.97c0,0.03-0.02,0.05-0.03,0.06c-0.01,0.01-0.01,0.01,0,0.02
			c0.01,0.01,0,0.03,0,0.03c-0.05,0.02-0.1,0.04-0.11,0.04c-0.01,0-0.04,0.01-0.02,0.02c0.02,0.01,0.05,0.03,0.05,0.03
			c0-0.01,0.03-0.01,0.02-0.02c-0.01-0.01,0.01-0.03,0.01-0.03s0.02,0.03,0.04,0.02s0.05-0.02,0.06-0.03
			c0.01-0.01,0.07-0.04,0.08-0.05c0.01,0,0.1-0.06,0.1-0.06c-0.05-0.01-0.05-0.01-0.06-0.03c-0.01-0.01-0.04-0.02-0.04-0.02
			c-0.03,0.01-0.07,0.01-0.07,0.01C48.56,32.96,48.54,32.97,48.54,32.97L48.54,32.97z M48.35,33.28c0.02,0,0.02,0,0.02,0.01
			c0.01,0.01,0.01,0,0.02,0c0-0.01-0.01-0.01-0.01-0.02c0-0.01-0.01-0.02-0.01-0.02l-0.02-0.01C48.35,33.26,48.33,33.28,48.35,33.28
			L48.35,33.28z M48.27,33.5l0.02-0.02l-0.01-0.01c0,0-0.02,0.01-0.03,0.02c0,0.01-0.01,0.01-0.01,0.01c-0.01,0-0.02,0.01-0.01,0.01
			C48.25,33.5,48.26,33.5,48.27,33.5L48.27,33.5z M48.18,34.49c0,0.02,0,0.03,0.01,0.04c0.01,0.01,0.03,0.01,0.05,0
			s0.02-0.02,0.02-0.02c-0.02,0.02-0.04,0.02-0.04,0.01c-0.01-0.01-0.03-0.04-0.03-0.04L48.18,34.49L48.18,34.49z M48.27,34.58
			c0.02-0.01,0.05-0.01,0.05-0.01c0-0.01-0.02-0.03-0.02-0.05C48.27,34.55,48.26,34.55,48.27,34.58L48.27,34.58z M47.8,35.96
			c-0.01-0.01-0.02-0.01-0.03-0.01s-0.01,0-0.01,0.01s0,0.02,0.01,0.02c0.02,0,0.01,0,0.02,0.01c0.01,0,0.03-0.01,0.03-0.01
			L47.8,35.96L47.8,35.96z M47.27,35.83c0.01,0.01,0.01,0.01,0.02,0.01c0,0.01,0.01,0.02,0.02,0.03c0.01,0,0.03,0,0.04,0
			c0.01,0,0.01,0,0-0.01s-0.02-0.03-0.02-0.03s-0.03,0-0.03-0.01C47.28,35.83,47.25,35.82,47.27,35.83L47.27,35.83z M47.04,35.55
			c0,0,0.02,0.01,0.03,0s0.03,0,0.04,0.01c0.02,0.02,0.04,0.02,0.05,0.03c0.02,0.01,0.03,0.01,0.04,0.02c0,0.02,0.05,0.04,0.07,0.05
			s0.01,0.01,0.01,0.03c0.01,0.02,0.05,0.04,0.06,0.04c0,0-0.02,0-0.04,0.02s0.02,0.01,0.05,0.01c0.03-0.01,0.07,0.01,0.1,0.02
			c0,0,0-0.02-0.04-0.04c-0.01-0.01-0.03-0.03-0.03-0.03s-0.05-0.06-0.07-0.07s-0.09-0.08-0.11-0.1c-0.02-0.01-0.04-0.03-0.06-0.02
			s-0.04-0.01-0.04-0.01C47.08,35.52,47.06,35.53,47.04,35.55L47.04,35.55z M48.86,32.24c1.75,0,3.17,1.44,3.17,3.19
			c0,1.76-1.43,3.19-3.17,3.19c-1.75,0-3.17-1.44-3.17-3.19C45.69,33.67,47.11,32.24,48.86,32.24L48.86,32.24z M47.66,40.62
			c-3.34,0.76-7.3,1.17-11.45,1.17c-5.42,0-10.51-0.7-14.34-1.97c-3.69-1.23-5.81-2.9-5.81-4.58c0-1.68,2.12-3.35,5.81-4.58
			c3.83-1.27,8.92-1.97,14.34-1.97c4.22,0,8.24,0.43,11.63,1.22l-0.86,2.82l-0.07,0.05l-0.13,0.1l-0.12,0.11l-0.12,0.11l-0.11,0.12
			l-0.1,0.12l-0.1,0.13l-0.09,0.13l-0.02,0.03l-5.91,1.94l6.11,2l0.01,0.02l0.1,0.12l0.11,0.12l0.12,0.11l0.12,0.1l0.11,0.09
			L47.66,40.62L47.66,40.62z M50.2,30.55c0.12,0.04,0.24,0.08,0.35,0.11c3.61,1.2,5.72,2.82,5.81,4.46l-4.72-1.55l0,0l-0.09-0.13
			l-0.1-0.13l-0.1-0.12l-0.11-0.12l-0.12-0.11L51,32.85l-0.11-0.09L50.2,30.55L50.2,30.55z M48.92,32.11h0.14l0.17,0.01l0.17,0.02
			l0.16,0.03l0.16,0.04l0.16,0.04l0.15,0.05l0.15,0.06l0.15,0.07l0.04,0.02l-1.43-4.73L48.92,32.11L48.92,32.11z M52.2,35.55v0.07
			l-0.01,0.17l-0.02,0.17l-0.03,0.16l-0.04,0.16l-0.04,0.16L52,36.59l-0.06,0.15l-0.07,0.15l-0.07,0.14v0.01l4.87-1.51L52.2,35.55
			L52.2,35.55z M48.9,38.78h-0.02h-0.17l-0.17-0.01l-0.17-0.02l-0.16-0.03l-0.16-0.04l-0.16-0.05l-0.15-0.05l-0.15-0.06l-0.15-0.07
			l-0.08-0.04l1.49,4.93L48.9,38.78L48.9,38.78z M45.57,35.55v-0.1v-0.17l0.01-0.17l0.02-0.17l0.03-0.16l0.04-0.16l0.04-0.16
			l0.05-0.16l0.06-0.15l0.02-0.05l-4.54,1.44L45.57,35.55L45.57,35.55z M22.28,33.38c-0.37-0.78-0.88-1.11-1.6-1.11
			c-0.81,0-1.53,0.84-1.53,1.87c0,1.13,0.7,1.58,1.27,1.85c0.31,0.15,0.72,0.36,0.72,0.87c0,0.43-0.27,0.71-0.61,0.71
			c-0.4,0-0.67-0.44-0.84-0.84l-0.6,0.47c0.39,0.75,0.87,1.12,1.6,1.12c0.97,0,1.7-0.78,1.7-2.02c0-0.95-0.69-1.43-1.33-1.73
			c-0.34-0.16-0.73-0.4-0.73-0.97c0-0.36,0.31-0.58,0.58-0.58c0.41,0,0.68,0.41,0.83,0.83L22.28,33.38L22.28,33.38z M22.85,38.19
			h0.65v-3.78l1.27,3.78h0.14l1.25-3.76v3.76h1.29V32.4h-1.26l-1.02,3.09l-1.04-3.09h-1.28V38.19L22.85,38.19z M29.73,33.68
			l0.61,2.06h-1.18L29.73,33.68z"/>
	</g>
</g>
</svg>
