<?xml version="1.0" encoding="utf-8"?>
<!-- Generator: Adobe Illustrator 24.2.0, SVG Export Plug-In . SVG Version: 6.00 Build 0)  -->
<svg version="1.1" id="Layer_1" xmlns="http://www.w3.org/2000/svg" xmlns:xlink="http://www.w3.org/1999/xlink" x="0px" y="0px"
	 viewBox="0 0 77.25 71.54" style="enable-background:new 0 0 77.25 71.54;" xml:space="preserve">
<style type="text/css">
	.st0{fill:#FD5F00;}
</style>
<g>
	<path class="st0" d="M29.89,66.23H11.44c-0.69,0-1.25-0.56-1.25-1.25V26.27c0-0.69,0.56-1.25,1.25-1.25h18.44
		c0.69,0,1.25,0.56,1.25,1.25v38.71C31.14,65.67,30.58,66.23,29.89,66.23z M12.69,63.73h15.94V27.52H12.69V63.73z"/>
	<path class="st0" d="M66.94,66.27H30.07c-0.69,0-1.25-0.56-1.25-1.25V44.74c0-0.69,0.56-1.25,1.25-1.25h36.87
		c0.69,0,1.25,0.56,1.25,1.25v20.28C68.19,65.71,67.63,66.27,66.94,66.27z M31.32,63.77h34.37V45.99H31.32V63.77z"/>
	<path class="st0" d="M45.72,45.99h-8.85c-0.34,0-0.67-0.14-0.9-0.38c-0.24-0.25-0.36-0.58-0.35-0.92l1.11-26.91
		c0.03-0.67,0.58-1.2,1.25-1.2h6.64c0.67,0,1.22,0.53,1.25,1.2l1.11,26.91c0.01,0.34-0.11,0.67-0.35,0.92
		C46.39,45.85,46.07,45.99,45.72,45.99z M38.18,43.49h6.24l-1-24.41h-4.24L38.18,43.49z"/>
	<path class="st0" d="M60.64,45.99H51.8c-0.34,0-0.67-0.14-0.9-0.38c-0.24-0.25-0.36-0.58-0.35-0.92l1.11-26.91
		c0.03-0.67,0.58-1.2,1.25-1.2h6.64c0.67,0,1.22,0.53,1.25,1.2l1.11,26.91c0.01,0.34-0.11,0.67-0.35,0.92
		C61.31,45.85,60.99,45.99,60.64,45.99z M53.1,43.49h6.24l-1-24.41H54.1L53.1,43.49z"/>
	<path class="st0" d="M43.88,53.26h-5.53c-0.69,0-1.25-0.56-1.25-1.25s0.56-1.25,1.25-1.25h5.53c0.69,0,1.25,0.56,1.25,1.25
		S44.57,53.26,43.88,53.26z"/>
	<path class="st0" d="M18.26,34.95h-6.33c-0.69,0-1.25-0.56-1.25-1.25s0.56-1.25,1.25-1.25h6.33c0.69,0,1.25,0.56,1.25,1.25
		S18.95,34.95,18.26,34.95z"/>
	<path class="st0" d="M18.26,40.05h-6.33c-0.69,0-1.25-0.56-1.25-1.25s0.56-1.25,1.25-1.25h6.33c0.69,0,1.25,0.56,1.25,1.25
		S18.95,40.05,18.26,40.05z"/>
	<path class="st0" d="M59.07,53.26h-5.53c-0.69,0-1.25-0.56-1.25-1.25s0.56-1.25,1.25-1.25h5.53c0.69,0,1.25,0.56,1.25,1.25
		S59.76,53.26,59.07,53.26z"/>
	<path class="st0" d="M25.63,25.93H14.94c-0.69,0-1.25-0.56-1.25-1.25s0.56-1.25,1.25-1.25h10.69c0.69,0,1.25,0.56,1.25,1.25
		S26.32,25.93,25.63,25.93z"/>
	<path class="st0" d="M71.53,66.6H5.91c-0.69,0-1.25-0.56-1.25-1.25s0.56-1.25,1.25-1.25h65.63c0.69,0,1.25,0.56,1.25,1.25
		S72.22,66.6,71.53,66.6z"/>
</g>
</svg>
