<?xml version="1.0" encoding="utf-8"?>
<!-- Generator: Adobe Illustrator 24.2.0, SVG Export Plug-In . SVG Version: 6.00 Build 0)  -->
<svg version="1.1" id="Layer_1" xmlns="http://www.w3.org/2000/svg" xmlns:xlink="http://www.w3.org/1999/xlink" x="0px" y="0px"
	 viewBox="0 0 98.3 98.54" style="enable-background:new 0 0 98.3 98.54;" xml:space="preserve">
<style type="text/css">
	.st0{fill:#FD5F00;}
</style>
<g>
	<g>
		<path class="st0" d="M67.74,96.72H30.8c-16.1,0-29.19-13.1-29.19-29.19V30.59C1.61,14.5,14.71,1.4,30.8,1.4h36.94
			c16.1,0,29.19,13.1,29.19,29.19v36.94C96.93,83.63,83.84,96.72,67.74,96.72z M30.8,4.94c-14.14,0-25.65,11.51-25.65,25.65v36.94
			c0,14.14,11.51,25.65,25.65,25.65h36.94c14.14,0,25.65-11.51,25.65-25.65V30.59c0-14.14-11.51-25.65-25.65-25.65H30.8z"/>
	</g>
	<g>
		<path class="st0" d="M59.07,25.95h-19.6c-7.34,0-13.32,5.97-13.32,13.32v19.6c0,7.34,5.97,13.32,13.32,13.32h19.6
			c7.34,0,13.32-5.97,13.32-13.32v-19.6C72.39,31.92,66.41,25.95,59.07,25.95z M67.67,58.86c0,4.74-3.86,8.6-8.6,8.6h-19.6
			c-4.74,0-8.6-3.86-8.6-8.6v-19.6c0-4.74,3.86-8.6,8.6-8.6h19.6c4.74,0,8.6,3.86,8.6,8.6V58.86z"/>
		<path class="st0" d="M49.27,38.33c-5.92,0-10.74,4.82-10.74,10.74c0,5.92,4.82,10.74,10.74,10.74s10.74-4.82,10.74-10.74
			C60.01,43.14,55.19,38.33,49.27,38.33z M49.27,54.86c-3.2,0-5.8-2.6-5.8-5.8c0-3.2,2.6-5.8,5.8-5.8c3.2,0,5.8,2.6,5.8,5.8
			C55.07,52.26,52.47,54.86,49.27,54.86z"/>
		<path class="st0" d="M61.3,33.67c-1.76,0-3.18,1.43-3.18,3.18c0,1.76,1.43,3.18,3.18,3.18c1.76,0,3.18-1.43,3.18-3.18
			C64.49,35.1,63.06,33.67,61.3,33.67z"/>
	</g>
</g>
</svg>
