<?xml version="1.0" encoding="utf-8"?>
<!-- Generator: Adobe Illustrator 24.2.0, SVG Export Plug-In . SVG Version: 6.00 Build 0)  -->
<svg version="1.1" id="Layer_1" xmlns="http://www.w3.org/2000/svg" xmlns:xlink="http://www.w3.org/1999/xlink" x="0px" y="0px"
	 viewBox="0 0 496 517.73" style="enable-background:new 0 0 496 517.73;" xml:space="preserve">
<style type="text/css">
	.st0{stroke:#000000;stroke-width:4;stroke-miterlimit:10;}
</style>
<g>
	<path class="st0" d="M408.01,112.47c-0.01-0.01-0.01-0.02-0.01-0.02v-0.25L391.94,96.4h0v0c-2.96-2.96-6.98-4.63-11.17-4.63h-84.73
		c-0.02,0-0.03-0.02-0.03-0.03V59.81c0-0.02,0.02-0.03,0.03-0.03c0.03-18.26-5.26-27.76-6.28-29.42c-0.06-0.09-0.11-0.18-0.17-0.27
		l0,0l0,0c-7.13-11.01-19.52-18.31-33.58-18.31c-19.3,0-38.89,14.49-39.19,31.97S216,91.74,216,91.74c0,0.02-0.02,0.03-0.03,0.03
		H102.15c-7.82,0-14.15,6.34-14.15,14.15V492.9c0,8.21,6.66,14.87,14.87,14.87h337.84c8.44,0,15.29-6.84,15.29-15.29v-324.8
		c0-4.63-1.84-9.06-5.11-12.33L408.01,112.47z M392,119.17c0-0.03,0.04-0.05,0.06-0.02l36.57,36.57c0.02,0.02,0.01,0.06-0.02,0.06
		h-31.95c-2.57,0-4.66-2.08-4.66-4.66V119.17z M440,481.89c0,5.46-4.42,9.88-9.88,9.88H110.33c-3.49,0-6.33-2.83-6.33-6.33V116.12
		c0-4.61,3.74-8.34,8.34-8.34h103.62c0.02,0,0.03,0.02,0.03,0.03v23.35c0,14.13,11.57,25.52,25.66,24.56
		c12.46-0.86,22.34-11.27,22.34-23.94v-64c0-4.42-3.58-8-8-8s-8,3.58-8,8v63.68c0,4.27-3.21,8.03-7.47,8.3
		c-4.64,0.3-8.53-3.4-8.53-7.98l0-79.39c0-14.13,11.57-25.52,25.66-24.56C270.12,28.68,280,39.1,280,51.77v96c0,4.42,3.58,8,8,8
		s8-3.58,8-8v-39.97c0-0.02,0.02-0.03,0.03-0.03h79.93c0.02,0,0.03,0.02,0.03,0.03v47.07c0,9.33,7.56,16.9,16.9,16.9h47.07
		c0.02,0,0.03,0.02,0.03,0.03V481.89z"/>
</g>
<g>
	<g>
		<path d="M355.62,398.76H223.41c-5.14,0-9.31,4.48-9.31,10s4.17,10,9.31,10h132.22c5.14,0,9.31-4.48,9.31-10
			S360.76,398.76,355.62,398.76z"/>
	</g>
</g>
<g>
	<g>
		<path d="M188.45,365.67c-1.86-1.86-4.44-2.93-7.07-2.93s-5.21,1.07-7.07,2.93s-2.93,4.44-2.93,7.07c0,2.64,1.07,5.21,2.93,7.07
			c1.86,1.86,4.44,2.93,7.07,2.93s5.21-1.07,7.07-2.93c1.87-1.86,2.93-4.44,2.93-7.07S190.32,367.53,188.45,365.67z"/>
	</g>
</g>
<g>
	<g>
		<path d="M188.45,401.68c-1.86-1.86-4.43-2.93-7.07-2.93c-2.63,0-5.21,1.07-7.07,2.93s-2.93,4.44-2.93,7.07
			c0,2.64,1.07,5.21,2.93,7.07c1.86,1.86,4.44,2.93,7.07,2.93s5.21-1.07,7.07-2.93c1.87-1.86,2.93-4.43,2.93-7.07
			C191.38,406.12,190.32,403.54,188.45,401.68z"/>
	</g>
</g>
<g>
	<g>
		<path d="M355.62,434.77H223.41c-5.14,0-9.31,4.48-9.31,10s4.17,10,9.31,10h132.22c5.14,0,9.31-4.48,9.31-10
			S360.76,434.77,355.62,434.77z"/>
	</g>
</g>
<g>
	<g>
		<path d="M188.45,437.7c-1.86-1.86-4.43-2.93-7.07-2.93c-2.63,0-5.21,1.07-7.07,2.93s-2.93,4.44-2.93,7.07
			c0,2.64,1.07,5.21,2.93,7.07c1.86,1.86,4.44,2.93,7.07,2.93s5.21-1.07,7.07-2.93c1.87-1.86,2.93-4.43,2.93-7.07
			C191.38,442.14,190.32,439.56,188.45,437.7z"/>
	</g>
</g>
<g>
	<g>
		<path d="M355.62,362.74H223.41c-5.14,0-9.31,4.48-9.31,10s4.17,10,9.31,10h132.22c5.14,0,9.31-4.48,9.31-10
			S360.76,362.74,355.62,362.74z"/>
	</g>
</g>
<g>
	<path d="M197.95,325.27c13.43-27.25,40.88-44.52,71.69-44.52c30.73,0,58.11,17.17,71.58,44.29c7.65,6.06,23.83-2.49,14.81-14.65
		c-7.33-12.58-17.33-23.43-29.46-31.85c-7.1-4.92-14.72-8.85-22.7-11.76c9.11-8.9,14.78-21.31,14.78-35.02v-9.75
		c0-27.02-21.98-49-49-49c-27.02,0-49,21.98-49,49v9.75c0,13.71,5.67,26.12,14.78,35.02c-7.98,2.91-15.6,6.84-22.7,11.76
		c-12.22,8.48-22.27,19.42-29.61,32.1C173.09,324.61,192.23,335.32,197.95,325.27z M240.64,222.01c0-15.99,13.01-29,29-29
		s29,13.01,29,29v9.75c0,15.99-13.01,29-29,29s-29-13.01-29-29V222.01z"/>
</g>
</svg>
