<?xml version="1.0" encoding="utf-8"?>
<!-- Generator: Adobe Illustrator 24.2.0, SVG Export Plug-In . SVG Version: 6.00 Build 0)  -->
<svg version="1.1" id="Capa_1" xmlns="http://www.w3.org/2000/svg" xmlns:xlink="http://www.w3.org/1999/xlink" x="0px" y="0px"
	 viewBox="0 0 381 448.39" style="enable-background:new 0 0 381 448.39;" xml:space="preserve">
<style type="text/css">
	.st0{fill:none;stroke:#000000;stroke-width:19;stroke-linecap:round;stroke-linejoin:round;stroke-miterlimit:10;}
</style>
<g>
	<g>
		<path d="M272.98,314.2H140.76c-5.14,0-9.31,4.48-9.31,10s4.17,10,9.31,10h132.22c5.14,0,9.31-4.48,9.31-10
			S278.12,314.2,272.98,314.2z"/>
	</g>
</g>
<g>
	<g>
		<path d="M105.8,274.12c-1.86-1.86-4.44-2.93-7.07-2.93s-5.21,1.07-7.07,2.93s-2.93,4.44-2.93,7.07c0,2.64,1.07,5.21,2.93,7.07
			c1.86,1.86,4.44,2.93,7.07,2.93s5.21-1.07,7.07-2.93c1.87-1.86,2.93-4.44,2.93-7.07S107.67,275.98,105.8,274.12z"/>
	</g>
</g>
<g>
	<g>
		<path d="M105.8,317.13c-1.86-1.86-4.43-2.93-7.07-2.93c-2.63,0-5.21,1.07-7.07,2.93s-2.93,4.44-2.93,7.07
			c0,2.64,1.07,5.21,2.93,7.07c1.86,1.86,4.44,2.93,7.07,2.93s5.21-1.07,7.07-2.93c1.87-1.86,2.93-4.43,2.93-7.07
			C108.73,321.57,107.67,318.99,105.8,317.13z"/>
	</g>
</g>
<g>
	<g>
		<path d="M272.98,357.22H140.76c-5.14,0-9.31,4.48-9.31,10s4.17,10,9.31,10h132.22c5.14,0,9.31-4.48,9.31-10
			S278.12,357.22,272.98,357.22z"/>
	</g>
</g>
<g>
	<g>
		<path d="M105.8,360.15c-1.86-1.86-4.43-2.93-7.07-2.93c-2.63,0-5.21,1.07-7.07,2.93s-2.93,4.44-2.93,7.07
			c0,2.64,1.07,5.21,2.93,7.07c1.86,1.86,4.44,2.93,7.07,2.93s5.21-1.07,7.07-2.93c1.87-1.86,2.93-4.43,2.93-7.07
			C108.73,364.59,107.67,362.01,105.8,360.15z"/>
	</g>
</g>
<g>
	<g>
		<path d="M272.98,271.19H140.76c-5.14,0-9.31,4.48-9.31,10s4.17,10,9.31,10h132.22c5.14,0,9.31-4.48,9.31-10
			S278.12,271.19,272.98,271.19z"/>
	</g>
</g>
<path class="st0" d="M16.85,101.37v-70.2c0-10.37,7.71-18.78,17.21-18.78h313.73c9.51,0,17.21,8.41,17.21,18.78v383.75
	c0,10.37-7.71,18.78-17.21,18.78H34.06c-9.51,0-17.21-8.41-17.21-18.78V165.75"/>
<g>
	<path d="M115.31,214.72c13.43-27.25,40.88-44.52,71.69-44.52c30.73,0,58.11,17.17,71.58,44.29c7.65,6.06,23.83-2.49,14.81-14.65
		c-7.33-12.58-17.33-23.43-29.46-31.85c-7.1-4.92-14.72-8.85-22.7-11.76c9.11-8.9,14.78-21.31,14.78-35.02v-9.75
		c0-27.02-21.98-49-49-49c-27.02,0-49,21.98-49,49v9.75c0,13.71,5.67,26.12,14.78,35.02c-7.98,2.91-15.6,6.84-22.7,11.76
		c-12.22,8.48-22.27,19.42-29.61,32.1C90.44,214.06,109.58,224.77,115.31,214.72z M158,111.45c0-15.99,13.01-29,29-29
		s29,13.01,29,29v9.75c0,15.99-13.01,29-29,29s-29-13.01-29-29V111.45z"/>
	<path d="M191.09,240.11"/>
	<path d="M198.31,239.62c0.06-0.01,0.12-0.01,0.19-0.02C198.43,239.61,198.37,239.62,198.31,239.62z"/>
	<path d="M192.79,240.04c1.02-0.05,2.04-0.12,3.06-0.2C194.83,239.92,193.81,239.99,192.79,240.04z"/>
</g>
</svg>
