<?xml version="1.0" encoding="utf-8"?>
<!-- Generator: Adobe Illustrator 24.2.0, SVG Export Plug-In . SVG Version: 6.00 Build 0)  -->
<svg version="1.1" id="Layer_1" xmlns="http://www.w3.org/2000/svg" xmlns:xlink="http://www.w3.org/1999/xlink" x="0px" y="0px"
	 viewBox="0 0 513 448.39" style="enable-background:new 0 0 513 448.39;" xml:space="preserve">
<style type="text/css">
	.st0{stroke:#000000;stroke-width:5;stroke-miterlimit:10;}
	.st1{stroke:#000000;stroke-width:4;stroke-miterlimit:10;}
</style>
<g>
	<g>
		<g>
			<path d="M255.62,323.99H153.41c-5.14,0-9.31,4.48-9.31,10s4.17,10,9.31,10h102.22c5.14,0,9.31-4.48,9.31-10
				S260.76,323.99,255.62,323.99z"/>
		</g>
	</g>
	<g>
		<g>
			<path d="M118.45,290.9c-1.86-1.86-4.44-2.93-7.07-2.93s-5.21,1.07-7.07,2.93s-2.93,4.44-2.93,7.07c0,2.64,1.07,5.21,2.93,7.07
				c1.86,1.86,4.44,2.93,7.07,2.93s5.21-1.07,7.07-2.93c1.87-1.86,2.93-4.44,2.93-7.07S120.32,292.76,118.45,290.9z"/>
		</g>
	</g>
	<g>
		<g>
			<path d="M118.45,326.91c-1.86-1.86-4.43-2.93-7.07-2.93c-2.63,0-5.21,1.07-7.07,2.93s-2.93,4.44-2.93,7.07
				c0,2.64,1.07,5.21,2.93,7.07c1.86,1.86,4.44,2.93,7.07,2.93s5.21-1.07,7.07-2.93c1.87-1.86,2.93-4.43,2.93-7.07
				C121.38,331.35,120.32,328.77,118.45,326.91z"/>
		</g>
	</g>
	<g>
		<g>
			<path d="M255.62,360H153.41c-5.14,0-9.31,4.48-9.31,10s4.17,10,9.31,10h102.22c5.14,0,9.31-4.48,9.31-10S260.76,360,255.62,360z"
				/>
		</g>
	</g>
	<g>
		<g>
			<path d="M118.45,362.93c-1.86-1.86-4.43-2.93-7.07-2.93c-2.63,0-5.21,1.07-7.07,2.93s-2.93,4.44-2.93,7.07
				c0,2.64,1.07,5.21,2.93,7.07c1.86,1.86,4.44,2.93,7.07,2.93s5.21-1.07,7.07-2.93c1.87-1.86,2.93-4.43,2.93-7.07
				C121.38,367.37,120.32,364.79,118.45,362.93z"/>
		</g>
	</g>
	<g>
		<g>
			<path d="M255.62,287.97H153.41c-5.14,0-9.31,4.48-9.31,10s4.17,10,9.31,10h102.22c5.14,0,9.31-4.48,9.31-10
				S260.76,287.97,255.62,287.97z"/>
		</g>
	</g>
	<g>
		<path d="M127.95,250.5c13.43-27.25,40.88-44.52,71.69-44.52c30.73,0,58.11,17.17,71.58,44.29c7.65,6.06,23.83-2.49,14.81-14.65
			c-7.33-12.58-17.33-23.43-29.46-31.85c-7.1-4.92-14.72-8.85-22.7-11.76c9.11-8.9,14.78-21.31,14.78-35.02v-9.75
			c0-27.02-21.98-49-49-49c-27.02,0-49,21.98-49,49v9.75c0,13.71,5.67,26.12,14.78,35.02c-7.98,2.91-15.6,6.84-22.7,11.76
			c-12.22,8.48-22.27,19.42-29.61,32.1C103.09,249.84,122.23,260.55,127.95,250.5z M170.64,147.24c0-15.99,13.01-29,29-29
			s29,13.01,29,29v9.75c0,15.99-13.01,29-29,29s-29-13.01-29-29V147.24z"/>
	</g>
	<g>
		<g>
			<path class="st0" d="M482.81,53.32c-9.71-5.61-21.03-7.1-31.87-4.2c-10.84,2.9-19.89,9.85-25.5,19.57L299.59,286.65
				c-0.69,1.2-1.13,2.52-1.28,3.89l-8.86,79.34c-0.44,3.95,1.5,7.78,4.94,9.77c1.55,0.9,3.28,1.34,5,1.34
				c2.09,0,4.18-0.65,5.93-1.95l64.28-47.34c1.11-0.82,2.04-1.86,2.73-3.05l125.84-217.96C509.76,90.63,502.87,64.9,482.81,53.32z
				 M311.87,349.39l4.63-41.43l28.94,16.71L311.87,349.39z M360.02,309.99l-38.11-22L422.9,113.08l38.11,22L360.02,309.99z
				 M480.86,100.69L471,117.76l-38.11-22l9.86-17.07c2.94-5.09,7.68-8.73,13.36-10.25c5.68-1.52,11.61-0.74,16.69,2.2
				c5.09,2.94,8.73,7.68,10.25,13.36C484.58,89.67,483.8,95.6,480.86,100.69z"/>
		</g>
	</g>
	<g>
		<path class="st1" d="M370,378v29.12c0,5.46-4.42,9.88-9.88,9.88H40.33c-3.49,0-6.33-2.83-6.33-6.33V41.34
			c0-4.61,3.74-8.34,8.34-8.34h203.24V17H32.15C24.34,17,18,23.34,18,31.15v386.97c0,8.21,6.66,14.87,14.87,14.87h337.84
			c8.44,0,15.29-6.84,15.29-15.29V378c0-4.42-3.58-8-8-8l0,0C373.58,370,370,373.58,370,378z"/>
		<path class="st1" d="M306,33.03V80.1c0,9.33,7.56,16.9,16.9,16.9h47.07c0.02,0,0.03,0.02,0.03,0.03v6.2c0,4.42,3.58,8,8,8l0,0
			c4.42,0,8-3.58,8-8V92.91c0-4.63-1.84-9.06-5.11-12.33L338.01,37.7C338,37.69,338,37.68,338,37.67v-0.25l-16.06-15.79h0v0
			c-2.96-2.96-6.98-4.63-11.17-4.63h-64.73v16h59.93C305.98,33,306,33.02,306,33.03z M322,44.4c0-0.03,0.04-0.05,0.06-0.02
			l36.57,36.57c0.02,0.02,0.01,0.06-0.02,0.06h-31.95c-2.57,0-4.66-2.08-4.66-4.66V44.4z"/>
	</g>
</g>
</svg>
