<?xml version="1.0" encoding="utf-8"?>
<!-- Generator: Adobe Illustrator 24.2.0, SVG Export Plug-In . SVG Version: 6.00 Build 0)  -->
<svg version="1.1" id="Layer_1" xmlns="http://www.w3.org/2000/svg" xmlns:xlink="http://www.w3.org/1999/xlink" x="0px" y="0px"
	 viewBox="0 0 30.99 41.01" style="enable-background:new 0 0 30.99 41.01;" xml:space="preserve">
<style type="text/css">
	.st0{fill:#FD5F00;}
</style>
<g>
	<path class="st0" d="M15.34,1.9C7.33,1.9,0.82,8.41,0.82,16.42c0,5.72,2.4,11.51,6.93,16.74c3.38,3.9,6.74,6.12,6.88,6.21
		c0.22,0.14,0.46,0.21,0.71,0.21c0.25,0,0.5-0.07,0.71-0.21c0.14-0.09,3.5-2.3,6.88-6.21c4.53-5.23,6.93-11.01,6.93-16.74
		C29.86,8.41,23.35,1.9,15.34,1.9L15.34,1.9z M15.34,36.67c-2.67-1.99-11.92-9.65-11.92-20.26C3.42,9.84,8.77,4.5,15.34,4.5
		c6.57,0,11.92,5.35,11.92,11.92C27.26,27.03,18.01,34.68,15.34,36.67L15.34,36.67z M15.34,36.67"/>
	<path class="st0" d="M15.34,10.65c-3.18,0-5.76,2.59-5.76,5.76c0,3.18,2.59,5.76,5.76,5.76c3.18,0,5.76-2.59,5.76-5.76
		C21.1,13.24,18.52,10.65,15.34,10.65L15.34,10.65z M15.34,19.57c-1.74,0-3.16-1.42-3.16-3.16c0-1.74,1.42-3.16,3.16-3.16
		c1.74,0,3.16,1.42,3.16,3.16C18.5,18.16,17.08,19.57,15.34,19.57L15.34,19.57z M15.34,19.57"/>
</g>
</svg>
