<?xml version="1.0" encoding="utf-8"?>
<!-- Generator: Adobe Illustrator 24.2.0, SVG Export Plug-In . SVG Version: 6.00 Build 0)  -->
<svg version="1.1" id="Layer_1" xmlns="http://www.w3.org/2000/svg" xmlns:xlink="http://www.w3.org/1999/xlink" x="0px" y="0px"
	 viewBox="0 0 251.98 114.83" style="enable-background:new 0 0 251.98 114.83;" xml:space="preserve">
<style type="text/css">
	.st0{fill-rule:evenodd;clip-rule:evenodd;fill:#FFFFFF;}
</style>
<g>
	<path class="st0" d="M38.57,44.39c-2.19-4.63-5.31-6.8-9.81-6.8c-5.11,0-9.43,5.24-9.43,11.44c0,6.77,4.15,9.6,7.77,11.3
		c2.01,0.95,4.16,2.17,4.16,4.93c0,2.31-1.4,3.97-3.33,3.97c-1.78,0-3.34-1.59-4.77-4.86l-0.14-0.34l-4.09,3.18l0.11,0.21
		c2.47,4.74,5.5,6.85,9.81,6.85c6.14,0,10.42-5.09,10.42-12.38c0-6.04-4.62-8.94-8.1-10.59c-2.03-0.98-4.2-2.29-4.2-5.54
		c0-1.98,1.66-3.19,3.2-3.19c2.61,0,4.08,2.99,4.72,4.78l0.14,0.4l3.63-3.17L38.57,44.39L38.57,44.39z M210.23,73.18
		c-0.69,0.3-1.4,0.56-2.13,0.76c-0.03,0.02-2.04,2.76-5.19,4.72c2.34-0.6,4.54-1.57,6.51-2.85c2.37-1.54,4.42-3.54,6.02-5.87
		C214.05,71.08,212.25,72.3,210.23,73.18L210.23,73.18z M201.98,36.55c0.7,0.42,1.44,0.95,2.2,1.56c0.23-0.26-0.09-0.52,0.4-0.83
		C203.73,36.99,202.87,36.74,201.98,36.55L201.98,36.55z M187.71,41.31l-2.65-0.84l-0.3-0.1l-0.03,0.02
		c0.08,0.08,0.17,0.17,0.28,0.26c0.5,0.41,1.39,0.89,3.13,1.31l0.46-0.55C188.22,41.44,187.9,41.41,187.71,41.31L187.71,41.31z
		 M195.93,41.75c-0.6,0.16-0.68,0.74-0.67,1.09l1.81-0.8C198.1,40.58,196.78,41.51,195.93,41.75L195.93,41.75z M193.75,42.41
		l0.36,0.35c-2.04-0.13-3.67-0.33-4.92-0.57l2.21-1.48c0.81-0.44,1.62-0.59,3.17-1.04l2.81-1.47l-0.01,1.28
		C195.74,39.53,192.99,41.57,193.75,42.41L193.75,42.41z M198.33,39.49l0.06-1.74c0.55-0.42,0.92-0.98,1.08-1.27
		c1.01,0.38,2.37,1.11,3.84,2.26c-0.82,0.35-2.8-1.8-2.68-0.2c0.02,0.33,0.85,1.36,0.75,1.61c-0.21,0.51-1.19,0.82-1.74,0.57
		C199.17,40.5,198.69,39.69,198.33,39.49L198.33,39.49z M199.5,51.99c0.9-1.03,0.11-0.91-1.11-1.23v1.73
		C198.85,52.41,199.27,52.25,199.5,51.99L199.5,51.99z M204.29,47.13c-1.11,0-0.96,0.81-0.15,1.03c0.53,0.15,0.96,0.58,1.34,1.04
		c0.6,0.72,1.08,1.47,1.69,1.1c0.93-0.55-0.09-1.19-0.65-2.13c-0.21-0.35-0.35-0.74-0.31-1.17c0.07-0.81-0.66-1.48-0.81-0.81
		C205.28,46.68,205.39,47.13,204.29,47.13L204.29,47.13z M200.53,47.35c-0.37,0.7-2.37,1.39-0.59,1.25c1.27-0.1,1.29,0.65,1.84,0.96
		c1.05,0.6,0.74-0.3,0.3-0.85C201.2,47.59,201.32,45.85,200.53,47.35L200.53,47.35z M195.08,50.07c-0.37-0.91-2.65,0.85-2.66-0.22
		c0-0.95,1.03-0.96,0.66-1.62c-0.37-0.66-0.66-1.1-1.62-0.88c-0.71,0.17-0.21,1.33-0.85,1.55c-0.85,0.31-1.58,0.8-0.4,1.1
		c1.18,0.29,0.74,0.81,1.62,1.48c1.4,1.05,1.38-0.16,4.79,0.95c0.22,0.08,0.47,0.12,0.74,0.14v-2.15c-0.36-0.22-0.41-1.64-1.19-0.41
		C195.63,50.87,195.27,50.56,195.08,50.07L195.08,50.07z M188.48,43.11c1.48,0.32,3.41,0.56,5.94,0.71
		c-1.66,0.43-0.82-0.74-3.03,0.8c-0.74,0.52-1.84-0.37-1.92,0.15c-0.07,0.52,0.74,1.4-0.15,1.7c-0.88,0.3-1.25-0.59-1.77-0.52
		c-0.52,0.08-0.22,0.45-0.66,1.19c-0.03,0.06-0.07,0.11-0.1,0.16c-1.06,1.76-1.64,2.65,1.35,2.49l-3.3,0.74
		c0.4-1.35,0.88-2.6,1.43-3.74C186.94,45.41,187.69,44.19,188.48,43.11L188.48,43.11z M179.86,48.52c-0.56-0.45-0.88-0.88-1.15-1.27
		c0.67-1.38,1.39-0.82,2.14-1.35c0.41-0.29,0.62-0.69,0.81-1.17c0.38-0.96,0.68-2.27,2.25-3.72c0.21,0.23,0.46,0.45,0.78,0.67
		c0.62,0.43,1.49,0.83,2.78,1.18c-0.83,1.18-1.6,2.5-2.28,3.96c-0.5,1.07-0.94,2.23-1.3,3.46
		C181.81,49.74,180.62,49.12,179.86,48.52L179.86,48.52z M183.79,60.28l0.15,1.51c2.11,0.61,3.98,0.98,5.75,1.26
		c0.05-0.49,0.14-0.67-0.8-0.67c-2.02,0-0.5-1.93-3.54-1.32C184.85,61.15,184.25,60.67,183.79,60.28L183.79,60.28z M182.86,61.44
		l-1.04-3.99l-0.16-0.6c-0.29-0.74,0.22-2.51,0.22-3.39c0-0.48,0.77-0.94,1.58-1.34c0.06-0.28,0.09-0.58,0.16-0.84
		c-2.74-0.72-4.1-1.59-4.92-2.39c-0.21-0.21-0.38-0.41-0.52-0.6c-0.15,0.3-0.28,0.6-0.41,0.9c-0.95,2.19-1.54,4.56-1.71,7.05
		c0.1,0.33,0.3,0.74,0.63,1.2C177.61,58.7,179.51,60.3,182.86,61.44L182.86,61.44z M187.66,73.6c-1.14-0.37-2.21-0.78-3.2-1.21
		c-1.94-0.85-3.57-1.79-4.83-2.67c1.54,2.3,3.51,4.29,5.8,5.85c1.17,0.8,2.42,1.49,3.74,2.05c1.43,0.61,2.95,1.07,4.52,1.36
		c-1.82-1.04-3.78-2.63-5.55-4.77C187.98,74.01,187.82,73.81,187.66,73.6L187.66,73.6z M186.64,72.15
		c-0.95-0.35-1.81-0.71-2.58-1.07c-0.4-0.19-0.77-0.37-1.12-0.56c-3-1.57-4.39-3-4.68-3.21c-0.33-0.67-0.62-1.35-0.89-2.06
		c0.24-0.31,1.23-0.17,1.44-0.38c0.59-0.59-0.64-1.03-1.58-3.9c-0.21-0.63-0.56-0.49-1.08-0.77c-0.11-0.63-0.12-1.47-0.13-1.98
		c1.19,1.55,3.43,3.24,7.02,4.36C183.6,66.35,184.93,69.55,186.64,72.15L186.64,72.15z M188.34,72.74c-0.4-0.53-0.79-1.09-1.15-1.68
		c-1.41-2.28-2.54-5-3.09-8.16c2.09,0.59,3.96,0.94,5.72,1.21c0.15,0.44,0.34,0.76,0.55,1.03c0.34,0.43,0.71,0.73,1.02,1.22
		c0.52,0.81-1.03,2.43,0.37,3.98l2.98,3.65C192.53,73.76,190.36,73.35,188.34,72.74L188.34,72.74z M197.37,77.71v1.55
		c-0.01,0-0.01,0-0.01,0c-2.04-0.3-5.16-2.07-7.9-5.16c1.94,0.49,4,0.77,6.08,0.93l1.84,0.3V77.71L197.37,77.71z M206.44,74.33
		c-2.45,2.71-5.3,4.53-7.56,4.95l-0.5,0.03v-4.13C201.12,75.19,203.84,74.9,206.44,74.33L206.44,74.33z M211.98,62.59
		c-0.3,1.85-0.78,3.52-1.37,5c-0.88,2.23-2.01,4.04-3.1,5.45c-2.9,0.76-6.02,1.13-9.13,1.12v-0.74c0.18-0.39,0.42-0.74,0.82-0.95
		c0.81-0.45,0.07-1.55,1.33-2.36c3.44-2.22,0.6-3.04,2.14-5.74c0.67-0.06,1.36-0.14,2.05-0.23
		C207.27,63.81,209.85,63.31,211.98,62.59L211.98,62.59z M207.16,68.93c0.15,0.81-0.83,1.74-1.69,2.51
		c-0.64,0.57-2.81,0.09-1.7-2.36c0.37-0.81,1.18-0.21,1.62-0.66c0.44-0.45,0.9-2.01,1.8-1.9C207.59,66.62,207.01,68.12,207.16,68.93
		L207.16,68.93z M212.15,61.45c0.1-0.9,0.17-1.84,0.17-2.84c0-0.42,0-0.81-0.01-1.17c-0.08-4.79-0.67-4.1-1.99-3.39
		c-0.96,0.51-2.61-0.48-3.79-1c-2.33-1.02-1.31,1.02,1.36,1.43c2.31,0.36,1.91,1.99,0.29,2.36c-0.63,0.15-0.81,0.29-1.24,0.62
		c-0.23,0.17-0.52,0.4-0.97,0.7c-1.17,0.78-1.98,0.25-2.64-0.69c-0.81-1.17-1.4-2.97-2.15-3.73c-0.05-0.05-0.1-0.1-0.14-0.14
		c-0.54-0.47-0.64-0.11-0.53,0.53c0.16,0.9,0.76,2.33,1.19,2.7c0.2,0.18,0.37,0.4,0.5,0.64c0.31,0.53,0.49,1.16,0.75,1.72
		c0.37,0.81,0.59,0.52,1.69,0.37c3.4-0.46,1.16,1.75,0.88,2.58c-0.1,0.31-1.03,0.59-1.8,1.08C206.7,62.9,209.78,62.33,212.15,61.45
		L212.15,61.45z M216.59,58.18c-0.44,1.18-1.11,0.52-1.84-0.22c-0.16-0.16-0.27-0.33-0.35-0.51c-0.37-0.85,0.06-1.79-1.28-2.4
		l0.03,2.41L213.2,61c2.18-0.95,3.9-2.12,5.13-3.57c0.08-0.09,0.15-0.19,0.23-0.28c0.22-0.28,0.01-0.54,0.19-0.84
		c-0.01-0.26,0.37-0.54,0.35-0.8l-0.16-1.19c-0.31,0.01-0.71-0.15-1.1-0.71c-0.66-0.96-0.44,0.07-1.11,0.52
		c-1.35,0.9-0.02,1.93-0.01,3.31C216.72,57.67,216.69,57.92,216.59,58.18L216.59,58.18z M219.2,58.79l-1.77,6.69l-0.42,1.57
		c-0.7,0.81-1.83,1.86-3.23,2.88c-0.95,0.69-2.01,1.36-3.15,1.93c-0.49,0.24-0.99,0.47-1.5,0.66c1-1.45,1.97-3.22,2.72-5.32
		c0.55-1.51,0.98-3.19,1.23-5.04C218.06,60.16,219.3,57.11,219.2,58.79L219.2,58.79z M218.86,46.57
		c-2.29-4.35-5.88-7.91-10.25-10.18l-2.43-7.95c19.42,6.5,31.84,15.22,33.25,24.86L218.86,46.57L218.86,46.57z M204.83,34.83
		c-2.28-0.72-4.7-1.11-7.21-1.11c-0.04,0-0.08,0-0.12,0l0.02-7.9v-0.16l0.01-1.9l0-0.16l0.03-12.88l4.26,14.12l0.05,0.17l0.63,2.09
		l0.05,0.18L204.83,34.83L204.83,34.83z M186.26,36.58c-4.17,2.25-7.6,5.69-9.84,9.87l-33.47,10.96l33.09,10.85
		c2.25,4.59,5.93,8.37,10.45,10.74l2.34,7.65c-19.24,4.36-42.65,6.93-67.87,6.93c-65.4,0-118.61-17.24-118.61-38.43
		c0-21.19,53.21-38.42,118.61-38.42c25.79,0,49.69,2.68,69.17,7.23L186.26,36.58L186.26,36.58z M174.84,50.11l-22.77,7.23
		l21.54,0.08C173.63,54.87,174.07,52.41,174.84,50.11L174.84,50.11z M190.05,80.52l1.65,5.46l0.05,0.15l0.54,1.78l0.05,0.15
		l4.8,15.9l0.15-17.2l0-0.16l0.02-1.9v-0.16l0.03-2.8C194.79,81.71,192.34,81.28,190.05,80.52L190.05,80.52z M208.39,79.18
		c4.71-2.37,8.54-6.27,10.84-11.03l18.37-6.02c-4.17,7.34-14.79,13.95-29.87,19.19L208.39,79.18L208.39,79.18z M220.65,64.49
		l18.39-5.69l0.19-0.06l2.21-0.69l0.19-0.06l2.12-0.66l-2.01,0.01h-0.18l-2.03,0.01h-0.17l-17.75,0.06c0,0.1,0,0.2,0,0.31
		C221.62,60.07,221.28,62.34,220.65,64.49L220.65,64.49z M220.26,57.73c0,2.54-0.42,4.98-1.2,7.25c-0.45,1.32-1.02,2.58-1.69,3.78
		c-1.99,3.54-4.91,6.49-8.4,8.53c-3.36,1.96-7.24,3.08-11.36,3.08c-0.09,0-0.18,0-0.27,0c-2.74-0.03-5.36-0.55-7.78-1.48
		c-1.28-0.49-2.5-1.09-3.66-1.79c-3.32-2.01-6.08-4.85-8-8.23c-1.87-3.29-2.94-7.1-2.94-11.15c0-0.1,0-0.2,0-0.3
		c0.04-2.76,0.57-5.39,1.51-7.83c0.51-1.32,1.14-2.59,1.88-3.77c1.84-2.97,4.35-5.48,7.32-7.33c3.44-2.14,7.49-3.38,11.82-3.41
		c0.04,0,0.08,0,0.12,0c2.7,0,5.29,0.48,7.7,1.35c1.36,0.49,2.66,1.11,3.88,1.84c3.16,1.89,5.83,4.53,7.75,7.67
		c2.05,3.35,3.26,7.28,3.31,11.48C220.26,57.53,220.26,57.62,220.26,57.73L220.26,57.73z M240.62,61.14
		c-3.84,8.76-15.99,16.63-33.64,22.66l-7.3,23.82l-2.21,7.21l-2.21-7.21l-5.78-18.87c-19.49,4.53-43.1,7.19-68.51,7.19
		C54.26,95.93,0,77.64,0,55.15c0-22.48,54.26-40.78,120.96-40.78c25.98,0,50.07,2.78,69.81,7.49l4.41-14.38l0.74-2.43L197.46,0
		l2.29,7.48l5.67,18.51c21.82,7.18,35.63,17.12,36.45,28.12l10.1,3.31L240.62,61.14L240.62,61.14z M125.82,43.55h7.77v29.93h8.29
		V43.55h7.77v-5.23h-0.28h-23.55V43.55L125.82,43.55z M100.6,38.32v35.16h8.34V55.9l6.75,17.58h9.36l-6.75-15.18
		c3.02-1.06,6.47-3.46,6.47-9.01c0-3.8-1.32-6.7-3.92-8.62c-2.05-1.52-4.92-2.35-8.08-2.35h-11.88H100.6L100.6,38.32z M108.94,55.48
		l0.96,0.11c3.21,0,6.49-0.71,6.49-5.94c0-2.85-1.06-6.25-6.11-6.25h-1.34V55.48L108.94,55.48z M80.89,38.32L70.76,73.49h4.58
		l2.99-10.27h9.13l3.03,10.27h8.95L89.13,38.32h-0.21H80.89L80.89,38.32z M79.74,58.29h6.31l-3.23-10.98L79.74,58.29L79.74,58.29z
		 M41.48,38.32v35.16h4.43v-21.1l7.08,21.1h1.24l6.99-20.99v20.99h8.3V38.32h-0.28H61.5l-5.91,17.85l-5.98-17.85H41.48z"/>
	<path class="st0" d="M222.47,11.88v7.25h1.63v-2.68h1.2c0.35,0,0.61,0.07,0.78,0.22c0.17,0.14,0.27,0.35,0.29,0.62
		c0.08,1.04,0.13,1.59,0.16,1.66l0.11,0.19h1.65c-0.1-0.14-0.16-0.29-0.2-0.45c-0.03-0.17-0.06-0.55-0.06-1.14
		c-0.01-0.57-0.11-0.99-0.27-1.24c-0.17-0.25-0.4-0.43-0.7-0.52v-0.02c0.39-0.14,0.68-0.36,0.88-0.67c0.2-0.31,0.3-0.69,0.31-1.14
		c-0.01-0.67-0.21-1.18-0.62-1.53c-0.41-0.36-0.97-0.53-1.69-0.53H222.47L222.47,11.88z M225.15,21.67c-3.31,0-6-2.69-6-6
		c0-1.6,0.62-3.11,1.76-4.24c1.13-1.13,2.64-1.76,4.24-1.76c3.31,0,6,2.69,6,6C231.14,18.98,228.45,21.67,225.15,21.67L225.15,21.67
		z M217.68,15.67c0-1.99,0.78-3.87,2.19-5.28c1.41-1.41,3.28-2.18,5.28-2.18c4.12,0,7.47,3.35,7.47,7.46c0,4.12-3.35,7.47-7.47,7.47
		C221.03,23.14,217.68,19.79,217.68,15.67L217.68,15.67z M224.09,15.14v-1.84h1.37c0.39,0,0.66,0.08,0.82,0.24
		c0.16,0.16,0.24,0.39,0.24,0.69c0,0.31-0.09,0.54-0.27,0.69c-0.18,0.15-0.42,0.22-0.74,0.22H224.09z"/>
</g>
</svg>
