<?xml version="1.0" encoding="utf-8"?>
<!-- Generator: Adobe Illustrator 24.2.0, SVG Export Plug-In . SVG Version: 6.00 Build 0)  -->
<svg version="1.1" id="Layer_1" xmlns="http://www.w3.org/2000/svg" xmlns:xlink="http://www.w3.org/1999/xlink" x="0px" y="0px"
	 viewBox="0 0 545.47 149.01" style="enable-background:new 0 0 545.47 149.01;" xml:space="preserve">
<style type="text/css">
	.st0{fill:#FD5F00;}
	.st1{font-family:'MuseoSansCyrl-300';}
	.st2{font-size:34.7466px;}
	.st3{fill-rule:evenodd;clip-rule:evenodd;fill:#FD5F00;}
</style>
<g>
	<text transform="matrix(1 0 0 1 348.1994 70.5192)"><tspan x="0" y="0" class="st0 st1 st2">Побеждаем</tspan><tspan x="0" y="34.48" class="st0 st1 st2">вместе</tspan></text>
	<g>
		<g>
			<path class="st3" d="M220,58.64c0.07-0.05,0.17-0.14,0.17-0.14c-0.07-0.04-0.16-0.09-0.16-0.01C220.01,58.56,220,58.64,220,58.64
				L220,58.64L220,58.64z M228.23,54.54c-0.02-0.01-0.06-0.03-0.1-0.04L228.23,54.54L228.23,54.54z M228.19,54.52l-0.15,0.05
				L228.19,54.52L228.19,54.52z M88.92,92.39l3.33-11.46h10.67l3.39,11.46h9.32l-11.32-38.63H95.6L84.47,92.39H88.92L88.92,92.39z
				 M236.27,67.88l0.65,1.54c0.07-0.1,0.16-0.21,0.32-0.33c0.34-0.25,0.66-0.57,0.8-0.61c0.14-0.03,0.26-0.2,0.33-0.3
				c0.06-0.1,0.05-0.12,0.05-0.12c0.12,0.04,0.23,0.05,0.27-0.07c0.06,0.42,0.04,0.32,0.18,0.43c0.14,0.1,0.16,0.17,0.15,0.27
				c-0.01,0.11,0.01,0.4,0.01,0.4c0.19,0.13,0.39,0.08,0.5,0.04c0.11-0.04,0.54-0.21,0.61-0.18l0.02,0.01l-0.15-0.26
				c-0.23-0.39-0.46-0.78-0.71-1.16c-0.01,0.01-0.03,0.02-0.05,0.03c-0.1,0.03-0.25-0.06-0.34,0c-0.08,0.05-0.15-0.04-0.13-0.09
				c0.03-0.05,0.08-0.05,0.13-0.13c0.03-0.06,0.1-0.15,0.13-0.19c-0.15-0.22-0.29-0.43-0.45-0.65l-0.07-0.01
				c0,0-0.13-0.07-0.25-0.05c-0.12,0.03-0.24-0.06-0.24-0.06l-0.22-0.01c0,0-0.13-0.01-0.19-0.08c-0.04-0.05-0.18-0.13-0.28-0.2
				c-0.16,0.12-0.34,0.23-0.51,0.34c-0.01,0.04-0.01,0.07-0.02,0.1c-0.02,0.14-0.11,0.17-0.27,0.18c0,0-0.12,0.13-0.27,0.19
				c0.05,0.07,0.12,0.26,0.22,0.49c0,0-0.16,0.32-0.23,0.44C236.28,67.85,236.28,67.87,236.27,67.88L236.27,67.88z M238.21,65.97
				c-0.08-0.11-0.17-0.22-0.25-0.33c-0.07,0.05-0.13,0.11-0.2,0.16l0.06,0.02C237.82,65.82,237.99,65.89,238.21,65.97L238.21,65.97z
				 M236.83,69.6l-0.06,0.13c-0.09,0.18-0.2,0.29-0.37,0.39c-0.17,0.09-0.34,0.13-0.53,0.09c-0.19-0.05-0.23,0.21-0.21,0.51
				c0.02,0.3-0.16,0.48-0.27,0.58c-0.11,0.11-0.1,0.27-0.1,0.35c0,0.04-0.01,0.13-0.01,0.27c-0.35,0.13-0.72,0.25-1.09,0.37
				c-0.35-1.25-0.74-2.47-1.16-3.64l-0.18-0.5c0.89-0.26,1.71-0.56,2.46-0.9l0.04,0.11c-0.12-0.04-0.33,0.14-0.74,0.25
				c-0.16-0.02-0.33,0.1-0.41,0.12c-0.08,0.02-0.14,0.07-0.14,0.07s-0.19,0.31-0.08,0.39c0.12,0.08,0.2,0.23,0.22,0.32
				c0.03,0.09,0.18,0.67,0.18,0.75c0,0.08-0.01,0.21,0.11,0.21c0.12,0,0.15,0.05,0.19,0.14c0.04,0.09,0.11,0.39,0.11,0.39
				c0.14-0.07,0.41-0.3,0.52-0.19c0.1,0.1,0.4,0.23,0.4,0.23c0.08-0.05,0.08-0.16,0.08-0.16s-0.02-0.14,0.21-0.2
				c0.23-0.06,0.34-0.19,0.34-0.19c0.08-0.13,0.15-0.48,0.14-0.57c0-0.02-0.01-0.04-0.01-0.07L236.83,69.6L236.83,69.6z
				 M234.61,73.9c0.04-0.09,0.08-0.19,0.12-0.28c0.08-0.19,0.39-0.52,0.39-0.52l0.26-0.47c-0.06-0.16-0.08-0.33-0.1-0.48
				c-0.34,0.12-0.68,0.24-1.04,0.35C234.38,72.97,234.5,73.43,234.61,73.9L234.61,73.9z M225.55,53.54L225.55,53.54h0.02h0.01
				l0.19,0v0c11.37,0.11,20.56,9.36,20.56,20.76c0,11.4-9.19,20.65-20.56,20.76v0l-0.19,0h-0.01h-0.01h-0.01l-0.19,0v0
				c-11.37-0.11-20.56-9.36-20.56-20.76c0-11.4,9.19-20.65,20.56-20.76v0L225.55,53.54L225.55,53.54z M227.16,54.4
				c-0.1-0.02-0.19-0.03-0.28-0.03c-0.32,0-0.71-0.1-0.71-0.1s-0.23-0.07-0.41-0.16h-0.01h-0.03l-0.03,0h-0.03l-0.03,0h-0.03h-0.03
				h-0.01h-0.03h-0.03l-0.03,0h-0.03l-0.03,0h-0.03l-0.02,0c-0.58,0.01-1.15,0.03-1.71,0.09l0.04,0.02l0.1,0.06l0.05,0.03
				c0.15,0.1,0.28,0.21,0.39,0.33c0.36-0.05,0.74-0.08,1.13-0.08v0h0.01l0.02,0l0.02,0l0.15,0l0.15,0l0.02,0l0.02,0h0.01v0
				c0.39,0.01,0.76,0.04,1.13,0.08C226.97,54.56,227.06,54.48,227.16,54.4L227.16,54.4z M225.77,54.79l-0.02,0l-0.02,0l-0.17,0
				l-0.17,0l-0.02,0l-0.02,0c-0.33,0.01-0.66,0.03-0.97,0.07l-0.11,0.01l-0.08,0.07l-0.05-0.06c-0.4,0.06-0.78,0.14-1.13,0.24
				l-0.02,0.05l-0.07-0.03c-0.36,0.11-0.7,0.24-1,0.38l0,0.04l-0.07-0.01c-0.1,0.05-0.2,0.11-0.29,0.16
				c-0.18,0.11-0.35,0.23-0.49,0.35l-0.01,0.06l-0.06,0c-0.08,0.08-0.15,0.15-0.22,0.23c-0.07,0.09-0.14,0.18-0.19,0.27l0.01,0.08
				l-0.05,0.01l-0.01,0.01c-0.05,0.1-0.08,0.2-0.1,0.31c-0.01,0.08-0.02,0.15-0.02,0.23l0.02,0.1l-0.01,0l0,0.02l0,0.01
				c0.05,0.01,0.15,0.02,0.28,0.01c0.03,0.05,0.09,0.06,0.15,0.08c0.05,0.02,0.05,0.05-0.02,0.06c0,0-0.21,0.02-0.26,0
				c-0.03-0.01-0.07-0.02-0.13-0.02c0.01,0.05,0.02,0.09,0.04,0.14c0.05,0,0.11,0.02,0.14,0.08c0.03,0.04,0.19,0.11,0.19,0.11
				s0.16-0.02,0.12,0.05c-0.04,0.07-0.1,0.18-0.12,0.2c-0.01,0.01-0.04,0.03-0.06,0.04c0.03,0.04,0.07,0.08,0.11,0.12
				c0.04-0.01,0.13-0.04,0.2-0.08c0.1-0.04,0.07-0.03,0.21,0.02c0.15,0.05,0,0.13-0.06,0.18c0,0-0.07,0.02-0.13,0.05l0.04,0.08l0,0
				c0.01,0,0.01,0,0.02,0.01c0.04,0.04,0.13,0.02,0.13,0.02l-0.07,0.04l0.1,0.08l0.01,0.01c0.02-0.04,0.04-0.07,0.04-0.1
				c0-0.07,0.06-0.14,0.06-0.21c0-0.07,0.09-0.11,0.09-0.11l0.14,0.04l0.11,0.31c-0.13,0.06-0.19,0.1-0.14,0.18
				c0.04,0.07,0.09,0.11,0.15,0.11c0.06-0.01,0.23,0.03,0.26,0.06c0.03,0.04,0.21,0.06,0.24,0.05l-0.11,0.1
				c-0.01,0.01-0.01,0.02-0.02,0.04l0.12,0.05c0.06,0.03,0.13,0.05,0.19,0.07c0.15,0.06,0.3,0.11,0.46,0.15l0.03-0.03l0.07,0.06
				c0.33,0.09,0.67,0.17,1.04,0.22c-0.01-0.02-0.01-0.05-0.02-0.07c-0.08-0.2-0.11-0.26-0.25-0.34c-0.14-0.08-0.5-0.05-0.5-0.05
				c-0.11-0.14-0.17-0.18-0.15-0.32c0.02-0.14-0.03-0.31,0.25-0.32c0.27-0.01,0.4-0.07,0.4-0.07c0.12-0.1,0.26-0.2,0.26-0.2
				c-0.2-0.08-0.19-0.08-0.08-0.13c0.11-0.05,0.73-0.29,0.73-0.29c0.05,0.09,0.36,0.19,0.36,0.19s0.09,0.08,0.09-0.04
				c0.01-0.12-0.03-0.31-0.03-0.31s0.42-0.07,0.58-0.13c0.16-0.05,0.18,0.03,0.29,0.09c0.11,0.05,0.22,0.07,0.22,0.07
				c-0.31,0.11-0.48,0.17-0.35,0.2c0.12,0.03,0.23,0.08,0.23,0.08c0.14-0.1,0.69-0.34,0.71-0.21c0,0-0.02,0.23,0.03,0.34
				c0.05,0.1,0.07,0.23,0.07,0.62c0,0,0.14,0.19,0.27,0.24c0.12,0.05,0.26,0.12,0.26,0.27c0,0.1,0.04,0.18,0.09,0.3
				c0.21-0.04,0.42-0.09,0.62-0.15l0.07-0.06l0.03,0.03c0.16-0.05,0.31-0.1,0.46-0.15c0.06-0.02,0.13-0.05,0.19-0.07
				c0.1-0.04,0.2-0.09,0.3-0.13l0.07-0.09l0.04,0.03c0.08-0.04,0.16-0.08,0.24-0.13c0.11-0.06,0.21-0.13,0.31-0.2
				c0.06-0.05,0.12-0.09,0.18-0.14l0.05-0.09l0.04,0.02c0.04-0.04,0.08-0.07,0.12-0.11l0.02-0.02c0.08-0.09,0.16-0.18,0.22-0.27
				c0.05-0.07,0.09-0.15,0.13-0.23l0.01-0.01l0,0c0.01-0.03,0.03-0.06,0.04-0.1c0.04-0.11,0.07-0.22,0.08-0.34l0-0.02l-0.01,0
				l0.02-0.1c0-0.08-0.01-0.15-0.02-0.23c-0.02-0.1-0.05-0.21-0.1-0.31l-0.01-0.01l-0.05-0.01l0.01-0.08
				c-0.04-0.07-0.08-0.14-0.13-0.21c-0.29-0.14-0.69-0.33-0.77-0.43c-0.11-0.13,0.04-0.06,0.15,0.01c0.05,0.03,0.24,0.12,0.43,0.21
				l-0.09-0.09l-0.06,0l0-0.06c-0.14-0.12-0.31-0.24-0.49-0.35c-0.09-0.06-0.19-0.11-0.29-0.16l-0.07,0.01l-0.01-0.04
				c-0.3-0.15-0.64-0.28-1-0.38l-0.07,0.03l-0.02-0.05c-0.35-0.1-0.73-0.18-1.13-0.24l-0.05,0.06l-0.08-0.07l-0.11-0.01
				C226.42,54.82,226.1,54.79,225.77,54.79L225.77,54.79z M225.36,68.91h0.01h0.01h0.01l0.01,0h0.01h0.01V68.6v0v-4.36v0h-0.02
				l-0.02,0h-0.02l-0.02,0h-0.01c-0.4,0-0.79-0.02-1.17-0.04c-0.4-0.03-0.8-0.07-1.19-0.12c-0.09,0.34-0.18,0.69-0.26,1.05
				l-0.08,0.32l0.04,0.02l-0.04-0.01l-0.04,0.15c0.04,0.02,0.08,0.06,0.14,0.1c0.11,0.09,0.13,0.23,0.1,0.35
				c-0.03,0.12-0.09,0.46-0.25,0.39c-0.06-0.03-0.12-0.05-0.17-0.05l-0.07,0.33l0.02-0.01c0.1-0.07,0.45-0.24,0.45-0.24
				c-0.14,0.12-0.21,0.28-0.23,0.37c-0.02,0.09-0.14,0.24-0.14,0.24c0.28-0.12,0.34-0.06,0.44,0.01l0.28,0.15
				c0,0,0.01,0.13,0.07,0.23c0.05,0.11,0.13,0.21,0.06,0.3c-0.07,0.09-0.2,0.14-0.23,0.39c0,0-0.76-0.27-0.83-0.35
				c-0.02-0.02-0.06-0.05-0.1-0.07c-0.06,0.3-0.12,0.61-0.18,0.92l0,0.01c0.65,0.08,1.31,0.14,1.99,0.18
				c0.18,0.01,0.36,0.02,0.53,0.02C224.79,68.9,225.07,68.91,225.36,68.91L225.36,68.91L225.36,68.91z M225.35,73.78
				c-1.43-0.02-2.82-0.12-4.14-0.31c-0.24,1.76-0.43,3.57-0.57,5.35l0,0.01c0.93,0.12,1.89,0.21,2.87,0.26
				c0.34,0.02,0.68,0.03,1.03,0.04c0.27,0.01,0.54,0.01,0.82,0.01h0.01h0.01h0.01l0.01,0h0.01h0.01h0.01v-5v0v-0.36h-0.05
				L225.35,73.78L225.35,73.78L225.35,73.78z M225.35,93.8h0.02h0.02h0.02l0.02,0h0.02h0.02v-1.82h-0.04l-0.04,0h-0.01
				c-0.66,0-1.31-0.03-1.95-0.06c-0.04,0.02-0.09,0.03-0.13,0.06c-0.07-0.01-0.11,0.03-0.16,0.11c-0.09,0.03-0.12,0.06-0.14,0.09
				c-0.02,0.03-0.12,0.12-0.2,0.13c-0.09,0.02-0.33,0.14-0.43,0.2c-0.11,0.06-0.35,0-0.41-0.05c0,0-0.21-0.06-0.26-0.06
				c-0.04,0-0.17-0.04-0.21-0.08c-0.03-0.03-0.06-0.04-0.14-0.03l0.04,0.11c0.03,0.01,0.05,0.03,0.06,0.05
				c0.03,0.05,0.14,0.2,0.25,0.24c0.11,0.04,0.15,0.06,0.14,0.12c0,0.04-0.14,0.1-0.22,0.12c0.11,0.23,0.23,0.44,0.36,0.63
				l0.01,0.02c0.29,0.04,0.59,0.07,0.89,0.1c0.53,0.05,1.07,0.09,1.62,0.11C224.76,93.79,225.06,93.8,225.35,93.8L225.35,93.8
				L225.35,93.8z M225.77,73.78L225.77,73.78l-0.04,0h-0.05v0.36v0v5h0.01h0.01h0.01l0.01,0h0.01h0.01h0.01
				c0.27,0,0.55-0.01,0.82-0.01c0.35-0.01,0.69-0.02,1.03-0.04c0.98-0.05,1.94-0.14,2.87-0.26l0-0.01
				c-0.14-1.78-0.34-3.59-0.57-5.35C228.59,73.66,227.2,73.77,225.77,73.78L225.77,73.78z M230.13,73.44
				c1.38-0.21,2.69-0.5,3.91-0.87c0.14,0.5,0.27,0.99,0.39,1.5l0.06,0.27c-0.03,0.23-0.06,0.6-0.15,0.75
				c-0.11,0.18-0.03,0.18-0.2,1.08c0.12,0.09,0.25,0.35,0.43,0.79c-0.06,0.32-0.07,0.66,0,0.96c-0.05,0.05-0.09,0.1-0.14,0.17
				c-1.17,0.3-2.42,0.54-3.71,0.72C230.57,77.02,230.37,75.21,230.13,73.44L230.13,73.44z M240.49,69.1l0.02,0.04
				c0.21-0.04,0.49-0.08,0.49-0.08c0.1-0.09,0.14-0.15,0.07-0.24c-0.03-0.04-0.09-0.12-0.13-0.2
				C240.81,68.79,240.65,68.95,240.49,69.1L240.49,69.1z M241.64,67.73c0.08-0.07,0.4-0.26,0.4-0.26c0-0.11,0-0.22,0.01-0.31
				l-0.02-0.04L242,67.08C241.89,67.3,241.77,67.51,241.64,67.73L241.64,67.73z M242.11,66.84l0.02,0.04
				c0.1-0.1,0.19-0.31,0.19-0.31l-0.06-0.13C242.22,66.57,242.17,66.7,242.11,66.84L242.11,66.84z M244.99,69.3
				c0.01,0.12,0.01,0.29,0.03,0.44l0-0.03c0-0.07,0-0.13,0-0.2l0-0.1L244.99,69.3L244.99,69.3z M245,70.04l-0.03-0.07
				c-0.05-0.14-0.1-0.4-0.21-0.49c-0.11-0.09-0.34-0.46-0.37-0.53c-0.03-0.07-0.15-0.35-0.28-0.4c-0.13-0.05-0.28-0.37-0.31-0.45
				c-0.03-0.07-0.03-0.21-0.3-0.32c-0.26-0.11-0.29-0.14-0.6-0.38c0.03,0.1,0.01,0.15-0.38-0.19c0.08,0.07,0.41,0.55,0.56,0.71
				c0.14,0.16,0.36,0.4,0.47,0.57c0.11,0.18,0.21,0.29,0.37,0.31c0.16,0.02,0.32,0.43,0.34,0.57c0.02,0.14,0.19,0.34,0.29,0.46
				c0.1,0.12,0.16,0.26,0.36,0.46l0.02,0.03C244.97,70.23,244.99,70.14,245,70.04L245,70.04z M242.8,64.55
				c-0.01,0.02,0,0.07,0.04,0.12c0.09,0.13,0.16,0.39,0.26,0.44L242.8,64.55L242.8,64.55z M244.72,68.13l0.17,0.32
				c-0.08-0.17-0.15-0.35-0.23-0.52L244.72,68.13L244.72,68.13z M242.12,66.12c-0.08-0.17-0.14-0.3-0.16-0.36
				c-0.04-0.12-0.22-0.51-0.33-0.6c-0.11-0.09-0.09-0.11-0.09-0.11c-0.1,0.17-0.2,0.42-0.29,0.58c0.24,0.32,0.48,0.65,0.7,0.98
				C242.02,66.45,242.08,66.28,242.12,66.12L242.12,66.12z M240.14,64.26c0-0.04-0.01-0.08-0.03-0.13
				c-0.04-0.16-0.03-0.41-0.03-0.41l0.04-0.2c0.16,0.09,0.22,0.05,0.24,0.04c0.02-0.01,0.14-0.14,0.14-0.14
				c-0.1-0.32-0.06-0.57-0.07-0.62c-0.22-0.24-0.13-0.28-0.38-0.25l-0.06,0.01c-0.07,0.39-0.2,0.77-0.39,1.13
				C239.78,63.87,239.96,64.06,240.14,64.26L240.14,64.26z M241.86,66.86c-0.07,0.14-0.14,0.29-0.22,0.43
				c-0.1,0.18-0.21,0.36-0.34,0.53c-0.06,0.01-0.12,0.01-0.16,0.02c-0.12,0.01-0.22,0.09-0.29,0.27c0,0-0.01,0.18,0,0.28l0,0
				c-0.15,0.17-0.3,0.34-0.47,0.5l-0.11-0.2l-1.1-1.66c0.05,0.05,0.11,0.07,0.11,0.07s-0.1-0.36-0.07-0.45
				c0.03-0.09-0.22-0.21-0.31-0.34c-0.1-0.12,0.14-0.07,0.3-0.04l-0.04-0.1c0,0,0.1-0.06-0.17-0.03c-0.1,0.01-0.28-0.03-0.47-0.09
				l-0.38-0.58l0.04-0.04c0.23,0.05,0.5,0.1,0.71,0.13c0,0,0.09,0.12,0.16,0.21c0.06,0.1,0.16,0.16,0.27,0.24
				c0.11,0.07,0.31,0.18,0.42,0.25c0.11,0.07,0.11,0.08,0.22-0.02c0,0,0,0.11,0,0.25c0.07,0.03,0.35,0.17,0.43,0.23
				c0.08,0.05,0.05-0.08-0.03-0.29c-0.08-0.21-0.15-0.12-0.27-0.16c-0.12-0.03,0.02-0.14,0.11-0.12c0.09,0.02,0.1-0.04,0-0.15
				c-0.1-0.11-0.16-0.01-0.31-0.01l0.04-0.16c0.06-0.11-0.17-0.4-0.23-0.56c-0.06-0.16,0.18-0.23,0.31-0.21
				c0.13,0.02,0-0.33,0.01-0.48c0.01-0.14-0.21-0.05-0.27-0.11c-0.04-0.04-0.2-0.25-0.33-0.45c0.03-0.05,0.06-0.1,0.09-0.16
				c0.18,0.19,0.35,0.38,0.52,0.57c-0.1,0.09-0.05,0.06,0.09,0.1l0.03,0.04c0,0.1-0.02,0.4-0.13,0.61c0,0-0.01,0,0.07,0.09
				c0.08,0.09,0.21,0.25,0.3,0.39c0.09,0.15,0.19,0.13,0.44,0.31c0,0-0.01,0,0.03-0.12c0.03-0.11,0.16-0.14,0.25-0.1
				C241.36,66.13,241.61,66.49,241.86,66.86L241.86,66.86z M239.1,66.94l-0.22-0.33c0.08,0.07,0.18,0.16,0.2,0.28
				C239.09,66.91,239.09,66.92,239.1,66.94L239.1,66.94z M233.98,72.36c-0.36-1.27-0.75-2.52-1.18-3.71l-0.16-0.43
				c-0.57,0.16-1.16,0.3-1.78,0.42c-0.47,0.09-0.96,0.17-1.45,0.24c0.25,1.38,0.49,2.84,0.69,4.34
				C231.47,73.01,232.77,72.72,233.98,72.36L233.98,72.36z M229.88,73.25c-0.14-1.01-0.29-2-0.45-2.96
				c-0.08-0.47-0.16-0.93-0.24-1.38c-0.66,0.08-1.33,0.15-2.03,0.18c-0.46,0.03-0.92,0.04-1.39,0.04l-0.02,0h-0.02l-0.02,0h-0.02
				v4.42C227.13,73.55,228.54,73.44,229.88,73.25L229.88,73.25z M228.59,94.19c0.09-0.07,0.18-0.15,0.26-0.23
				c0.04-0.04,0.08-0.09,0.12-0.14c-0.23,0.03-0.45,0.05-0.68,0.07c-0.82,0.08-1.66,0.12-2.52,0.13l-0.01,0h-0.04l-0.04,0v0.46
				c0.92-0.01,1.83-0.07,2.72-0.2l0.11-0.02l0,0l0.03-0.03L228.59,94.19L228.59,94.19z M228.92,94.2c1.16-0.19,2.28-0.49,3.36-0.87
				l-0.09-0.11l0,0c-0.32,0.08-0.65,0.16-0.98,0.23c-0.62,0.13-1.27,0.24-1.94,0.33C229.17,93.94,229.05,94.08,228.92,94.2
				L228.92,94.2z M229.45,93.53c0.59-0.08,1.17-0.18,1.72-0.3c0.23-0.05,0.46-0.1,0.68-0.16c0.26-0.06,0.51-0.13,0.76-0.2
				c0.39-0.35,0.74-0.75,1.05-1.19c0.18-0.26,0.35-0.53,0.5-0.81c-1.16,0.32-2.4,0.58-3.7,0.76l-0.25,0.03
				C230.01,92.41,229.75,93.04,229.45,93.53L229.45,93.53z M230.28,91.43c1.21-0.17,2.36-0.4,3.45-0.68
				c0.19-0.05,0.39-0.1,0.57-0.16c0.37-0.73,0.65-1.54,0.86-2.41c0.06-0.23,0.1-0.45,0.15-0.69c-1.41,0.4-2.94,0.72-4.55,0.94
				C230.66,89.56,230.5,90.56,230.28,91.43L230.28,91.43z M230.79,88.21c1.43-0.2,2.79-0.47,4.07-0.82c0.17-0.05,0.34-0.09,0.5-0.14
				l0.04-0.24c0.2-1.19,0.28-2.47,0.27-3.8c-1.47,0.42-3.06,0.75-4.73,0.98C230.95,85.62,230.91,86.98,230.79,88.21L230.79,88.21z
				 M230.95,83.96c1.49-0.2,2.91-0.49,4.24-0.85c0.16-0.04,0.33-0.09,0.49-0.13l-0.08-1.77c-0.04-0.51-0.09-1.02-0.15-1.54
				c-0.11-0.07-0.22-0.14-0.26-0.23c-0.07-0.14-0.49-0.32-0.55-0.35c-0.07-0.04-0.04-0.14-0.04-0.21c0-0.07,0.04-0.2,0.04-0.2
				c-0.17-0.15-0.23-0.24-0.35-0.31l0-0.01c-1.13,0.28-2.32,0.51-3.56,0.67c0.04,0.58,0.08,1.15,0.11,1.72
				C230.9,81.84,230.94,82.92,230.95,83.96L230.95,83.96z M229.37,68.66l0.21-0.03c0.87-0.13,1.71-0.29,2.51-0.5
				c0.16-0.04,0.32-0.08,0.48-0.13c-0.6-1.62-1.26-3.12-1.93-4.43c-0.71,0.2-1.47,0.36-2.28,0.47
				C228.71,65.41,229.05,66.97,229.37,68.66L229.37,68.66z M228.29,63.83c0.6-0.08,1.19-0.2,1.74-0.33
				c0.17-0.04,0.33-0.08,0.49-0.13c-0.24-0.46-0.48-0.89-0.72-1.3l-0.13-0.22l0,0.02c-0.02,0.12-0.06,0.2-0.19,0.2
				c-0.12,0-0.18,0.13-0.34,0.21c-0.16,0.08-0.23,0.08-0.42,0.1c-0.19,0.02-0.1-0.24-0.1-0.24c-0.17,0.04-0.28-0.18-0.48-0.17
				c0,0-0.01,0,0.04-0.22c0.05-0.22,0.17-0.13,0.31-0.02c0.14,0.11,0.18-0.1,0.62-0.2c0-0.17,0.15-0.13,0.35-0.03l-0.09-0.14
				c-0.3-0.47-0.6-0.89-0.89-1.26c-0.12-0.15-0.23-0.28-0.34-0.41c-0.23,0.06-0.48,0.12-0.73,0.17c-0.03,0.01-0.06,0.03-0.09,0.04
				c-0.14,0.05-0.08,0.08-0.01,0.17c0.07,0.09,0.23,0.13,0.34,0.18c0.11,0.05,0.06,0.1,0.15,0.23c0.1,0.12-0.09,0-0.18,0.02
				c-0.09,0.02-0.28-0.02-0.33-0.09c-0.05-0.06-0.09-0.08-0.19-0.07c0.06,0.14,0.13,0.29,0.19,0.45c0.09-0.01,0.21-0.06,0.3-0.1
				c0.16-0.07,0.2,0,0.13,0.09c-0.04,0.05-0.18,0.24-0.29,0.38c0.11,0.28,0.21,0.59,0.32,0.91
				C227.94,62.59,228.12,63.18,228.29,63.83L228.29,63.83z M227.28,61.34c-0.06,0.06-0.21,0.19-0.28,0.24
				c-0.09,0.07-0.27,0.21-0.35,0.32c-0.08,0.11-0.21,0.26-0.34,0.33c-0.12,0.07-0.23,0.15-0.28,0.31c-0.04,0.13-0.23,0.3-0.35,0.39
				v1.09h0.02l0.02,0h0.02h0.02l0.02,0h0.02h0c0.3,0,0.59-0.01,0.89-0.03l0.28-0.02c0.39-0.03,0.77-0.06,1.14-0.11l0-0.01
				c-0.18-0.65-0.36-1.26-0.54-1.8C227.45,61.8,227.36,61.56,227.28,61.34L227.28,61.34z M228.13,64.08
				c-0.39,0.05-0.78,0.09-1.19,0.12c-0.38,0.03-0.78,0.04-1.17,0.04h-0.01l-0.02,0h-0.02l-0.02,0h-0.02v0v4.36v0v0.31h0.01h0.01
				l0.01,0h0.01h0.01h0.01l0,0c0.29,0,0.57-0.01,0.85-0.02c0.18-0.01,0.36-0.01,0.53-0.02c0.68-0.04,1.35-0.1,1.99-0.18l0-0.01
				c-0.24-1.26-0.49-2.46-0.75-3.55C228.3,64.76,228.21,64.42,228.13,64.08L228.13,64.08z M230.5,79.06
				c-0.93,0.12-1.9,0.21-2.88,0.26c-0.61,0.03-1.23,0.05-1.86,0.05h0h-0.03l-0.03,0h-0.03v1.79v0v2.35v0.8h0.01h0.01h0.01l0.01,0
				h0.01h0.01h0.01c0.27,0,0.54-0.01,0.8-0.01c0.43-0.01,0.85-0.03,1.28-0.05c0.98-0.05,1.94-0.14,2.88-0.27v-0.01
				c-0.01-1.04-0.05-2.11-0.11-3.21l-0.03-0.55C230.56,79.83,230.53,79.45,230.5,79.06L230.5,79.06z M230.72,84.21
				c-0.93,0.12-1.89,0.21-2.87,0.26c-0.69,0.04-1.38,0.06-2.09,0.06h-0.02l-0.03,0h-0.03v0.52c0.05,0.02,0.12,0.03,0.21,0.03
				c0.23,0,0.46-0.01,0.62,0.08c0.16,0.09,0.25,0.08,0.37,0.05c0.12-0.04,0.21,0.02,0.35,0.1c0.14,0.08,0.51,0.31,0.62,0.37
				c0.11,0.06,0.19,0.12,0.32,0.08c0.12-0.04,0.36,0.04,0.36,0.02c0.01-0.01,0.2,0.17,0.17,0.53c-0.04,0.35-0.11,0.53-0.11,0.53
				c-0.01,0.07-0.32,0.38-0.47,0.43c-0.15,0.05-0.2,0.2-0.3,0.28c-0.1,0.08-0.15,0.14-0.18,0.21c-0.02,0.07-0.25,0.24-0.39,0.35
				c0,0.04-0.02,0.15-0.08,0.25c0.01,0.09,0.03,0.09,0.02,0.17c0.29-0.01,0.57-0.03,0.85-0.04c0.86-0.05,1.71-0.14,2.53-0.25l0-0.01
				c0.09-0.97,0.14-2.02,0.15-3.12C230.72,84.81,230.72,84.51,230.72,84.21L230.72,84.21z M230.55,88.47
				c-0.81,0.11-1.65,0.19-2.5,0.24c-0.29,0.02-0.59,0.03-0.89,0.05l-0.01,0.04c-0.02,0.08-0.1,0.2-0.05,0.38c0,0-0.07,0.1-0.14,0.21
				c-0.12,0.07-0.2,0.3-0.28,0.43c-0.07,0.06-0.08,0.07-0.11,0.19c-0.1,0.05-0.11,0.04-0.16,0.21c-0.11,0.02-0.25,0.1-0.31,0.18
				c-0.01,0-0.19,0.06-0.26,0.02c-0.04-0.03-0.1-0.03-0.16-0.02v1.16v0v0.19h0.01h0.01h0.01l0.01,0h0.01h0.01h0.01
				c0.28,0,0.56-0.01,0.83-0.01c0.53-0.02,1.06-0.04,1.58-0.08c0.19-0.01,0.38-0.03,0.56-0.05c0.44-0.04,0.87-0.09,1.3-0.14l0-0.02
				c0.18-0.7,0.33-1.5,0.43-2.37C230.51,88.88,230.53,88.68,230.55,88.47L230.55,88.47z M229.98,91.7
				c-0.59,0.07-1.18,0.14-1.79,0.18c-0.79,0.06-1.6,0.09-2.42,0.1h-0.01l-0.04,0h-0.04v1.82h0.02h0.02l0.02,0h0.02h0.02h0.02l0,0
				c0.3,0,0.6-0.01,0.89-0.02c0.55-0.02,1.09-0.06,1.62-0.11c0.3-0.03,0.6-0.06,0.89-0.1l0.01-0.02c0.27-0.4,0.51-0.91,0.7-1.51
				C229.91,91.93,229.95,91.82,229.98,91.7L229.98,91.7z M235.87,91.62c0.17-0.13,0.34-0.27,0.51-0.42c0.3-0.27,0.57-0.56,0.83-0.87
				c0.2-0.25,0.4-0.51,0.58-0.78c-0.89,0.42-1.86,0.79-2.91,1.12c-0.14,0.04-0.27,0.08-0.41,0.12l-1.44,1.97
				c0.35-0.11,0.69-0.22,1.03-0.34c0.18-0.07,0.36-0.13,0.53-0.2C235.03,92.03,235.46,91.83,235.87,91.62L235.87,91.62z
				 M232.72,93.08c-0.06,0.06-0.13,0.11-0.19,0.16c0.39-0.14,0.76-0.29,1.14-0.46C233.36,92.89,233.05,92.99,232.72,93.08
				L232.72,93.08z M241.35,86.87c1.12-1.4,2.05-2.95,2.77-4.61c-0.15,0.21-0.31,0.41-0.48,0.61c-0.55,1.16-1.21,2.26-1.95,3.28
				l-0.11,0.21c-0.12,0.22-0.24,0.43-0.37,0.65l-0.01,0.02l0.1-0.1L241.35,86.87L241.35,86.87z M240.59,87.56l0.11-0.16l-0.22,0.25
				L240.59,87.56L240.59,87.56z M240.33,87.77c0.11-0.21,0.38-0.54,0.45-0.64c0.09-0.11,0.3-0.46,0.3-0.59
				c0.1-0.23,0.3-0.39,0.27-0.64c-0.04-0.25,0.09-0.53,0.09-0.53c-0.1-0.37-0.01-0.38,0.04-0.61l0-0.02
				c-0.59,0.4-1.24,0.78-1.94,1.14l-1.21,3.14c0.19-0.1,0.38-0.2,0.56-0.31c0.46-0.27,0.9-0.55,1.29-0.84L240.33,87.77L240.33,87.77
				z M238,89.19c0.39-0.66,0.72-1.4,0.98-2.18c0.11-0.32,0.2-0.65,0.29-0.99c-0.5,0.24-1.03,0.47-1.58,0.69
				c-0.27,0.1-0.54,0.21-0.82,0.31c-0.42,0.15-0.86,0.29-1.31,0.42c-0.08,0.43-0.18,0.84-0.29,1.24c-0.18,0.65-0.41,1.27-0.68,1.84
				l0.21-0.06c0.29-0.09,0.57-0.18,0.84-0.27c0.7-0.24,1.37-0.51,1.99-0.81C237.76,89.31,237.88,89.25,238,89.19L238,89.19z
				 M238.16,89.36c-0.24,0.4-0.5,0.77-0.79,1.11c-0.14,0.17-0.29,0.33-0.44,0.49c1.25-0.85,2.39-1.84,3.41-2.94
				C239.71,88.51,238.98,88.96,238.16,89.36L238.16,89.36z M244.57,81.1c0.1-0.29,0.2-0.57,0.29-0.87c0.05-0.32,0.1-0.63,0.14-0.95
				c0.01-0.12,0.03-0.24,0.04-0.37c-0.26,1.06-0.59,2.09-1.01,3.08c0.07-0.1,0.13-0.2,0.19-0.3c0.1-0.17,0.19-0.34,0.28-0.51
				l0.05-0.1L244.57,81.1L244.57,81.1z M241.58,84.4c0.04-0.11,0.1-0.22,0.17-0.3c0.14-0.16,0.28-0.36,0.28-0.52
				c0-0.16,0.07-0.46,0.16-0.53c0.09-0.07,0.13-0.33,0.13-0.33c-0.11-0.28-0.09-0.34-0.02-0.47c0.07-0.12,0-0.3-0.02-0.39
				c-0.02-0.09,0.04-0.6,0.04-0.6c-0.11-0.05-0.14-0.15-0.28-0.31c-0.08-0.1-0.2-0.27-0.29-0.4c-0.35,0.23-0.73,0.45-1.12,0.67
				c-0.2,0.11-0.41,0.22-0.63,0.33c0,1.41-0.13,2.76-0.4,4l-0.01,0.05c0.2-0.11,0.4-0.21,0.6-0.32
				C240.69,85,241.15,84.71,241.58,84.4L241.58,84.4z M239.35,85.73c0.04-0.19,0.08-0.38,0.12-0.58c0.21-1.1,0.31-2.27,0.32-3.49
				c-1.17,0.57-2.47,1.06-3.89,1.48l-0.29,3.87l-0.01,0.18c0.19-0.06,0.38-0.12,0.57-0.18c0.19-0.06,0.37-0.12,0.56-0.19
				c0.3-0.11,0.6-0.22,0.89-0.33c0.5-0.2,0.98-0.4,1.44-0.62L239.35,85.73L239.35,85.73z M245.75,74.62l0-0.33l0-0.32
				c-0.02-1.13-0.13-2.24-0.32-3.31l-0.03-0.17c-0.05-0.17-0.1-0.34-0.16-0.5c-0.02,0.22-0.06,0.44-0.11,0.66
				c0.03,0.09,0.08,0.19,0.16,0.32c0-0.14-0.05-0.58-0.06-0.76c0.24,1.26,0.37,2.56,0.37,3.9c0,0.58-0.02,1.15-0.07,1.71
				c0.02-0.07,0.04-0.14,0.06-0.21C245.67,75.28,245.73,74.96,245.75,74.62L245.75,74.62z M241.7,80.33
				c0.15-0.32,0.1-0.55,0.12-0.58c0.01-0.03,0.03-0.4,0.03-0.4l-0.04-0.57c-0.27-0.06-0.4,0.01-0.45,0.13
				c-0.05,0.12-0.29,0.28-0.29,0.28c-0.2-0.23-0.49-0.41-0.49-0.41c-0.32,0.2-0.51,0.31-0.68,0.45c0.07,0.67,0.1,1.33,0.11,1.98
				l0,0.08l0.15-0.08c0.16-0.08,0.32-0.17,0.47-0.25C241.01,80.76,241.36,80.55,241.7,80.33L241.7,80.33z M239.79,81.41l0-0.19
				c-0.01-0.58-0.04-1.17-0.1-1.77c-0.22,0.25-0.52,0.63-0.61,0.67c-0.27-0.11-0.32,0-0.46,0.11c-0.26,0.2-0.36,0.27-0.45,0.26
				c-0.09-0.02-0.25,0.12-0.32,0.23c-0.07,0.1-0.16,0.14-0.29,0.12c-0.12-0.02-0.54,0.03-0.67-0.13c-0.12-0.16-0.46-0.28-0.51-0.29
				c-0.13-0.04-0.46-0.16-0.46-0.16c-0.09-0.24-0.08-0.35-0.25-0.45l-0.08-0.05l0.13,1.45l0.15,1.71c0.39-0.12,0.78-0.24,1.15-0.37
				c0.88-0.3,1.71-0.64,2.49-1.01L239.79,81.41L239.79,81.41z M245.44,76.67c-0.03,0.26-0.07,0.52-0.11,0.78
				c0,0.39-0.02,0.78-0.05,1.18c0.18-0.82,0.31-1.65,0.38-2.5C245.6,76.31,245.53,76.49,245.44,76.67L245.44,76.67z M239.76,62.56
				c-0.18,0.01-0.35,0.01-0.35,0.01c-0.14-0.43-0.42-0.78-0.44-0.78c0.03,0.28-0.04,0.54,0.07,0.66c0.11,0.13,0.04,0.25,0.17,0.27
				c0.13,0.01,0.16,0.05,0.19,0.15c0.03,0.1,0.21,0.23,0,0.2c-0.21-0.03-0.29-0.17-0.3-0.26c-0.15,0.11-0.22,0.05-0.29-0.04
				c0,0.1,0,0.18,0.01,0.24l0.62,0.51c0.04-0.07,0.07-0.15,0.1-0.22C239.63,63.06,239.71,62.81,239.76,62.56L239.76,62.56z
				 M239.32,63.72l-0.18-0.17c0.03,0.07,0.06,0.14,0.08,0.18c0.01,0.02,0.02,0.06,0.04,0.1l0.02-0.03L239.32,63.72L239.32,63.72z
				 M235.57,62.72c0.01-0.1,0.03-0.21,0.03-0.26c0.01-0.1,0.17-0.17,0.26-0.11c0,0-0.02-0.31-0.02-0.36c0-0.05-0.14-0.21-0.18-0.28
				c-0.03-0.07-0.11-0.14-0.21-0.18c-0.1-0.03-0.18-0.17-0.23-0.21c-0.08-0.07,0.1-0.1,0.2-0.09c0.2,0.03,0.16-0.03,0.06-0.07
				c-0.1-0.04-0.24-0.17-0.34-0.2c-0.18,0.22-0.38,0.44-0.61,0.65l0.29,0.31l0.19,0.16c0.06,0.05,0.09,0.1,0.08,0.13L235.57,62.72
				L235.57,62.72z M237.83,65.46l-0.11,0.09l-0.19,0.15c-0.06-0.04-0.12-0.09-0.14-0.14c-0.14-0.15-0.15-0.18,0.01-0.36
				c0,0,0.19,0.06,0.29,0.12L237.83,65.46L237.83,65.46z M237.13,65.98l-0.2,0.14l0.03-0.09C237,66.01,237.07,65.98,237.13,65.98
				L237.13,65.98z M234.57,64.86c0-0.03,0.01-0.07,0.06-0.15c0.13-0.2,0.06-0.54,0.02-0.73c-0.04-0.18,0.04-0.23,0.17-0.31
				c0,0-0.15-0.45-0.18-0.58c-0.04-0.13-0.31-0.35-0.45-0.42c-0.14-0.07-0.1-0.23-0.04-0.45l0.23,0.31c0,0,0,0.01,0.11,0.01
				c0.11,0,0.06,0,0.06,0.17c0,0.16,0.12,0.23,0.23,0.3c0,0,0.17-0.05,0.29-0.14c0.11-0.07,0.25-0.05,0.39,0.01l-0.43-0.47
				c0.02,0.07,0.02,0.15-0.06,0.2c-0.13,0.09,0.06,0.14,0.01,0.17c-0.04,0.03-0.29-0.26-0.34-0.41c-0.05-0.14-0.42-0.3-0.57-0.4
				c-0.06,0.05-0.13,0.09-0.19,0.14l-0.17,0.11l0.01,0.02c0.07,0.17-0.03,0.18-0.25,0.13c-0.17,0.1-0.35,0.21-0.54,0.3
				c0.29,0.35,0.56,0.7,0.83,1.06c0.15,0.2,0.31,0.41,0.45,0.62l0.04-0.01c0.01,0.01,0.02,0.06,0.04,0.11
				C234.39,64.6,234.48,64.73,234.57,64.86L234.57,64.86z M235.24,67.04c-0.11-0.28-0.23-0.61-0.25-0.66
				c-0.14-0.04-0.3,0.02-0.28-0.23c-0.3,0.03-0.41-0.03-0.48,0.04c-0.18-0.07-0.26-0.12-0.19-0.26c0.06-0.14,0.46-0.22,0.46-0.22
				c-0.16-0.18-0.27-0.3-0.27-0.3s0.2-0.07,0.31-0.08c0.03,0,0.05-0.02,0.06-0.04c-0.09-0.13-0.17-0.26-0.26-0.38
				c-0.04,0.02-0.08,0.05-0.12,0.06c-0.11,0.03-0.21,0.17-0.23,0.26c-0.03,0.09-0.14,0.15-0.21,0.18c-0.07,0.03-0.15,0.09-0.21,0.08
				c0.07-0.11,0.05-0.13,0.05-0.24c0-0.11,0.08-0.19-0.02-0.22c-0.1-0.03-0.1-0.15-0.14-0.1c-0.04,0.05-0.13,0.12-0.13,0.12
				c-0.06-0.02-0.1-0.13-0.04-0.19c0.06-0.06,0.11-0.22,0.11-0.28c0-0.06-0.05-0.12-0.1-0.18c-0.05-0.07-0.17-0.16-0.21-0.2
				c-0.05-0.04-0.03-0.14-0.04-0.18c-0.17-0.06-0.28-0.03-0.37,0.01c-0.09,0.03-0.13,0.03-0.18-0.07c-0.04-0.1-0.25-0.31-0.29-0.41
				c-0.05-0.1-0.14-0.35-0.14-0.35l0.24-0.2c-0.45,0.19-0.93,0.37-1.44,0.52l1.92,4.43c0.37-0.11,0.73-0.22,1.08-0.35
				C234.34,67.42,234.8,67.24,235.24,67.04L235.24,67.04z M232.29,62.99l0.04,0.25c0.05,0.05,0.16-0.1,0.31-0.1
				c0.07,0.01,0.18,0.34,0.14,0.55l0.17,0.01c0,0,0.17,0.01,0.28,0.08c0.12,0.07,0.2,0.1,0.26,0.16c0.06,0.06,0.13,0.1,0.22,0.13
				l-0.14-0.19c-0.28-0.37-0.56-0.73-0.86-1.09C232.59,62.86,232.44,62.92,232.29,62.99L232.29,62.99z M233.92,64.33l0,0.02
				c0,0.01,0.01,0.02,0.03,0.02L233.92,64.33L233.92,64.33z M227.29,54.58c0.05-0.04,0.11-0.08,0.16-0.11l0,0
				c0.13,0.03,0.24,0.05,0.32,0.02c0.02,0,0.03,0,0.05-0.01c0.09-0.01,0.2,0,0.29,0.02l0.01,0l0,0l0,0h0.01h0l0.04,0.01l0.01,0.01
				c0.03,0.01,0.04,0.02,0.04,0.02c0.01,0.02-0.05,0.03-0.19,0.03h-0.02c-0.51,0-0.51,0-0.68,0.01L227.29,54.58L227.29,54.58z
				 M229.57,55.3c-0.11-0.03-0.24-0.05-0.33-0.05c-0.05,0-0.1-0.01-0.14-0.02c0.07,0.03,0.15,0.07,0.22,0.1L229.57,55.3L229.57,55.3
				z M232.41,55.98c-0.03-0.03-0.08-0.07-0.14-0.09c-0.21-0.09-0.39-0.26-0.63-0.34c-0.24-0.08-0.28,0.04-0.18,0.15
				c0.1,0.11,0.06,0.09-0.38,0.08c-0.44-0.01-0.24-0.05-0.29-0.12c-0.05-0.07-0.04-0.12-0.33-0.14c-0.12-0.01-0.17-0.04-0.2-0.07
				l-0.18,0.02c-0.14,0.01-0.28,0.03-0.43,0.04c0.2,0.12,0.38,0.25,0.54,0.39c0.13-0.01,0.25-0.02,0.38-0.02
				c-0.02-0.03-0.03-0.06-0.03-0.1l0.31,0.1C231.36,55.88,231.89,55.91,232.41,55.98L232.41,55.98z M232.3,56.9
				c-0.1-0.08-0.2-0.16-0.24-0.2c0,0-0.35-0.19-0.41-0.31c-0.03-0.07-0.22-0.19-0.41-0.28c-0.24-0.01-0.47-0.01-0.71,0l-0.12,0.01
				c0.08,0.09,0.16,0.18,0.22,0.28c0.04,0.01,0.07,0.02,0.1,0.03c0.18,0.03,0.51,0.24,0.67,0.18c0.16-0.05,0.25-0.03,0.41,0.12
				c0.03,0.03,0.05,0.05,0.06,0.07L232.3,56.9L232.3,56.9z M232.68,57.65c0.02-0.03,0.05-0.06,0.09-0.08
				c0.14-0.1,0.25,0.09,0.4,0.12c0.14,0.04,0.01-0.19-0.15-0.19c-0.16,0-0.27-0.25-0.35-0.31l-0.21-0.17
				c-0.31-0.07-0.62-0.12-0.92-0.17c-0.06,0.07-0.08,0.1-0.18,0.03c-0.03-0.02-0.06-0.05-0.1-0.07c-0.1-0.01-0.2-0.03-0.3-0.04
				l-0.13-0.01c0.05,0.14,0.09,0.29,0.1,0.43c0.46,0.09,1,0.22,1.58,0.4L232.68,57.65L232.68,57.65z M231.59,58.25
				c0-0.08,0.08-0.12,0.23,0c0.18,0.14,0.21,0.1,0.27-0.03c0,0,0.46-0.1,0.63-0.17c0.18-0.07,0.36-0.04,0.43,0.11
				c0.07,0.14,0.14,0.16,0.18,0.27c0.04,0.11-0.24,0.16-0.39,0.26c0.17,0.05,0.65,0.11,0.91,0.23l0.28-0.11c0,0-0.17-0.15-0.26-0.16
				c-0.08-0.02-0.36-0.36-0.44-0.39c-0.05-0.02-0.08-0.08-0.08-0.13c-0.89-0.33-1.7-0.55-2.37-0.68l-0.06-0.01
				c-0.02,0.17-0.06,0.33-0.13,0.49L231.59,58.25L231.59,58.25z M234.95,60.85l-0.06-0.05c-0.1-0.08,0.11-0.41,0.2-0.41
				c0.03,0,0.04-0.02,0.04-0.06c-0.13-0.08-0.25-0.16-0.38-0.24c0,0.04,0,0.11-0.02,0.18c-0.03,0.11-0.02,0.14-0.05,0.44
				c0,0-0.08-0.01-0.26-0.04c-0.18-0.03-0.23-0.12-0.45-0.3c-0.22-0.18-0.36-0.35-0.54-0.69c-0.19-0.34-0.25-0.23-0.48-0.28
				c-0.18,0.21,0.18,0.37,0.31,0.47c0.13,0.1,0.15,0.29,0.21,0.55c0,0,0.4,0.38,0.58,0.54c0,0,0.21,0.01,0.38,0.1
				c0.09,0.04,0.1,0.14,0.09,0.24l0.08-0.08C234.73,61.12,234.85,60.99,234.95,60.85L234.95,60.85z M231.78,59.49
				c-0.05-0.12-0.09-0.22-0.11-0.28c-0.04-0.18-0.14-0.08-0.06-0.23c0.05-0.1,0.05-0.31,0.03-0.47c-0.14-0.06-0.27-0.12-0.41-0.17
				c-0.18-0.07-0.37-0.15-0.55-0.22c-0.05,0.08-0.1,0.15-0.16,0.22c-0.07,0.09-0.15,0.17-0.23,0.25l0.63,0.35
				C231.2,59.12,231.49,59.3,231.78,59.49L231.78,59.49z M233.92,61.82c-0.05-0.04-0.1-0.06-0.19-0.06
				c-0.08-0.04-0.14-0.05-0.08,0.11c0.02,0.05,0.03,0.09,0.03,0.13C233.76,61.93,233.84,61.88,233.92,61.82L233.92,61.82z
				 M233.26,62.25c-0.1-0.1-0.25-0.25-0.38-0.35c-0.22-0.18-0.44-1.04-0.46-1.22c-0.02-0.18-0.06-0.41-0.25-0.59
				c-0.04-0.04-0.09-0.09-0.13-0.15c-0.28-0.19-0.55-0.37-0.83-0.55c-0.36-0.23-0.73-0.44-1.09-0.64c-0.19,0.15-0.41,0.3-0.65,0.43
				l0.71,0.61c0.8,0.72,1.56,1.5,2.27,2.31c0.12,0.13,0.23,0.27,0.35,0.41C232.95,62.42,233.11,62.34,233.26,62.25L233.26,62.25z
				 M232.58,62.61l-0.44-0.51c-0.57-0.64-1.17-1.26-1.8-1.85c-0.36-0.33-0.72-0.65-1.1-0.96c-0.26,0.13-0.55,0.24-0.87,0.34
				c0.09,0.11,0.19,0.22,0.28,0.34v0c0.19,0.24,0.39,0.51,0.59,0.8c0.28,0.4,0.55,0.84,0.83,1.32c0.23,0.39,0.45,0.8,0.67,1.23
				c0.32-0.09,0.63-0.2,0.92-0.31c0.25-0.09,0.49-0.2,0.73-0.3L232.58,62.61L232.58,62.61z M217.88,69.23
				c-0.08,0.03-0.23,0.08-0.29,0.13c0,0-0.02,0.12,0,0.17c0.02,0.05-0.05,0.1-0.14,0.14c-0.09,0.03-0.09,0.09-0.22,0.2
				c0,0-0.01-0.19-0.08-0.26c0,0,0,0.15,0.03,0.21c0.03,0.06-0.03,0.19-0.05,0.25c-0.02,0.06-0.1,0.04-0.15,0.16
				c-0.05,0.12-0.08,0.09-0.17,0.02c-0.09-0.07,0.02-0.09,0.02-0.16c0-0.07,0.04-0.19,0.04-0.19s0.07-0.13,0.13-0.21
				c0.06-0.08,0.04-0.07-0.03-0.05c-0.07,0.02-0.12,0.04-0.13,0.11c-0.01,0.08,0,0.1-0.03,0.16c-0.04,0.06-0.02,0.15-0.03,0.1
				c0-0.05-0.06-0.08-0.18-0.18c0,0,0.11,0.24,0.13,0.3c0.02,0.05-0.05,0.13-0.13,0.3c0,0,0.04-0.01,0.11,0.07
				c0.08,0.08-0.02,0.17-0.07,0.45c0,0-0.26,0.22-0.35,0.26c-0.08,0.04-0.42,0.19-0.67,0.26c-0.2,0.06-0.43,0.06-0.57,0.16
				c0.59,0.25,1.21,0.47,1.86,0.68C217.22,71.25,217.54,70.22,217.88,69.23L217.88,69.23z M211.7,76.27
				c0.06-0.2,0.13-0.39,0.19-0.59l-0.08-0.12c0,0-0.02,0.12-0.06,0.22c-0.05,0.1-0.03,0.13-0.02,0.29c0,0-0.01-0.01-0.03,0.04
				c-0.01,0.03-0.01,0.07-0.06,0.13L211.7,76.27L211.7,76.27z M212.24,74.56c0.3-0.96,0.63-1.95,1.03-2.94
				c-0.04,0.02-0.1,0.03-0.17,0.02c-0.28-0.03-0.13,0.09-0.32-0.1c-0.2-0.19-0.14,0.14-0.14,0.14s-0.35-0.11-0.45-0.33
				c-0.11-0.21-0.19-0.07-0.19-0.07s-0.57-0.23-0.43-0.16c0.14,0.07-0.32,0.19-0.53,0.14c-0.21-0.04-0.22,0.11-0.26,0.28
				c-0.04,0.17-0.08,0.27-0.15,0.48c0,0-0.22,0.24-0.28,0.3c-0.06,0.05-0.07,0.05-0.02,0.21c0,0-0.15,0.16-0.13,0.28
				c0.02,0.12-0.01,0.23-0.1,0.46c0,0-0.02,0.25,0.01,0.43c0.03,0.18,0.08,0.21-0.03,0.44c0.02,0.11,0.07,0.16,0.11,0.33
				c0.05,0.16,0.08,0.16,0.2,0.4c0,0,0.22,0.09,0.42,0.07c0.18-0.02,0.18,0,0.25,0.18c0.09,0.23,0,0,0,0s0.24,0.03,0.3-0.28
				c0,0,0.12-0.17,0.14-0.29c0.02-0.12,0.08-0.14,0.22-0.13c0.15,0.01,0.12,0.05,0.34,0.05C212.16,74.5,212.21,74.52,212.24,74.56
				L212.24,74.56z M208.81,74.03l-0.09,0.31l0.14,0.12c0.13,0.11,0.27,0.22,0.41,0.33c-0.03-0.05-0.07-0.1-0.11-0.16
				c-0.08-0.12-0.13-0.32-0.24-0.42C208.88,74.15,208.84,74.09,208.81,74.03L208.81,74.03z M211.89,76.36l0.24,0.11
				c0.75,0.36,1.56,0.68,2.42,0.98c0.38,0.13,0.76,0.25,1.15,0.36c0.03-0.21,0.07-0.42,0.11-0.63c-0.02-0.01-0.03-0.03-0.05-0.05
				c-0.03-0.04-0.09-0.15-0.09-0.15c0.03-0.05,0.13-0.07,0.16-0.03l0.01,0.02c0.03-0.16,0.06-0.33,0.09-0.49
				c0.15-0.81,0.33-1.62,0.53-2.42c0.13-0.52,0.26-1.04,0.4-1.56c-0.68-0.21-1.33-0.45-1.94-0.71c-0.05,0.08-0.14,0.21-0.23,0.29
				c0,0-0.03,0.14-0.05,0.27c-0.02,0.12-0.02,0.73-0.01,1.08c0.01,0.35-0.09,0.21-0.12,0.39c-0.03,0.18-0.06,0.24-0.16,0.28
				c-0.21,0.09-0.32-0.11-0.23-0.4c0.02-0.07-0.04-0.7-0.07-0.74c-0.03-0.03,0.11-0.29,0.11-0.41c0-0.12-0.09-0.43-0.17-0.45
				c-0.08-0.02-0.36-0.09-0.51-0.38c-0.02-0.03-0.03-0.06-0.04-0.08c-0.39,1.02-0.75,2.06-1.08,3.1c0.04,0.05,0.02,0.07-0.03,0.15
				c-0.01,0.02-0.02,0.03-0.03,0.04C212.17,75.42,212.03,75.89,211.89,76.36L211.89,76.36z M220.99,73.44
				c-1.38-0.21-2.69-0.5-3.91-0.87c-0.14,0.5-0.27,0.99-0.39,1.5c-0.2,0.81-0.38,1.64-0.54,2.46l-0.01,0.05l0.02,0.01
				c0.09,0.05,0.12,0.08,0.21,0.08c0.09,0,0.17-0.01,0.25,0.04c0.07,0.05,0.17,0.12,0.28,0.11c0.11-0.01,0.16,0.02,0.2,0.12
				c0.04,0.1,0.05,0.16,0.11,0.19c0.06,0.02,0.21,0.1,0.21,0.17c0,0.08-0.01,0.11-0.07,0.09c-0.06-0.02-0.32-0.07-0.38,0.03
				c-0.2-0.05-0.23-0.02-0.35,0.03c-0.11,0.04-0.13,0.08-0.19,0.01c-0.06-0.08-0.07-0.14-0.07-0.14c-0.21-0.1-0.25-0.07-0.31-0.05
				l-0.05-0.05c-0.04,0.22-0.08,0.44-0.11,0.66c0.16,0.04,0.32,0.09,0.48,0.13c1.26,0.33,2.6,0.6,4.01,0.79
				C220.55,77.02,220.75,75.21,220.99,73.44L220.99,73.44z M216.1,76.83l-0.04,0.22l0.04,0.01c0.05,0,0.1,0,0.06-0.08
				C216.13,76.93,216.12,76.88,216.1,76.83L216.1,76.83z M208.4,68.3l-0.07,0.13l-0.16,0.3c-0.56,1.09-1.02,2.22-1.37,3.36
				l0.09,0.15c0.35,0.58,0.8,1.13,1.35,1.66l0.11,0.1l0.19,0.18l0.05-0.17l0.08-0.27c-0.03-0.05-0.05-0.1-0.06-0.16
				c-0.03-0.11-0.02-0.22-0.07-0.26c-0.05-0.05-0.04-0.19-0.04-0.19s0.04,0.05-0.01-0.03c-0.05-0.07-0.06-0.16-0.04-0.26
				c0.03-0.1,0.24-0.86,0.24-0.86c-0.07-0.41-0.08-0.56-0.06-0.6c0.03-0.04,0.01-0.08-0.02-0.15c-0.02-0.14-0.06-0.18-0.03-0.27
				c-0.03-0.11-0.02-0.28-0.02-0.28c-0.01-0.07-0.02-0.18-0.02-0.18c0.1-0.11,0.13-0.23,0.13-0.23c-0.04-0.13-0.04-0.14,0-0.25v-0.3
				c0,0,0.05-0.39,0-0.52c-0.05-0.12,0.08-0.6,0.17-0.74c0.09-0.14,0.13-0.55,0.01-0.72c0,0-0.28,0.72-0.31,0.77
				c-0.03,0.04-0.04,0.36-0.07,0.45c-0.03,0.09-0.03,0.21-0.03,0.39l-0.09,0.3c0,0,0.01,0.31-0.08,0.43
				c-0.09,0.12-0.1,0.56-0.07,0.74c0.02,0.17,0.03,0.3,0.03,0.31c0,0.01-0.1,0.2-0.16,0.13c-0.05-0.07-0.06-0.31-0.02-0.54
				c0,0-0.01-0.16-0.05-0.25c-0.04-0.09,0.16-0.66,0.23-0.94l-0.1-0.5c0,0,0,0,0.23-0.11C208.35,68.9,208.37,68.5,208.4,68.3
				L208.4,68.3z M208.88,66.51c-0.18-0.52-0.28-1.05-0.28-1.6l0-0.1c-0.87,1.15-1.64,2.45-2.25,3.93c-0.09,0.22-0.18,0.44-0.26,0.67
				l0,0.1c0,0.07,0,0.14,0,0.2c0.03,0.65,0.19,1.29,0.47,1.91c0.03,0.06,0.06,0.12,0.09,0.18c0.31-1,0.71-1.97,1.18-2.93l0.08-0.15
				c0.24-0.46,0.49-0.92,0.77-1.37c0.06-0.2,0.14-0.46,0.21-0.75L208.88,66.51L208.88,66.51z M208.63,64.4
				c0.02-0.21,0.06-0.42,0.11-0.63l-2.51,4.68C206.89,66.92,207.71,65.58,208.63,64.4L208.63,64.4z M209.63,62.12l0.07,0.05
				l-0.06,0.1c-0.26,0.41-0.45,0.83-0.59,1.26l-0.02,0.05c-0.05,0.16-0.09,0.32-0.12,0.48c0.56-0.68,1.15-1.3,1.76-1.86l0.15-0.14
				l0.24-0.22c0.01-0.52,0.12-1.03,0.33-1.53c-0.45,0.35-0.87,0.73-1.26,1.14c-0.13,0.13-0.25,0.27-0.37,0.41L209.63,62.12
				L209.63,62.12z M208.85,64.49c-0.01,0.14-0.02,0.28-0.02,0.42l0,0.05c0,0.32,0.04,0.63,0.11,0.94c0.04-0.07,0.07-0.13,0.08-0.19
				c0.02-0.14,0.26-0.47,0.44-0.71l-0.06-0.13c0,0,0.05-0.06,0.13-0.23c0.08-0.17,0.13-0.23,0.23-0.42
				c0.07-0.14,0.34-0.39,0.32-0.39c0.11,0,0.8-0.78,0.96-0.85c0.05-0.02,0.1-0.07,0.17-0.14c-0.06-0.22-0.1-0.44-0.12-0.67l0-0.06
				l-0.07,0.06l-0.03,0.03C210.23,62.89,209.52,63.64,208.85,64.49L208.85,64.49z M217.14,72.36c1.2,0.36,2.5,0.66,3.87,0.86
				c0.21-1.5,0.44-2.96,0.69-4.34c-0.49-0.07-0.97-0.15-1.43-0.24c-0.11,0.16-0.27,0.37-0.3,0.23c-0.02-0.1-0.06-0.22-0.03-0.3
				c-0.18-0.04-0.36-0.08-0.54-0.12c-0.07,0-0.22,0.01-0.26,0.05c-0.05,0.05-0.18,0.04-0.29,0.05c-0.08,0.02-0.13,0.09-0.16,0.18
				c-0.03,0.09-0.05,0.14-0.17,0.25c0,0,0.04,0.05,0.08,0.12c0.06,0.09,0.1,0.15,0.17,0.05c-0.02,0.1-0.07,0.11-0.17,0.09
				c-0.1-0.02-0.25-0.07-0.32-0.02c-0.07,0.05-0.1,0.03-0.18,0C217.77,70.24,217.44,71.29,217.14,72.36L217.14,72.36z M221.24,73.25
				c1.34,0.19,2.75,0.3,4.21,0.31v-4.42h-0.02l-0.02,0h-0.02l-0.02,0c-0.47,0-0.94-0.02-1.39-0.04c-0.69-0.04-1.37-0.1-2.03-0.18
				c-0.08,0.45-0.16,0.91-0.24,1.38C221.53,71.25,221.38,72.24,221.24,73.25L221.24,73.25z M222.53,94.19l0.05,0.04l0.04,0.03l0,0
				l0.11,0.02c0.89,0.12,1.8,0.19,2.72,0.2v-0.46l-0.04,0h-0.04l-0.01,0c-0.86-0.01-1.7-0.05-2.52-0.13
				c-0.23-0.02-0.46-0.05-0.69-0.07c0.04,0.05,0.08,0.09,0.12,0.14C222.36,94.05,222.44,94.12,222.53,94.19L222.53,94.19z
				 M222.2,94.2c-0.13-0.12-0.25-0.26-0.36-0.42c-0.57-0.08-1.12-0.17-1.66-0.28l0.1,0.15c0.04,0.06,0.01,0.09-0.05,0.11
				C220.88,93.94,221.53,94.09,222.2,94.2L222.2,94.2z M221.67,93.53c-0.12-0.19-0.22-0.4-0.33-0.62c-0.06-0.02-0.12-0.03-0.15-0.01
				c-0.07,0.05-0.34-0.03-0.39-0.04c-0.05-0.01-0.11-0.05-0.19-0.02c-0.08,0.04-0.13,0.03-0.21-0.02c0,0,0.02,0.06,0.01,0.11
				c-0.01,0.05,0.03,0.11,0.09,0.17c0,0-0.04,0.07-0.07,0.06c-0.04-0.01-0.14,0.03-0.18,0.04c-0.04,0.02-0.09,0.06-0.12,0.05
				c-0.01-0.01-0.03,0-0.04,0.01C220.61,93.37,221.13,93.46,221.67,93.53L221.67,93.53z M217.25,90.95l-0.29-0.08
				c0.15,0.28,0.32,0.55,0.5,0.81l0,0c0.01-0.04,0.03-0.08,0.04-0.12C217.51,91.57,217.35,91.16,217.25,90.95L217.25,90.95z
				 M215.84,87.67c0.04,0.18,0.08,0.35,0.12,0.52c0.21,0.87,0.5,1.68,0.86,2.41l0.34,0.09c-0.04-0.14-0.05-0.27-0.02-0.34
				c0.05-0.11,0-0.32-0.04-0.5c-0.04-0.18-0.12-0.28-0.03-0.42c0.09-0.14-0.03-0.26-0.06-0.46c-0.03-0.2-0.13-0.26-0.18-0.37
				c-0.06-0.15-0.16-0.19-0.19-0.28c-0.04-0.09-0.21-0.22-0.34-0.26c-0.12-0.04-0.24-0.14-0.33-0.25
				C215.93,87.75,215.88,87.71,215.84,87.67L215.84,87.67z M220.24,81.61c0.01-0.29,0.03-0.57,0.04-0.86
				c0.03-0.57,0.07-1.14,0.11-1.72c-1.59-0.22-3.1-0.53-4.51-0.93c-0.07,0.44-0.13,0.88-0.18,1.32c0.17-0.1,0.38-0.07,0.5-0.19
				c0.12-0.12,0.13-0.06,0.13-0.06c0.07,0.05,0.01,0.03-0.04,0.12c-0.05,0.1-0.23,0.49-0.22,0.52c0.01,0.03,0.01,0.15,0.09,0.18
				c0.19,0.04,0.22,0.01,0.29-0.03c0.07-0.04,0.08-0.06,0.15-0.07c0.03-0.11,0.06-0.13,0.02-0.24c0.09-0.01,0.21,0.05,0.21,0.05
				c0.08,0.1,0.2,0.26,0.29,0.27c0.09,0.01,0.12,0.09,0.19,0.15c0.19,0,0.27,0,0.37,0.05c0.1,0.05,0.15-0.01,0.23,0.04
				c0.09,0.05,0.27,0.16,0.33,0.23c0.12-0.02,0.29,0.01,0.42,0.03c0.13,0.02,0.18,0.05,0.25,0.02c0.13,0.05,0.14,0.02,0.18,0.08
				c0.04,0.06,0.09,0.13,0.15,0.13c0.06,0.01,0.38,0.22,0.38,0.22c-0.06,0.11-0.06,0.24-0.03,0.28c0.04,0.04,0.14,0.04,0.21,0.06
				c0,0,0.17,0.04,0.24,0.11C220.09,81.45,220.16,81.56,220.24,81.61L220.24,81.61z M221.75,68.66c0.06-0.32,0.12-0.64,0.18-0.96
				c-0.05,0-0.11,0-0.17,0.01c0-0.18,0.07-0.33,0.18-0.36c0.02,0,0.04-0.01,0.06-0.02c0.06-0.27,0.11-0.54,0.17-0.8
				c-0.09,0.11-0.29,0.21-0.36,0.23c-0.07,0.02-0.6-0.05-0.6-0.05s-0.27-0.19-0.46-0.12c-0.19,0.07-0.35-0.01-0.35-0.01
				c-0.11-0.06-0.11-0.07-0.18,0.09c-0.07,0.16-0.35,0.25-0.42,0.23c-0.07-0.02-0.28,0.18-0.28,0.18c0.43-0.03,0.37,0.05,0.58-0.05
				c0.21-0.11,0.48-0.14,0.51-0.05c0.04,0.09,0,0.32-0.13,0.27c-0.12-0.05-0.36,0.06-0.36,0.06c0.27,0.07,0.38,0.14,0.29,0.25
				c-0.09,0.11-0.03,0.32-0.03,0.32s0.06,0.27,0.16,0.25c0.1-0.03,0.42,0.2,0.48,0.18c0.05-0.02,0.12,0.12,0.17,0.13
				c0.05,0.01,0.14,0.01-0.21,0.04c-0.13,0.01-0.25,0.01-0.35,0.02c0.3,0.05,0.6,0.1,0.9,0.15L221.75,68.66L221.75,68.66z
				 M222.39,65.61l0.04-0.15c-0.11,0.01-0.17,0.06-0.24,0.09c-0.11,0.05-0.37,0.09-0.37,0.09c0.02,0.12,0.15,0.13,0.27,0.12
				C222.19,65.74,222.27,65.65,222.39,65.61L222.39,65.61z M222.46,65.32c0.1-0.44,0.21-0.86,0.32-1.27
				c-0.32-0.04-0.63-0.1-0.93-0.16c-0.04,0.08-0.09,0.18-0.09,0.18l0.17,0.07c-0.08,0.15-0.09,0.25-0.01,0.35
				c0.08,0.1-0.07,0.34-0.07,0.34c0.29,0.14,0.41,0.31,0.55,0.43L222.46,65.32L222.46,65.32z M221.38,63.8
				c-0.2-0.04-0.4-0.09-0.59-0.14c-0.09,0.04-0.19,0.12-0.19,0.12c0.37,0.18,0.34,0.1,0.51,0.09
				C221.2,63.86,221.3,63.83,221.38,63.8L221.38,63.8z M219.71,68.29c0.2,0.04,0.39,0.08,0.59,0.12l0.23-0.09
				c-0.23-0.12-0.5-0.19-0.7-0.11C219.79,68.24,219.74,68.26,219.71,68.29L219.71,68.29z M222.83,63.83
				c0.17-0.65,0.35-1.24,0.53-1.78c0.26-0.78,0.52-1.45,0.77-1.96c-0.02-0.07-0.04-0.13-0.05-0.18c-0.39-0.06-0.75-0.13-1.1-0.23
				c-0.11,0.13-0.23,0.26-0.34,0.41c-0.09,0.11-0.18,0.23-0.27,0.35c0.04,0.09,0.08,0.17,0.09,0.18c0.01,0.03,0.07,0.09,0.05,0.2
				c-0.02,0.12,0.03,0.57,0.03,0.57s0.01,0.12,0.1,0.17c0.09,0.05,0.22,0.16,0.22,0.16c-0.04,0.14-0.08,0.17-0.15,0.17
				c-0.07,0-0.18,0.12-0.25,0.19c-0.07,0.07-0.11,0.08-0.14-0.01c-0.03-0.09-0.12-0.27-0.12-0.27l-0.1-0.19
				c-0.13,0.03-0.19,0-0.19,0s-0.02-0.11,0,0c0.02,0.12,0.02,0.34,0,0.36c-0.02,0.03-0.04,0.1,0,0.12c0.05,0.02,0.22,0.14,0.22,0.14
				c-0.02,0.11-0.15,0.27-0.13,0.35c0.02,0.08-0.07,0.2-0.07,0.2c-0.1,0.12-0.32,0.16-0.33,0.12c-0.14-0.17-0.2-0.2-0.25-0.21
				c-0.05-0.01-0.16-0.15-0.24-0.2c-0.02-0.01-0.04-0.03-0.05-0.04c-0.1,0.17-0.19,0.35-0.29,0.53c0.1,0.05,0.24,0.08,0.24,0.08
				c-0.03,0.13-0.05,0.26-0.06,0.36l0.14,0.03c0.18,0.04,0.36,0.09,0.55,0.13c0.05-0.05,0.1-0.1,0.13-0.13
				c0.07,0.05,0.1,0.12,0.12,0.18C222.19,63.73,222.51,63.79,222.83,63.83L222.83,63.83z M224.15,60.57
				c-0.19,0.42-0.37,0.92-0.56,1.48c-0.18,0.54-0.36,1.14-0.54,1.8l0,0.01c0.37,0.05,0.75,0.08,1.14,0.11l0.28,0.02
				c0.29,0.02,0.59,0.02,0.89,0.03h0h0.02l0.02,0h0.02h0.02l0.02,0h0.02v-0.27l-0.24,0.13c-0.19-0.12-0.49-0.29-0.56-0.34
				c-0.07-0.05-0.23-0.12-0.28-0.24c-0.05-0.13-0.03-0.25-0.18-0.43c-0.16-0.18-0.18-0.33-0.16-0.45c0.02-0.12-0.08-0.4-0.1-0.42
				c-0.01-0.02,0.01-0.11,0.04-0.25c0.03-0.14,0.05-0.31,0.13-0.34c0.08-0.03,0.38-0.23,0.38-0.23c0.01-0.24-0.1-0.47-0.1-0.6
				C224.29,60.58,224.21,60.58,224.15,60.57L224.15,60.57z M220.62,79.06c-0.03,0.39-0.06,0.77-0.08,1.15l-0.03,0.55
				c-0.02,0.34-0.04,0.68-0.05,1.02c0.04,0.05,0.06,0.1,0.06,0.18c0,0.2,0.28,0.34,0.28,0.34c0.11-0.01,0.22-0.03,0.35,0
				c0.13,0.03,0.31,0,0.41,0.02c0.1,0.02,0.21-0.03,0.34,0.11c0.39,0.08,0.49,0.23,0.55,0.32c0.23,0.13,0.23,0.15,0.32,0.19
				c0.09,0.04,0.31,0.12,0.35,0.28c0.04,0.14,0.08,0.25,0.15,0.33c0.07,0.09,0.27,0.14,0.14,0.25c-0.12,0.11-0.34,0.4-0.34,0.4
				l-0.05,0.03l0.22,0.01c0.04-0.04,0.08-0.02,0.13,0.01c0.39,0.02,0.78,0.04,1.18,0.05c0.27,0.01,0.53,0.01,0.8,0.01h0.01h0.01
				h0.01l0.01,0h0.01h0.01h0.01v-0.8v-2.35v0v-1.79h-0.03l-0.03,0h-0.03h0c-0.63,0-1.25-0.02-1.86-0.05
				C222.51,79.27,221.55,79.18,220.62,79.06L220.62,79.06z M225.45,84.94v-0.4h-0.03l-0.03,0h-0.02c-0.49,0-0.98-0.01-1.47-0.03
				c-0.07,0.1-0.22,0.27-0.34,0.29c-0.18,0.03-0.33-0.01-0.33-0.01c0.08,0.16,0.15,0.17,0.26,0.19c0.11,0.02,0.17,0,0.28-0.11
				c0.11-0.11,0.15-0.31,0.34-0.33c0.2-0.02,0.3-0.01,0.53,0.08C224.85,84.72,225.3,84.84,225.45,84.94L225.45,84.94L225.45,84.94z
				 M223.17,84.47l-0.18-0.01l0,0.01c0.01,0.07-0.02,0.13,0.06,0.21C223.13,84.54,223.13,84.67,223.17,84.47L223.17,84.47z
				 M223.67,91.7c0.28,0.01,0.57,0.03,0.85,0.03c0.28,0.01,0.55,0.01,0.83,0.01h0.01h0.01h0.01l0.01,0h0.01h0.01h0.01v-0.19v0v-1.09
				c-0.05,0.01-0.12,0.01-0.19-0.02c0,0-0.16,0.08-0.19,0.1c-0.04,0.02-0.21,0.08-0.27,0.1c-0.05,0.01-0.19,0.03-0.25,0.1
				c-0.06,0.06-0.15,0.08-0.31,0.12c-0.04,0.05-0.09,0.1-0.13,0.12c-0.05,0.02-0.1,0.05-0.14,0.11c-0.03,0.06,0,0.21,0.02,0.26
				c0.02,0.05,0.06,0.02,0.01,0.16l-0.21,0.16C223.75,91.67,223.71,91.68,223.67,91.7L223.67,91.7z M215.25,91.62
				c0.41,0.21,0.84,0.41,1.3,0.59c0.17,0.07,0.35,0.14,0.53,0.2c0.33,0.12,0.67,0.24,1.03,0.34l-0.06-0.08
				c-0.16-0.02-0.29-0.08-0.29-0.11c-0.01-0.05-0.18-0.16-0.2-0.27c-0.02-0.11-0.05-0.19-0.2-0.29c0.02-0.02,0.04-0.09,0.07-0.18
				l-0.76-1.03c-0.14-0.04-0.28-0.08-0.41-0.12c-1.05-0.32-2.02-0.7-2.91-1.12c0.18,0.27,0.37,0.54,0.58,0.78
				c0.26,0.31,0.53,0.6,0.83,0.87C214.91,91.35,215.08,91.49,215.25,91.62L215.25,91.62z M218.39,93.08
				c-0.32-0.09-0.63-0.19-0.94-0.29c0.37,0.16,0.75,0.32,1.14,0.46c-0.05-0.04-0.11-0.09-0.16-0.14l0,0l0,0l0,0L218.39,93.08
				L218.39,93.08z M209.77,86.87l0.05,0.05l0.1,0.1l-0.01-0.02c-0.13-0.22-0.25-0.43-0.37-0.65c-0.43-0.81-0.78-1.64-1.04-2.48
				c-0.59-0.51-1.1-1.05-1.5-1.62C207.72,83.92,208.65,85.47,209.77,86.87L209.77,86.87z M210.53,87.56
				c0.13,0.11,0.26,0.21,0.4,0.31c0.4,0.29,0.83,0.58,1.29,0.84c0.18,0.1,0.37,0.21,0.56,0.31l-1.21-3.14
				c-1.04-0.52-1.96-1.11-2.75-1.74c0.24,0.71,0.55,1.41,0.91,2.1c0.14,0.25,0.28,0.51,0.43,0.76
				C210.29,87.19,210.41,87.38,210.53,87.56L210.53,87.56z M213.12,89.19c0.12,0.06,0.24,0.12,0.37,0.18
				c0.62,0.29,1.29,0.56,1.99,0.81c0.27,0.1,0.55,0.19,0.84,0.27l0.21,0.06c-0.27-0.57-0.5-1.19-0.68-1.84
				c-0.1-0.36-0.19-0.73-0.26-1.12c-0.05-0.03-0.09-0.07-0.18-0.17c-0.39-0.12-0.78-0.24-1.15-0.37c-0.28-0.1-0.55-0.2-0.82-0.31
				c-0.55-0.22-1.08-0.45-1.58-0.69c0.09,0.34,0.18,0.67,0.29,0.99C212.39,87.8,212.72,88.53,213.12,89.19L213.12,89.19z
				 M212.96,89.36c-0.81-0.41-1.55-0.85-2.19-1.33c1.02,1.1,2.17,2.09,3.41,2.94c-0.15-0.16-0.3-0.32-0.44-0.49
				C213.46,90.13,213.19,89.76,212.96,89.36L212.96,89.36z M206.55,81.1l0.03-0.01l0.05,0.1c0.08,0.17,0.18,0.34,0.28,0.51
				c0.33,0.55,0.76,1.07,1.27,1.57c0.08,0.08,0.16,0.15,0.24,0.23l-0.61-4.11c-0.74-0.65-1.35-1.35-1.79-2.08
				c0,0.66,0.03,1.32,0.11,1.98c0.04,0.32,0.08,0.64,0.14,0.95C206.35,80.53,206.45,80.82,206.55,81.1L206.55,81.1z M208.7,83.75
				c0.08,0.07,0.16,0.13,0.24,0.2c0.58,0.47,1.25,0.92,1.98,1.33c0.19,0.11,0.39,0.22,0.6,0.32l-0.01-0.05
				c-0.27-1.25-0.4-2.59-0.4-4c-0.21-0.11-0.42-0.22-0.63-0.33c-0.92-0.5-1.74-1.05-2.45-1.64c0.01,0.55,0.05,1.1,0.12,1.65
				C208.26,82.08,208.44,82.92,208.7,83.75L208.7,83.75z M211.77,85.73l0.29,0.14c0.46,0.22,0.94,0.43,1.44,0.62
				c0.29,0.11,0.59,0.22,0.89,0.33c0.17,0.06,0.33,0.11,0.5,0.17c-0.1-0.11-0.17-0.2-0.17-0.25c0-0.11-0.12-0.29-0.21-0.4
				c-0.1-0.11-0.17-0.2-0.17-0.34c0-0.14-0.1-0.22-0.21-0.38c-0.11-0.16-0.14-0.17-0.16-0.31c-0.02-0.14-0.02-0.17-0.25-0.47
				c-0.07-0.14-0.45-0.51-0.57-0.64c-0.11-0.13-0.05-0.28-0.11-0.38c-0.06-0.11-0.02-0.2,0.12-0.2c0.14,0,0.13-0.1,0.15-0.19
				c0.02-0.09,0-0.15-0.15-0.3c0,0,0.01-0.24-0.01-0.38c-0.02-0.13,0.1-0.13,0.12-0.24c-0.69-0.26-1.34-0.54-1.96-0.84
				c0,1.22,0.11,2.39,0.32,3.49C211.69,85.35,211.73,85.54,211.77,85.73L211.77,85.73z M205.37,74.62c0.02,0.33,0.07,0.66,0.16,0.98
				c0.07,0.26,0.16,0.52,0.26,0.77l0.04,0.1l0.72-4.36c-0.37-0.68-0.6-1.39-0.67-2.13c-0.05,0.17-0.11,0.33-0.16,0.5l-0.03,0.17
				c-0.2,1.08-0.31,2.18-0.32,3.31l0,0.32L205.37,74.62L205.37,74.62z M206.02,76.86c0.04,0.08,0.08,0.15,0.13,0.23
				c0.35,0.61,0.82,1.19,1.39,1.75c0.09,0.09,0.18,0.17,0.27,0.25c0-0.44,0.03-0.88,0.06-1.33c0.1-1.12,0.3-2.24,0.6-3.34
				c-0.16-0.14-0.31-0.28-0.46-0.42c-0.52-0.51-0.96-1.05-1.3-1.61c-0.15,0.53-0.28,1.06-0.38,1.6
				C206.15,74.93,206.05,75.9,206.02,76.86L206.02,76.86z M208.03,79.29l0.17,0.15c0.66,0.55,1.43,1.06,2.28,1.54
				c0.15,0.09,0.31,0.17,0.47,0.25l0.15,0.08l0-0.08c0.02-0.95,0.09-1.92,0.22-2.91c0.04-0.32,0.09-0.65,0.15-0.98
				c-0.03,0-0.05-0.01-0.08-0.06c-0.05-0.09-0.24-0.3-0.37-0.38c-0.12-0.08-0.18-0.25-0.27-0.35c-0.09-0.1-0.18-0.25-0.22-0.36
				c-0.04-0.11-0.15-0.38-0.15-0.38l-0.01-0.01c-0.14-0.09-0.29-0.18-0.42-0.27c-0.15,0.03-0.15-0.01-0.19-0.06
				c-0.03-0.04-0.11-0.12-0.18-0.18c-0.33-0.23-0.64-0.46-0.93-0.71c-0.24,0.92-0.42,1.85-0.52,2.78
				C208.07,78,208.03,78.64,208.03,79.29L208.03,79.29z M211.33,81.41l0.26,0.12c0.56,0.27,1.16,0.52,1.78,0.75
				c0.03-0.02,0.07-0.03,0.12-0.03c0.12,0,0.27-0.04,0.32-0.24c0.05-0.19,0.19-0.21,0.29-0.14c0.11,0.07,0.12-0.01,0.32-0.24
				c0,0-0.1,0.01-0.22-0.12c-0.12-0.13,0.02-0.56,0.03-0.71c0.02-0.16,0-0.12-0.12-0.43c-0.07-0.16-0.11-0.27-0.06-0.31
				c0.05-0.04,0.06,0-0.01-0.11c-0.07-0.11-0.29-0.26-0.29-0.26c-0.12,0.05-0.26,0.09-0.32,0.13c-0.05,0.03-0.05,0.03-0.05,0.03
				c0.09,0.09,0.08,0.22,0.09,0.24c0.01,0.02-0.1,0.05-0.13,0.06c-0.08-0.14-0.14-0.17-0.16-0.21c-0.02-0.04-0.06-0.1-0.08-0.15
				c-0.02-0.05-0.08-0.08-0.17-0.12c-0.09-0.05-0.24-0.11-0.29-0.2c-0.05-0.09-0.26-0.36-0.26-0.47c0-0.1-0.17-0.26-0.17-0.26
				c-0.01,0.12-0.01,0.18-0.06,0.13c-0.04-0.05-0.17-0.11-0.14-0.2c0.03-0.1,0.01-0.33,0.01-0.33c-0.08-0.17-0.26-0.64-0.35-0.87
				c-0.05,0.3-0.09,0.6-0.13,0.89c-0.13,0.98-0.21,1.95-0.22,2.88L211.33,81.41L211.33,81.41z M215.54,79.52l0.13-1.48
				c-1.07-0.31-2.08-0.67-3.01-1.08l0,0.02c0,0.09,0.11,0.15,0.18,0.2c0.07,0.05,0.08,0.06,0.03,0.18c-0.08,0.06,0.03,0.1-0.05,0.22
				c0,0-0.03,0.23-0.09,0.37c-0.06,0.14-0.06,0.22-0.08,0.35c-0.02,0.14,0.03,0.14-0.07,0.3c0,0,0.01,0.1,0.11,0.23
				c-0.02,0.07-0.01,0.09,0.09,0.18c0.1,0.09,0.15,0.26,0.25,0.37c0.1,0.11,0.09,0.19,0.14,0.16c0.05-0.02,0.28-0.01,0.51-0.03
				c0.23-0.02,0.2,0.01,0.27,0.13c0.07,0.12,0.12,0.2,0.35,0.36c0.14,0.02,0.4,0.02,0.43-0.04c0.03-0.06,0.19-0.16,0.19-0.16
				c-0.01-0.26-0.08-0.24,0.1-0.27C215.16,79.51,215.36,79.57,215.54,79.52L215.54,79.52z M205.8,76.91
				c-0.13-0.26-0.25-0.52-0.34-0.79c0.08,0.85,0.21,1.69,0.39,2.5C205.8,78.06,205.78,77.48,205.8,76.91L205.8,76.91z M212.41,59.15
				c-0.1,0.11-0.19,0.23-0.27,0.34c0.58-0.39,1.18-0.74,1.8-1.06l0.28-0.14c0.27-0.13,0.55-0.25,0.82-0.37
				c0.15-0.15,0.44-0.34,0.52-0.46c0,0-0.16,0.04-0.25,0.06c-0.1,0.02-0.17-0.02-0.18-0.16c-0.01-0.04-0.02-0.07-0.05-0.09
				c-0.19,0.08-0.37,0.17-0.54,0.26c-0.24,0.12-0.48,0.25-0.7,0.39l-0.42,0.36L212.41,59.15L212.41,59.15z M211.81,60l-0.04,0.07
				l-0.05,0.09c-0.21,0.42-0.35,0.86-0.41,1.3c-0.01,0.06-0.01,0.12-0.02,0.17c0.26-0.22,0.53-0.44,0.79-0.64
				c0.56-0.43,1.13-0.82,1.7-1.17c0.01-0.04-0.07-0.04-0.17-0.05c0,0,0.13-0.11,0.27-0.22c0.14-0.12,0.53-0.45,0.76-0.57
				c0.23-0.11,0.09-0.16-0.07-0.14c-0.16,0.02-0.38,0.24-0.29,0.14c0.09-0.11,0.33-0.48,0.47-0.51c0.09-0.02,0.14-0.13,0.17-0.24
				l-0.18,0.08c-0.24,0.11-0.47,0.22-0.7,0.33C213.27,59.03,212.51,59.48,211.81,60L211.81,60z M211.3,61.93l0,0.1
				c0,0.05,0.01,0.1,0.01,0.15c0.01,0.15,0.04,0.29,0.07,0.44c0.1-0.15,0.2-0.31,0.25-0.44c0.13-0.28,0.1-0.05,0.13,0.23
				c0,0,0.3-0.42,0.44-0.54c0.14-0.12,0.22-0.59,0.23-0.73c0-0.04,0.09-0.14,0.21-0.27C212.18,61.2,211.73,61.55,211.3,61.93
				L211.3,61.93z M217.47,63.59c0.23-0.31,0.47-0.61,0.72-0.9c-0.32-0.17-0.62-0.34-0.9-0.53c-0.09,0.09-0.17,0.34-0.17,0.34
				c0.12,0.01,0.07,0.05,0.02,0.15c-0.05,0.1-0.27,0.37-0.27,0.37c0.27-0.05,0.3,0,0.38,0.15
				C217.31,63.28,217.42,63.45,217.47,63.59L217.47,63.59z M219.54,63.27c-0.41-0.15-0.79-0.31-1.15-0.48
				c-0.29,0.35-0.58,0.71-0.85,1.08c0.03,0.07,0.07,0.13,0.15,0.14c0.12,0.02,0.35,0.22,0.35,0.22c-0.32,0.2-0.23,0.45-0.26,0.54
				c-0.03,0.09-0.13,0.32-0.08,0.39c0.05,0.07,0.01,0.35,0.17,0.39c0.15,0.04,0.14,0.06,0.14,0.06c0.07-0.06,0.18-0.24,0.33-0.24
				c-0.1-0.13-0.09-0.15-0.06-0.31c0.04-0.16-0.02-0.37,0.1-0.42c0.12-0.05,0.28-0.13,0.28-0.13c0.24-0.05,0.5-0.21,0.5-0.21
				l0.1-0.05c0.05-0.34,0.06-0.28,0.08-0.48c0.02-0.2,0.06-0.14-0.02-0.27c-0.08-0.13-0.15-0.14-0.15-0.14
				C219.4,63.31,219.43,63.31,219.54,63.27L219.54,63.27z M211.64,59.84l0.05-0.08l-0.83,0.71
				C211.1,60.25,211.37,60.04,211.64,59.84L211.64,59.84z M216.94,56.21c0.16-0.12,0.32-0.23,0.49-0.35l-0.02,0.01l-0.53,0.27
				C216.9,56.16,216.92,56.19,216.94,56.21L216.94,56.21z M215.49,56.83l-0.25,0.13l0.01,0l0.19-0.08
				C215.46,56.86,215.48,56.85,215.49,56.83L215.49,56.83z M221.6,54.5l-0.2,0.04c0.12,0.01,0.24,0.02,0.36,0.04h0
				c0.39,0.05,0.77,0.16,1.17,0.33c0.32-0.09,0.65-0.16,1.01-0.22c-0.08-0.08-0.18-0.15-0.28-0.21c-0.17-0.11-0.37-0.19-0.59-0.21
				l-0.01,0c-0.23,0.03-0.46,0.06-0.69,0.1l0,0l-0.01,0l-0.01,0l-0.07,0.01l0,0c-0.21,0.03-0.42,0.07-0.63,0.11l-0.03,0l-0.01,0
				L221.6,54.5L221.6,54.5z M219.38,55.2c0.67-0.05,1.39,0,2.43,0.13c0.24-0.12,0.5-0.23,0.78-0.32c-0.29-0.1-0.57-0.17-0.86-0.21
				c-0.36-0.05-0.73-0.05-1.13-0.02c-0.09,0.04-0.19,0.04-0.19,0.04s-0.24,0.03-0.27,0.1c-0.04,0.07-0.13,0.09-0.24,0.09
				c-0.11,0-0.28,0.06-0.33,0.12c-0.04,0.05-0.17,0.06-0.17,0.06C219.39,55.19,219.39,55.2,219.38,55.2L219.38,55.2z M218.36,55.6
				c-0.08,0.04-0.16,0.08-0.24,0.13l-0.02,0.01c0,0.05,0.01,0.09-0.04,0.14c-0.06,0.05-0.25,0.24-0.3,0.29
				c0.12-0.03,0.25-0.05,0.37-0.08c0.09-0.18,0.19-0.12,0.3-0.18c0.11-0.05,0.29-0.05,0.31-0.12c0.19,0.06,0.25,0.11,0.28,0.16
				c0.64-0.07,1.28-0.09,1.91-0.04c0.16-0.14,0.34-0.27,0.54-0.39c-0.15-0.02-0.3-0.03-0.43-0.04c-0.73-0.07-1.29-0.08-1.82-0.03
				c-0.24,0.02-0.47,0.06-0.71,0.12L218.36,55.6L218.36,55.6z M218.11,57.07l2.3-0.55c0.08-0.14,0.18-0.27,0.3-0.4l-0.12-0.01
				c-0.5-0.02-1.02,0-1.53,0.06c-0.02,0.05-0.06,0.08-0.14,0.08c-0.16,0-0.29,0.1-0.32,0.17c-0.04,0.07-0.24,0.36-0.37,0.53
				C218.18,57,218.14,57.04,218.11,57.07L218.11,57.07z M218.2,57.73c0.14-0.05,0.28-0.09,0.42-0.14c0.59-0.18,1.12-0.31,1.58-0.4
				c0.01-0.15,0.04-0.29,0.1-0.43l-0.13,0.01c-0.69,0.09-1.42,0.22-2.15,0.4c-0.03,0.04-0.05,0.08-0.06,0.12
				c-0.02,0.12-0.28,0.37-0.28,0.37l0.06-0.02c0.15-0.05,0.15-0.08,0.28,0C218.07,57.68,218.14,57.71,218.2,57.73L218.2,57.73z
				 M218.19,58.85c0.01-0.03,0.01-0.07,0-0.12c-0.02-0.16,0.13-0.49,0.18-0.81c0.19-0.06,0.38-0.12,0.57-0.18
				c-0.03,0.01-0.06,0.04-0.09,0.07c-0.07,0.08-0.18,0.22-0.18,0.22l0.09,0c0.09-0.04,0.18-0.02,0.21,0.02
				c0.03,0.04,0.18,0.02,0.18,0.02c0.12-0.02,0.17-0.02,0.21,0.02c0.04,0.03,0.14,0.03,0.18,0.02c0.05-0.01,0.13,0.01,0.13,0.01
				c0.01-0.11,0.01-0.13,0.08-0.2c0.07-0.06,0.12-0.26,0.12-0.26c-0.07-0.09-0.1-0.18-0.17-0.1c-0.07,0.08-0.21,0.06-0.21,0.06
				s-0.16,0.01-0.24,0.05c-0.08,0.04-0.21,0.07-0.24,0.05c-0.01,0-0.02-0.01-0.03-0.01c0.42-0.12,0.8-0.21,1.15-0.28l0.06-0.01
				c0.01,0.13,0.04,0.25,0.08,0.37l-0.03,0.01c-0.05,0.02-0.02,0.06-0.16,0.15c-0.07,0.04-0.07,0.06-0.05,0.08l-0.66,0.27
				c-0.06,0-0.11-0.01-0.15-0.04c-0.08-0.07-0.36,0-0.36,0c-0.18,0.09-0.26,0.14-0.27,0.21c-0.01,0.07-0.15,0.22-0.2,0.24
				c-0.03,0.01-0.04,0.03-0.06,0.05L218.19,58.85L218.19,58.85z M218.82,59.84c-0.07-0.03-0.14-0.04-0.2-0.04
				c0,0-0.08-0.2-0.04-0.22c0.03-0.02,0-0.11,0.16-0.26c0,0-0.49-0.06-0.71-0.08l-0.03-0.04l0.28-0.14l-0.01,0.03
				c0.23-0.01,0.21,0.01,0.27,0.05c0.06,0.04,0.18,0.06,0.23,0.04c0.05-0.02,0.1,0.03,0.08,0.07c-0.05,0.05-0.06,0.19,0.01,0.15
				c0.07-0.04,0.11-0.02,0.18,0.03c0.07,0.04,0.24,0.04,0.24,0.04c0-0.09,0.01-0.15,0.08-0.21c0.07-0.05,0.11-0.2,0.09-0.25
				c-0.02-0.04,0.08-0.15,0.15-0.17c0.06-0.02,0.22-0.17,0.22-0.17l0.17-0.16c-0.07-0.08-0.21-0.12-0.21-0.12l0-0.02l0.13-0.05
				l0.11-0.04l0.36-0.14c0.05,0.02,0.11,0.06,0.18,0.11l0,0l0.06,0.07c0.07,0.09,0.15,0.17,0.23,0.25l-0.31,0.17
				c-0.02-0.02-0.02-0.04-0.04-0.07c-0.04-0.06-0.12-0.05-0.12-0.05c-0.02,0.12-0.06,0.19-0.14,0.2c-0.08,0.01-0.18,0.11-0.2,0.19
				c0,0.01-0.01,0.03-0.03,0.05C219.6,59.31,219.2,59.57,218.82,59.84L218.82,59.84z M220.54,58.26L220.54,58.26L220.54,58.26
				L220.54,58.26L220.54,58.26z M217.49,62.02l0.15,0.09c0.07,0.04,0.14,0.09,0.22,0.13c0.16,0.09,0.32,0.18,0.49,0.26
				c0.11-0.14,0.23-0.27,0.35-0.41c0.14-0.16,0.28-0.32,0.43-0.48c-0.02,0-0.03-0.01-0.05-0.03c0,0,0.21-0.19,0.26-0.2l0.19-0.2
				c0.01-0.04,0.02-0.05,0.06-0.06l0.23-0.24c-0.1-0.05-0.21-0.06-0.26-0.01c-0.08,0.1-0.32,0.18-0.32,0.18s0-0.23,0,0
				c0,0.23-0.16,0.35-0.16,0.35c-0.21-0.1-0.27-0.09-0.36-0.02c-0.08,0.07-0.29,0.08-0.29,0.08s-0.26,0.09-0.34,0.21
				c-0.21,0.03-0.38,0.04-0.38,0.04C217.6,61.83,217.54,61.94,217.49,62.02L217.49,62.02z M220.47,60.24l0.15-0.14
				c-0.07-0.01-0.1-0.04-0.1-0.12c0-0.07-0.14-0.08-0.08-0.15c0.06-0.07,0.1-0.23,0.1-0.23s0.06-0.07,0.12-0.09
				c0.06-0.02,0.11-0.06,0.15-0.11c0.03-0.04,0.17-0.12,0.17-0.12c0.13,0.02,0.29,0.03,0.35,0c0.06-0.03,0.13,0,0.13,0l0.05,0.02
				l0.16-0.14c-0.14-0.08-0.27-0.15-0.39-0.24c-0.02-0.01-0.03-0.02-0.04-0.03c-0.08-0.05-0.15-0.11-0.21-0.16l-0.2,0.11l0.04,0.02
				c0.14,0.07,0.24,0.26,0.13,0.24c-0.11-0.02-0.32,0.09-0.37,0.14c-0.05,0.05-0.34,0.07-0.34,0.14c0,0.07-0.06,0.44-0.16,0.44
				c-0.11,0-0.17,0.15-0.17,0.15l-0.16,0.32c0.3-0.14,0.23-0.12,0.37-0.07C220.24,60.28,220.37,60.27,220.47,60.24L220.47,60.24z
				 M220.64,58.95c-0.15,0.09-0.31,0.18-0.46,0.27l-0.02,0.04c0,0-0.04,0.02-0.1,0.03l-0.13,0.08c-0.13,0.08-0.25,0.16-0.38,0.24
				c0,0.01-0.01,0.02-0.01,0.04c-0.02,0.06-0.05,0.18-0.05,0.18s0.09,0.12-0.04,0.12c-0.12,0-0.19-0.03-0.2-0.07
				c0-0.01-0.01-0.03-0.02-0.05l-0.2,0.14c0.06,0.08,0.08,0.18,0.05,0.31c0.22-0.13,0.51-0.17,0.55-0.26
				c0.04-0.09,0.16-0.15,0.16-0.15c-0.09-0.14-0.09-0.25-0.09-0.25c0.2-0.07,0.27-0.1,0.31-0.17c0.16-0.18,0.25-0.05,0.32-0.16
				c0.07-0.11,0.24-0.2,0.29-0.28L220.64,58.95L220.64,58.95z M218.54,62.61l0.19,0.09c0.23,0.11,0.47,0.21,0.73,0.3l0.21,0.08
				l0-0.01c0.01-0.18,0.04-0.28,0.11-0.37c0.07-0.09,0.3-0.34,0.3-0.34c0.09,0.07,0.26,0.26,0.38,0.2c0.12-0.05,0.18-0.02,0.18,0.07
				c0,0.04,0,0.1,0,0.17c0.1-0.19,0.2-0.37,0.3-0.55c-0.02-0.05-0.06-0.11-0.09-0.12c-0.07-0.03-0.29-0.14-0.35-0.15
				c-0.05-0.01-0.11-0.12-0.11-0.12l-0.08-0.12c0.08-0.01,0.15-0.06,0.18-0.1c0.03-0.04,0.01-0.06,0.09-0.04
				c0.08,0.03,0.28,0.15,0.34,0.12c0.06-0.03,0.14,0.01,0.14,0.01c0.01-0.1-0.07-0.18,0.01-0.21c0.09-0.03,0.26-0.11,0.26-0.11
				l0.17-0.12c-0.09-0.36-0.09-0.49-0.09-0.49l-0.03-0.42c-0.06-0.1-0.08-0.12-0.18-0.12c-0.09,0-0.3-0.03-0.34-0.08l-0.09,0.08
				l-0.06,0.06l0.03,0.15c0.02,0.12-0.09,0.35-0.2,0.38c-0.11,0.04-0.19,0.12-0.28,0.2c-0.09,0.08-0.24,0.09-0.3-0.01l-0.24,0.25
				l0.01,0.02c0.02,0.05,0.03,0.2,0.09,0.25c0.07,0.11,0.19,0.3,0.14,0.43c-0.05,0.12-0.33-0.11-0.37-0.23
				c-0.07-0.1-0.23,0.04-0.33,0.12c0,0-0.02-0.01-0.04-0.05l-0.25,0.28L218.54,62.61L218.54,62.61z M222.26,60.22
				c0.07-0.09,0.14-0.18,0.2-0.26v0c0.09-0.12,0.19-0.23,0.28-0.34c-0.31-0.1-0.6-0.21-0.87-0.34l-0.15,0.13
				c-0.02,0.03-0.11,0.22-0.1,0.32c0.11,0.05,0.22,0.12,0.23,0.18c0.02,0.05,0.05,0.05,0.12,0.09
				C222.05,60.03,222.19,60.13,222.26,60.22L222.26,60.22z M117.68,92.39h8.68V58.8h1.81c5.01,0,7.15,3.01,7.15,7.3
				c0,5.85-3.53,6.95-7.56,6.95c-0.28,0-0.7-0.06-0.79-0.11l7.47,19.45h9.74L136.7,75.6c3.71-1.22,7.33-4,7.33-9.9
				c0-9.09-6.96-11.93-13.08-11.93h-13.27V92.39L117.68,92.39z M154.51,92.39h8.63V58.97h8.68v-5.21h-25.97v5.21h8.67V92.39
				L154.51,92.39z M44.18,39.35C70,30.76,104.3,26.03,140.76,26.03c28.46,0,55.6,2.89,78.42,8.24l6.33-20.66l7.46,24.36
				c1.48,0.45,2.93,0.91,4.36,1.39c26.33,8.76,40.84,20.62,40.84,33.4c0,0.08-0.01,0.15-0.01,0.23l-1.77-0.58l7.22,2.36L242.31,88.3
				l-0.63,0.73l-0.73,0.77l-0.77,0.74l-0.8,0.7l-0.21,0.17l-3.74,12.2l0.97-0.32c20.9-6.95,34.23-16.01,37.81-25.44l3.51-1.15
				c-2.68,11.26-16.77,21.6-40.37,29.45c-0.99,0.33-1.99,0.65-2.99,0.96l-8.83,28.82l-7.49-24.42c-22.58,5.18-49.29,7.97-77.27,7.97
				c-36.46,0-70.76-4.73-96.58-13.33C17.85,97.39,3.35,85.53,3.35,72.75C3.35,59.98,17.85,48.11,44.18,39.35L44.18,39.35z
				 M227.27,55.27c0,0-0.03,0.03-0.1,0.08c-0.07,0.05,0.13,0.05,0.27,0.04C227.59,55.37,227.39,55.29,227.27,55.27L227.27,55.27z
				 M227.47,55.14c-0.1-0.02-0.19-0.05-0.17,0.03c0.03,0.08,0.17,0.09,0.26,0.05C227.67,55.18,227.55,55.15,227.47,55.14
				L227.47,55.14z M227.36,55.1c0.09-0.01,0.15,0,0.01-0.05c-0.14-0.05-0.28-0.13-0.25-0.05C227.16,55.07,227.27,55.1,227.36,55.1
				L227.36,55.1z M232.73,64.49c0,0-0.08-0.09,0-0.22c0,0-0.21-0.2-0.29-0.18c-0.08,0.03-0.15,0.05-0.12,0.18c0,0-0.01,0-0.11-0.06
				c-0.1-0.05,0.05,0.21,0.07,0.33c0,0-0.04,0.07-0.14,0.11c-0.1,0.04-0.04,0.12,0.04,0.19c0.08,0.07,0.03,0.09,0.22,0.03
				c0,0-0.02,0.26-0.06,0.35c-0.04,0.09-0.04,0.11,0.12,0.2c0,0,0.21-0.1,0.24-0.18c0.04-0.08,0.18-0.16,0.27-0.2
				c0.09-0.04-0.03-0.23-0.08-0.28C232.83,64.72,232.76,64.56,232.73,64.49L232.73,64.49z M236.91,68.05c0,0,0.04,0.14-0.01,0.1
				c-0.05-0.04-0.17-0.03-0.12-0.09C236.84,68,236.86,67.93,236.91,68.05L236.91,68.05z M237.43,66.58c0,0,0.09,0.06,0.1,0.17
				c0.01,0.11,0.12,0.21,0.16,0.26c0.04,0.04,0.13,0.08,0.18,0.2c0.04,0.12,0.12,0.14,0.2,0.24c0.08,0.1,0.01,0.11-0.05,0.25
				c-0.06,0.14-0.13-0.15-0.15-0.22c-0.03-0.07-0.18-0.24-0.26-0.27c-0.08-0.04-0.05-0.08-0.04-0.16c0.01-0.08-0.02-0.21-0.02-0.21
				s-0.13-0.11-0.2-0.16c-0.07-0.04-0.01-0.16-0.03-0.26C237.29,66.32,237.4,66.52,237.43,66.58L237.43,66.58z M228.57,57.27
				C228.57,57.27,228.58,57.28,228.57,57.27c-0.03-0.15-0.11-0.07-0.24,0c-0.13,0.07-0.17,0.24-0.02,0.19
				c0.15-0.05,0.38-0.07,0.44-0.05L228.57,57.27L228.57,57.27z M229.24,57.54c-0.17-0.02-0.23,0-0.08,0.06
				c0.1,0.04,0.18,0.08,0.18,0.08S229.38,57.55,229.24,57.54L229.24,57.54z M228.94,57.79c0.05,0.14-0.09,0.14,0.06,0.17
				c0.14,0.03,0.35-0.03,0.19-0.12c-0.16-0.1-0.37-0.32-0.37-0.32s-0.47,0.01-0.51,0.07c-0.04,0.06,0.06,0.2,0.18,0.22
				C228.61,57.83,228.84,57.87,228.94,57.79L228.94,57.79z M222.2,58.24c0.07-0.03,0.39-0.09,0.43-0.07
				c0.04,0.02,0.09-0.02,0.09-0.02s0.03,0.09,0,0c-0.03-0.09,0.01-0.13,0.06-0.18c0.04-0.05,0.1-0.31,0.1-0.31
				c-0.22,0.04-0.29,0-0.35,0.08c-0.06,0.08-0.19,0.13-0.23,0.14c-0.04,0.02-0.07,0.1-0.1,0.18
				C222.17,58.14,221.98,58.34,222.2,58.24L222.2,58.24z M221.69,57.92c-0.08,0.11-0.06,0.16-0.02,0.1c0.04-0.05,0.1-0.09,0.18-0.11
				c0.07-0.02,0.02-0.08,0.02-0.16c0-0.08,0.05-0.05-0.02-0.12c0,0-0.13,0.08-0.25,0.11C221.46,57.79,221.72,57.87,221.69,57.92
				L221.69,57.92z M221.32,57.68c-0.1-0.09-0.02-0.12-0.13-0.07c-0.1,0.04-0.22,0.08-0.1,0.07
				C221.22,57.67,221.32,57.68,221.32,57.68L221.32,57.68z M221.91,58.15c0.02-0.09,0.07-0.21,0.11-0.24
				c-0.22,0.11-0.27,0.21-0.27,0.21L221.91,58.15L221.91,58.15z M223.02,57.58c-0.03,0.17-0.16,0.35-0.2,0.38
				c-0.03,0.04-0.04,0.07,0,0.12c0.04,0.05,0,0.2,0,0.2c-0.32,0.12-0.65,0.3-0.71,0.27c-0.05-0.03-0.26,0.06-0.15,0.16
				c0.11,0.1,0.31,0.17,0.31,0.17c0.02-0.07,0.19-0.08,0.15-0.15c-0.03-0.07,0.09-0.18,0.09-0.18s0.15,0.2,0.25,0.11
				c0.11-0.09,0.33-0.12,0.38-0.17c0.05-0.06,0.48-0.29,0.55-0.31c0.07-0.02,0.67-0.37,0.67-0.37c-0.31-0.08-0.34-0.09-0.39-0.17
				c-0.05-0.08-0.29-0.12-0.29-0.12c-0.18,0.05-0.44,0.08-0.49,0.04C223.14,57.53,223.02,57.58,223.02,57.58L223.02,57.58z
				 M221.76,59.69c0.11,0.02,0.12-0.01,0.15,0.04c0.04,0.04,0.1,0.03,0.13,0.02c0-0.07-0.04-0.07-0.06-0.12
				c-0.02-0.04-0.05-0.12-0.05-0.12s-0.12-0.07-0.16-0.06C221.75,59.53,221.63,59.66,221.76,59.69L221.76,59.69z M221.22,61.12
				l0.11-0.14l-0.04-0.1c0,0-0.15,0.04-0.18,0.1c-0.03,0.06-0.04,0.08-0.1,0.09c-0.06,0.01-0.11,0.06-0.04,0.04
				C221.03,61.11,221.16,61.1,221.22,61.12L221.22,61.12z M220.62,67.75c-0.03,0.16,0.01,0.18,0.09,0.25
				c0.08,0.07,0.18,0.09,0.32,0.02c0.14-0.07,0.12-0.16,0.12-0.16c-0.12,0.16-0.25,0.14-0.28,0.05c-0.04-0.09-0.19-0.3-0.19-0.3
				L220.62,67.75L220.62,67.75z M221.19,68.33c0.13-0.06,0.32-0.06,0.34-0.1c0.02-0.04-0.11-0.23-0.11-0.35
				C221.18,68.12,221.1,68.17,221.19,68.33L221.19,68.33z M218.05,77.55c-0.08-0.05-0.13-0.05-0.18-0.04
				c-0.06,0-0.06,0.01-0.05,0.04c0.02,0.03-0.02,0.15,0.1,0.12c0.12-0.03,0.1,0.03,0.16,0.04c0.06,0.01,0.21-0.09,0.21-0.09
				L218.05,77.55L218.05,77.55z M214.51,76.68c0.08,0.06,0.1,0.05,0.11,0.09c0.02,0.04,0.07,0.16,0.12,0.17
				c0.04,0.01,0.2,0.01,0.25,0.03c0.05,0.01,0.04,0.03-0.01-0.06c-0.05-0.09-0.15-0.18-0.15-0.18c0-0.01-0.18-0.03-0.21-0.05
				C214.59,76.65,214.4,76.59,214.51,76.68L214.51,76.68z M212.97,74.8c0,0,0.16,0.04,0.23,0.01c0.07-0.03,0.17-0.03,0.29,0.08
				c0.12,0.11,0.24,0.12,0.36,0.18c0.12,0.06,0.23,0.04,0.25,0.16c0.02,0.12,0.36,0.25,0.47,0.31c0.12,0.06,0.05,0.09,0.09,0.23
				c0.04,0.14,0.31,0.27,0.38,0.28c0,0-0.13,0.01-0.29,0.15c-0.15,0.14,0.16,0.09,0.34,0.05c0.18-0.04,0.44,0.08,0.67,0.12
				c0,0-0.03-0.14-0.28-0.29c-0.05-0.1-0.22-0.22-0.22-0.22s-0.36-0.42-0.47-0.47c-0.11-0.05-0.61-0.56-0.74-0.64
				c-0.14-0.08-0.28-0.17-0.42-0.12c-0.14,0.05-0.25-0.04-0.3-0.04C213.27,74.59,213.1,74.69,212.97,74.8L212.97,74.8z
				 M225.32,52.78c11.66,0,21.17,9.57,21.17,21.31c0,11.73-9.51,21.31-21.17,21.31c-11.66,0-21.17-9.57-21.17-21.31
				C204.14,62.35,213.65,52.78,225.32,52.78L225.32,52.78z M217.15,108.62c-22.31,5.1-48.71,7.84-76.39,7.84
				c-36.15,0-70.11-4.67-95.63-13.16C20.49,95.1,6.35,83.96,6.35,72.75c0-11.22,14.14-22.35,38.78-30.54
				c25.52-8.49,59.48-13.17,95.63-13.17c28.16,0,54.99,2.84,77.54,8.11l-5.76,18.79l-0.46,0.33l-0.84,0.66l-0.8,0.7l-0.77,0.73
				l-0.73,0.77l-0.7,0.81l-0.66,0.84l-0.62,0.87l-0.12,0.19l-39.44,12.92l40.75,13.36l0.09,0.11l0.7,0.81l0.73,0.77l0.77,0.74
				l0.8,0.7l0.76,0.6L217.15,108.62L217.15,108.62z M234.05,41.45c0.79,0.25,1.57,0.5,2.34,0.76c24.09,8.01,38.13,18.82,38.75,29.78
				l-31.49-10.31l-0.01-0.01l-0.62-0.87l-0.66-0.84l-0.7-0.81l-0.73-0.78l-0.77-0.73l-0.8-0.7l-0.76-0.6L234.05,41.45L234.05,41.45z
				 M225.55,51.84l0.9,0.02l1.12,0.09l1.11,0.14l1.09,0.2l1.07,0.25l1.05,0.3l1.02,0.35l1.01,0.4l0.98,0.45l0.24,0.12l-9.51-31.53
				L225.55,51.84L225.55,51.84z M247.42,74.79l-0.01,0.44l-0.08,1.12l-0.14,1.11l-0.2,1.09l-0.25,1.08l-0.3,1.05l-0.35,1.03
				l-0.4,1.01l-0.44,0.99l-0.49,0.96l-0.03,0.05l32.48-10.04L247.42,74.79L247.42,74.79z M225.42,96.34h-0.11l-1.14-0.03l-1.12-0.09
				l-1.1-0.14l-1.09-0.2l-1.07-0.25l-1.05-0.3l-1.03-0.35l-1-0.4l-0.98-0.45l-0.51-0.26l9.93,32.86L225.42,96.34L225.42,96.34z
				 M203.21,74.79l-0.02-0.7l0.03-1.14l0.08-1.13l0.14-1.11l0.19-1.1l0.25-1.07l0.3-1.06l0.35-1.03l0.4-1.01l0.17-0.37l-30.27,9.62
				L203.21,74.79L203.21,74.79z M47.82,60.36c-2.46-5.21-5.85-7.41-10.67-7.41c-5.43,0-10.21,5.62-10.21,12.45
				c0,7.53,4.69,10.54,8.49,12.34c2.09,0.98,4.83,2.43,4.83,5.79c0,2.9-1.81,4.75-4.04,4.75c-2.69,0-4.45-2.96-5.61-5.62l-4.03,3.13
				c2.6,4.98,5.8,7.48,10.67,7.48c6.49,0,11.32-5.22,11.32-13.5c0-6.32-4.59-9.51-8.86-11.53c-2.27-1.1-4.87-2.66-4.87-6.49
				c0-2.43,2.04-3.88,3.9-3.88c2.74,0,4.55,2.71,5.57,5.56L47.82,60.36L47.82,60.36z M51.67,92.39h4.31V67.2l8.45,25.19h0.92
				l8.35-25.07v25.07h8.63V53.76h-8.4l-6.82,20.62l-6.91-20.62h-8.53V92.39L51.67,92.39z M97.5,62.33l4.04,13.73h-7.89L97.5,62.33z"
				/>
		</g>
		<rect x="311.7" y="2.5" class="st3" width="3.02" height="144.53"/>
	</g>
</g>
</svg>
