<?xml version="1.0" encoding="utf-8"?>
<!-- Generator: Adobe Illustrator 24.2.0, SVG Export Plug-In . SVG Version: 6.00 Build 0)  -->
<svg version="1.1" id="Layer_1" xmlns="http://www.w3.org/2000/svg" xmlns:xlink="http://www.w3.org/1999/xlink" x="0px" y="0px"
	 viewBox="0 0 33.49 25.29" style="enable-background:new 0 0 33.49 25.29;" xml:space="preserve">
<style type="text/css">
	.st0{fill:#FD5F00;}
</style>
<g>
	<path class="st0" d="M32.64,3.27c-0.01-0.02-0.01-0.03-0.02-0.05c-0.01-0.02-0.01-0.04-0.02-0.06c-0.01-0.02-0.01-0.04-0.02-0.06
		c-0.01-0.02-0.02-0.04-0.02-0.06c-0.01-0.02-0.02-0.04-0.02-0.06c-0.01-0.02-0.02-0.04-0.03-0.06c-0.01-0.02-0.02-0.04-0.03-0.05
		c-0.01-0.02-0.02-0.04-0.03-0.06c-0.01-0.02-0.02-0.04-0.03-0.05c-0.01-0.02-0.02-0.04-0.03-0.06c-0.01-0.02-0.02-0.03-0.03-0.05
		c-0.01-0.02-0.02-0.04-0.03-0.05c-0.01-0.02-0.02-0.03-0.03-0.05c-0.01-0.02-0.02-0.04-0.03-0.05c-0.01-0.02-0.02-0.03-0.03-0.05
		c-0.01-0.02-0.02-0.03-0.04-0.05c-0.01-0.02-0.02-0.03-0.04-0.05c-0.01-0.02-0.03-0.03-0.04-0.05c-0.01-0.02-0.02-0.03-0.04-0.05
		c-0.01-0.02-0.03-0.03-0.04-0.05C32.03,2.2,32.02,2.18,32,2.17c-0.01-0.02-0.03-0.03-0.04-0.05c-0.01-0.01-0.03-0.03-0.04-0.04
		c-0.01-0.02-0.03-0.03-0.04-0.05c-0.01-0.01-0.03-0.03-0.04-0.04c-0.02-0.01-0.03-0.03-0.05-0.04c-0.01-0.01-0.03-0.03-0.04-0.04
		c-0.02-0.01-0.03-0.03-0.05-0.04c-0.01-0.01-0.03-0.02-0.04-0.04c-0.02-0.01-0.03-0.03-0.05-0.04c-0.02-0.01-0.03-0.02-0.05-0.03
		c-0.02-0.01-0.03-0.03-0.05-0.04c-0.02-0.01-0.03-0.02-0.05-0.03c-0.02-0.01-0.03-0.02-0.05-0.04c-0.02-0.01-0.03-0.02-0.05-0.03
		c-0.02-0.01-0.04-0.02-0.05-0.03c-0.02-0.01-0.03-0.02-0.05-0.03c-0.02-0.01-0.04-0.02-0.05-0.03c-0.02-0.01-0.03-0.02-0.05-0.03
		c-0.02-0.01-0.04-0.02-0.06-0.03c-0.02-0.01-0.03-0.02-0.05-0.03c-0.02-0.01-0.04-0.02-0.06-0.03c-0.02-0.01-0.04-0.02-0.05-0.02
		c-0.02-0.01-0.04-0.02-0.06-0.03c-0.02-0.01-0.04-0.01-0.06-0.02c-0.02-0.01-0.04-0.02-0.06-0.02c-0.02-0.01-0.04-0.01-0.06-0.02
		c-0.02-0.01-0.04-0.01-0.06-0.02c-0.02-0.01-0.04-0.01-0.06-0.02c-0.02-0.01-0.04-0.01-0.06-0.02c-0.02-0.01-0.04-0.01-0.06-0.02
		c-0.02-0.01-0.04-0.01-0.06-0.02c-0.02,0-0.04-0.01-0.06-0.01c-0.02,0-0.04-0.01-0.06-0.01c-0.02,0-0.04-0.01-0.07-0.01
		c-0.02,0-0.04-0.01-0.06-0.01c-0.02,0-0.05-0.01-0.07-0.01c-0.02,0-0.04-0.01-0.05-0.01c-0.02,0-0.05,0-0.07-0.01
		c-0.02,0-0.03,0-0.05,0c-0.03,0-0.06,0-0.08,0c-0.01,0-0.03,0-0.04,0c-0.04,0-0.08,0-0.13,0H3.83c-0.04,0-0.09,0-0.13,0
		c-0.01,0-0.03,0-0.04,0c-0.03,0-0.06,0-0.08,0c-0.02,0-0.03,0-0.05,0c-0.02,0-0.05,0-0.07,0.01c-0.02,0-0.04,0.01-0.05,0.01
		c-0.02,0-0.05,0.01-0.07,0.01c-0.02,0-0.04,0.01-0.06,0.01c-0.02,0-0.04,0.01-0.07,0.01c-0.02,0-0.04,0.01-0.06,0.01
		c-0.02,0-0.04,0.01-0.06,0.01c-0.02,0-0.04,0.01-0.06,0.02C3,1.23,2.98,1.24,2.96,1.24C2.94,1.25,2.92,1.26,2.9,1.26
		C2.88,1.27,2.86,1.27,2.85,1.28C2.83,1.29,2.81,1.29,2.79,1.3C2.77,1.31,2.75,1.31,2.73,1.32C2.71,1.33,2.69,1.33,2.67,1.34
		C2.65,1.35,2.63,1.36,2.62,1.36C2.6,1.37,2.58,1.38,2.56,1.39C2.54,1.4,2.52,1.41,2.51,1.41C2.49,1.42,2.47,1.43,2.45,1.44
		C2.43,1.45,2.41,1.46,2.4,1.47C2.38,1.48,2.36,1.49,2.34,1.5C2.32,1.51,2.31,1.51,2.29,1.52C2.27,1.53,2.25,1.55,2.23,1.56
		C2.22,1.57,2.2,1.58,2.18,1.59C2.17,1.6,2.15,1.61,2.13,1.62C2.12,1.63,2.1,1.64,2.08,1.65C2.07,1.66,2.05,1.67,2.03,1.69
		C2.02,1.7,2,1.71,1.98,1.72C1.97,1.73,1.95,1.75,1.93,1.76C1.92,1.77,1.9,1.78,1.89,1.79C1.87,1.81,1.85,1.82,1.84,1.83
		C1.82,1.84,1.81,1.86,1.79,1.87C1.78,1.88,1.76,1.9,1.75,1.91C1.73,1.92,1.72,1.94,1.7,1.95C1.69,1.96,1.67,1.98,1.66,1.99
		C1.64,2.01,1.63,2.02,1.62,2.03C1.6,2.05,1.59,2.06,1.57,2.08C1.56,2.09,1.55,2.11,1.53,2.12C1.52,2.14,1.5,2.15,1.49,2.17
		C1.48,2.18,1.46,2.2,1.45,2.21C1.44,2.23,1.42,2.24,1.41,2.26C1.4,2.27,1.39,2.29,1.37,2.31C1.36,2.32,1.35,2.34,1.34,2.36
		C1.32,2.37,1.31,2.39,1.3,2.4C1.29,2.42,1.28,2.44,1.26,2.45C1.25,2.47,1.24,2.49,1.23,2.5C1.22,2.52,1.21,2.54,1.2,2.56
		C1.19,2.57,1.17,2.59,1.16,2.61C1.15,2.62,1.14,2.64,1.13,2.66C1.12,2.68,1.11,2.7,1.1,2.71C1.09,2.73,1.08,2.75,1.07,2.77
		C1.06,2.79,1.05,2.8,1.04,2.82C1.03,2.84,1.02,2.86,1.01,2.88C1.01,2.9,1,2.92,0.99,2.93C0.98,2.95,0.97,2.97,0.96,2.99
		C0.95,3.01,0.95,3.03,0.94,3.05C0.93,3.07,0.92,3.09,0.91,3.11C0.91,3.13,0.9,3.15,0.89,3.17C0.89,3.19,0.88,3.21,0.87,3.23
		C0.87,3.24,0.86,3.26,0.86,3.27C0.74,3.58,0.69,3.91,0.69,4.27v16.76c0,1.69,1.35,3.08,3.02,3.14c0.02,0,0.04,0,0.05,0
		c0.02,0,0.04,0,0.06,0h25.85c1.37,0,2.57-0.87,2.98-2.18c0.02-0.05,0.03-0.1,0.04-0.15c0.07-0.26,0.11-0.53,0.11-0.81V4.27
		C32.81,3.91,32.75,3.58,32.64,3.27L32.64,3.27z M3.19,3.44C3.2,3.43,3.22,3.42,3.23,3.41C3.24,3.4,3.25,3.4,3.26,3.39
		C3.27,3.38,3.29,3.37,3.3,3.37c0.01-0.01,0.02-0.01,0.03-0.02c0.01-0.01,0.03-0.02,0.04-0.02C3.39,3.32,3.4,3.31,3.41,3.31
		C3.42,3.3,3.44,3.3,3.45,3.29c0.01,0,0.02-0.01,0.03-0.01C3.5,3.27,3.52,3.27,3.54,3.26c0.01,0,0.02-0.01,0.03-0.01
		c0.02,0,0.03-0.01,0.05-0.01c0.01,0,0.02,0,0.03-0.01c0.02,0,0.04-0.01,0.06-0.01c0.01,0,0.02,0,0.03,0c0.03,0,0.06,0,0.09,0h25.84
		c0.03,0,0.06,0,0.09,0c0.01,0,0.02,0,0.03,0c0.02,0,0.04,0,0.06,0.01c0.01,0,0.02,0,0.03,0.01c0.02,0,0.03,0.01,0.05,0.01
		c0.01,0,0.02,0.01,0.03,0.01c0.02,0,0.03,0.01,0.05,0.02c0.01,0,0.02,0.01,0.03,0.01c0.02,0.01,0.03,0.01,0.05,0.02
		c0.01,0,0.02,0.01,0.03,0.02c0.01,0.01,0.03,0.01,0.04,0.02c0.01,0.01,0.02,0.01,0.03,0.02c0.01,0.01,0.03,0.02,0.04,0.03
		c0.01,0.01,0.02,0.01,0.03,0.02c0.01,0.01,0.03,0.02,0.04,0.03c0.01,0.01,0.01,0.01,0.02,0.02L17.49,16.3
		c-0.2,0.2-0.46,0.31-0.74,0.31s-0.54-0.11-0.74-0.31L3.17,3.46C3.17,3.45,3.18,3.45,3.19,3.44L3.19,3.44z M2.78,6.03l6.62,6.62
		l-6.62,6.62V6.03z M29.67,22.07H3.85c-0.25,0-0.48-0.09-0.66-0.24l7.7-7.7l3.64,3.64c0.59,0.59,1.38,0.92,2.22,0.92
		c0.84,0,1.63-0.33,2.22-0.92l3.66-3.66l7.71,7.71C30.16,21.98,29.92,22.07,29.67,22.07L29.67,22.07z M30.71,19.24l-6.6-6.6l6.6-6.6
		V19.24z M30.71,19.24"/>
</g>
</svg>
