<?xml version="1.0" encoding="utf-8"?>
<!-- Generator: Adobe Illustrator 24.2.0, SVG Export Plug-In . SVG Version: 6.00 Build 0)  -->
<svg version="1.1" id="Layer_1" xmlns="http://www.w3.org/2000/svg" xmlns:xlink="http://www.w3.org/1999/xlink" x="0px" y="0px"
	 viewBox="0 0 98.3 98.54" style="enable-background:new 0 0 98.3 98.54;" xml:space="preserve">
<style type="text/css">
	.st0{fill:#FD5F00;}
</style>
<g>
	<g>
		<path class="st0" d="M67.55,97.14H30.61c-16.1,0-29.19-13.1-29.19-29.19V31.01c0-16.1,13.1-29.19,29.19-29.19h36.94
			c16.1,0,29.19,13.1,29.19,29.19v36.94C96.74,84.05,83.65,97.14,67.55,97.14z M30.61,5.36c-14.14,0-25.65,11.51-25.65,25.65v36.94
			c0,14.14,11.51,25.65,25.65,25.65h36.94c14.14,0,25.65-11.51,25.65-25.65V31.01c0-14.14-11.51-25.65-25.65-25.65H30.61z"/>
	</g>
</g>
<path class="st0" d="M49.08,34.5c2.53,0,4.59,2.06,4.59,4.59c0,2.52-2.06,4.58-4.59,4.58s-4.59-2.06-4.59-4.58
	C44.49,36.56,46.55,34.5,49.08,34.5z M49.08,50.17c6.11,0,11.09-4.97,11.09-11.08c0-6.11-4.97-11.09-11.09-11.09S38,32.98,38,39.09
	C38,45.2,42.97,50.17,49.08,50.17z M53.57,59.22C55.82,58.7,58,57.8,60,56.55c1.52-0.95,1.97-2.96,1.02-4.48
	c-0.96-1.52-2.96-1.98-4.48-1.02c-4.54,2.85-10.38,2.85-14.92,0c-1.52-0.96-3.52-0.5-4.48,1.02c-0.95,1.52-0.5,3.52,1.02,4.48
	c2.01,1.26,4.18,2.15,6.43,2.67l-6.2,6.19c-1.27,1.27-1.27,3.32,0,4.59c0.64,0.63,1.46,0.95,2.29,0.95S42.36,70.63,43,70l6.08-6.08
	L55.17,70c1.27,1.27,3.32,1.27,4.59,0c1.27-1.27,1.27-3.32,0-4.59L53.57,59.22z"/>
</svg>
