<svg version="1.1" xmlns="http://www.w3.org/2000/svg" xmlns:xlink="http://www.w3.org/1999/xlink" x="0px" y="0px"
	 viewBox="0 0 363 363" style="enable-background:new 0 0 363 363;" xml:space="preserve">
<g>
	<path d="M67.39,206.67c-3.03,0-5.5,2.47-5.5,5.5c0,3.03,2.47,5.5,5.5,5.5h0.75c3.03,0,5.5-2.47,5.5-5.5c0-3.03-2.47-5.5-5.5-5.5
		H67.39z"/>
	<path d="M98.67,206.67c-3.03,0-5.5,2.47-5.5,5.5c0,3.03,2.47,5.5,5.5,5.5h0.75c3.03,0,5.5-2.47,5.5-5.5c0-3.03-2.47-5.5-5.5-5.5
		H98.67z"/>
	<path d="M248.8,155.02c3.03,0,5.5-2.48,5.5-5.54c0-3.03-2.47-5.5-5.5-5.5c-2.97,0-5.3,2.42-5.3,5.5
		C243.5,152.62,245.83,155.02,248.8,155.02z"/>
	<path d="M359.5,160.73V59.42c0-21.92-17.82-39.75-39.72-39.75H181.87c-22.26,0-40.37,17.83-40.37,39.75v64.25H43.72
		c-22.18,0-40.22,17.98-40.22,40.08v101.3c0,21.84,18.04,39.62,40.22,39.62h128.25l40.46,37.13c1.06,0.97,2.41,1.53,3.7,1.53
		c0.82,0,1.5-0.13,2.15-0.42c1.99-0.88,3.22-2.79,3.22-4.98V231.98c0-3.03-2.47-5.5-5.5-5.5s-5.5,2.47-5.5,5.5v93.53l-32.78-30.22
		c-1.14-1.04-2.43-1.62-3.63-1.62H43.72c-16.11,0-29.22-12.84-29.22-28.62v-101.3c0-16.04,13.11-29.08,29.22-29.08h97.78v98.92
		c0,2.1,1.39,4.12,3.46,5.03c2,0.88,4.42,0.49,6.02-0.97l34.18-31.15c0.42-0.38,0.82-0.74,1.2-1.09c2.56-2.36,3.93-3.59,4.81-4.17
		l0.71-0.47l0.84-0.09c0.31-0.04,1.14-0.13,4.68-0.05c1.55,0.03,3.41,0.04,5.66,0.04h116.72
		C341.68,200.67,359.5,182.75,359.5,160.73z M197.64,189.63c-9.8-0.2-10.99,0.57-18.71,7.68c-0.38,0.35-0.82,0.72-1.29,1.1
		c-0.39,0.32-0.8,0.66-1.18,1.01l-23.95,21.65V59.42c0-15.85,13.18-28.75,29.37-28.75h137.91c16.1,0,28.72,12.63,28.72,28.75v101.3
		c0,15.96-12.88,28.95-28.72,28.95H203.07C200.9,189.67,199.13,189.66,197.64,189.63z"/>
	<path d="M261.63,114.04c5.65-4.74,12.6-10.58,12.6-19.91c0-6.24-2.44-12.1-6.86-16.52c-4.42-4.42-10.3-6.85-16.54-6.85
		c-12.91,0-23.4,10.5-23.4,23.4c0,3.03,2.47,5.5,5.5,5.5c3.03,0,5.5-2.47,5.5-5.5c0-6.84,5.57-12.4,12.41-12.4
		c6.84,0,12.4,5.56,12.4,12.4c0,3.95-3.28,6.99-8.68,11.52l-0.23,0.19c-5.31,4.46-11.33,9.51-11.27,17.48
		c0.02,2.98,2.44,5.32,5.5,5.32c1.56,0,2.94-0.57,3.96-1.6c1-1.01,1.55-2.37,1.54-3.81c-0.02-2.43,1.88-4.46,7.25-8.96
		L261.63,114.04z"/>
</g>
</svg>
