<?xml version="1.0" encoding="utf-8"?>
<!-- Generator: Adobe Illustrator 25.2.1, SVG Export Plug-In . SVG Version: 6.00 Build 0)  -->
<svg version="1.1" id="Layer_1" xmlns="http://www.w3.org/2000/svg" xmlns:xlink="http://www.w3.org/1999/xlink" x="0px" y="0px"
	 viewBox="0 0 98.3 98.54" style="enable-background:new 0 0 98.3 98.54;" xml:space="preserve">
<style type="text/css">
	.st0{fill:#FD5F00;}
</style>
<g>
	<g>
		<path class="st0" d="M67.55,97.14H30.61c-16.1,0-29.19-13.1-29.19-29.19V31.01c0-16.1,13.1-29.19,29.19-29.19h36.94
			c16.1,0,29.19,13.1,29.19,29.19v36.94C96.74,84.05,83.65,97.14,67.55,97.14z M30.61,5.36c-14.14,0-25.65,11.51-25.65,25.65v36.94
			c0,14.14,11.51,25.65,25.65,25.65h36.94c14.14,0,25.65-11.51,25.65-25.65V31.01c0-14.14-11.51-25.65-25.65-25.65
			C67.55,5.36,30.61,5.36,30.61,5.36z"/>
	</g>
</g>
<g>
	<path class="st0" d="M40,62.74l-5.2-7.51h-0.31h-5.43v7.51h-6.24V35.76h11.68c2.39,0,4.46,0.4,6.22,1.19s3.12,1.93,4.07,3.39
		c0.95,1.46,1.43,3.2,1.43,5.2s-0.48,3.73-1.44,5.18c-0.96,1.45-2.33,2.56-4.1,3.33l6.05,8.67H40z M38.42,42.06
		c-0.98-0.81-2.4-1.21-4.28-1.21h-5.09v9.4h5.09c1.88,0,3.3-0.41,4.28-1.23s1.46-1.98,1.46-3.47C39.89,44.03,39.4,42.87,38.42,42.06
		z"/>
	<path class="st0" d="M54.13,60c-2.15-2.13-3.22-5.18-3.22-9.13V35.76h6.24v14.88c0,4.83,2,7.25,6.01,7.25
		c1.95,0,3.44-0.58,4.47-1.75c1.03-1.17,1.54-3,1.54-5.49V35.76h6.17v15.11c0,3.96-1.07,7-3.22,9.13c-2.15,2.13-5.14,3.2-9,3.2
		S56.27,62.13,54.13,60z"/>
</g>
</svg>
