<?xml version="1.0" encoding="utf-8"?>
<!-- Generator: Adobe Illustrator 25.2.1, SVG Export Plug-In . SVG Version: 6.00 Build 0)  -->
<svg version="1.1" id="Layer_1" xmlns="http://www.w3.org/2000/svg" xmlns:xlink="http://www.w3.org/1999/xlink" x="0px" y="0px"
	 viewBox="0 0 30 30" style="enable-background:new 0 0 30 30;" xml:space="preserve">
<style type="text/css">
	.st0{fill:#F5F2ED;}
	.st1{fill:#00508E;}
	.st2{fill:#E8000C;}
</style>
<g>
	<path class="st0" d="M0.87,9.96h28.25C27.49,5.39,23.67,1.7,18.6,0.44C11.05-1.43,3.42,2.78,0.87,9.96"/>
	<path class="st1" d="M29.68,18.08c0.01-0.03,0.01-0.06,0.02-0.1c0.01-0.06,0.02-0.11,0.03-0.17c0.01-0.03,0.01-0.06,0.02-0.1
		c0.01-0.06,0.02-0.12,0.03-0.17c0.01-0.03,0.01-0.06,0.02-0.09c0.01-0.07,0.02-0.14,0.03-0.22c0-0.01,0-0.03,0.01-0.04
		c0.01-0.09,0.02-0.17,0.04-0.26c0-0.02,0.01-0.05,0.01-0.07c0.01-0.06,0.02-0.13,0.02-0.19c0-0.03,0.01-0.06,0.01-0.09
		c0.01-0.06,0.01-0.11,0.02-0.17c0-0.03,0.01-0.06,0.01-0.09c0.01-0.06,0.01-0.12,0.01-0.17c0-0.03,0-0.06,0.01-0.09
		c0-0.07,0.01-0.13,0.01-0.2c0-0.02,0-0.04,0-0.06c0-0.09,0.01-0.17,0.01-0.26c0-0.01,0-0.03,0-0.04c0-0.07,0-0.14,0.01-0.21
		c0-0.03,0-0.05,0-0.08c0-0.06,0-0.12,0-0.18c0-0.03,0-0.06,0-0.09c0-0.06,0-0.12,0-0.17c0-0.03,0-0.06,0-0.09
		c0-0.06,0-0.13-0.01-0.19c0-0.02,0-0.04,0-0.07c-0.01-0.17-0.02-0.34-0.03-0.51c0-0.02,0-0.04-0.01-0.07
		c0-0.06-0.01-0.12-0.02-0.19c0-0.03,0-0.05-0.01-0.08c-0.01-0.06-0.01-0.12-0.02-0.18c0-0.03-0.01-0.05-0.01-0.08
		c-0.01-0.06-0.01-0.12-0.02-0.19c0-0.02-0.01-0.04-0.01-0.07c-0.02-0.17-0.05-0.34-0.07-0.51c0-0.02-0.01-0.03-0.01-0.05
		c-0.01-0.07-0.02-0.14-0.04-0.2c0-0.02-0.01-0.05-0.01-0.07c-0.01-0.06-0.02-0.12-0.04-0.18c0-0.02-0.01-0.05-0.01-0.07
		c-0.01-0.06-0.03-0.12-0.04-0.19c0-0.02-0.01-0.04-0.01-0.06c-0.02-0.08-0.03-0.15-0.05-0.23l0-0.02
		c-0.02-0.08-0.04-0.16-0.06-0.24h0c-0.11-0.44-0.25-0.87-0.4-1.3H0.87c-0.17,0.47-0.31,0.94-0.43,1.43
		c-0.5,2.01-0.56,4.03-0.26,5.96c0,0.01,0,0.02,0,0.03c0.01,0.07,0.02,0.14,0.04,0.21c0,0.01,0.01,0.03,0.01,0.04
		c0.01,0.07,0.02,0.13,0.04,0.2c0,0.02,0.01,0.04,0.01,0.06c0.01,0.06,0.02,0.12,0.04,0.19c0,0.02,0.01,0.05,0.02,0.07
		c0.01,0.06,0.03,0.12,0.04,0.18c0.01,0.03,0.01,0.05,0.02,0.08c0.01,0.05,0.03,0.11,0.04,0.16c0.01,0.04,0.02,0.08,0.03,0.12
		c0.02,0.06,0.03,0.12,0.05,0.18c0.02,0.06,0.03,0.12,0.05,0.18c0.01,0.03,0.02,0.05,0.02,0.08c0.02,0.06,0.03,0.11,0.05,0.17
		c0.01,0.03,0.02,0.05,0.02,0.08c0.02,0.06,0.04,0.11,0.05,0.17c0.01,0.03,0.02,0.05,0.03,0.08c0.02,0.06,0.04,0.11,0.06,0.17
		c0.01,0.03,0.02,0.05,0.03,0.08c0.02,0.06,0.04,0.11,0.06,0.17c0,0.01,0.01,0.03,0.01,0.04h0c0.01,0.04,0.03,0.07,0.04,0.11h28.14
		c0.01-0.03,0.02-0.07,0.04-0.11h0c0.03-0.09,0.06-0.18,0.09-0.27c0-0.01,0.01-0.02,0.01-0.03c0.04-0.12,0.08-0.23,0.11-0.35
		c0.01-0.02,0.01-0.03,0.02-0.05c0.03-0.11,0.07-0.22,0.1-0.33c0.01-0.02,0.01-0.05,0.02-0.07c0.04-0.13,0.07-0.26,0.1-0.4
		c0.02-0.09,0.04-0.17,0.06-0.26c0.01-0.03,0.01-0.06,0.02-0.08C29.65,18.2,29.66,18.14,29.68,18.08"/>
	<path class="st2" d="M0.93,20.2c1.67,4.5,5.46,8.12,10.47,9.36c7.49,1.86,15.07-2.28,17.67-9.36H0.93z"/>
</g>
</svg>
