<svg version="1.1" xmlns="http://www.w3.org/2000/svg" xmlns:xlink="http://www.w3.org/1999/xlink" x="0px" y="0px"
	 viewBox="0 0 60.02 65.13" style="enable-background:new 0 0 60.02 65.13;" xml:space="preserve">
<style type="text/css">
	.st0{fill:#4B4B4B;}
</style>
<path class="st0" d="M41.49,11.25c-1.68-0.63-3.45-0.95-5.26-0.95c-6.52,0-12.25,4.17-14.25,10.37c-0.4,1.24,0.28,2.56,1.51,2.96
	c0.24,0.08,0.48,0.11,0.72,0.11c0.99,0,1.91-0.63,2.24-1.63c1.37-4.26,5.3-7.12,9.78-7.12c1.24,0,2.46,0.22,3.61,0.65
	c1.21,0.45,2.57-0.16,3.03-1.37C43.32,13.06,42.71,11.71,41.49,11.25z"/>
<path class="st0" d="M35.45,47.07c-12.43,0-22.55-10.12-22.55-22.55S23.02,1.97,35.45,1.97s22.55,10.12,22.55,22.55
	S47.89,47.07,35.45,47.07z M35.45,6.97c-9.68,0-17.55,7.87-17.55,17.55s7.87,17.55,17.55,17.55s17.55-7.87,17.55-17.55
	S45.13,6.97,35.45,6.97z"/>
<path class="st0" d="M5.05,62.84c-0.68,0-1.37-0.23-1.93-0.7c-1.27-1.07-1.43-2.96-0.36-4.23l16.81-19.88
	c1.07-1.27,2.96-1.43,4.23-0.36c1.27,1.07,1.43,2.96,0.36,4.23L7.35,61.77C6.76,62.48,5.91,62.84,5.05,62.84z"/>
</svg>
