<?xml version="1.0" encoding="utf-8"?>
<!-- Generator: Adobe Illustrator 25.2.0, SVG Export Plug-In . SVG Version: 6.00 Build 0)  -->
<svg version="1.1" id="Capa_1" xmlns="http://www.w3.org/2000/svg" xmlns:xlink="http://www.w3.org/1999/xlink" x="0px" y="0px"
	 viewBox="0 0 213 224.5" style="enable-background:new 0 0 213 224.5;" xml:space="preserve">
<style type="text/css">
	.st0{fill:#FFFFFF;}
</style>
<g>
	<path class="st0" d="M105.5,39.8c-12.1-3.6-22.2-2.2-28.4,4.1c-1.3,1.3-2.5,2.9-3.4,4.6c-0.6,1.1-9.1,22.3-10.1,24.7
		c-7.2,17.6-17.7,33.4-31.2,46.9l-6.6,6.6c-14.3,14.3-14.5,37.4-0.4,51.5c6.9,6.9,16,10.7,25.7,10.7c5.1,0,10-1,14.6-3.1l11.8,11.8
		c1.4,1.4,3.5,1.7,5.2,0.8l16.7,16.7c3.3,3.3,7.8,5.2,12.5,5.2c4.7,0,9.2-1.8,12.5-5.2c3.3-3.3,5.2-7.8,5.2-12.5s-1.8-9.2-5.2-12.5
		l-16.5-16.5l1.5-1.5c0.9-0.9,1.3-2,1.3-3.2s-0.5-2.3-1.3-3.2l-8.8-8.8c9.3-6.8,19.4-12.4,30-16.8c2.4-1,23.6-9.5,25.4-10.5
		c2.1-1.2,3.8-2.9,3.8-2.9c4-3.7,6.1-9.1,6.2-15.5c0.3-14.4-9.3-33-24.9-48.6C130,51.4,117.4,43.3,105.5,39.8z M100.8,83.4
		c1.5,4,4.3,8,7.8,11.6c3.6,3.6,7.6,6.3,11.6,7.8l-7.8,7.8c-3.6-2.7-7.1-5.7-10.4-9.1c-3.3-3.3-6.3-6.8-9.1-10.4L100.8,83.4z
		 M129,95.8l-0.8-0.8c-0.9,0.9-6.8,0-13.1-6.3c-2.9-2.9-5.1-6.3-6.1-9.3c-0.8-2.3-0.5-3.6-0.2-3.9c0.1-0.1,0.5-0.3,1.2-0.3
		c0.7,0,1.7,0.2,2.7,0.5c3,1,6.3,3.2,9.3,6.1c2.7,2.7,4.8,5.8,5.9,8.7c1,2.7,0.7,4.1,0.4,4.4L129,95.8L129,95.8z M134.5,101.3
		c5.6-5.6,2.9-16.7-6.3-25.9c-3.9-3.9-8.5-6.9-12.8-8.3c-4.9-1.6-9.1-1.1-12.1,1.2l-0.1-0.1L87.9,83.6c-2.6-4.4-4.7-8.7-6-12.9
		c-2-6.2-2.4-11.7-1.1-15.9c0.1-0.4,0.5-1.5,0.8-2.1c0.6-1.1,1.2-1.9,1.8-2.5c2.3-2.3,5.6-3.4,9.8-3.4c11.8,0,28.1,8.7,41.5,22.1
		c19,19,27.5,42.5,18.7,51.3c-0.7,0.7-1,1-2.2,1.6c-1.2,0.6-2.4,1-2.4,1c-4.2,1.3-9.6,0.9-15.8-1.1c-4.2-1.4-8.5-3.4-12.9-6
		L134.5,101.3z M130.5,130.4l-3.4,1.4c-18.8,7.7-35.5,18.8-49.9,33.2l-7,7c-5.1,5.1-12,8-19.3,8c-7.3,0-14.2-2.9-19.3-8
		c-10.6-10.6-10.4-28,0.4-38.8l6.6-6.6c14.3-14.3,25.5-31.1,33.2-49.9l1.4-3.3c3.7,11.6,11.5,23.8,22.5,34.7
		c10.7,10.7,23,18.7,34.5,22.4C130.4,130.4,130.4,130.4,130.5,130.4z M76.7,178.3l7-7c0.8-0.8,1.6-1.6,2.4-2.3l6.8,6.8l-12.3,12.3
		l-7-7C74.7,180.2,75.7,179.3,76.7,178.3z M99.2,169.5l-6.5-6.5c0.2-0.2,0.4-0.3,0.6-0.5l6.4,6.4L99.2,169.5z M117,197.5l-16.5-16.5
		l0.9-0.9l16.5,16.5c1.6,1.6,2.5,3.7,2.5,5.8C119.6,200.5,118.5,198.9,117,197.5z M94.1,187.3l16.5,16.5c1.6,1.6,2.5,3.8,2.5,6.2
		c0,0.3-0.1,0.7-0.4,0.9c-0.3,0.3-0.6,0.4-1,0.4c0,0,0,0,0,0c-2.3,0-4.5-0.9-6.1-2.5l-16.5-16.5L94.1,187.3z"/>
	<path class="st0" d="M197.8,80.9h-30.6c-2.5,0-4.5,2-4.5,4.5s2,4.5,4.5,4.5h30.6c2.5,0,4.5-2,4.5-4.5S200.3,80.9,197.8,80.9z"/>
	<path class="st0" d="M152.2,68.6c0.7,1.6,2.3,2.6,4.1,2.6c0.7,0,1.3-0.1,1.9-0.4L192,55c2.3-1,3.2-3.7,2.2-6
		c-1.1-2.3-3.7-3.2-6-2.2l-33.9,15.8C152.1,63.7,151.1,66.4,152.2,68.6z"/>
	<path class="st0" d="M139,53.3c0.1,1.2,0.7,2.3,1.6,3.1c0.8,0.7,1.8,1.1,2.9,1.1c1.3,0,2.6-0.6,3.5-1.6l25.2-30
		c0.8-0.9,1.1-2.1,1-3.3c-0.1-1.2-0.7-2.3-1.6-3.1c-1.9-1.6-4.8-1.3-6.3,0.6L140,50C139.3,50.9,138.9,52.1,139,53.3z"/>
	<path class="st0" d="M126.8,45.7L126.8,45.7c0.4,0.1,0.8,0.2,1.2,0.2c2,0,3.8-1.4,4.3-3.3l9.3-34.8c0.3-1.2,0.2-2.4-0.4-3.4
		c-0.6-1-1.6-1.8-2.7-2.1c-1.2-0.3-2.4-0.2-3.4,0.4c-1,0.6-1.8,1.6-2.1,2.7l-9.3,34.8c-0.3,1.2-0.2,2.4,0.4,3.4
		S125.7,45.4,126.8,45.7z"/>
</g>
</svg>
