<?xml version="1.0" encoding="utf-8"?>
<!-- Generator: Adobe Illustrator 24.2.0, SVG Export Plug-In . SVG Version: 6.00 Build 0)  -->
<svg version="1.1" id="Layer_1" xmlns="http://www.w3.org/2000/svg" xmlns:xlink="http://www.w3.org/1999/xlink" x="0px" y="0px"
	 viewBox="0 0 599.73 116.32" style="enable-background:new 0 0 599.73 116.32;" xml:space="preserve">
<style type="text/css">
	.st0{fill:#FD5F00;}
</style>
<g>
	<polygon class="st0" points="2.2,5.6 0,5.6 0,0 5.6,0 5.6,2.2 2.2,2.2 	"/>
	<path class="st0" d="M2.2,105.62H0v-9.19h2.2V105.62z M2.2,91.33H0v-9.19h2.2V91.33z M2.2,77.04H0v-9.19h2.2V77.04z M2.2,62.75H0
		v-9.19h2.2V62.75z M2.2,48.46H0v-9.19h2.2V48.46z M2.2,34.18H0v-9.19h2.2V34.18z M2.2,19.89H0V10.7h2.2V19.89z"/>
	<polygon class="st0" points="5.6,116.32 0,116.32 0,110.72 2.2,110.72 2.2,114.12 5.6,114.12 	"/>
	<path class="st0" d="M556.96,116.32h-9.09v-2.2h9.09V116.32z M542.82,116.32h-9.09v-2.2h9.09V116.32z M528.68,116.32h-9.09v-2.2
		h9.09V116.32z M514.55,116.32h-9.09v-2.2h9.09V116.32z M500.41,116.32h-9.09v-2.2h9.09V116.32z M486.27,116.32h-9.09v-2.2h9.09
		V116.32z M472.13,116.32h-9.09v-2.2h9.09V116.32z M458,116.32h-9.09v-2.2H458V116.32z M443.86,116.32h-9.09v-2.2h9.09V116.32z
		 M429.72,116.32h-9.09v-2.2h9.09V116.32z M415.58,116.32h-9.09v-2.2h9.09V116.32z M401.45,116.32h-9.09v-2.2h9.09V116.32z
		 M387.31,116.32h-9.09v-2.2h9.09V116.32z M373.17,116.32h-9.09v-2.2h9.09V116.32z M359.03,116.32h-9.09v-2.2h9.09V116.32z
		 M344.9,116.32h-9.09v-2.2h9.09V116.32z M330.76,116.32h-9.09v-2.2h9.09V116.32z M316.62,116.32h-9.09v-2.2h9.09V116.32z
		 M302.48,116.32h-9.09v-2.2h9.09V116.32z M288.35,116.32h-9.09v-2.2h9.09V116.32z M274.21,116.32h-9.09v-2.2h9.09V116.32z
		 M260.07,116.32h-9.09v-2.2h9.09V116.32z M245.94,116.32h-9.09v-2.2h9.09V116.32z M231.8,116.32h-9.09v-2.2h9.09V116.32z
		 M217.66,116.32h-9.09v-2.2h9.09V116.32z M203.52,116.32h-9.09v-2.2h9.09V116.32z M189.39,116.32h-9.09v-2.2h9.09V116.32z
		 M175.25,116.32h-9.09v-2.2h9.09V116.32z M161.11,116.32h-9.09v-2.2h9.09V116.32z M146.97,116.32h-9.09v-2.2h9.09V116.32z
		 M132.84,116.32h-9.09v-2.2h9.09V116.32z M118.7,116.32h-9.09v-2.2h9.09V116.32z M104.56,116.32h-9.09v-2.2h9.09V116.32z
		 M90.42,116.32h-9.09v-2.2h9.09V116.32z M76.29,116.32H67.2v-2.2h9.09V116.32z M62.15,116.32h-9.09v-2.2h9.09V116.32z
		 M48.01,116.32h-9.09v-2.2h9.09V116.32z M33.87,116.32h-9.09v-2.2h9.09V116.32z M19.74,116.32h-9.09v-2.2h9.09V116.32z"/>
	<polygon class="st0" points="567.61,116.32 562.01,116.32 562.01,114.12 565.41,114.12 565.41,110.72 567.61,110.72 	"/>
	<rect x="565.41" y="93.78" class="st0" width="2.2" height="10.89"/>
	<polygon class="st0" points="567.61,87.73 565.41,87.73 565.41,81.93 571.13,82.9 570.76,85.07 567.61,84.53 	"/>
	
		<rect x="580.75" y="80.58" transform="matrix(0.1666 -0.986 0.986 0.1666 400.2629 645.2383)" class="st0" width="2.2" height="10.48"/>
	<polygon class="st0" points="599.73,89.96 592.58,88.75 592.94,86.58 594.67,86.88 593.62,85.47 595.39,84.15 	"/>
	<path class="st0" d="M590.65,81.49l-5.36-7.17l1.76-1.32l5.36,7.17L590.65,81.49z M582.31,70.33l-5.36-7.17l1.76-1.32l5.36,7.17
		L582.31,70.33z M573.98,59.18l-5.36-7.17l1.76-1.32l5.36,7.17L573.98,59.18z M565.65,48.04l-0.24-0.31v-9.3h2.2v8.93h-1.08
		L565.65,48.04z M567.61,33.45h-2.2V24.5h2.2V33.45z M567.61,19.52h-2.2v-8.95h2.2V19.52z"/>
	<polygon class="st0" points="567.61,5.6 565.41,5.6 565.41,2.2 562.01,2.2 562.01,0 567.61,0 	"/>
	<path class="st0" d="M556.96,2.2h-9.09V0h9.09V2.2z M542.82,2.2h-9.09V0h9.09V2.2z M528.68,2.2h-9.09V0h9.09V2.2z M514.55,2.2
		h-9.09V0h9.09V2.2z M500.41,2.2h-9.09V0h9.09V2.2z M486.27,2.2h-9.09V0h9.09V2.2z M472.13,2.2h-9.09V0h9.09V2.2z M458,2.2h-9.09V0
		H458V2.2z M443.86,2.2h-9.09V0h9.09V2.2z M429.72,2.2h-9.09V0h9.09V2.2z M415.58,2.2h-9.09V0h9.09V2.2z M401.45,2.2h-9.09V0h9.09
		V2.2z M387.31,2.2h-9.09V0h9.09V2.2z M373.17,2.2h-9.09V0h9.09V2.2z M359.04,2.2h-9.09V0h9.09V2.2z M344.9,2.2h-9.09V0h9.09V2.2z
		 M330.76,2.2h-9.09V0h9.09V2.2z M316.62,2.2h-9.09V0h9.09V2.2z M302.49,2.2h-9.09V0h9.09V2.2z M288.35,2.2h-9.09V0h9.09V2.2z
		 M274.21,2.2h-9.09V0h9.09V2.2z M260.07,2.2h-9.09V0h9.09V2.2z M245.94,2.2h-9.09V0h9.09V2.2z M231.8,2.2h-9.09V0h9.09V2.2z
		 M217.66,2.2h-9.09V0h9.09V2.2z M203.52,2.2h-9.09V0h9.09V2.2z M189.39,2.2h-9.09V0h9.09V2.2z M175.25,2.2h-9.09V0h9.09V2.2z
		 M161.11,2.2h-9.09V0h9.09V2.2z M146.97,2.2h-9.09V0h9.09V2.2z M132.84,2.2h-9.09V0h9.09V2.2z M118.7,2.2h-9.09V0h9.09V2.2z
		 M104.56,2.2h-9.09V0h9.09V2.2z M90.42,2.2h-9.09V0h9.09V2.2z M76.29,2.2H67.2V0h9.09V2.2z M62.15,2.2h-9.09V0h9.09V2.2z
		 M48.01,2.2h-9.09V0h9.09V2.2z M33.88,2.2h-9.09V0h9.09V2.2z M19.74,2.2h-9.09V0h9.09V2.2z"/>
</g>
</svg>
