<?xml version="1.0" encoding="utf-8"?>
<!-- Generator: Adobe Illustrator 24.2.0, SVG Export Plug-In . SVG Version: 6.00 Build 0)  -->
<svg version="1.1" id="Layer_1" xmlns="http://www.w3.org/2000/svg" xmlns:xlink="http://www.w3.org/1999/xlink" x="0px" y="0px"
	 viewBox="0 0 507.27 312.55" style="enable-background:new 0 0 507.27 312.55;" xml:space="preserve">
<style type="text/css">
	.st0{fill:#FBFAFA;}
	.st1{fill:#D8D8D8;}
</style>
<g>
	<polygon class="st0" points="66.71,311.53 66.71,207.8 2,207.8 66.71,156.32 66.71,0.75 506.52,0.75 506.52,311.53 	"/>
	<g>
		<polygon class="st1" points="70.21,312.28 65.96,312.28 65.96,308.03 67.46,308.03 67.46,310.78 70.21,310.78 		"/>
		<path class="st1" d="M67.46,303.25h-1.5v-6.7h1.5V303.25z M67.46,291.75h-1.5v-6.7h1.5V291.75z M67.46,280.26h-1.5v-6.7h1.5
			V280.26z M67.46,268.76h-1.5v-6.7h1.5V268.76z M67.46,257.27h-1.5v-6.7h1.5V257.27z M67.46,245.78h-1.5v-6.7h1.5V245.78z
			 M67.46,234.28h-1.5v-6.7h1.5V234.28z M67.46,222.79h-1.5v-6.7h1.5V222.79z"/>
		<polygon class="st1" points="67.46,211.3 65.96,211.3 65.96,208.55 63.21,208.55 63.21,207.05 67.46,207.05 		"/>
		<path class="st1" d="M57.76,208.55h-7.62v-1.5h7.62V208.55z M44.7,208.55h-7.62v-1.5h7.62V208.55z M31.63,208.55h-7.62v-1.5h7.62
			V208.55z M18.57,208.55h-7.62v-1.5h7.62V208.55z"/>
		<polygon class="st1" points="5.5,208.55 -0.15,208.55 4.27,205.03 5.21,206.2 4.15,207.05 5.5,207.05 		"/>
		<path class="st1" d="M9.05,203.15l-0.93-1.17l5.38-4.28l0.93,1.17L9.05,203.15z M18.28,195.8l-0.93-1.17l5.38-4.28l0.93,1.17
			L18.28,195.8z M27.51,188.46l-0.93-1.17l5.38-4.28l0.93,1.17L27.51,188.46z M36.74,181.12l-0.93-1.17l5.38-4.28l0.93,1.17
			L36.74,181.12z M45.98,173.77l-0.93-1.17l5.38-4.28l0.93,1.17L45.98,173.77z M55.21,166.43l-0.93-1.17l5.38-4.28l0.93,1.17
			L55.21,166.43z"/>
		<polygon class="st1" points="64.44,159.09 63.5,157.91 65.96,155.96 65.96,152.82 67.46,152.82 67.46,156.68 		"/>
		<path class="st1" d="M67.46,147.84h-1.5v-6.98h1.5V147.84z M67.46,135.87h-1.5v-6.98h1.5V135.87z M67.46,123.9h-1.5v-6.98h1.5
			V123.9z M67.46,111.94h-1.5v-6.98h1.5V111.94z M67.46,99.97h-1.5v-6.98h1.5V99.97z M67.46,88.01h-1.5v-6.98h1.5V88.01z
			 M67.46,76.04h-1.5v-6.98h1.5V76.04z M67.46,64.08h-1.5V57.1h1.5V64.08z M67.46,52.11h-1.5v-6.98h1.5V52.11z M67.46,40.15h-1.5
			v-6.98h1.5V40.15z M67.46,28.18h-1.5V21.2h1.5V28.18z M67.46,16.22h-1.5V9.24h1.5V16.22z"/>
		<polygon class="st1" points="67.46,4.25 65.96,4.25 65.96,0 70.21,0 70.21,1.5 67.46,1.5 		"/>
		<path class="st1" d="M498.07,1.5h-6.93V0h6.93V1.5z M486.18,1.5h-6.93V0h6.93V1.5z M474.3,1.5h-6.93V0h6.93V1.5z M462.41,1.5
			h-6.93V0h6.93V1.5z M450.53,1.5h-6.93V0h6.93V1.5z M438.64,1.5h-6.93V0h6.93V1.5z M426.76,1.5h-6.93V0h6.93V1.5z M414.87,1.5
			h-6.93V0h6.93V1.5z M402.99,1.5h-6.93V0h6.93V1.5z M391.1,1.5h-6.93V0h6.93V1.5z M379.22,1.5h-6.93V0h6.93V1.5z M367.33,1.5h-6.93
			V0h6.93V1.5z M355.45,1.5h-6.93V0h6.93V1.5z M343.56,1.5h-6.93V0h6.93V1.5z M331.68,1.5h-6.93V0h6.93V1.5z M319.79,1.5h-6.93V0
			h6.93V1.5z M307.91,1.5h-6.93V0h6.93V1.5z M296.02,1.5h-6.93V0h6.93V1.5z M284.14,1.5h-6.93V0h6.93V1.5z M272.25,1.5h-6.93V0h6.93
			V1.5z M260.37,1.5h-6.93V0h6.93V1.5z M248.48,1.5h-6.93V0h6.93V1.5z M236.6,1.5h-6.93V0h6.93V1.5z M224.71,1.5h-6.93V0h6.93V1.5z
			 M212.83,1.5h-6.93V0h6.93V1.5z M200.94,1.5h-6.93V0h6.93V1.5z M189.06,1.5h-6.93V0h6.93V1.5z M177.17,1.5h-6.93V0h6.93V1.5z
			 M165.29,1.5h-6.93V0h6.93V1.5z M153.4,1.5h-6.93V0h6.93V1.5z M141.52,1.5h-6.93V0h6.93V1.5z M129.63,1.5h-6.93V0h6.93V1.5z
			 M117.75,1.5h-6.93V0h6.93V1.5z M105.86,1.5h-6.93V0h6.93V1.5z M93.98,1.5h-6.93V0h6.93V1.5z M82.09,1.5h-6.93V0h6.93V1.5z"/>
		<polygon class="st1" points="507.27,4.25 505.77,4.25 505.77,1.5 503.02,1.5 503.02,0 507.27,0 		"/>
		<path class="st1" d="M507.27,303.05h-1.5v-6.97h1.5V303.05z M507.27,291.1h-1.5v-6.97h1.5V291.1z M507.27,279.15h-1.5v-6.97h1.5
			V279.15z M507.27,267.2h-1.5v-6.97h1.5V267.2z M507.27,255.25h-1.5v-6.97h1.5V255.25z M507.27,243.29h-1.5v-6.97h1.5V243.29z
			 M507.27,231.34h-1.5v-6.97h1.5V231.34z M507.27,219.39h-1.5v-6.97h1.5V219.39z M507.27,207.44h-1.5v-6.97h1.5V207.44z
			 M507.27,195.48h-1.5v-6.97h1.5V195.48z M507.27,183.53h-1.5v-6.97h1.5V183.53z M507.27,171.58h-1.5v-6.97h1.5V171.58z
			 M507.27,159.63h-1.5v-6.97h1.5V159.63z M507.27,147.68h-1.5v-6.97h1.5V147.68z M507.27,135.72h-1.5v-6.97h1.5V135.72z
			 M507.27,123.77h-1.5v-6.97h1.5V123.77z M507.27,111.82h-1.5v-6.97h1.5V111.82z M507.27,99.87h-1.5V92.9h1.5V99.87z M507.27,87.92
			h-1.5v-6.97h1.5V87.92z M507.27,75.96h-1.5v-6.97h1.5V75.96z M507.27,64.01h-1.5v-6.97h1.5V64.01z M507.27,52.06h-1.5v-6.97h1.5
			V52.06z M507.27,40.11h-1.5v-6.97h1.5V40.11z M507.27,28.15h-1.5v-6.97h1.5V28.15z M507.27,16.2h-1.5V9.23h1.5V16.2z"/>
		<polygon class="st1" points="507.27,312.28 503.02,312.28 503.02,310.78 505.77,310.78 505.77,308.03 507.27,308.03 		"/>
		<path class="st1" d="M498.07,312.28h-6.93v-1.5h6.93V312.28z M486.18,312.28h-6.93v-1.5h6.93V312.28z M474.3,312.28h-6.93v-1.5
			h6.93V312.28z M462.41,312.28h-6.93v-1.5h6.93V312.28z M450.53,312.28h-6.93v-1.5h6.93V312.28z M438.64,312.28h-6.93v-1.5h6.93
			V312.28z M426.76,312.28h-6.93v-1.5h6.93V312.28z M414.87,312.28h-6.93v-1.5h6.93V312.28z M402.99,312.28h-6.93v-1.5h6.93V312.28z
			 M391.1,312.28h-6.93v-1.5h6.93V312.28z M379.22,312.28h-6.93v-1.5h6.93V312.28z M367.33,312.28h-6.93v-1.5h6.93V312.28z
			 M355.45,312.28h-6.93v-1.5h6.93V312.28z M343.56,312.28h-6.93v-1.5h6.93V312.28z M331.68,312.28h-6.93v-1.5h6.93V312.28z
			 M319.79,312.28h-6.93v-1.5h6.93V312.28z M307.91,312.28h-6.93v-1.5h6.93V312.28z M296.02,312.28h-6.93v-1.5h6.93V312.28z
			 M284.14,312.28h-6.93v-1.5h6.93V312.28z M272.25,312.28h-6.93v-1.5h6.93V312.28z M260.37,312.28h-6.93v-1.5h6.93V312.28z
			 M248.48,312.28h-6.93v-1.5h6.93V312.28z M236.6,312.28h-6.93v-1.5h6.93V312.28z M224.71,312.28h-6.93v-1.5h6.93V312.28z
			 M212.83,312.28h-6.93v-1.5h6.93V312.28z M200.94,312.28h-6.93v-1.5h6.93V312.28z M189.06,312.28h-6.93v-1.5h6.93V312.28z
			 M177.17,312.28h-6.93v-1.5h6.93V312.28z M165.29,312.28h-6.93v-1.5h6.93V312.28z M153.4,312.28h-6.93v-1.5h6.93V312.28z
			 M141.52,312.28h-6.93v-1.5h6.93V312.28z M129.63,312.28h-6.93v-1.5h6.93V312.28z M117.75,312.28h-6.93v-1.5h6.93V312.28z
			 M105.86,312.28h-6.93v-1.5h6.93V312.28z M93.98,312.28h-6.93v-1.5h6.93V312.28z M82.09,312.28h-6.93v-1.5h6.93V312.28z"/>
	</g>
</g>
</svg>
