<?xml version="1.0" encoding="utf-8"?>
<!-- Generator: Adobe Illustrator 24.2.0, SVG Export Plug-In . SVG Version: 6.00 Build 0)  -->
<svg version="1.1" id="Layer_1" xmlns="http://www.w3.org/2000/svg" xmlns:xlink="http://www.w3.org/1999/xlink" x="0px" y="0px"
	 viewBox="0 0 94 93.53" style="enable-background:new 0 0 94 93.53;" xml:space="preserve">
<style type="text/css">
	.st0{fill:#FFFFFF;}
	.st1{fill:#CF100C;}
	.st2{fill-rule:evenodd;clip-rule:evenodd;fill:#FFFFFF;}
	.st3{fill:#EC761B;stroke:#FFFFFF;stroke-width:2;stroke-miterlimit:10;}
	.st4{fill:#FFFFFF;stroke:#EC761B;stroke-width:4;stroke-miterlimit:10;}
	.st5{fill-rule:evenodd;clip-rule:evenodd;fill:url(#SVGID_1_);}
	.st6{fill-rule:evenodd;clip-rule:evenodd;fill:#7E5B33;}
	.st7{fill-rule:evenodd;clip-rule:evenodd;fill:#F1DFAA;}
	.st8{fill-rule:evenodd;clip-rule:evenodd;fill:#C59A31;}
	.st9{fill-rule:evenodd;clip-rule:evenodd;fill:url(#SVGID_2_);}
	.st10{fill-rule:evenodd;clip-rule:evenodd;fill:url(#SVGID_3_);}
	.st11{fill-rule:evenodd;clip-rule:evenodd;fill:url(#SVGID_4_);}
	.st12{fill-rule:evenodd;clip-rule:evenodd;fill:url(#SVGID_5_);}
	.st13{fill-rule:evenodd;clip-rule:evenodd;fill:url(#SVGID_6_);}
	.st14{fill-rule:evenodd;clip-rule:evenodd;fill:url(#SVGID_7_);}
	.st15{fill-rule:evenodd;clip-rule:evenodd;fill:url(#SVGID_8_);}
	.st16{fill-rule:evenodd;clip-rule:evenodd;fill:url(#SVGID_9_);}
	.st17{fill-rule:evenodd;clip-rule:evenodd;fill:url(#SVGID_10_);}
	.st18{fill-rule:evenodd;clip-rule:evenodd;fill:url(#SVGID_11_);}
	.st19{fill-rule:evenodd;clip-rule:evenodd;fill:url(#SVGID_12_);}
	.st20{fill-rule:evenodd;clip-rule:evenodd;fill:url(#SVGID_13_);}
	.st21{fill-rule:evenodd;clip-rule:evenodd;fill:url(#SVGID_14_);}
	.st22{fill-rule:evenodd;clip-rule:evenodd;fill:url(#SVGID_15_);}
	.st23{fill-rule:evenodd;clip-rule:evenodd;fill:url(#SVGID_16_);}
	.st24{fill-rule:evenodd;clip-rule:evenodd;fill:url(#SVGID_17_);}
	.st25{fill-rule:evenodd;clip-rule:evenodd;fill:url(#SVGID_18_);}
	.st26{fill-rule:evenodd;clip-rule:evenodd;fill:url(#SVGID_19_);}
	.st27{fill-rule:evenodd;clip-rule:evenodd;fill:url(#SVGID_20_);}
	.st28{fill-rule:evenodd;clip-rule:evenodd;fill:url(#SVGID_21_);}
	.st29{fill-rule:evenodd;clip-rule:evenodd;fill:url(#SVGID_22_);}
	.st30{fill-rule:evenodd;clip-rule:evenodd;fill:url(#SVGID_23_);}
	.st31{fill-rule:evenodd;clip-rule:evenodd;fill:url(#SVGID_24_);}
	.st32{fill-rule:evenodd;clip-rule:evenodd;fill:url(#SVGID_25_);}
	.st33{fill-rule:evenodd;clip-rule:evenodd;fill:url(#SVGID_26_);}
	.st34{fill-rule:evenodd;clip-rule:evenodd;fill:url(#SVGID_27_);}
	.st35{fill-rule:evenodd;clip-rule:evenodd;fill:url(#SVGID_28_);}
	.st36{fill-rule:evenodd;clip-rule:evenodd;fill:url(#SVGID_29_);}
	.st37{fill-rule:evenodd;clip-rule:evenodd;fill:url(#SVGID_30_);}
	.st38{fill-rule:evenodd;clip-rule:evenodd;fill:url(#SVGID_31_);}
	.st39{fill-rule:evenodd;clip-rule:evenodd;fill:url(#SVGID_32_);}
	.st40{fill-rule:evenodd;clip-rule:evenodd;fill:url(#SVGID_33_);}
	.st41{fill-rule:evenodd;clip-rule:evenodd;fill:url(#SVGID_34_);}
	.st42{fill-rule:evenodd;clip-rule:evenodd;fill:url(#SVGID_35_);}
	.st43{fill-rule:evenodd;clip-rule:evenodd;fill:url(#SVGID_36_);}
	.st44{fill-rule:evenodd;clip-rule:evenodd;fill:url(#SVGID_37_);}
	.st45{fill-rule:evenodd;clip-rule:evenodd;fill:url(#SVGID_38_);}
</style>
<g>
	<path class="st0" d="M93.53,46.76c0,25.83-20.94,46.77-46.76,46.77C20.94,93.53,0,72.59,0,46.76C0,20.94,20.94,0,46.76,0
		C72.59,0,93.53,20.94,93.53,46.76z"/>
	<path class="st1" d="M89.86,46.76c0,23.8-19.3,43.1-43.1,43.1c-23.8,0-43.1-19.3-43.1-43.1c0-23.8,19.3-43.1,43.1-43.1
		C70.57,3.67,89.86,22.96,89.86,46.76z"/>
	<path class="st2" d="M91.96,44.27c0,0-8.12-0.51-8.57-0.51c-0.59,0-2.73-0.09-3.44-0.11c-0.71-0.03-4.22-0.3-6.04-0.27
		c-1.82,0.02-5.58,0.45-5.58,0.45s-0.05,3.1-0.17,3.96c-0.12,0.86-0.24,1.8-0.67,2.06c-0.43,0.26-1.97,0.62-2.13,0.05
		c-0.29-1.02,0.16-2.16,0.28-2.86c0.12-0.69,0.52-2.49-0.82-5.04c-1.33-2.54-6.41-7.32-8.58-9.28c-2.18-1.96-5.02-4.02-5.69-6.09
		c-0.68-2.08-0.81-3.1-1.04-3.82c-0.23-0.73-0.4-1.12-0.69-1.3c-0.29-0.17-0.64-0.17-0.64-0.17s-0.08-0.79,0.28-2.23
		c0.35-1.48,1.09-1.75,1.14-2.2c0.04-0.42-0.82-0.87-2.08-0.74c-1.58,0.16-2.56,0.81-3.48,2.61c-0.71,1.49-1.67,4.51-1.49,6.88
		c0.28,3.67,2.52,5.62,3.15,7.66c0.46,1.47,1.43,3.97,1.17,7.37c-0.29,3.68,0.45,7.54,2.83,10.43c0.78,0.95,1.8,1.84,2.87,2.44
		c1.39,0.78,1.74,1.51,1.19,2c-0.55,0.49-1.72,0.67-2.85-0.17c-1.13-0.84-2.47-2.26-2.7-2.26c-0.23,0-0.7,0.61-1.31,1.45
		c-0.61,0.84-1.68,1.66-1.51,1.98c0.28,0.29,1.25,1.47,1.25,3.22c0,1.82-0.93,3.11-1.43,3.49c0.78,0.72,1.67,3.28,1.54,4.38
		c-0.36,2.96-2.81,3.98-2.81,3.98s3.12,0.28,5.09,0.31c1.97,0.03,7.11-0.61,9.49-1.25c2.38-0.64,4.12-0.58,4.47-3.83
		c0.35-3.25,0.12-5.23,1.54-5.17c1.8,0.09,1.31,1.77,1.28,2.93c-0.03,0.96-0.2,2.61-0.2,2.61s6.79,0.06,9.7,0
		c5.35-0.1,12.21-0.36,12.21-0.36L91.96,44.27z M84.85,56.54c-0.06,0.76-0.4,1.14-1.18,1.14c-0.78,0-13.29,0.08-14.15-0.07
		c-0.27-0.04-1.86-0.26-1.58-1.79c0.21-1.11,1.84-0.61,2.63-0.53c3.41,0.36,9.81-0.18,13.25-0.17
		C84.61,55.13,84.91,55.87,84.85,56.54L84.85,56.54z M41.66,45.56c0.09-1.22-0.29-2.41-0.75-2.5c-0.46-0.09-1.33-0.38-1.42,0.35
		c-0.09,0.73,0.14,3.66-0.73,4.27c-1.74,1.22-3.54,0.38-5.34,0.23c-1.8-0.14-8.01-0.15-9.23-0.73c-1.22-0.58-1.48-2.7-1.08-4.15
		c0.41-1.45,1.43-2.95,2.04-3.27c0.61-0.32,4.64-1.78,5.63-2.13c0.99-0.35,2.55-0.43,3.95-1.04c1.39-0.61,2.58-0.73,3.1-0.76
		c0.52-0.03,2.33,0.32,3.32,0.64c0.99,0.32,2.79,0.4,2.9,0.67c0.12,0.26,0.46,2.82,0.41,3.05c-0.12,0.52-1.07-0.93-1.62-1.07
		c-0.55-0.15-1.86-0.29-2.61,0.03c-0.76,0.32-2.29,0.46-3.77,0.2c-1.48-0.26-3.1-0.73-4.61-0.38c-1.51,0.35-3.92,0.49-3.78,2.18
		c0.11,1.25,2.06,0.67,2.53,0.55c0.47-0.12,2.44-0.49,3.37-0.38c0.93,0.11,3.52,0.87,4.13,0.87c0.61,0,1.13-0.08,1.81-0.35
		c0.44-0.18,2.47-0.28,3.05,0.15c0.58,0.43,0.91,1.14,0.91,2.13c0,0.86-0.58,2.34-1.48,2.72C41.48,47.21,41.62,46.12,41.66,45.56
		L41.66,45.56z M44.44,52.77c-0.49,0.94-0.74,1.11-1.5,1.58c-0.85,0.52-1.39,0.64-1.28-0.2c0.12-0.84,0.76-1.83,0.49-2.27
		c-0.26-0.43-1.25-0.67-2-0.17c-0.75,0.49-0.87,0.46-0.96,0.87c-0.09,0.41-0.14,2.21-0.41,2.67c-0.26,0.47-0.67,1.19-2.84,1.25
		c-2.18,0.06-6.05-0.75-7.81-0.58c-1.54,0.15-2.81,0.1-3.31-0.26c-0.49-0.35-0.76-2.06-0.61-3.16c0.13-0.95,1.36-2.21,2.76-2.29
		c1.39-0.08,3.68,0.16,5.51,0.36c1.83,0.21,4.27,0.45,5.4,0.45c1.13,0,2.67-0.18,3.4-0.52c0.73-0.35,1.13-0.73,1.48-0.7
		c0.35,0.03,1.02,0.11,1.33,0.64C44.5,51.11,44.82,52.05,44.44,52.77L44.44,52.77z M42.33,60.07c-0.29-0.47-0.85-0.7-1.28-1.04
		l-1.54,0.55c0,0,0.72,0.78,0.55,1.51c-0.17,0.73-0.63,1.75-2.09,1.83c-1.01,0.06-5.17,0.26-6.56-0.09
		c-1.39-0.35-2.47-1.07-3.13-1.62c-0.67-0.55-1.03-0.77-0.97-1.43c0.06-0.58,0.33-1.1,0.79-1.18c0.46-0.09,1.1,0.23,4.58,0.46
		c3.48,0.23,5.26,0.18,7.58-0.73c2.32-0.9,3.05-1.34,3.05-1.34s1.03,1.38,0.84,2.53c-0.26,1.63-0.85,1.79-1.54,2.17
		C42.53,61.19,42.57,60.6,42.33,60.07L42.33,60.07z M39.75,66.88c0.12,0.41,0.44,0.54,0.69,0.89c0.09,0.73-0.28,1.29-0.87,1.77
		c-2.23,0.24-4.38,0.29-6.59,0.17c-0.53-0.03-2.17-0.7-2.49-0.95c-0.33-0.28-0.69-0.78-0.66-1.28c0.04-0.49,0.49-1.73,0.73-2.09
		c0,0,1.49,0.28,2.67,0.29l6.59,0.03C39.79,66.04,39.65,66.55,39.75,66.88L39.75,66.88z M43.05,67.45c-0.21-1.23-1.5-2.13-1.42-2.15
		l1.74-0.52c0,0,0.79,1.75,0.68,2.29c-0.25,1.32-0.69,1.56-1.09,2C42.99,68.53,43.13,67.93,43.05,67.45L43.05,67.45z"/>
	<g>
		<path class="st0" d="M14.81,23.12l1.43-1.61l4.41,2.11l-2.61-4.13l1.43-1.61l6.5,4.27l-1.37,1.55l-3.72-2.54l2.48,3.93l-0.92,1.04
			l-4.2-1.99l2.96,3.39l-1.37,1.55L14.81,23.12z"/>
		<path class="st0" d="M24.69,13.87l2.22-1.39l6.4,5.08l-1.96,1.22l-1.07-0.9l-2.22,1.39l0.34,1.36l-1.96,1.22L24.69,13.87z
			 M27.53,17.6l1.49-0.93l-2.25-1.94L27.53,17.6z"/>
		<path class="st0" d="M31.67,10.04l3.08-1.01c2.08-0.69,3.14,0.56,3.47,1.57c0.33,1.01,0.21,2.65-1.85,3.33l-1.03,0.34l0.79,2.41
			l-2.05,0.67L31.67,10.04z M34.8,12.66l0.58-0.19c0.91-0.3,0.83-0.86,0.72-1.18c-0.12-0.37-0.4-0.79-1.28-0.51l-0.58,0.19
			L34.8,12.66z"/>
		<path class="st0" d="M40.1,7.6l2.15-0.19l0.29,3.22l2.03-3.43l2.52-0.22l-2.58,3.97l3.34,3.69l-2.68,0.24l-2.52-3.1l0.29,3.3
			l-2.15,0.19L40.1,7.6z"/>
		<path class="st0" d="M52.26,7.53l2.58,0.45l1.39,8.05l-2.27-0.39l-0.2-1.38l-2.58-0.45l-0.65,1.24l-2.28-0.39L52.26,7.53z
			 M51.89,12.21l1.73,0.3l-0.38-2.94L51.89,12.21z"/>
		<path class="st0" d="M63.92,10.59l1.88,1.26l-0.19,5.34l2.53-3.77l1.73,1.16l-4.29,6.39l-1.85-1.24l0.21-5.42l-2.57,3.83
			l-1.72-1.16L63.92,10.59z M67.02,20.74l2.94,1.97l-0.56,0.83l-2.94-1.97L67.02,20.74z M68.25,18.22c0.81-1.21,2.1-1.19,2.99-0.59
			c0.89,0.6,1.4,1.78,0.59,2.99c-0.81,1.21-2.09,1.19-2.99,0.59C67.94,20.61,67.43,19.44,68.25,18.22z M70.61,19.81
			c0.36-0.54,0.23-0.96-0.06-1.15c-0.29-0.2-0.73-0.16-1.09,0.38c-0.28,0.42-0.32,0.9,0.06,1.15C69.9,20.45,70.33,20.23,70.61,19.81
			z"/>
		<path class="st0" d="M75.41,22.05l-0.76-0.9l1.36-1.14l2.04,2.43l-5.9,4.95l-1.28-1.53L75.41,22.05z"/>
	</g>
	<g>
		<path class="st0" d="M25.33,70.72c1.53,1.43,0.75,2.57,0.34,3c-0.56,0.59-1.36,0.62-1.97,0.35l-0.01,0.02
			c0.29,0.43,0.81,1.52-0.16,2.55c-0.74,0.79-2,1.06-3.31-0.15l-2.88-2.69l5.26-5.63L25.33,70.72z M20.69,74.82
			c0.24,0.23,0.85,0.78,1.4,0.19c0.53-0.56-0.06-1.11-0.32-1.35l-0.72-0.68l-1.08,1.16L20.69,74.82z M22.76,72.48
			c0.62,0.58,1.02,0.35,1.22,0.15c0.28-0.3,0.34-0.73-0.2-1.24l-0.66-0.62l-1.02,1.09L22.76,72.48z"/>
		<path class="st0" d="M31,74.92l2.96,1.33c2,0.9,1.94,2.53,1.5,3.5c-0.44,0.97-1.63,2.1-3.62,1.21l-0.99-0.45l-1.04,2.32
			l-1.97-0.88L31,74.92z M31.54,78.97l0.56,0.25c0.87,0.39,1.19-0.08,1.33-0.38c0.16-0.35,0.24-0.86-0.6-1.24l-0.56-0.25
			L31.54,78.97z"/>
		<path class="st0" d="M36.21,81.43c0.37-2.02,2.03-3.77,4.8-3.27c2.77,0.5,3.71,2.72,3.34,4.75c-0.37,2.02-2.03,3.77-4.8,3.27
			C36.78,85.67,35.84,83.45,36.21,81.43z M42.16,82.51c0.27-1.46-0.5-2.35-1.49-2.53c-0.99-0.18-2.02,0.38-2.28,1.84
			c-0.27,1.46,0.5,2.35,1.49,2.53C40.87,84.54,41.9,83.97,42.16,82.51z"/>
		<path class="st0" d="M52.02,86.02c-0.67,0.51-1.38,0.65-2.04,0.69c-2.28,0.13-4.02-1.38-4.16-3.84c-0.15-2.57,1.58-4.17,3.67-4.29
			c0.68-0.04,1.47,0.09,2.14,0.5l0.13,2.23c-0.42-0.44-1.05-0.87-1.88-0.82c-1.19,0.07-1.91,1.06-1.84,2.32
			c0.07,1.16,0.85,2.03,2.08,1.96c0.8-0.05,1.4-0.51,1.78-0.94L52.02,86.02z"/>
		<path class="st0" d="M60.03,84.09c-0.54,0.64-1.22,0.92-1.86,1.1c-2.21,0.6-4.22-0.52-4.86-2.89c-0.67-2.48,0.68-4.4,2.7-4.95
			c0.66-0.18,1.46-0.21,2.2,0.04l0.59,2.15c-0.5-0.34-1.21-0.63-2-0.41c-1.15,0.31-1.65,1.43-1.32,2.65
			c0.31,1.13,1.26,1.81,2.44,1.49c0.77-0.21,1.27-0.79,1.54-1.28L60.03,84.09z"/>
		<path class="st0" d="M60.86,75.7l2.22,4.05l0.39-5.48l1.85-1.02l3.7,6.75l-1.82,1l-2.22-4.05l-0.39,5.48l-1.85,1.01l-3.7-6.75
			L60.86,75.7z"/>
		<path class="st0" d="M67.7,71.19l3.17,3.36l-1-5.41l1.54-1.45l5.28,5.61l-1.51,1.43l-3.17-3.36l1,5.41l-1.54,1.45l-5.28-5.61
			L67.7,71.19z"/>
	</g>
</g>
</svg>
