<?xml version="1.0" encoding="utf-8"?>
<!-- Generator: Adobe Illustrator 24.2.0, SVG Export Plug-In . SVG Version: 6.00 Build 0)  -->
<svg version="1.1" id="Layer_1" xmlns="http://www.w3.org/2000/svg" xmlns:xlink="http://www.w3.org/1999/xlink" x="0px" y="0px"
	 viewBox="0 0 72.48 159.56" style="enable-background:new 0 0 72.48 159.56;" xml:space="preserve">
<style type="text/css">
	.st0{fill:#FFFFFF;}
	.st1{fill:#CF100C;}
	.st2{fill-rule:evenodd;clip-rule:evenodd;fill:#FFFFFF;}
	.st3{fill-rule:evenodd;clip-rule:evenodd;fill:url(#SVGID_1_);}
	.st4{fill-rule:evenodd;clip-rule:evenodd;fill:url(#SVGID_2_);}
	.st5{fill-rule:evenodd;clip-rule:evenodd;fill:url(#SVGID_3_);}
	.st6{fill-rule:evenodd;clip-rule:evenodd;fill:#7D5B09;}
	.st7{fill-rule:evenodd;clip-rule:evenodd;fill:#AE770A;}
	.st8{fill-rule:evenodd;clip-rule:evenodd;fill:#865306;}
	.st9{fill-rule:evenodd;clip-rule:evenodd;fill:#795509;}
	.st10{fill-rule:evenodd;clip-rule:evenodd;fill:url(#SVGID_4_);}
	.st11{fill-rule:evenodd;clip-rule:evenodd;fill:#F7CD79;}
	.st12{fill-rule:evenodd;clip-rule:evenodd;fill:url(#SVGID_5_);}
	.st13{fill-rule:evenodd;clip-rule:evenodd;fill:url(#SVGID_6_);}
	.st14{fill-rule:evenodd;clip-rule:evenodd;fill:url(#SVGID_7_);}
	.st15{fill-rule:evenodd;clip-rule:evenodd;fill:url(#SVGID_8_);}
	.st16{fill-rule:evenodd;clip-rule:evenodd;fill:#EEB115;}
	.st17{fill:#EC761B;stroke:#FFFFFF;stroke-width:2;stroke-miterlimit:10;}
	.st18{fill:#FFFFFF;stroke:#EC761B;stroke-width:4;stroke-miterlimit:10;}
	.st19{fill-rule:evenodd;clip-rule:evenodd;fill:url(#SVGID_9_);}
	.st20{fill-rule:evenodd;clip-rule:evenodd;fill:#7E5B33;}
	.st21{fill-rule:evenodd;clip-rule:evenodd;fill:#F1DFAA;}
	.st22{fill-rule:evenodd;clip-rule:evenodd;fill:#C59A31;}
	.st23{fill-rule:evenodd;clip-rule:evenodd;fill:url(#SVGID_10_);}
	.st24{fill-rule:evenodd;clip-rule:evenodd;fill:url(#SVGID_11_);}
	.st25{fill-rule:evenodd;clip-rule:evenodd;fill:url(#SVGID_12_);}
	.st26{fill-rule:evenodd;clip-rule:evenodd;fill:url(#SVGID_13_);}
	.st27{fill-rule:evenodd;clip-rule:evenodd;fill:url(#SVGID_14_);}
	.st28{fill-rule:evenodd;clip-rule:evenodd;fill:url(#SVGID_15_);}
	.st29{fill-rule:evenodd;clip-rule:evenodd;fill:url(#SVGID_16_);}
	.st30{fill-rule:evenodd;clip-rule:evenodd;fill:url(#SVGID_17_);}
	.st31{fill-rule:evenodd;clip-rule:evenodd;fill:url(#SVGID_18_);}
	.st32{fill-rule:evenodd;clip-rule:evenodd;fill:url(#SVGID_19_);}
	.st33{fill-rule:evenodd;clip-rule:evenodd;fill:url(#SVGID_20_);}
	.st34{fill-rule:evenodd;clip-rule:evenodd;fill:url(#SVGID_21_);}
	.st35{fill-rule:evenodd;clip-rule:evenodd;fill:url(#SVGID_22_);}
	.st36{fill-rule:evenodd;clip-rule:evenodd;fill:url(#SVGID_23_);}
	.st37{fill-rule:evenodd;clip-rule:evenodd;fill:url(#SVGID_24_);}
	.st38{fill-rule:evenodd;clip-rule:evenodd;fill:url(#SVGID_25_);}
	.st39{fill-rule:evenodd;clip-rule:evenodd;fill:url(#SVGID_26_);}
	.st40{fill-rule:evenodd;clip-rule:evenodd;fill:url(#SVGID_27_);}
	.st41{fill-rule:evenodd;clip-rule:evenodd;fill:url(#SVGID_28_);}
	.st42{fill-rule:evenodd;clip-rule:evenodd;fill:url(#SVGID_29_);}
	.st43{fill-rule:evenodd;clip-rule:evenodd;fill:url(#SVGID_30_);}
	.st44{fill-rule:evenodd;clip-rule:evenodd;fill:url(#SVGID_31_);}
	.st45{fill-rule:evenodd;clip-rule:evenodd;fill:url(#SVGID_32_);}
	.st46{fill-rule:evenodd;clip-rule:evenodd;fill:url(#SVGID_33_);}
	.st47{fill-rule:evenodd;clip-rule:evenodd;fill:url(#SVGID_34_);}
	.st48{fill-rule:evenodd;clip-rule:evenodd;fill:url(#SVGID_35_);}
	.st49{fill-rule:evenodd;clip-rule:evenodd;fill:url(#SVGID_36_);}
	.st50{fill-rule:evenodd;clip-rule:evenodd;fill:url(#SVGID_37_);}
	.st51{fill-rule:evenodd;clip-rule:evenodd;fill:url(#SVGID_38_);}
	.st52{fill-rule:evenodd;clip-rule:evenodd;fill:url(#SVGID_39_);}
	.st53{fill-rule:evenodd;clip-rule:evenodd;fill:url(#SVGID_40_);}
	.st54{fill-rule:evenodd;clip-rule:evenodd;fill:url(#SVGID_41_);}
	.st55{fill-rule:evenodd;clip-rule:evenodd;fill:url(#SVGID_42_);}
	.st56{fill-rule:evenodd;clip-rule:evenodd;fill:url(#SVGID_43_);}
	.st57{fill-rule:evenodd;clip-rule:evenodd;fill:url(#SVGID_44_);}
	.st58{fill-rule:evenodd;clip-rule:evenodd;fill:url(#SVGID_45_);}
	.st59{fill-rule:evenodd;clip-rule:evenodd;fill:url(#SVGID_46_);}
</style>
<g>
	<linearGradient id="SVGID_1_" gradientUnits="userSpaceOnUse" x1="39.1172" y1="128.7613" x2="46.5761" y2="141.6805">
		<stop  offset="0" style="stop-color:#FAF2C3"/>
		<stop  offset="0.01" style="stop-color:#FAF2C3"/>
		<stop  offset="0.2" style="stop-color:#C77C0B"/>
		<stop  offset="0.54" style="stop-color:#FBF4D3"/>
		<stop  offset="0.6" style="stop-color:#FAFAFB"/>
		<stop  offset="1" style="stop-color:#F8ECC3"/>
	</linearGradient>
	<path class="st3" d="M44.45,137.11l-4.29,0.66c0-1.54,0-3.81-0.04-6.66l-4.56-1.68l-3.01,12.33l25.92-3.87l-13.45-4.97
		C44.83,134.3,44.64,135.7,44.45,137.11z"/>
	<linearGradient id="SVGID_2_" gradientUnits="userSpaceOnUse" x1="40.963" y1="141.6986" x2="48.9535" y2="155.5387">
		<stop  offset="0" style="stop-color:#FAF2C3"/>
		<stop  offset="0.01" style="stop-color:#FAF2C3"/>
		<stop  offset="0.2" style="stop-color:#C77C0B"/>
		<stop  offset="0.54" style="stop-color:#FBF4D3"/>
		<stop  offset="0.6" style="stop-color:#FAFAFB"/>
		<stop  offset="1" style="stop-color:#F8ECC3"/>
	</linearGradient>
	<polygon class="st4" points="27.19,154.27 32.55,141.76 58.46,137.89 66.27,149.1 	"/>
	<linearGradient id="SVGID_3_" gradientUnits="userSpaceOnUse" x1="28.6372" y1="134.3349" x2="34.1081" y2="149.366">
		<stop  offset="0" style="stop-color:#E49412"/>
		<stop  offset="0.36" style="stop-color:#C77C0B"/>
		<stop  offset="0.99" style="stop-color:#FBF4D3"/>
		<stop  offset="1" style="stop-color:#FBF4D3"/>
	</linearGradient>
	<polygon class="st5" points="31.3,136.42 35.56,129.43 32.55,141.76 27.19,154.27 	"/>
	<path class="st6" d="M37.24,48.43c0.29,2.15,0.48,3.63,0.48,3.63l7.27-1.25c0,0-0.54-12.38-1.26-18.66
		c-2.15,7.18-6.13,16.4-6.13,16.4S37.47,48.51,37.24,48.43z"/>
	<path class="st6" d="M41.04,89.6c1.09,8.12,2.13,16.55,2.33,20.78c2.05-16.16,2.51-45.03,2.51-45.03l-5.49-0.96
		C40.39,64.39,40.88,76.95,41.04,89.6z"/>
	<path class="st6" d="M24.71,61.41c0,0-6.78-12.52-15.77-21.77c6.06,5.54,13,15.61,16.23,21.64c-2.87,7.37-4.3,10.3-9.58,21.12
		C19.3,74.51,24.71,61.41,24.71,61.41L24.71,61.41z M23.08,62c0,0-5.54,14.47-7.82,19.69c1.91-3.55,5.61-12.52,8.41-19.82
		c-3.2-5.55-9.84-16.36-15.51-21.97C16.24,48.89,23.08,62,23.08,62L23.08,62z M2.23,33.08l-0.74,1.11c0,0,10.7,7.63,20.51,28.36
		c-2.47,6.69-5.15,13.84-8.6,21.82l1.33,0.33c1.12-1.76,5.84-9.51,11.86-23.92C20.89,50.69,11.76,40.66,2.23,33.08z"/>
	<path class="st6" d="M30.51,39.42c4.48-16.39,5.08-25.03,5.08-25.03H35c0,0-0.87,8.13-5.75,24.75L30.51,39.42z"/>
	<path class="st6" d="M32.15,39.9c6.04-19.82,7.34-31.67,7.34-31.67H38.9c0,0-1.87,11.72-8.18,31.25L32.15,39.9z"/>
	<path class="st6" d="M34.23,40.47c3.48-10.29,6.62-22.45,9.99-36.57h0.92h-1.7c-3.85,14-7.23,25.89-11.06,36.05L34.23,40.47z"/>
	<path class="st6" d="M33.25,77.71l-1.12,0.5c3.25,12.09,5.09,24.38,6.01,32.81c-1.65-11.88-3.68-23.01-6.59-32.55l-0.87,0.39
		c3.25,12.09,5.57,23.93,6.49,32.36c-1.65-11.88-4.15-22.57-7.06-32.11l-1.05,0.47c4.67,14.3,8.32,32.82,9.29,56l1.81,2.2
		C40.16,129.94,40.29,103.06,33.25,77.71z"/>
	<path class="st7" d="M50.86,55.75c-3.25-1.32-13.15-3.69-13.15-3.69l7.27-1.25c0,0,13.35,3.81,17.04,5.56L50.86,55.75z"/>
	<path class="st7" d="M31.33,50.55l6.27-2c0,0-12.57-4.13-17.2-5.27c1.43,1.43,3.42,3.67,5.1,5.6
		C25.69,49.09,31.33,50.55,31.33,50.55z"/>
	<path class="st8" d="M40.39,64.39c0,0,7.17-5.81,10.47-8.64l11.17,0.62c-4.17,2.79-16.15,8.97-16.15,8.97L40.39,64.39z"/>
	<path class="st9" d="M27.03,72.99c-0.32,0.65-0.59,1.19-0.79,1.59c2.66-1.09,11.93-5.1,11.93-5.1l-5.72,0.3
		C32.44,69.77,29.58,71.49,27.03,72.99z"/>
	<linearGradient id="SVGID_4_" gradientUnits="userSpaceOnUse" x1="7.2534" y1="46.0508" x2="61.5596" y2="84.0763">
		<stop  offset="0" style="stop-color:#E49412"/>
		<stop  offset="0.57" style="stop-color:#FAF2C3"/>
		<stop  offset="0.59" style="stop-color:#C77C0B"/>
		<stop  offset="0.74" style="stop-color:#FBF4D3"/>
		<stop  offset="0.76" style="stop-color:#FAFAFB"/>
		<stop  offset="0.88" style="stop-color:#F8ECC3"/>
		<stop  offset="1" style="stop-color:#F8ECC3"/>
	</linearGradient>
	<path class="st10" d="M45.88,65.35c0,0-0.46,28.87-2.51,45.03c-0.47-9.62-5.2-40.91-5.2-40.91s-9.28,4.01-11.93,5.1
		c1.67-3.2,7.45-15.87,7.45-15.87s-8.22-10.35-13.28-15.43c4.63,1.15,17.2,5.27,17.2,5.27s3.97-9.22,6.13-16.4
		c0.72,6.28,1.26,18.66,1.26,18.66s13.35,3.81,17.04,5.56C57.85,59.17,45.88,65.35,45.88,65.35L45.88,65.35z M51.11,45.72
		C49.82,17.76,45.14,3.9,45.14,3.9h-0.86c-3.37,14.12-6.57,26.28-10.05,36.57c-12.59-3.56-24.5-6.2-31.68-8.05l-0.32,0.66
		c9.53,7.58,18.66,17.62,24.37,27.7C20.57,75.19,15.85,82.94,14.74,84.7l0.46,0.52c6.42-2.37,12.46-4.92,18.06-7.51
		c7.04,25.35,6.91,52.23,6.91,60.06l4.29-0.66c4.03-29.68,6.33-50.58,6.87-68.62c10.06-5.63,17.39-10.58,21.16-13.22v-0.51
		C66.16,51.38,58.77,48.38,51.11,45.72z"/>
	<polygon class="st11" points="1.89,33.35 2.55,32.42 2.23,33.08 1.49,34.18 	"/>
	<polygon class="st11" points="13.41,84.37 14.74,84.7 15.19,85.22 13.92,84.8 	"/>
	<path class="st9" d="M27.06,68.9c-7.39,2.37-17.86,2.9-17.86,2.9l7.24,12.03c0,0,7.81-1.75,15.6-5.68
		c10.41-5.24,15.7-11.58,15.7-11.58L44,60.43C44,60.43,35.45,66.21,27.06,68.9z"/>
	<linearGradient id="SVGID_5_" gradientUnits="userSpaceOnUse" x1="20.6737" y1="82.6763" x2="35.3349" y2="57.2822">
		<stop  offset="0" style="stop-color:#E49412"/>
		<stop  offset="0.37" style="stop-color:#F7EB96"/>
		<stop  offset="0.41" style="stop-color:#E69813"/>
		<stop  offset="0.49" style="stop-color:#F8DC97"/>
		<stop  offset="0.64" style="stop-color:#FBF3CD"/>
		<stop  offset="0.78" style="stop-color:#F4D689"/>
		<stop  offset="0.9" style="stop-color:#EBAB17"/>
		<stop  offset="0.95" style="stop-color:#FBF4D3"/>
		<stop  offset="1" style="stop-color:#FBF4D3"/>
	</linearGradient>
	<path class="st12" d="M31.91,77.9c-7.03,3.54-14.14,5.32-15.34,5.61c-0.2-0.33-6.46-10.74-6.9-11.46
		c2.1-0.13,11.01-0.81,17.47-2.88c7.55-2.42,15.31-7.39,16.77-8.35c0.27,0.44,3.29,5.41,3.48,5.73
		C46.55,67.49,41.31,73.17,31.91,77.9L31.91,77.9z M44,60.43c0,0-8.54,5.78-16.94,8.48c-7.39,2.37-17.86,2.9-17.86,2.9l7.24,12.03
		c0,0,7.81-1.75,15.6-5.68c10.41-5.24,15.7-11.58,15.7-11.58L44,60.43z"/>
	<linearGradient id="SVGID_6_" gradientUnits="userSpaceOnUse" x1="24.8313" y1="71.6515" x2="27.2022" y2="75.6945">
		<stop  offset="0" style="stop-color:#FAF2C3"/>
		<stop  offset="0.01" style="stop-color:#FAF2C3"/>
		<stop  offset="0.2" style="stop-color:#C77C0B"/>
		<stop  offset="0.54" style="stop-color:#FBF4D3"/>
		<stop  offset="0.6" style="stop-color:#FAFAFB"/>
		<stop  offset="1" style="stop-color:#F8ECC3"/>
	</linearGradient>
	<path class="st13" d="M34.73,70.41l0.57-0.75l-0.31-0.52c-0.04-0.07,0-0.15,0.07-0.18c0.04-0.02,0.15-0.04,0.2,0.05l0.44,0.72
		l-0.41,0.56c-0.22,0.3-0.35,0.48-0.2,0.73l0.52,0.86c0.12,0.2,0.34,0.52,0.77,0.3c0.21-0.1,0.41-0.29,0.5-0.49l0.09,0.15l0.79-0.39
		l-1.68-2.79c-0.16-0.27-0.38-0.59-0.97-0.3l-0.63,0.31c-0.25,0.12-0.61,0.32-0.26,0.9L34.73,70.41L34.73,70.41z M36.64,71.28
		c0.04,0.07,0.01,0.13-0.07,0.17c-0.1,0.05-0.18,0-0.21-0.04l-0.47-0.79c-0.08-0.13-0.12-0.21,0.07-0.47L36.64,71.28L36.64,71.28z
		 M33.76,73.52l1.01-0.03l0.06,0.1c0.04,0.07,0.14,0.08,0.21,0.05c0.04-0.02,0.12-0.1,0.07-0.18l-0.46-0.77
		c-0.08,0.21-0.26,0.42-0.48,0.52c-0.48,0.24-0.71-0.2-0.8-0.34l-1.41-2.34c-0.12-0.2-0.3-0.54,0.14-0.75
		c0.21-0.1,0.49-0.15,0.72-0.11l-0.09-0.15l0.79-0.39l2.34,3.9c0.16,0.27,0.34,0.61-0.25,0.9l-0.63,0.31
		c-0.25,0.12-0.63,0.28-0.98-0.3L33.76,73.52L33.76,73.52z M32.8,70.22c-0.04-0.07,0.01-0.15,0.07-0.18
		c0.04-0.02,0.15-0.04,0.2,0.05l1.32,2.19c0.06,0.1-0.02,0.16-0.07,0.18c-0.05,0.03-0.16,0.03-0.21-0.05L32.8,70.22L32.8,70.22z
		 M31.16,73.91c0.35,0.58,0.72,0.42,0.98,0.3l0.63-0.31c0.59-0.29,0.41-0.63,0.25-0.9l-1.32-2.19c-0.16-0.27-0.38-0.59-0.97-0.3
		l-0.63,0.31c-0.25,0.13-0.61,0.32-0.26,0.9L31.16,73.91L31.16,73.91z M30.61,71.29l1.37,2.29c0.03,0.04,0.11,0.09,0.21,0.04
		c0.08-0.04,0.11-0.11,0.07-0.17l-1.37-2.29c-0.05-0.09-0.16-0.07-0.2-0.05C30.61,71.14,30.57,71.22,30.61,71.29L30.61,71.29z
		 M27.45,71.01l1.79-0.88l0.28,0.47l-0.85,0.42l2.27,3.78L30,75.26L27.45,71.01L27.45,71.01z M27.59,77.61l0.96-0.3l-0.83-1.38
		c0.27,0.06,0.6,0.06,0.87-0.02c0.57-0.18,0.27-0.62,0.19-0.75l-1.6-2.65c-0.08-0.13-0.32-0.59-0.89-0.41
		c-0.27,0.08-0.5,0.26-0.62,0.44l-0.1-0.17l-0.96,0.3L27.59,77.61L27.59,77.61z M25.95,72.98l1.5,2.5c0.03,0.05,0.12,0.1,0.24,0.07
		c0.1-0.03,0.13-0.1,0.09-0.17l-1.51-2.5c-0.06-0.09-0.19-0.09-0.24-0.08C25.96,72.83,25.9,72.91,25.95,72.98L25.95,72.98z
		 M22.92,75.07l-0.56-0.93c-0.38-0.64,0.04-0.8,0.35-0.89l0.76-0.24c0.71-0.22,0.95,0.13,1.13,0.43l1.85,3.07l-0.96,0.3l-0.1-0.17
		c-0.11,0.19-0.36,0.36-0.61,0.43c-0.53,0.16-0.77-0.19-0.9-0.41l-0.57-0.95c-0.16-0.27-0.01-0.45,0.27-0.72l0.52-0.51l-0.48-0.79
		c-0.06-0.09-0.19-0.09-0.24-0.08c-0.08,0.02-0.14,0.11-0.09,0.18l0.34,0.57L22.92,75.07L22.92,75.07z M25.13,76.2
		c0.04,0.07,0.01,0.14-0.09,0.17c-0.12,0.04-0.21-0.02-0.24-0.07l-0.52-0.87c-0.08-0.14-0.13-0.24,0.11-0.47L25.13,76.2L25.13,76.2z
		 M20.56,74.49l0.12-0.04c0.07-0.02,0.22-0.04,0.32,0.12l0.36,0.6c0.14,0.23,0.01,0.31-0.05,0.33l-0.12,0.04L20.56,74.49
		L20.56,74.49z M21.56,78.03l1.43-0.44c0.25-0.08,0.81-0.27,0.47-0.83l-0.52-0.87c-0.06-0.11-0.29-0.49-0.96-0.3l-0.03-0.05
		c0.4-0.13,0.54-0.4,0.38-0.66l-0.43-0.72c-0.13-0.21-0.39-0.56-1.16-0.32l-1.43,0.44L21.56,78.03L21.56,78.03z M22.22,77.24
		l0.12-0.04c0.12-0.04,0.17-0.13,0.09-0.26l-0.44-0.74c-0.12-0.19-0.27-0.25-0.38-0.22l-0.12,0.04L22.22,77.24L22.22,77.24z
		 M18.51,78.19c0.38,0.64,0.84,0.52,1.14,0.43l0.76-0.24c0.71-0.22,0.52-0.59,0.34-0.89l-1.45-2.41c-0.18-0.3-0.42-0.65-1.13-0.43
		l-0.76,0.24c-0.31,0.1-0.73,0.25-0.35,0.89L18.51,78.19L18.51,78.19z M17.99,75.44c-0.04-0.07,0.01-0.15,0.09-0.18
		c0.05-0.01,0.18-0.02,0.24,0.08l1.51,2.51c0.04,0.07,0.01,0.14-0.09,0.17c-0.12,0.04-0.21-0.02-0.24-0.07L17.99,75.44L17.99,75.44z
		 M14.69,75.23l-0.68,0.21l-0.31-0.51l2.5-0.77l0.31,0.51l-0.68,0.21l2.5,4.15l-1.14,0.35L14.69,75.23z"/>
	<linearGradient id="SVGID_7_" gradientUnits="userSpaceOnUse" x1="21.5527" y1="82.1973" x2="35.4044" y2="58.2055">
		<stop  offset="0" style="stop-color:#E49412"/>
		<stop  offset="0.37" style="stop-color:#F7EB96"/>
		<stop  offset="0.41" style="stop-color:#E69813"/>
		<stop  offset="0.49" style="stop-color:#F8DC97"/>
		<stop  offset="0.64" style="stop-color:#FBF3CD"/>
		<stop  offset="0.78" style="stop-color:#F4D689"/>
		<stop  offset="0.9" style="stop-color:#EBAB17"/>
		<stop  offset="0.95" style="stop-color:#FBF4D3"/>
		<stop  offset="1" style="stop-color:#FBF4D3"/>
	</linearGradient>
	<path class="st14" d="M31.58,76.73c-6.24,3.19-14.33,5.26-14.33,5.26l-5.42-8.88c0,0,9.01-0.9,15.4-2.97
		c8.45-2.74,16.27-7.97,16.27-7.97l2.6,4.22C46.1,66.39,40.14,72.35,31.58,76.73L31.58,76.73z M43.67,61.4l-0.48,0.32
		c-0.08,0.05-7.86,5.22-16.13,7.9h0c-6.25,2.03-15.2,2.93-15.28,2.94l-0.88,0.09l6.09,9.98l0.4-0.1c0.08-0.02,8.23-2.12,14.45-5.3
		c8.54-4.37,14.6-10.38,14.66-10.44l0.31-0.31L43.67,61.4z"/>
	<path class="st9" d="M51.46,57.59c1.82,4.24-0.15,9.14-4.38,10.96c-4.24,1.82-9.14-0.15-10.96-4.38
		c-1.82-4.24,0.15-9.14,4.38-10.96C44.74,51.39,49.64,53.35,51.46,57.59z"/>
	<linearGradient id="SVGID_8_" gradientUnits="userSpaceOnUse" x1="41.102" y1="56.2216" x2="46.4591" y2="65.5006">
		<stop  offset="0" style="stop-color:#FAF2C3"/>
		<stop  offset="0.01" style="stop-color:#FAF2C3"/>
		<stop  offset="0.2" style="stop-color:#C77C0B"/>
		<stop  offset="0.54" style="stop-color:#FBF4D3"/>
		<stop  offset="0.6" style="stop-color:#FAFAFB"/>
		<stop  offset="1" style="stop-color:#F8ECC3"/>
	</linearGradient>
	<path class="st15" d="M36.75,59.72l0.92,0.1l-0.02,0.19l-0.76-0.09l-0.03,0.24l0.18,0.02c0.31,0.03,0.58,0.06,0.55,0.33
		c0,0.03-0.01,0.06-0.02,0.09l-0.15-0.02c0-0.01,0.01-0.04,0.01-0.05c0.02-0.14-0.25-0.16-0.47-0.18l-0.3-0.03L36.75,59.72
		L36.75,59.72z M43.19,54.14l-0.21,0.03l0.07,0.55l-0.18,0.02l-0.07-0.55l-0.21,0.03l-0.02-0.13l0.6-0.08L43.19,54.14L43.19,54.14z
		 M38.02,59.56c-0.01,0.04-0.02,0.07-0.05,0.1l-0.13-0.05c0.01-0.02,0.03-0.04,0.03-0.06c0.02-0.06,0.01-0.1-0.04-0.14l-0.03-0.03
		l-0.77,0.08l0.05-0.19l0.4-0.03l0.14,0l0-0.01l-0.12-0.08l-0.33-0.22l0.05-0.18l0.67,0.48C37.99,59.3,38.07,59.37,38.02,59.56
		L38.02,59.56z M47.44,55.44c-0.08,0.12-0.18,0.13-0.24,0.1c-0.06-0.04-0.09-0.14-0.02-0.26c0.08-0.12,0.18-0.13,0.24-0.1
		C47.49,55.22,47.52,55.32,47.44,55.44L47.44,55.44z M47.55,55.09c-0.03-0.02-0.13-0.08-0.26-0.01l0,0l0.06-0.1l-0.13-0.08
		l-0.52,0.82l0.15,0.1l0.14-0.22l0.06-0.1l0,0c0,0.07,0.03,0.14,0.11,0.19c0.13,0.08,0.3,0.07,0.44-0.14
		C47.74,55.33,47.68,55.17,47.55,55.09L47.55,55.09z M50.42,62.27l-0.37,0.05l0.05-0.24L50.42,62.27L50.42,62.27L50.42,62.27z
		 M50.64,62.2l-0.82-0.49l-0.04,0.19l0.17,0.1l-0.06,0.32l-0.19,0.02l-0.04,0.2l0.94-0.14L50.64,62.2L50.64,62.2z M45.19,54.41
		l-0.11-0.02l0.04-0.18l0.11,0.02c0.04,0.01,0.12,0.03,0.1,0.11C45.31,54.44,45.22,54.42,45.19,54.41L45.19,54.41z M45.13,54.7
		l-0.11-0.02l0.04-0.18l0.11,0.02c0.04,0.01,0.12,0.03,0.1,0.11C45.25,54.72,45.16,54.7,45.13,54.7L45.13,54.7z M45.29,54.15
		l-0.33-0.07l-0.14,0.67l0.34,0.07c0.15,0.03,0.26-0.01,0.29-0.13c0.02-0.11-0.04-0.18-0.12-0.2l0,0c0.07,0,0.14-0.04,0.16-0.12
		C45.5,54.3,45.48,54.19,45.29,54.15L45.29,54.15z M37.54,57.95l0.63,0.26l-0.07,0.17l-0.23-0.1c-0.02,0.08-0.04,0.14-0.05,0.16
		c-0.09,0.21-0.2,0.2-0.29,0.16l-0.22-0.09l0.07-0.17l0.2,0.08c0.04,0.02,0.1,0.03,0.13-0.06c0.02-0.04,0.03-0.09,0.04-0.13
		l-0.28-0.12L37.54,57.95L37.54,57.95z M46.35,54.9c-0.06,0.14-0.15,0.13-0.22,0.11c-0.07-0.03-0.09-0.08-0.07-0.12
		c0.04-0.1,0.18-0.05,0.27-0.01l0.03,0.01L46.35,54.9L46.35,54.9z M46.39,54.49c-0.08-0.04-0.16-0.05-0.25-0.05l-0.05,0.13
		c0.09-0.01,0.16,0,0.23,0.03c0.02,0.01,0.14,0.06,0.1,0.17l-0.01,0.03l-0.01-0.01c-0.03-0.01-0.06-0.03-0.09-0.04
		c-0.27-0.11-0.36,0-0.4,0.08c-0.04,0.1-0.01,0.22,0.15,0.29c0.14,0.06,0.22,0,0.24-0.02l0,0l-0.04,0.09l0.16,0.07l0.16-0.4
		C46.61,54.75,46.65,54.59,46.39,54.49L46.39,54.49z M38.23,56.78l-0.1,0.15l0.47,0.3l-0.12,0.19l-0.47-0.3l-0.1,0.15l0.47,0.3
		l-0.12,0.19l-0.47-0.3l-0.1,0.15l0.58,0.37l0.53-0.83L38.23,56.78L38.23,56.78z M46.79,67.87c3.86-1.66,5.66-6.13,4-10
		c-1.66-3.87-6.13-5.66-10-4c-3.15,1.35-4.92,4.57-4.57,7.81c0.04,0.35,0.2,0.92,0.52,1.49c-1.19-3.61,0.57-7.61,4.13-9.13
		c3.76-1.61,8.14,0.14,9.75,3.9c0.97,2.27,0.72,4.76-0.46,6.73l0.02,0.04l-0.04,0c-0.77,1.28-1.94,2.35-3.42,2.98
		c-1.21,0.52-2.48,0.69-3.7,0.56c-0.04,0.03-0.08,0.06-0.12,0.08C43.96,68.65,45.8,68.3,46.79,67.87L46.79,67.87z M40.87,54.3
		l0.01-0.11c-2.95,1.28-4.63,4.3-4.35,7.35l1.46-0.89c0.09-1.98,1.11-3.79,2.8-4.77C40.82,55.37,40.84,54.86,40.87,54.3L40.87,54.3z
		 M41.06,54.51c0.23,0.2,1.16,0.99,1.28,1.09c-0.1,0.12-1.18,1.46-1.49,1.84C40.95,56.49,41,55.58,41.06,54.51L41.06,54.51z
		 M49.2,56.09l0.07-0.02c-2.02-2.3-5.36-3.16-8.33-1.91l1.27,1.09c0.52-0.15,1.05-0.22,1.57-0.22c0.05,0,0.08,0,0.12,0
		c1.38,0.03,2.71,0.55,3.75,1.47C48.5,56.27,49.2,56.09,49.2,56.09L49.2,56.09z M49.14,63.11l0.94,1.45
		c1.13-1.93,1.36-4.35,0.42-6.56c-0.3-0.69-0.69-1.31-1.15-1.86l-0.65,1.58c0.17,0.26,0.32,0.53,0.44,0.83
		C49.76,60.01,49.76,61.66,49.14,63.11L49.14,63.11z M45.75,64.37l0.02,0l4.22,0.34c-0.76,1.24-1.9,2.26-3.33,2.88
		c-1.13,0.49-2.33,0.66-3.48,0.56C44.61,67.15,45.28,65.77,45.75,64.37L45.75,64.37z M44.63,57.3c0.06-0.01,1.54-0.41,2.8-0.75
		c-0.97-0.82-2.19-1.3-3.46-1.34c0,0.01,0,0.03,0,0.05l0.01,1.49C44.19,56.92,44.6,57.28,44.63,57.3L44.63,57.3z M47.85,59.25
		c-0.24-0.1-0.49-0.16-0.77-0.16c-1.31,0.01-2.26,0.75-2.96,1.45c0-0.39-0.02-3.08-0.03-3.44c0.14,0.12,0.49,0.42,0.49,0.42
		l0.05-0.01c0,0,4.08-1.09,4.43-1.18C48.93,56.64,47.9,59.12,47.85,59.25L47.85,59.25z M49.09,62.74c0.09-1.67-0.29-2.85-1.1-3.32
		l0.62-1.48c0.13,0.22,0.25,0.45,0.36,0.69C49.52,59.93,49.56,61.4,49.09,62.74L49.09,62.74z M47.65,60.82
		c0.15-0.03,0.31-0.03,0.47,0.03c0.52,0.17,0.67,0.9,0.73,1.83L47.65,60.82L47.65,60.82z M48.77,62.91c0,0.04,0.02,0.39,0.02,0.39
		l0.06,0.03l0.28,0.13v0c0.17,0.26,0.57,0.88,0.68,1.05c-0.32-0.03-3.67-0.29-3.89-0.31c0.05-0.17,0.22-0.72,0.22-0.72
		c0.43-1.44,0.89-2.25,1.39-2.49C47.61,61.11,48.75,62.87,48.77,62.91L48.77,62.91z M43.28,55.24c0.08-0.01,0.16-0.01,0.24-0.01
		c-0.02,0.02-0.04,0.04-0.06,0.07L43.3,55.5l0-0.17C43.29,55.29,43.29,55.26,43.28,55.24L43.28,55.24z M42.39,55.39
		c0.15-0.04,0.29-0.07,0.44-0.09c-0.02,0.02-0.03,0.03-0.05,0.05l-0.18,0.22L42.39,55.39L42.39,55.39z M38.16,60.53l1.65-1.01
		l0.01-0.51l0.77-0.95l0.04-0.32c0.07-0.56,0.11-1.1,0.15-1.66C39.19,57.06,38.24,58.66,38.16,60.53L38.16,60.53z M39.65,59.85
		c-0.22,0.13-2.52,1.54-2.79,1.7c0.25,0.1,4.27,1.65,4.27,1.65l0.05,0.01c0,0,0.08,0.47,0.09,0.54c0.01-0.01,0.01-0.01,0.02-0.02
		c0-0.01,0-0.03,0-0.03s0,0,0-0.01c0-0.01-0.03-0.27-0.03-0.27c0,0-0.07-4.38-0.07-4.39c0,0,0-0.1,0-0.16
		C40.89,59.26,40.31,60,40.31,60c-0.17,0.21-0.41,0.26-0.52,0.18c-0.11-0.08-0.13-0.21-0.13-0.25
		C39.66,59.93,39.66,59.89,39.65,59.85L39.65,59.85z M41.51,63.74C41.51,63.75,41.51,63.75,41.51,63.74
		C41.5,63.75,41.5,63.75,41.51,63.74L41.51,63.74C41.51,63.74,41.51,63.74,41.51,63.74L41.51,63.74z M41.51,63.53
		c-0.01-0.04-0.02-0.1-0.02-0.22l-0.04-4.85c0-0.04,0-0.09,0-0.13c0-0.07-0.07-0.07-0.15,0.04l-1.16,1.44
		c-0.08,0.1-0.17,0.12-0.19,0.07c-0.01-0.03-0.01-0.08-0.02-0.13l0-0.78l2.88-3.56c0.06-0.08,0.12-0.13,0.17-0.16
		c0.05-0.01,0.09-0.01,0.14-0.02c0.01,0.01,0.01,0.02,0.02,0.03c0.01,0.04,0.03,0.09,0.03,0.17l0.05,5.57
		c0.01,0.31,0.08,0.39,0.32,0.12l0.01,0.15l-1.65,2.03c-0.05,0.05-0.09,0.1-0.14,0.16C41.61,63.62,41.53,63.61,41.51,63.53
		L41.51,63.53z M38.42,64.73c-0.58-0.22-1.03-0.62-1.37-1.06c-0.27-0.66-0.44-1.35-0.51-2.03c0.7,0.27,4.38,1.69,4.48,1.72
		c0.01,0.06,0.09,0.57,0.12,0.73C40.46,64.64,39.45,65.12,38.42,64.73L38.42,64.73z M51.46,57.59c-1.82-4.24-6.72-6.2-10.96-4.38
		c-4.24,1.82-6.2,6.72-4.38,10.96c1.82,4.24,6.72,6.2,10.96,4.38C51.31,66.73,53.28,61.82,51.46,57.59L51.46,57.59z M39.63,56
		L39.63,56l-0.07-0.56l0.16-0.13l0.43,0.53l-0.14,0.11l-0.22-0.28l-0.08-0.1l0,0l0.07,0.57l-0.15,0.12l-0.43-0.53l0.14-0.11
		l0.23,0.28L39.63,56L39.63,56z M38.95,56.68l-0.16-0.54l0.13-0.15l0.51,0.46l-0.12,0.13l-0.26-0.24l-0.09-0.09l0,0l0.15,0.55
		l-0.13,0.14l-0.51-0.46l0.12-0.13l0.27,0.24L38.95,56.68L38.95,56.68L38.95,56.68z M39.14,55.46l0.01-0.09
		c0.07,0.01,0.12-0.02,0.16-0.05c0.03-0.03,0.08-0.07,0.08-0.14l0.09,0.01c0.01,0.07,0,0.16-0.09,0.24
		C39.29,55.5,39.2,55.48,39.14,55.46L39.14,55.46z M44,54.56c-0.08,0-0.16-0.07-0.16-0.23c0-0.16,0.09-0.22,0.17-0.22
		c0.08,0,0.16,0.07,0.16,0.23C44.17,54.5,44.08,54.56,44,54.56L44,54.56z M44.02,53.98c0.2,0.01,0.35,0.14,0.34,0.37
		c-0.01,0.23-0.16,0.35-0.36,0.34c-0.2-0.01-0.35-0.14-0.34-0.36C43.67,54.09,43.82,53.97,44.02,53.98L44.02,53.98z M50.73,60.95
		l-0.59,0.01l-0.01-0.34c0.13,0.07,0.23,0.09,0.47,0.08l0.13,0L50.73,60.95L50.73,60.95z M50.13,60.44
		c0.13,0.08,0.25,0.09,0.48,0.09l0.27-0.01l0.01,0.61l-0.74,0.02l0,0.09l-0.34,0.01l0-0.17l0.19,0l-0.01-0.53l-0.19,0.01l0-0.17
		l0.34-0.01L50.13,60.44L50.13,60.44z M41.47,58.03c-0.23,0.16-1.01,1.19-1.18,1.4l-0.07,0.08c-0.06,0.07-0.08,0.08-0.09-0.05
		l0-0.53l2.72-3.36c0.07-0.09,0.09-0.05,0.1-0.01c0.02,0.04,0.01,0.04,0.01,0.09l0.04,5.59c0,0.25,0.03,0.36,0.15,0.34l-1.19,1.47
		c-0.19,0.23-0.28,0.29-0.28,0.06l-0.03-4.84c0.01-0.06,0.01-0.11,0-0.13C41.65,58.08,41.59,57.94,41.47,58.03L41.47,58.03z
		 M49.97,57.78l-0.67,0.33l-0.08-0.17l0.81-0.4l0.28,0.57l-0.14,0.07L49.97,57.78L49.97,57.78z M50.48,59.19
		c0.02,0.1,0,0.25-0.24,0.31c-0.24,0.06-0.34-0.06-0.36-0.16c-0.02-0.1,0-0.25,0.24-0.31C50.36,58.97,50.45,59.09,50.48,59.19
		L50.48,59.19z M50.07,58.85c0.41-0.1,0.53,0.19,0.56,0.3c0.03,0.12,0.05,0.43-0.35,0.53c-0.41,0.1-0.53-0.19-0.56-0.3
		C49.69,59.27,49.66,58.95,50.07,58.85z"/>
	<path class="st16" d="M41.48,53.41c0.09-0.03,0.14-0.13,0.11-0.22c-0.03-0.09-0.12-0.14-0.22-0.11c-0.09,0.03-0.14,0.13-0.12,0.22
		S41.39,53.44,41.48,53.41L41.48,53.41z M45.98,68.56c-0.03-0.09,0.02-0.19,0.11-0.22c0.09-0.03,0.19,0.02,0.22,0.11
		c0.03,0.09-0.02,0.19-0.12,0.22C46.11,68.7,46.01,68.65,45.98,68.56L45.98,68.56z M42.07,53.08c-0.02-0.09,0.04-0.19,0.14-0.2
		c0.09-0.02,0.19,0.04,0.21,0.14c0.02,0.09-0.04,0.19-0.14,0.21C42.18,53.23,42.09,53.17,42.07,53.08L42.07,53.08z M45.37,68.88
		c0.09-0.02,0.16-0.11,0.14-0.2c-0.02-0.09-0.11-0.16-0.2-0.14c-0.1,0.02-0.16,0.11-0.14,0.2C45.19,68.84,45.28,68.9,45.37,68.88
		L45.37,68.88z M42.89,52.94c-0.01-0.1,0.06-0.18,0.16-0.19c0.1-0.01,0.18,0.06,0.19,0.16c0.01,0.1-0.06,0.18-0.16,0.19
		C42.99,53.11,42.9,53.03,42.89,52.94L42.89,52.94z M44.53,69c0.1-0.01,0.17-0.09,0.16-0.19c-0.01-0.1-0.09-0.17-0.19-0.16
		c-0.1,0.01-0.17,0.09-0.16,0.19C44.35,68.94,44.43,69.01,44.53,69L44.53,69z M43.9,53.07c0.1,0,0.18-0.08,0.18-0.17
		c0-0.1-0.07-0.17-0.17-0.18c-0.1,0-0.17,0.08-0.18,0.17C43.73,52.98,43.8,53.06,43.9,53.07L43.9,53.07z M43.67,69.04
		c0.1,0,0.17-0.08,0.18-0.17c0-0.1-0.08-0.17-0.17-0.18c-0.1,0-0.18,0.08-0.18,0.17C43.5,68.96,43.58,69.03,43.67,69.04L43.67,69.04
		z M44.56,52.93c0.01-0.1,0.1-0.16,0.19-0.15c0.1,0.01,0.16,0.1,0.15,0.19c-0.01,0.1-0.1,0.16-0.19,0.15
		C44.62,53.11,44.55,53.02,44.56,52.93L44.56,52.93z M42.82,68.98c0.09,0.01,0.18-0.06,0.19-0.15c0.01-0.09-0.06-0.18-0.15-0.19
		c-0.1-0.01-0.18,0.06-0.19,0.15C42.66,68.88,42.73,68.97,42.82,68.98L42.82,68.98z M45.52,53.26c0.09,0.02,0.19-0.04,0.21-0.13
		c0.02-0.09-0.04-0.19-0.13-0.21c-0.09-0.02-0.19,0.04-0.21,0.13C45.37,53.14,45.43,53.24,45.52,53.26L45.52,53.26z M41.98,68.83
		c0.09,0.02,0.19-0.04,0.21-0.13c0.02-0.09-0.04-0.19-0.13-0.21c-0.09-0.02-0.19,0.04-0.21,0.13
		C41.83,68.72,41.89,68.81,41.98,68.83L41.98,68.83z M46.2,53.26c0.03-0.09,0.13-0.14,0.22-0.11c0.09,0.03,0.14,0.13,0.11,0.22
		c-0.03,0.09-0.13,0.14-0.22,0.11C46.22,53.45,46.17,53.35,46.2,53.26L46.2,53.26z M41.16,68.6c0.09,0.03,0.19-0.02,0.22-0.11
		c0.03-0.09-0.02-0.19-0.11-0.22c-0.09-0.03-0.19,0.02-0.22,0.11C41.02,68.47,41.07,68.57,41.16,68.6L41.16,68.6z M47.07,53.78
		c0.09,0.04,0.19,0,0.23-0.09c0.04-0.09,0-0.19-0.09-0.23c-0.09-0.04-0.19,0-0.23,0.08C46.94,53.64,46.98,53.74,47.07,53.78
		L47.07,53.78z M40.37,68.28c0.09,0.04,0.19,0,0.23-0.08c0.04-0.09,0-0.19-0.09-0.23c-0.09-0.04-0.19,0-0.23,0.08
		C40.24,68.14,40.28,68.24,40.37,68.28L40.37,68.28z M47.73,53.93c0.05-0.08,0.16-0.11,0.24-0.06c0.08,0.05,0.11,0.16,0.06,0.24
		c-0.05,0.08-0.16,0.11-0.24,0.06C47.71,54.12,47.68,54.01,47.73,53.93L47.73,53.93z M39.61,67.89c0.08,0.05,0.19,0.02,0.24-0.06
		c0.05-0.08,0.02-0.19-0.06-0.24c-0.08-0.05-0.19-0.02-0.24,0.06C39.5,67.73,39.53,67.84,39.61,67.89L39.61,67.89z M48.47,54.62
		c0.08,0.06,0.19,0.04,0.24-0.04c0.06-0.08,0.04-0.19-0.04-0.24c-0.08-0.06-0.19-0.04-0.24,0.04
		C48.38,54.45,48.39,54.56,48.47,54.62L48.47,54.62z M38.87,67.17c0.06-0.08,0.17-0.09,0.24-0.03c0.08,0.06,0.09,0.17,0.04,0.24
		c-0.06,0.08-0.17,0.09-0.24,0.04C38.82,67.35,38.81,67.24,38.87,67.17L38.87,67.17z M49.1,55.14c0.07,0.07,0.18,0.06,0.25-0.01
		c0.06-0.07,0.06-0.18-0.01-0.25c-0.07-0.06-0.18-0.06-0.25,0.01C49.02,54.97,49.03,55.08,49.1,55.14L49.1,55.14z M38.25,66.86
		c0.07,0.06,0.18,0.06,0.25-0.01c0.06-0.07,0.06-0.18-0.01-0.24c-0.07-0.07-0.18-0.06-0.25,0.01C38.17,66.69,38.18,66.8,38.25,66.86
		L38.25,66.86z M49.67,55.73c0.06,0.07,0.17,0.08,0.25,0.02c0.07-0.06,0.08-0.17,0.02-0.25c-0.06-0.07-0.17-0.08-0.24-0.02
		C49.61,55.55,49.6,55.66,49.67,55.73L49.67,55.73z M37.65,66.25c0.06,0.07,0.17,0.08,0.25,0.02c0.07-0.06,0.08-0.17,0.02-0.25
		c-0.06-0.07-0.17-0.08-0.24-0.02C37.59,66.07,37.59,66.18,37.65,66.25L37.65,66.25z M50.17,56.37c0.06,0.08,0.16,0.1,0.24,0.04
		c0.08-0.06,0.1-0.16,0.04-0.24c-0.05-0.08-0.16-0.1-0.24-0.04C50.14,56.19,50.12,56.29,50.17,56.37L50.17,56.37z M37.12,65.58
		c0.05,0.08,0.16,0.1,0.24,0.04c0.08-0.06,0.1-0.16,0.04-0.24c-0.06-0.08-0.16-0.1-0.24-0.04C37.09,65.39,37.07,65.5,37.12,65.58
		L37.12,65.58z M50.61,57.06c0.05,0.09,0.15,0.11,0.24,0.07c0.08-0.05,0.11-0.15,0.07-0.24c-0.05-0.08-0.15-0.11-0.24-0.07
		C50.59,56.87,50.56,56.98,50.61,57.06L50.61,57.06z M36.67,64.86c0.05,0.08,0.15,0.11,0.24,0.07c0.08-0.05,0.11-0.15,0.07-0.24
		c-0.05-0.08-0.15-0.11-0.24-0.07C36.65,64.67,36.62,64.77,36.67,64.86L36.67,64.86z M50.97,57.8c0.04,0.09,0.14,0.13,0.23,0.09
		c0.09-0.04,0.13-0.14,0.09-0.23c-0.04-0.09-0.14-0.13-0.23-0.09C50.97,57.61,50.93,57.71,50.97,57.8L50.97,57.8z M36.29,64.09
		c0.04,0.09,0.14,0.13,0.23,0.09c0.09-0.04,0.13-0.14,0.09-0.23c-0.04-0.09-0.14-0.13-0.23-0.09C36.29,63.9,36.25,64,36.29,64.09
		L36.29,64.09z M51.37,58.35c0.09-0.03,0.19,0.02,0.22,0.11c0.03,0.09-0.02,0.19-0.11,0.22c-0.09,0.03-0.19-0.02-0.22-0.12
		C51.22,58.47,51.28,58.38,51.37,58.35L51.37,58.35z M36,63.29c0.03,0.09,0.13,0.14,0.22,0.11c0.09-0.03,0.14-0.12,0.12-0.22
		c-0.03-0.09-0.13-0.14-0.22-0.12C36.02,63.1,35.97,63.2,36,63.29L36,63.29z M51.45,59.36c0.02,0.09,0.11,0.16,0.21,0.14
		c0.09-0.02,0.15-0.11,0.14-0.21c-0.02-0.09-0.11-0.16-0.2-0.14C51.5,59.17,51.43,59.26,51.45,59.36L51.45,59.36z M35.79,62.46
		c0.02,0.09,0.11,0.16,0.2,0.14c0.09-0.02,0.16-0.11,0.14-0.2c-0.02-0.09-0.11-0.16-0.2-0.14C35.83,62.28,35.77,62.37,35.79,62.46
		L35.79,62.46z M51.57,60.17c0.01,0.1,0.09,0.17,0.19,0.16c0.09-0.01,0.17-0.09,0.16-0.19c-0.01-0.09-0.09-0.17-0.19-0.16
		C51.63,59.99,51.56,60.07,51.57,60.17L51.57,60.17z M35.66,61.62c0.01,0.1,0.09,0.17,0.19,0.16c0.1-0.01,0.17-0.09,0.16-0.19
		c-0.01-0.1-0.09-0.17-0.19-0.16C35.73,61.43,35.66,61.52,35.66,61.62L35.66,61.62z M51.6,60.99c0,0.1,0.08,0.18,0.17,0.18
		c0.1,0,0.17-0.08,0.18-0.17c0-0.1-0.08-0.18-0.17-0.18C51.68,60.81,51.6,60.89,51.6,60.99L51.6,60.99z M35.63,60.76
		c0,0.1,0.07,0.17,0.17,0.18c0.1,0,0.17-0.07,0.18-0.17c0-0.1-0.08-0.18-0.17-0.18C35.71,60.59,35.63,60.67,35.63,60.76L35.63,60.76
		z M51.55,61.8c-0.01,0.1,0.06,0.18,0.15,0.19c0.1,0.01,0.18-0.06,0.19-0.15c0.01-0.09-0.06-0.18-0.15-0.19
		C51.64,61.64,51.56,61.71,51.55,61.8L51.55,61.8z M35.69,59.91c-0.01,0.09,0.06,0.18,0.15,0.19c0.1,0.01,0.18-0.06,0.19-0.15
		c0.01-0.1-0.06-0.18-0.15-0.19C35.79,59.75,35.7,59.81,35.69,59.91L35.69,59.91z M51.41,62.61c-0.02,0.09,0.04,0.19,0.13,0.21
		c0.09,0.02,0.19-0.04,0.21-0.13c0.02-0.09-0.04-0.19-0.13-0.21C51.52,62.45,51.43,62.51,51.41,62.61L51.41,62.61z M35.83,59.07
		c-0.02,0.09,0.04,0.19,0.13,0.21c0.09,0.02,0.19-0.04,0.21-0.13c0.02-0.09-0.04-0.19-0.13-0.21
		C35.95,58.92,35.86,58.97,35.83,59.07L35.83,59.07z M51.18,63.39c-0.03,0.09,0.02,0.19,0.11,0.22c0.09,0.03,0.19-0.02,0.22-0.11
		c0.03-0.09-0.02-0.19-0.11-0.22C51.31,63.25,51.22,63.3,51.18,63.39L51.18,63.39z M36.29,58.14c0.09,0.03,0.14,0.13,0.11,0.22
		c-0.03,0.09-0.13,0.14-0.22,0.11c-0.09-0.03-0.14-0.13-0.11-0.22C36.1,58.16,36.2,58.11,36.29,58.14L36.29,58.14z M50.88,64.15
		c-0.04,0.09,0,0.19,0.08,0.23c0.09,0.04,0.19,0,0.23-0.08c0.04-0.09,0-0.19-0.08-0.23C51.02,64.03,50.92,64.07,50.88,64.15
		L50.88,64.15z M36.38,57.45c-0.04,0.09,0,0.19,0.08,0.23c0.09,0.04,0.19,0,0.23-0.08c0.04-0.09,0-0.19-0.08-0.23
		C36.53,57.33,36.42,57.37,36.38,57.45L36.38,57.45z M50.5,64.88c-0.05,0.08-0.02,0.19,0.06,0.24c0.08,0.05,0.19,0.02,0.24-0.06
		c0.05-0.08,0.02-0.19-0.06-0.24C50.65,64.77,50.55,64.79,50.5,64.88L50.5,64.88z M36.78,56.7c-0.05,0.08-0.02,0.19,0.06,0.24
		c0.08,0.05,0.19,0.02,0.24-0.06c0.05-0.08,0.02-0.19-0.06-0.24C36.94,56.59,36.83,56.62,36.78,56.7L36.78,56.7z M50.04,65.56
		c-0.06,0.08-0.04,0.19,0.04,0.24c0.08,0.06,0.19,0.04,0.24-0.04c0.06-0.08,0.04-0.19-0.03-0.24C50.21,65.46,50.1,65.48,50.04,65.56
		L50.04,65.56z M37.26,55.99c-0.06,0.08-0.04,0.19,0.04,0.24c0.08,0.06,0.19,0.04,0.24-0.03c0.06-0.08,0.04-0.19-0.03-0.24
		C37.42,55.9,37.31,55.91,37.26,55.99L37.26,55.99z M49.52,66.18c-0.06,0.07-0.06,0.18,0.01,0.25c0.07,0.07,0.18,0.06,0.24-0.01
		c0.07-0.07,0.06-0.18-0.01-0.25C49.7,66.11,49.59,66.11,49.52,66.18L49.52,66.18z M37.8,55.33c-0.06,0.07-0.06,0.18,0.01,0.25
		c0.07,0.06,0.18,0.06,0.24-0.01c0.07-0.07,0.06-0.18-0.01-0.25C37.98,55.26,37.87,55.26,37.8,55.33L37.8,55.33z M48.93,66.75
		c-0.07,0.06-0.08,0.17-0.02,0.25c0.06,0.07,0.17,0.08,0.24,0.02c0.07-0.06,0.08-0.17,0.02-0.25C49.12,66.7,49.01,66.69,48.93,66.75
		L48.93,66.75z M38.41,54.74c-0.07,0.06-0.08,0.17-0.02,0.24c0.06,0.07,0.17,0.08,0.24,0.02c0.07-0.06,0.08-0.17,0.02-0.25
		C38.6,54.68,38.49,54.67,38.41,54.74L38.41,54.74z M48.29,67.26c-0.08,0.06-0.1,0.16-0.04,0.24c0.06,0.08,0.16,0.1,0.24,0.04
		c0.08-0.05,0.1-0.16,0.04-0.24C48.48,67.22,48.37,67.2,48.29,67.26L48.29,67.26z M39.09,54.21c-0.08,0.05-0.1,0.16-0.04,0.24
		c0.05,0.08,0.16,0.1,0.24,0.04c0.08-0.06,0.1-0.16,0.04-0.24C39.27,54.17,39.16,54.15,39.09,54.21L39.09,54.21z M47.6,67.7
		c-0.08,0.05-0.11,0.15-0.07,0.24c0.05,0.08,0.15,0.11,0.24,0.07c0.08-0.05,0.11-0.15,0.07-0.24C47.79,67.68,47.68,67.65,47.6,67.7
		L47.6,67.7z M39.81,53.75c-0.08,0.05-0.11,0.15-0.07,0.24c0.05,0.08,0.15,0.11,0.24,0.07c0.08-0.05,0.11-0.15,0.07-0.24
		C40,53.74,39.89,53.71,39.81,53.75L39.81,53.75z M46.87,68.06c-0.09,0.04-0.13,0.14-0.09,0.23c0.04,0.09,0.14,0.13,0.23,0.09
		c0.09-0.04,0.13-0.14,0.09-0.23C47.06,68.06,46.96,68.02,46.87,68.06L46.87,68.06z M40.8,53.47c0.04,0.09,0,0.19-0.09,0.23
		c-0.09,0.04-0.19,0-0.23-0.09c-0.04-0.09,0-0.19,0.09-0.23C40.66,53.34,40.76,53.38,40.8,53.47z"/>
	<path class="st9" d="M37.34,142.62c1.46-0.18,2.42,0.45,2.61,1.96c0.28,2.24-1.49,2.88-2.24,4.64c-0.04,0.09-0.06,0.17-0.08,0.25
		c-0.03,0.08-0.05,0.16-0.05,0.25l2.9-0.36l0.2,1.59l-4.88,0.61l-0.07-0.53c-0.46-3.67,2.57-4.04,2.3-6.2
		c-0.05-0.4-0.16-0.8-0.63-0.74c-0.48,0.06-0.48,0.47-0.43,0.87l0.11,0.85l-1.8,0.22l-0.08-0.67
		C35,143.71,35.63,142.83,37.34,142.62z"/>
	<path class="st9" d="M43.5,149.26c0.24-0.03,0.44-0.15,0.39-0.61l-0.59-4.72c-0.06-0.46-0.28-0.52-0.52-0.49
		c-0.25,0.03-0.44,0.15-0.39,0.61l0.59,4.72C43.03,149.22,43.25,149.29,43.5,149.26L43.5,149.26z M42.59,141.97
		c1.53-0.19,2.48,0.54,2.64,1.86l0.55,4.45c0.16,1.32-0.56,2.26-2.11,2.45c-1.53,0.19-2.48-0.54-2.64-1.86l-0.55-4.45
		C40.32,143.1,41.05,142.16,42.59,141.97z"/>
	<path class="st9" d="M47.45,141.51l1.62-0.2l1.05,8.48l-1.86,0.23l-0.79-6.37l-1.35,0.17l-0.15-1.21
		C46.57,142.51,47.32,142.17,47.45,141.51z"/>
	<path class="st9" d="M53.56,142.09c-0.24,0.03-0.44,0.15-0.39,0.61l0.25,2.05c0.06,0.46,0.28,0.52,0.52,0.49
		c0.25-0.03,0.44-0.15,0.39-0.61l-0.25-2.05C54.03,142.13,53.81,142.06,53.56,142.09L53.56,142.09z M54.47,149.39
		c-1.39,0.17-2.32-0.33-2.51-1.9l1.73-0.21c0.06,0.44,0.22,0.69,0.6,0.64c0.38-0.05,0.48-0.33,0.43-0.77l-0.12-0.96l-0.03-0.02
		c-0.26,0.45-0.5,0.56-1.02,0.63c-1.41,0.18-1.91-0.75-2.07-2.04l-0.21-1.67c-0.16-1.32,0.56-2.26,2.11-2.45
		c1.53-0.19,2.48,0.54,2.64,1.86l0.55,4.45C56.74,148.25,56.02,149.2,54.47,149.39z"/>
</g>
</svg>
