<?xml version="1.0" encoding="utf-8"?>
<!-- Generator: Adobe Illustrator 24.2.0, SVG Export Plug-In . SVG Version: 6.00 Build 0)  -->
<svg version="1.1" id="Layer_1" xmlns="http://www.w3.org/2000/svg" xmlns:xlink="http://www.w3.org/1999/xlink" x="0px" y="0px"
	 viewBox="0 0 94 93.53" style="enable-background:new 0 0 94 93.53;" xml:space="preserve">
<style type="text/css">
	.st0{fill:#FD5F00;}
</style>
<g>
	<g>
		<path class="st0" d="M15.62,32.6h-4.88v-4.03h14.28v4.03h-4.88v12.58h-4.51V32.6z"/>
		<path class="st0" d="M25.18,36.87c0-4.77,3.77-8.64,8.79-8.64s8.74,3.82,8.74,8.64c0,4.77-3.77,8.64-8.79,8.64
			S25.18,41.69,25.18,36.87z M38.1,36.87c0-2.4-1.7-4.48-4.19-4.48c-2.46,0-4.12,2.04-4.12,4.48c0,2.4,1.7,4.48,4.16,4.48
			C36.45,41.35,38.1,39.31,38.1,36.87z"/>
		<path class="st0" d="M44.5,28.57h14.58v16.61h-4.51V32.6h-5.56v12.58H44.5V28.57z"/>
		<path class="st0" d="M60.89,35.78h7.63v3.96h-7.63V35.78z"/>
		<path class="st0" d="M69.65,41.71l6.09-4.75c1.54-1.19,2.09-1.99,2.09-2.99c0-1.04-0.72-1.68-1.81-1.68
			c-1.09,0-1.95,0.64-3.23,2.14l-3.05-2.59c1.74-2.3,3.46-3.56,6.63-3.56c3.56,0,6,2.16,6,5.34c0,2.66-1.33,4.06-3.77,5.81
			l-2.79,1.99h6.72v3.75H69.65V41.71z"/>
	</g>
	<g>
		<path class="st0" d="M71.88,51.76l0.09-0.41c0.01-0.06,0.05-0.11,0.06-0.17c0.04-0.15,0.09-0.31,0.16-0.45
			c0.1-0.19,0.24-0.37,0.39-0.53l0,0c0.02-0.02,0.03-0.05,0.05-0.07l1.25-1.21h-5.23c-0.21,0.4-0.37,0.84-0.49,1.28l0,0
			c-0.03,0.11-0.07,0.23-0.1,0.34l-0.37,1.79c-0.06,0.3-0.19,0.57-0.36,0.82c-0.04,0.06-0.07,0.12-0.11,0.18c0,0,0,0,0,0
			c-0.23,0.29-0.52,0.52-0.87,0.68l-0.75,0.34l-0.93,0.42c-0.72,0.33-1.35,0.79-1.89,1.35c-0.33,0.34-0.63,0.7-0.88,1.1l-0.95,1.55
			c-0.2,0.32-0.47,0.59-0.79,0.78c-0.32,0.19-0.68,0.31-1.06,0.34l-1.83,0.14c-1.25,0.09-2.43,0.54-3.41,1.31l-1.45,1.12
			c-0.6,0.47-1.4,0.61-2.13,0.39l-1.75-0.53c-0.6-0.18-1.21-0.27-1.83-0.27c-0.62,0-1.23,0.09-1.83,0.27l-1.75,0.53
			c-0.55,0.17-1.13,0.12-1.65-0.1c-0.17-0.08-0.33-0.17-0.49-0.29l-1.45-1.12c-0.99-0.76-2.17-1.21-3.41-1.31l-1.83-0.14
			c-0.76-0.06-1.45-0.48-1.84-1.12l-0.95-1.55c-0.66-1.08-1.62-1.93-2.77-2.45L27.07,54c-0.68-0.31-1.18-0.94-1.34-1.67l-0.37-1.79
			c-0.01-0.05-0.03-0.1-0.04-0.15c-0.12-0.52-0.3-1.01-0.54-1.48h-5.23l1.25,1.21c0.02,0.02,0.04,0.05,0.06,0.08
			c0.15,0.16,0.28,0.33,0.38,0.52c0.1,0.19,0.18,0.4,0.23,0.62l0.37,1.79c0.09,0.43,0.24,0.83,0.41,1.22L11.37,81.28l15.2-1.1
			l10.18,11.35l10.28-25.46c0.12,0.02,0.24,0.02,0.35,0.05l0.87,0.26l10.16,25.15L68.6,80.18l15.2,1.1L71.88,51.76z M35.31,83.29
			l-6.89-7.68l-10.29,0.74l7.52-18.63l1.44,0.66c0.43,0.2,0.79,0.51,1.03,0.91l0.95,1.55c1.07,1.73,2.91,2.85,4.94,3l1.83,0.13
			c0.46,0.03,0.9,0.2,1.27,0.49l1.45,1.12c0.98,0.76,2.17,1.16,3.38,1.26L35.31,83.29z M66.75,75.61l-6.89,7.68L53.1,66.54
			c0.62-0.22,1.22-0.53,1.75-0.95l1.45-1.12c0.3-0.23,0.66-0.36,1.03-0.43c0.08-0.02,0.16-0.05,0.25-0.05l0.21-0.02l1.62-0.12
			c2.03-0.15,3.87-1.27,4.94-3l0.95-1.55c0.12-0.2,0.27-0.38,0.45-0.53c0.04-0.03,0.09-0.05,0.13-0.08c0.14-0.11,0.29-0.22,0.46-0.3
			L67.17,58l0.84-0.38c0.42-0.19,0.81-0.44,1.18-0.72l7.86,19.45L66.75,75.61z"/>
		<path class="st0" d="M23.56,24.22c0.72-0.7,1.25-1.55,1.57-2.49c0.09-0.25,0.17-0.51,0.22-0.78l0.37-1.79
			c0.03-0.14,0.08-0.27,0.13-0.4c0.09-0.22,0.19-0.42,0.34-0.6c0.11-0.14,0.25-0.27,0.39-0.39c0.15-0.11,0.3-0.21,0.48-0.29
			l1.05-0.48l0.63-0.29c0.13-0.06,0.25-0.14,0.37-0.2c0.98-0.53,1.81-1.29,2.4-2.24l0.33-0.54l0.62-1.01
			c0.4-0.65,1.09-1.06,1.84-1.12l1.83-0.13c0.28-0.02,0.55-0.07,0.81-0.12c0.13-0.03,0.25-0.06,0.37-0.1
			c0.8-0.22,1.56-0.58,2.23-1.09L41,9.05c0.3-0.23,0.65-0.39,1.02-0.45c0.18-0.03,0.37-0.05,0.56-0.04c0.19,0.01,0.37,0.04,0.56,0.1
			l1.75,0.53c1.2,0.36,2.46,0.36,3.66,0l1.75-0.53c0.73-0.22,1.53-0.07,2.13,0.39l1.45,1.12c0.99,0.76,2.17,1.21,3.41,1.31
			l1.83,0.13c0.76,0.06,1.45,0.48,1.84,1.12l0.95,1.55c0.66,1.08,1.62,1.92,2.77,2.45l1.67,0.76c0.51,0.23,0.92,0.64,1.16,1.15
			c0.08,0.17,0.14,0.34,0.18,0.53l0.37,1.79c0.06,0.27,0.13,0.53,0.22,0.78c0.32,0.94,0.85,1.79,1.57,2.49l1.16,1.13h4.55
			c-0.31-1.01-0.85-1.95-1.63-2.71l-0.77-0.75l-0.54-0.53c-0.34-0.33-0.57-0.75-0.67-1.22l-0.37-1.79
			c-0.41-1.97-1.75-3.65-3.58-4.49l-1.67-0.76c-0.22-0.1-0.41-0.23-0.59-0.38c-0.17-0.15-0.33-0.33-0.45-0.53l-0.95-1.55
			c-1.07-1.73-2.91-2.85-4.94-3L57.57,7.5c-0.46-0.03-0.9-0.2-1.27-0.49l-0.82-0.63L54.85,5.9c-0.4-0.31-0.84-0.57-1.3-0.77
			c-1.37-0.61-2.94-0.72-4.41-0.28l-1.75,0.53c-0.45,0.13-0.92,0.13-1.37,0l-1.75-0.53c-0.95-0.28-1.94-0.33-2.89-0.17
			c-1.01,0.17-1.98,0.58-2.82,1.22l-0.44,0.34l-1.01,0.78c-0.37,0.28-0.81,0.45-1.27,0.49l-1.84,0.14c-2.03,0.15-3.87,1.27-4.94,3
			l-0.96,1.55c-0.12,0.2-0.27,0.38-0.45,0.53c-0.17,0.15-0.37,0.28-0.59,0.38l-0.54,0.25l-1.13,0.52c-1.83,0.84-3.17,2.51-3.58,4.49
			l-0.37,1.79c-0.03,0.14-0.09,0.26-0.14,0.39c-0.12,0.31-0.29,0.6-0.53,0.83l-1.32,1.28c-0.78,0.75-1.32,1.69-1.63,2.71h4.55
			L23.56,24.22z"/>
	</g>
</g>
</svg>
