<?xml version="1.0" encoding="utf-8"?>
<!-- Generator: Adobe Illustrator 24.2.0, SVG Export Plug-In . SVG Version: 6.00 Build 0)  -->
<svg version="1.1" id="Layer_1" xmlns="http://www.w3.org/2000/svg" xmlns:xlink="http://www.w3.org/1999/xlink" x="0px" y="0px"
	 viewBox="0 0 150.53 67.12" style="enable-background:new 0 0 150.53 67.12;" xml:space="preserve">
<style type="text/css">
	.st0{fill:#FFFFFF;}
	.st1{fill:#CF100C;}
	.st2{fill-rule:evenodd;clip-rule:evenodd;fill:#FFFFFF;}
	.st3{fill-rule:evenodd;clip-rule:evenodd;fill:url(#SVGID_1_);}
	.st4{fill-rule:evenodd;clip-rule:evenodd;fill:url(#SVGID_2_);}
	.st5{fill-rule:evenodd;clip-rule:evenodd;fill:url(#SVGID_3_);}
	.st6{fill-rule:evenodd;clip-rule:evenodd;fill:#7D5B09;}
	.st7{fill-rule:evenodd;clip-rule:evenodd;fill:#AE770A;}
	.st8{fill-rule:evenodd;clip-rule:evenodd;fill:#865306;}
	.st9{fill-rule:evenodd;clip-rule:evenodd;fill:#795509;}
	.st10{fill-rule:evenodd;clip-rule:evenodd;fill:url(#SVGID_4_);}
	.st11{fill-rule:evenodd;clip-rule:evenodd;fill:#F7CD79;}
	.st12{fill-rule:evenodd;clip-rule:evenodd;fill:url(#SVGID_5_);}
	.st13{fill-rule:evenodd;clip-rule:evenodd;fill:url(#SVGID_6_);}
	.st14{fill-rule:evenodd;clip-rule:evenodd;fill:url(#SVGID_7_);}
	.st15{fill-rule:evenodd;clip-rule:evenodd;fill:url(#SVGID_8_);}
	.st16{fill-rule:evenodd;clip-rule:evenodd;fill:#EEB115;}
	.st17{fill:#EC761B;stroke:#FFFFFF;stroke-width:2;stroke-miterlimit:10;}
	.st18{fill:#FFFFFF;stroke:#EC761B;stroke-width:4;stroke-miterlimit:10;}
	.st19{fill-rule:evenodd;clip-rule:evenodd;fill:url(#SVGID_9_);}
	.st20{fill-rule:evenodd;clip-rule:evenodd;fill:#7E5B33;}
	.st21{fill-rule:evenodd;clip-rule:evenodd;fill:#F1DFAA;}
	.st22{fill-rule:evenodd;clip-rule:evenodd;fill:#C59A31;}
	.st23{fill-rule:evenodd;clip-rule:evenodd;fill:url(#SVGID_10_);}
	.st24{fill-rule:evenodd;clip-rule:evenodd;fill:url(#SVGID_11_);}
	.st25{fill-rule:evenodd;clip-rule:evenodd;fill:url(#SVGID_12_);}
	.st26{fill-rule:evenodd;clip-rule:evenodd;fill:url(#SVGID_13_);}
	.st27{fill-rule:evenodd;clip-rule:evenodd;fill:url(#SVGID_14_);}
	.st28{fill-rule:evenodd;clip-rule:evenodd;fill:url(#SVGID_15_);}
	.st29{fill-rule:evenodd;clip-rule:evenodd;fill:url(#SVGID_16_);}
	.st30{fill-rule:evenodd;clip-rule:evenodd;fill:url(#SVGID_17_);}
	.st31{fill-rule:evenodd;clip-rule:evenodd;fill:url(#SVGID_18_);}
	.st32{fill-rule:evenodd;clip-rule:evenodd;fill:url(#SVGID_19_);}
	.st33{fill-rule:evenodd;clip-rule:evenodd;fill:url(#SVGID_20_);}
	.st34{fill-rule:evenodd;clip-rule:evenodd;fill:url(#SVGID_21_);}
	.st35{fill-rule:evenodd;clip-rule:evenodd;fill:url(#SVGID_22_);}
	.st36{fill-rule:evenodd;clip-rule:evenodd;fill:url(#SVGID_23_);}
	.st37{fill-rule:evenodd;clip-rule:evenodd;fill:url(#SVGID_24_);}
	.st38{fill-rule:evenodd;clip-rule:evenodd;fill:url(#SVGID_25_);}
	.st39{fill-rule:evenodd;clip-rule:evenodd;fill:url(#SVGID_26_);}
	.st40{fill-rule:evenodd;clip-rule:evenodd;fill:url(#SVGID_27_);}
	.st41{fill-rule:evenodd;clip-rule:evenodd;fill:url(#SVGID_28_);}
	.st42{fill-rule:evenodd;clip-rule:evenodd;fill:url(#SVGID_29_);}
	.st43{fill-rule:evenodd;clip-rule:evenodd;fill:url(#SVGID_30_);}
	.st44{fill-rule:evenodd;clip-rule:evenodd;fill:url(#SVGID_31_);}
	.st45{fill-rule:evenodd;clip-rule:evenodd;fill:url(#SVGID_32_);}
	.st46{fill-rule:evenodd;clip-rule:evenodd;fill:url(#SVGID_33_);}
	.st47{fill-rule:evenodd;clip-rule:evenodd;fill:url(#SVGID_34_);}
	.st48{fill-rule:evenodd;clip-rule:evenodd;fill:url(#SVGID_35_);}
	.st49{fill-rule:evenodd;clip-rule:evenodd;fill:url(#SVGID_36_);}
	.st50{fill-rule:evenodd;clip-rule:evenodd;fill:url(#SVGID_37_);}
	.st51{fill-rule:evenodd;clip-rule:evenodd;fill:url(#SVGID_38_);}
	.st52{fill-rule:evenodd;clip-rule:evenodd;fill:url(#SVGID_39_);}
	.st53{fill-rule:evenodd;clip-rule:evenodd;fill:url(#SVGID_40_);}
	.st54{fill-rule:evenodd;clip-rule:evenodd;fill:url(#SVGID_41_);}
	.st55{fill-rule:evenodd;clip-rule:evenodd;fill:url(#SVGID_42_);}
	.st56{fill-rule:evenodd;clip-rule:evenodd;fill:url(#SVGID_43_);}
	.st57{fill-rule:evenodd;clip-rule:evenodd;fill:url(#SVGID_44_);}
	.st58{fill-rule:evenodd;clip-rule:evenodd;fill:url(#SVGID_45_);}
	.st59{fill-rule:evenodd;clip-rule:evenodd;fill:url(#SVGID_46_);}
	.st60{fill:none;}
	.st61{fill:#DB3327;}
	.st62{fill:#EDE342;}
	.st63{fill:#C1B638;}
	.st64{fill:#2593C9;}
	.st65{fill:url(#SVGID_47_);}
	.st66{fill:#F1B231;}
	.st67{fill:#EA7F28;}
	.st68{fill:url(#SVGID_48_);}
	.st69{fill:url(#SVGID_49_);}
</style>
<g>
	<g>
		<g>
			<g>
				<path class="st60" d="M74.38,13.84c0,0-21.47,34.92-62.34,47.07"/>
				<g>
					<g>
						<path class="st61" d="M9.45,51.35l1.3,4.78l1.3,4.78C37.68,53.62,59.96,36.4,75.4,14.48C57.37,34.5,33.39,48.03,9.45,51.35z"
							/>
					</g>
					<g>
						<path class="st62" d="M15.32,56.17l1.54,4.42L18.4,65c24.51-10.33,44.03-28.76,57-50.52C59.92,34.46,38.65,49.61,15.32,56.17z
							"/>
					</g>
					<g>
						<path class="st63" d="M17.14,57.22c0.32-0.12-0.32,0.2,0.2,1.66c0.53,1.5,0.57,1.54,0.89,1.46
							c0.16,0.08,16.08-5.79,29.21-16.2c13.41-10.01,23.5-23.37,23.45-23.37c0.08,0-10.86,12.96-24.67,22.2
							C32.7,52.6,16.94,57.34,17.14,57.22z"/>
					</g>
					<g>
						<path class="st64" d="M30.55,55.64l-1.54,2.55l1.05,2.07l1.82,3.48c19.32-12.72,33.95-30.02,43.51-49.3
							C64.13,31.62,48.74,45.88,30.55,55.64z"/>
					</g>
				</g>
			</g>
		</g>
		<g>
			<g>
				<g>
					<g>
						<path class="st61" d="M141.35,51.35l-1.3,4.78l-1.3,4.78C113.11,53.62,90.83,36.4,75.4,14.48
							C93.42,34.5,117.4,48.03,141.35,51.35z"/>
					</g>
					<g>
						<path class="st62" d="M135.47,56.17l-1.54,4.42L132.39,65c-24.51-10.33-44.03-28.76-57-50.52
							C90.87,34.46,112.14,49.61,135.47,56.17z"/>
					</g>
					<g>
						<path class="st63" d="M133.65,57.22c-0.32-0.12,0.32,0.2-0.2,1.66c-0.53,1.5-0.57,1.54-0.89,1.46
							c-0.16,0.08-16.08-5.79-29.21-16.2c-13.41-10.01-23.5-23.37-23.45-23.37c-0.08,0,10.86,12.96,24.67,22.2
							C118.09,52.6,133.85,57.34,133.65,57.22z"/>
					</g>
					<g>
						<path class="st64" d="M120.24,55.64l1.54,2.55l-1.05,2.07l-1.82,3.48C99.58,51.02,84.96,33.73,75.4,14.44
							C86.66,31.62,102.05,45.88,120.24,55.64z"/>
					</g>
				</g>
			</g>
		</g>
	</g>
	
		<linearGradient id="SVGID_1_" gradientUnits="userSpaceOnUse" x1="19.777" y1="973.1722" x2="131.0565" y2="973.1722" gradientTransform="matrix(1 0 0 -1 0 995.2772)">
		<stop  offset="0" style="stop-color:#A52223"/>
		<stop  offset="0.15" style="stop-color:#DA2C29"/>
		<stop  offset="0.85" style="stop-color:#DA2C29"/>
		<stop  offset="1" style="stop-color:#A52223"/>
	</linearGradient>
	<path style="fill:url(#SVGID_1_);" d="M120.93,40.17c-29.25-11.59-61.82-11.59-91.07,0c-3.36-8.51-6.72-17.01-10.09-25.52
		c35.73-14.14,75.51-14.14,111.28,0C127.65,23.15,124.29,31.66,120.93,40.17z"/>
	<g>
		<polygon class="st66" points="129.56,37.74 130.98,33.97 133.57,36.24 131.79,38.18 130.53,37.86 		"/>
		<path class="st64" d="M136.12,34.29c-0.85-0.08-1.66-0.24-2.35-0.45l1.3-2.88c0-0.04,0.04-0.04,0.04-0.08l0,0l0,0
			c0.41-1.05-0.81-2.63-2.75-3.12c-3.04-0.81-12.96-2.92-12.96-2.92l-2.31,8.63c0,0,6.89-0.81,11.95,0.53
			c2.63,0.69,3.61,1.62,3.56,2.35l0,0l0,0c-0.04,0.69-0.93,1.17-2.23,1.17c-2.67-0.04,1.05,2.84,8.47-0.32
			c7.41-3.16,8.87-4.01,8.87-4.01S140.09,34.7,136.12,34.29z"/>
		
			<rect x="104.15" y="34.35" transform="matrix(0.2591 -0.9658 0.9658 0.2591 52.4639 138.3421)" class="st67" width="24.51" height="1.26"/>
		<ellipse class="st67" cx="119.57" cy="23.12" rx="1.09" ry="1.09"/>
		
			<rect x="104.55" y="35.45" transform="matrix(0.2596 -0.9657 0.9657 0.2596 51.6619 138.4947)" class="st66" width="23.21" height="0.2"/>
		
			<linearGradient id="SVGID_2_" gradientUnits="userSpaceOnUse" x1="5533.9258" y1="959.0107" x2="5542.1431" y2="959.0107" gradientTransform="matrix(-1 0 0 -1 5671.6738 995.2772)">
			<stop  offset="0.2527" style="stop-color:#2593C9"/>
			<stop  offset="1" style="stop-color:#1D5476"/>
		</linearGradient>
		<path style="fill:url(#SVGID_2_);" d="M130.41,37.49c0.93,0,1.7-0.24,2.03-0.65l0,0l0,0c0.08-0.12,0.16-0.24,0.16-0.41l1.13-2.59
			c0.73,0.2,1.54,0.36,2.35,0.45c0.49,0.04,1.05,0.08,1.62,0.08c-0.28,0.97-0.85,2.75-1.34,3.73
			C130.65,39.72,128.06,37.45,130.41,37.49z"/>
	</g>
	<g>
		<polygon class="st66" points="21.24,37.74 19.82,33.97 17.18,36.24 19.01,38.18 20.26,37.86 		"/>
		<path class="st64" d="M14.67,34.29c0.85-0.08,1.66-0.24,2.35-0.45l-1.3-2.88c0-0.04-0.04-0.04-0.04-0.08l0,0l0,0
			c-0.41-1.05,0.81-2.63,2.75-3.12c3.04-0.81,12.96-2.92,12.96-2.92l2.31,8.63c0,0-6.89-0.81-11.95,0.53
			c-2.63,0.69-3.61,1.62-3.56,2.35l0,0l0,0c0.04,0.69,0.93,1.17,2.23,1.17c2.67-0.04-1.05,2.84-8.47-0.32
			C4.5,34.05,3.05,33.2,3.05,33.2S10.7,34.7,14.67,34.29z"/>
		
			<rect x="33.75" y="22.71" transform="matrix(0.9658 -0.2591 0.2591 0.9658 -7.8843 10.1014)" class="st67" width="1.26" height="24.51"/>
		<ellipse class="st67" cx="31.19" cy="23.11" rx="1.09" ry="1.09"/>
		
			<rect x="34.52" y="23.97" transform="matrix(0.9657 -0.2595 0.2595 0.9657 -8.0455 10.2034)" class="st66" width="0.2" height="23.21"/>
		
			<linearGradient id="SVGID_3_" gradientUnits="userSpaceOnUse" x1="13.041" y1="959.0107" x2="21.2585" y2="959.0107" gradientTransform="matrix(1 0 0 -1 0 995.2772)">
			<stop  offset="0.2527" style="stop-color:#2593C9"/>
			<stop  offset="1" style="stop-color:#1D5476"/>
		</linearGradient>
		<path style="fill:url(#SVGID_3_);" d="M20.38,37.49c-0.93,0-1.7-0.24-2.03-0.65l0,0l0,0c-0.08-0.12-0.16-0.24-0.16-0.41
			l-1.13-2.59c-0.73,0.2-1.54,0.36-2.35,0.45c-0.49,0.04-1.05,0.08-1.62,0.08c0.28,0.97,0.85,2.75,1.34,3.73
			C20.14,39.72,22.73,37.45,20.38,37.49z"/>
	</g>
	<g>
		<g>
			<path class="st0" d="M37.2,21.69c-0.93-3.24-1.42-4.86-2.35-8.14c1.22-0.36,1.78-0.53,3-0.81c1.13-0.28,1.9-0.41,2.35-0.36
				c0.93,0.16,1.46,0.65,1.66,1.42c0.12,0.57,0.04,1.09-0.24,1.58c-0.28,0.45-0.77,0.85-1.38,1.13c0.28,0.28,0.61,0.57,0.93,0.85
				c0.32,0.28,0.73,0.61,1.22,1.01c0.49,0.41,0.85,0.73,1.09,0.93c0.28,0.24,0.41,0.36,0.69,0.61c-0.69,0.12-1.09,0.2-1.22,0.24
				s-0.53,0.16-1.17,0.36c-0.89-0.85-1.34-1.26-2.23-2.11c-0.16-0.12-0.36-0.32-0.65-0.57s-0.49-0.41-0.61-0.53
				c-0.04,0-0.04,0-0.08,0.04c0.41,1.54,0.61,2.31,1.05,3.81c-0.57,0.12-0.89,0.2-1.01,0.2C38.05,21.37,37.72,21.49,37.2,21.69z
				 M37.16,13.63c0.36,1.3,0.53,1.9,0.85,3.2c0.08,0,0.2-0.04,0.36-0.08c1.22-0.32,1.66-1.05,1.38-2.19
				c-0.04-0.2-0.12-0.41-0.24-0.57c-0.16-0.36-0.41-0.57-0.73-0.57c-0.32-0.04-0.73,0-1.22,0.12C37.4,13.55,37.32,13.59,37.16,13.63
				z"/>
			<path class="st0" d="M44.81,16.23c-0.45-1.98-0.65-2.96-1.09-4.9c0.61-0.08,0.97-0.16,1.09-0.16c0.12-0.04,0.49-0.12,1.05-0.28
				c0.28,1.38,0.41,2.07,0.69,3.44c0.24,1.09,0.41,1.86,0.57,2.27c0.12,0.32,0.28,0.57,0.41,0.77c0.12,0.16,0.32,0.32,0.61,0.49
				c0.49,0.28,1.01,0.32,1.66,0.2c0.41-0.08,0.77-0.2,1.05-0.36c0.28-0.16,0.53-0.36,0.69-0.61s0.32-0.57,0.41-0.93
				c0.12-0.41,0.04-1.26-0.16-2.55c-0.24-1.46-0.36-2.23-0.61-3.69c0.2,0,0.41-0.04,0.57-0.04c0.2-0.04,0.41-0.08,0.57-0.12
				c0.28,1.74,0.41,2.59,0.69,4.33c0.08,0.65,0.12,1.17,0.12,1.54c0,0.36-0.08,0.73-0.2,1.13c-0.16,0.41-0.41,0.77-0.81,1.09
				c-0.61,0.53-1.42,0.89-2.43,1.09c-0.61,0.12-1.17,0.16-1.7,0.12c-0.57-0.04-1.05-0.12-1.54-0.36c-0.45-0.2-0.85-0.57-1.09-1.01
				C45.1,17.24,44.93,16.75,44.81,16.23z"/>
			<path class="st0" d="M59.6,10.31c-0.08,0-0.12,0-0.2,0.04c-0.41-0.69-0.97-0.97-1.78-0.89c-1.05,0.12-1.54,0.61-1.42,1.42
				c0.04,0.36,0.2,0.61,0.53,0.73c0.28,0.12,0.85,0.32,1.66,0.57c0.81,0.24,1.42,0.57,1.86,0.89c0.41,0.32,0.65,0.81,0.73,1.46
				c0.04,0.53-0.04,0.97-0.32,1.42c-0.28,0.45-0.65,0.81-1.17,1.09c-0.53,0.28-1.13,0.49-1.82,0.57c-0.85,0.12-1.58,0.04-2.27-0.24
				c0.12-0.65,0.16-1.17,0.16-1.62c0.12,0,0.16-0.04,0.24-0.04c0.16,0.41,0.45,0.69,0.81,0.89c0.36,0.2,0.81,0.24,1.26,0.2
				c0.45-0.04,0.81-0.2,1.09-0.49c0.28-0.24,0.41-0.61,0.36-1.01c-0.04-0.45-0.24-0.73-0.57-0.89c-0.32-0.16-0.85-0.36-1.62-0.57
				c-0.77-0.2-1.34-0.45-1.74-0.77c-0.41-0.28-0.69-0.77-0.77-1.46c-0.04-0.36-0.04-0.69,0.08-1.01c0.08-0.32,0.28-0.65,0.53-0.89
				c0.24-0.28,0.57-0.49,0.97-0.69s0.85-0.32,1.42-0.36c0.49-0.04,0.97-0.04,1.38,0.04c0.45,0.08,0.77,0.16,0.93,0.32
				C59.8,9.38,59.72,9.79,59.6,10.31z"/>
			<path class="st0" d="M66.73,9.7c-0.08,0-0.12,0-0.2,0c-0.36-0.69-0.93-1.01-1.74-0.97c-1.05,0.08-1.54,0.53-1.5,1.34
				c0.04,0.36,0.2,0.61,0.49,0.77c0.28,0.16,0.85,0.36,1.66,0.65s1.42,0.61,1.78,0.97c0.41,0.36,0.61,0.85,0.65,1.5
				c0.04,0.53-0.12,0.97-0.41,1.42c-0.28,0.45-0.69,0.77-1.26,1.05c-0.53,0.28-1.13,0.45-1.82,0.49c-0.85,0.08-1.58-0.04-2.23-0.32
				c0.12-0.65,0.24-1.17,0.24-1.58c0.12,0,0.16,0,0.24-0.04c0.12,0.41,0.41,0.73,0.77,0.93s0.77,0.28,1.26,0.24
				c0.45-0.04,0.81-0.16,1.13-0.41c0.28-0.24,0.45-0.57,0.41-0.97c-0.04-0.45-0.2-0.73-0.53-0.93c-0.32-0.16-0.85-0.41-1.58-0.65
				c-0.73-0.24-1.3-0.53-1.7-0.85c-0.41-0.32-0.65-0.81-0.69-1.5c-0.04-0.36,0-0.69,0.12-1.01c0.12-0.32,0.28-0.61,0.57-0.89
				c0.24-0.24,0.61-0.49,1.01-0.65C63.81,8.12,64.3,8,64.82,7.96c0.49-0.04,0.97,0,1.38,0.08c0.45,0.08,0.73,0.2,0.93,0.36
				C67.01,8.77,66.89,9.18,66.73,9.7z"/>
			<path class="st0" d="M69.73,16.43c-0.12-3.36-0.2-5.06-0.36-8.47c0.61,0,0.97,0.04,1.09,0c0.12,0,0.49-0.04,1.09-0.08
				c0.08,3.36,0.12,5.06,0.24,8.47c-0.57-0.04-0.89-0.04-1.01-0.04C70.62,16.35,70.25,16.39,69.73,16.43z"/>
			<path class="st0" d="M78.68,9.5c-0.08,0-0.12,0-0.2,0c-0.28-0.73-0.85-1.09-1.62-1.09c-1.05,0-1.58,0.41-1.58,1.22
				c0,0.36,0.12,0.61,0.41,0.81c0.28,0.16,0.81,0.45,1.58,0.81c0.77,0.36,1.34,0.73,1.7,1.13c0.36,0.36,0.53,0.89,0.53,1.54
				c0,0.53-0.2,0.97-0.49,1.38c-0.32,0.41-0.77,0.73-1.34,0.93c-0.57,0.24-1.17,0.32-1.86,0.32c-0.85,0-1.58-0.16-2.19-0.53
				c0.2-0.65,0.32-1.17,0.36-1.58c0.12,0,0.16,0,0.28,0c0.12,0.41,0.32,0.77,0.69,0.97c0.32,0.24,0.77,0.36,1.22,0.36
				c0.45,0,0.85-0.12,1.13-0.32c0.32-0.2,0.49-0.53,0.49-0.93c0-0.45-0.12-0.77-0.45-0.97c-0.28-0.2-0.81-0.45-1.54-0.77
				s-1.26-0.65-1.66-0.97c-0.36-0.36-0.57-0.85-0.57-1.54c0-0.36,0.08-0.69,0.2-1.01c0.12-0.32,0.36-0.61,0.65-0.81
				c0.28-0.24,0.65-0.45,1.05-0.57c0.41-0.12,0.89-0.2,1.46-0.2c0.49,0,0.97,0.08,1.38,0.2s0.73,0.28,0.89,0.45
				C79.04,8.57,78.88,8.97,78.68,9.5z"/>
			<path class="st0" d="M88.32,15.42c0.08,0.04,0.12,0.04,0.16,0.08c-0.16,0.41-0.24,0.61-0.41,1.01c-0.81,0.28-1.7,0.36-2.75,0.32
				c-0.73-0.04-1.38-0.2-2.03-0.41c-0.61-0.24-1.13-0.53-1.62-0.93c-0.45-0.41-0.81-0.85-1.05-1.38c-0.24-0.53-0.36-1.09-0.32-1.7
				c0.04-0.77,0.2-1.46,0.53-2.07c0.32-0.57,0.73-1.05,1.3-1.42c0.53-0.36,1.17-0.61,1.86-0.77c0.69-0.16,1.46-0.2,2.27-0.12
				c0.49,0.04,1.01,0.12,1.54,0.28c0.53,0.16,0.97,0.32,1.38,0.57c-0.08,0.16-0.16,0.41-0.24,0.65c-0.08,0.24-0.16,0.45-0.2,0.61
				c-0.08,0-0.12,0-0.2,0c-0.16-0.24-0.36-0.45-0.61-0.65s-0.53-0.36-0.81-0.49c-0.28-0.12-0.61-0.2-0.89-0.2
				c-0.57-0.04-1.09,0.04-1.54,0.2c-0.45,0.2-0.81,0.45-1.09,0.81c-0.28,0.36-0.53,0.73-0.65,1.17c-0.16,0.45-0.24,0.89-0.24,1.38
				c-0.04,0.69,0.08,1.34,0.28,1.9c0.24,0.57,0.57,1.01,1.05,1.34c0.49,0.32,1.05,0.53,1.74,0.57c0.41,0.04,0.85-0.04,1.34-0.16
				C87.55,15.82,87.95,15.62,88.32,15.42z"/>
			<path class="st0" d="M90.14,17.08c0.36-3.36,0.53-5.06,0.89-8.43c0.61,0.12,0.97,0.16,1.09,0.16s0.49,0.04,1.09,0.08
				c-0.16,1.34-0.24,1.98-0.41,3.32c1.22,0.2,1.9,0.32,2.15,0.32c0.24,0.04,0.97,0.12,2.15,0.24c0.2-1.34,0.28-1.98,0.49-3.32
				c0.61,0.12,0.93,0.2,1.05,0.24c0.12,0,0.49,0.04,1.09,0.12c-0.57,3.32-0.85,5.02-1.38,8.34c-0.57-0.12-0.89-0.2-1.01-0.24
				c-0.12,0-0.45-0.04-1.01-0.08c0.24-1.62,0.36-2.43,0.61-4.09c-1.17-0.2-1.9-0.32-2.15-0.36c-0.24-0.04-0.93-0.12-2.15-0.2
				c-0.2,1.62-0.28,2.47-0.49,4.09c-0.57-0.12-0.89-0.16-1.01-0.16C91.03,17.12,90.71,17.12,90.14,17.08z"/>
			<path class="st0" d="M102.09,10.27c2.19,0.41,3.28,0.61,5.43,1.09c-0.12,0.28-0.16,0.45-0.2,0.49c0,0.08-0.04,0.24-0.04,0.53
				c-0.97-0.32-2.07-0.61-3.24-0.85c-0.2,1.05-0.32,1.54-0.53,2.59c0.57,0.12,0.85,0.16,1.46,0.28c0.53,0.12,1.09,0.2,1.74,0.24
				c-0.12,0.24-0.16,0.41-0.2,0.49c0,0.08-0.04,0.24-0.04,0.53c-0.57-0.2-1.13-0.36-1.66-0.49c-0.57-0.12-0.85-0.16-1.46-0.28
				c-0.24,1.22-0.36,1.82-0.61,3.08c1.22,0.24,2.27,0.41,3.16,0.49c-0.12,0.28-0.16,0.45-0.16,0.49c0,0.08-0.04,0.24-0.04,0.53
				c-2.07-0.45-3.08-0.65-5.14-1.05C101.2,15.25,101.48,13.59,102.09,10.27z"/>
			<path class="st0" d="M107.28,19.99c0.77-3.28,1.17-4.94,1.94-8.22c1.22,0.28,1.82,0.45,3.04,0.73c1.13,0.28,1.86,0.57,2.23,0.85
				c0.73,0.57,0.97,1.26,0.73,2.03c-0.16,0.57-0.49,0.97-0.97,1.26c-0.49,0.24-1.09,0.36-1.78,0.32c0.12,0.41,0.28,0.77,0.41,1.17
				c0.16,0.41,0.32,0.89,0.57,1.5c0.2,0.57,0.41,1.01,0.49,1.34c0.12,0.36,0.2,0.53,0.32,0.89c-0.65-0.24-1.05-0.36-1.17-0.41
				s-0.53-0.12-1.22-0.28c-0.36-1.17-0.57-1.74-0.93-2.92c-0.08-0.2-0.16-0.45-0.28-0.81c-0.12-0.32-0.2-0.61-0.28-0.77
				c-0.04,0-0.04,0-0.08-0.04c-0.41,1.54-0.57,2.31-0.97,3.85c-0.57-0.16-0.89-0.28-0.97-0.32
				C108.17,20.16,107.84,20.07,107.28,19.99z M111.17,12.94c-0.32,1.3-0.49,1.9-0.81,3.2c0.08,0.04,0.2,0.04,0.32,0.08
				c1.22,0.32,1.98-0.08,2.27-1.26c0.04-0.2,0.08-0.41,0.08-0.61c0-0.41-0.08-0.69-0.36-0.89c-0.24-0.2-0.65-0.36-1.13-0.49
				C111.41,12.99,111.33,12.99,111.17,12.94z"/>
			<path class="st0" d="M40.44,22.95c0.65,2.47,0.97,3.69,1.62,6.12c0.04,0.16,0.04,0.24,0.08,0.36c0.12,0.49,0.2,0.89,0.24,1.26
				s0,0.69-0.08,0.97c-0.28,0.89-0.93,1.58-1.94,1.98c-0.12-0.2-0.2-0.28-0.32-0.49c0.41-0.24,0.65-0.57,0.65-0.97
				c0.04-0.41-0.08-0.97-0.28-1.7c-0.08-0.28-0.12-0.45-0.2-0.73c-0.73-2.51-1.05-3.81-1.78-6.32c0.57-0.12,0.89-0.2,1.01-0.2
				C39.55,23.23,39.87,23.11,40.44,22.95z"/>
			<path class="st0" d="M48.13,27.12c-1.17,0.24-1.78,0.41-2.96,0.65c-0.04,0.24-0.08,0.53-0.12,0.93
				c-0.04,0.36-0.08,0.73-0.12,1.01c-0.04,0.28-0.04,0.53-0.04,0.77c-0.08,0-0.16,0.04-0.28,0.04c-0.12,0.04-0.24,0.04-0.28,0.04
				c-0.08,0-0.16,0.04-0.28,0.08c-0.12,0.04-0.24,0.08-0.28,0.08c0.57-3.69,0.89-5.51,1.66-9.2c0.16,0,0.36-0.04,0.53-0.08
				c0.16-0.04,0.32-0.08,0.49-0.16c2.19,3.04,3.28,4.58,5.31,7.66c-0.61,0.08-0.97,0.12-1.09,0.16c-0.12,0.04-0.49,0.12-1.05,0.28
				C48.98,28.42,48.5,27.61,48.13,27.12z M45.38,27c0.93-0.2,1.38-0.32,2.31-0.53c-0.69-1.01-1.05-1.54-1.78-2.55
				C45.7,25.14,45.58,25.75,45.38,27z"/>
			<path class="st0" d="M52.95,28.82c-0.61-3.32-0.89-4.98-1.5-8.3c0.57-0.04,0.89-0.08,1.01-0.12c0.12,0,0.45-0.08,1.01-0.24
				c0.2,1.34,0.32,1.98,0.53,3.28c1.13-0.12,1.78-0.2,1.98-0.24c0.2-0.04,0.89-0.16,1.98-0.32c-0.16-1.34-0.24-1.98-0.45-3.32
				c0.57-0.04,0.89-0.04,1.01-0.08c0.12,0,0.45-0.08,1.01-0.16c0.41,3.36,0.61,5.02,0.97,8.39c-0.53,0.04-0.85,0.04-0.93,0.04
				c-0.12,0-0.41,0.08-0.93,0.16c-0.2-1.62-0.32-2.47-0.53-4.09c-1.09,0.12-1.78,0.2-1.98,0.2c-0.2,0.04-0.89,0.16-1.98,0.36
				c0.28,1.62,0.41,2.43,0.65,4.09c-0.53,0.04-0.85,0.08-0.93,0.08C53.76,28.62,53.48,28.7,52.95,28.82z"/>
			<path class="st0" d="M62.6,27.49c-0.32-3.36-0.53-5.06-0.85-8.43c1.13-0.12,1.7-0.16,2.88-0.24c1.09-0.08,1.82-0.04,2.19,0.08
				c0.81,0.32,1.22,0.89,1.26,1.7c0.04,0.61-0.12,1.09-0.49,1.5c-0.36,0.41-0.81,0.69-1.46,0.85c0.24,0.32,0.49,0.65,0.73,1.01
				c0.24,0.32,0.57,0.73,0.93,1.22c0.36,0.49,0.65,0.85,0.81,1.09c0.2,0.28,0.32,0.45,0.53,0.73c-0.65,0-1.01,0-1.13,0
				s-0.49,0.04-1.13,0.12c-0.69-1.01-1.01-1.5-1.7-2.47c-0.12-0.16-0.28-0.36-0.49-0.65c-0.2-0.28-0.36-0.49-0.49-0.65
				c-0.04,0-0.04,0-0.08,0c0.12,1.58,0.2,2.35,0.32,3.93c-0.53,0-0.85,0-0.97,0.04C63.41,27.33,63.12,27.41,62.6,27.49z
				 M63.81,19.55c0.12,1.34,0.16,1.98,0.28,3.28c0.08,0,0.2,0,0.32,0c1.13-0.08,1.7-0.73,1.58-1.9c0-0.2-0.04-0.41-0.12-0.61
				c-0.12-0.36-0.28-0.61-0.57-0.73c-0.28-0.08-0.65-0.12-1.13-0.08C64.05,19.51,63.97,19.55,63.81,19.55z"/>
			<path class="st0" d="M74.99,24.17c0.16-0.28,0.41-0.73,0.73-1.34c0.32-0.61,0.61-1.13,0.85-1.58c0.24-0.45,0.49-0.89,0.77-1.42
				c0.28-0.49,0.53-0.97,0.77-1.46c0.32,0.04,0.49,0.08,0.57,0.08c0.08,0,0.24,0,0.57-0.04c0.08,0.89,0.16,1.74,0.24,2.51
				c0.08,0.77,0.12,1.5,0.2,2.19c0.08,0.65,0.12,1.3,0.2,1.94s0.16,1.26,0.24,1.82c-0.61-0.08-0.93-0.08-1.05-0.08
				c-0.08,0-0.45,0-1.01,0.04c0-0.45-0.04-0.93-0.08-1.42s-0.08-0.97-0.12-1.38s-0.08-0.85-0.12-1.3s-0.08-1.01-0.16-1.66
				c-0.16,0.32-0.41,0.77-0.73,1.34c-0.32,0.57-0.57,1.09-0.77,1.5c-0.2,0.41-0.45,0.89-0.73,1.5c-0.28,0.57-0.49,1.05-0.65,1.34
				c-0.2,0-0.28,0-0.49,0c-0.12-0.28-0.36-0.73-0.65-1.3c-0.32-0.57-0.53-1.05-0.73-1.34c-0.16-0.32-0.45-0.77-0.77-1.42
				c-0.36-0.65-0.61-1.09-0.77-1.42c-0.24,2.43-0.36,4.33-0.36,5.63c-0.32-0.04-0.53-0.04-0.61-0.04c-0.04,0-0.24,0.04-0.57,0.08
				c0.24-1.82,0.57-4.66,1.01-8.51c0.32,0.04,0.49,0.04,0.57,0.04s0.24-0.04,0.57-0.08C72.48,19.55,73.57,21.45,74.99,24.17z"/>
			<path class="st0" d="M85.97,24.69c-1.22-0.08-1.78-0.12-3-0.2c-0.08,0.2-0.2,0.49-0.36,0.85c-0.16,0.36-0.28,0.65-0.41,0.93
				C82.08,26.56,82,26.8,81.92,27c-0.08,0-0.16,0-0.28-0.04c-0.12,0-0.24-0.04-0.28-0.04c-0.08,0-0.16,0-0.28,0
				c-0.12,0-0.24,0-0.32,0c1.58-3.36,2.43-5.02,4.21-8.3c0.16,0.04,0.32,0.04,0.53,0.08c0.16,0,0.32,0,0.53,0
				c1.26,3.52,1.82,5.31,2.88,8.87c-0.61-0.12-0.97-0.16-1.09-0.16s-0.49-0.04-1.09-0.04C86.37,26.11,86.17,25.22,85.97,24.69z
				 M83.38,23.72c0.93,0.04,1.42,0.08,2.35,0.16c-0.36-1.17-0.57-1.78-0.93-2.96C84.19,22.06,83.9,22.63,83.38,23.72z"/>
			<path class="st0" d="M89.94,27.65c0.36-3.36,0.57-5.02,0.93-8.39c1.13,0.12,1.7,0.2,2.84,0.36c1.05,0.16,1.78,0.32,2.15,0.57
				c0.73,0.49,1.01,1.13,0.89,1.9c-0.08,0.57-0.36,1.05-0.77,1.34c-0.41,0.32-0.97,0.49-1.58,0.53c0.16,0.36,0.32,0.73,0.49,1.13
				c0.16,0.36,0.41,0.85,0.65,1.42c0.24,0.57,0.45,0.97,0.57,1.26c0.16,0.32,0.2,0.49,0.36,0.85c-0.61-0.16-1.01-0.2-1.13-0.24
				c-0.12,0-0.49-0.04-1.13-0.12c-0.45-1.09-0.69-1.66-1.13-2.8c-0.08-0.16-0.2-0.45-0.32-0.73c-0.16-0.32-0.24-0.57-0.32-0.73
				c-0.04,0-0.04,0-0.08,0c-0.2,1.58-0.28,2.35-0.49,3.93c-0.53-0.12-0.85-0.16-0.93-0.16C90.79,27.69,90.47,27.65,89.94,27.65z
				 M92.82,20.16c-0.16,1.3-0.24,1.98-0.41,3.28c0.08,0,0.2,0.04,0.32,0.04c1.13,0.16,1.78-0.36,1.98-1.54
				c0.04-0.2,0.04-0.41,0-0.61c-0.04-0.41-0.16-0.65-0.41-0.81s-0.61-0.24-1.09-0.32C93.06,20.2,92.98,20.16,92.82,20.16z"/>
			<path class="st0" d="M97.56,28.74c0.57-3.32,0.89-4.98,1.46-8.34c0.53,0.12,0.89,0.2,0.97,0.24c0.12,0.04,0.45,0.08,1.01,0.12
				c-0.28,1.5-0.45,2.27-0.73,3.81c1.5-1.09,2.88-2.11,4.17-3.08c0.41,0.12,0.61,0.2,0.69,0.2c0.08,0,0.32,0.04,0.73,0.08
				c0,0.04,0,0.04-0.04,0.08c-1.05,0.65-1.58,0.93-2.59,1.62c-0.2,0.12-0.45,0.28-0.81,0.57c-0.36,0.24-0.57,0.41-0.69,0.45
				c1.01,2.15,1.5,3.24,2.39,5.39c0,0.08-0.04,0.08-0.04,0.16c-0.53-0.16-0.81-0.24-0.93-0.28c-0.08-0.04-0.41-0.08-0.93-0.16
				c-0.81-1.78-1.22-2.67-2.11-4.42c-0.28,1.54-0.45,2.31-0.73,3.85c-0.53-0.12-0.81-0.2-0.93-0.24
				C98.32,28.74,98.08,28.78,97.56,28.74z"/>
			<path class="st0" d="M110.64,23.88c-0.77,2.92-1.17,4.38-1.94,7.33c-0.49-0.16-0.81-0.28-0.89-0.28
				c-0.12-0.04-0.41-0.08-0.93-0.16c0.73-2.96,1.09-4.42,1.86-7.37c-0.73-0.16-1.54-0.32-2.47-0.41c0.12-0.28,0.16-0.45,0.2-0.49
				c0-0.04,0.04-0.24,0.04-0.53c2.71,0.65,4.09,0.97,6.77,1.74c-0.12,0.28-0.2,0.41-0.2,0.49c0,0.04-0.04,0.24-0.08,0.53
				C111.94,24.29,111.17,24,110.64,23.88z"/>
		</g>
	</g>
</g>
</svg>
