<?xml version="1.0" encoding="utf-8"?>
<!-- Generator: Adobe Illustrator 24.2.0, SVG Export Plug-In . SVG Version: 6.00 Build 0)  -->
<svg version="1.1" id="Layer_1" xmlns="http://www.w3.org/2000/svg" xmlns:xlink="http://www.w3.org/1999/xlink" x="0px" y="0px"
	 viewBox="0 0 98.3 98.54" style="enable-background:new 0 0 98.3 98.54;" xml:space="preserve">
<style type="text/css">
	.st0{fill:#FD5F00;}
</style>
<g>
	<g>
		<path class="st0" d="M67.62,96.93H30.68c-16.1,0-29.19-13.1-29.19-29.19V30.8c0-16.1,13.1-29.19,29.19-29.19h36.94
			c16.1,0,29.19,13.1,29.19,29.19v36.94C96.81,83.84,83.71,96.93,67.62,96.93z M30.68,5.15C16.54,5.15,5.03,16.66,5.03,30.8v36.94
			c0,14.14,11.51,25.65,25.65,25.65h36.94c14.14,0,25.65-11.51,25.65-25.65V30.8c0-14.14-11.51-25.65-25.65-25.65H30.68z"/>
	</g>
	<path class="st0" d="M30.87,43.6l-1.96-2.52c0,0,11.5-12.67,15.29-7.4s3.45,27.12,8.82,18.86c5.37-8.26,6.25-13.05-0.72-11.78
		c0.13-0.02,0.78-2.23,0.86-2.42c0.77-1.73,1.82-3.41,3.28-4.64c3.04-2.56,8.84-2.54,11.51,0.59c3.46,4.05-0.15,10.63-2.43,14.28
		c-7.74,12.38-16.73,21.21-20.86,17.08c-4.13-4.13-8.37-21.77-9.24-23.38C34.13,39.89,30.87,43.6,30.87,43.6z"/>
</g>
</svg>
